<svg width="1138" height="263" viewBox="0 0 1138 263" fill="none" xmlns="http://www.w3.org/2000/svg">
<path d="M110.32 134.039C108.568 145.819 115.188 156.041 127.357 156.041C136.41 156.138 143.712 151.855 149.456 146.89L147.119 162.466C140.889 166.75 134.269 169.476 125.215 169.476C115.09 169.476 106.913 165.582 101.656 158.962C96.3988 152.439 93.965 143.677 95.4252 134.039C96.9829 124.012 101.948 115.153 109.347 108.728C116.648 102.303 125.994 98.6033 136.508 98.6033C145.172 98.5059 151.111 101.037 156.562 105.613L154.129 121.286C149.942 115.737 144.199 111.941 135.632 111.941C123.463 111.941 112.365 121.578 110.32 134.039ZM161.119 134.039C162.677 124.012 167.641 115.348 174.943 108.825C182.244 102.303 191.59 98.6033 201.812 98.6033C211.937 98.6033 220.017 102.497 225.274 109.02C230.531 115.64 232.77 124.402 231.31 134.039C229.752 143.872 224.885 152.828 217.583 159.351C210.282 165.971 200.936 169.962 190.519 169.962C180.297 169.962 172.217 165.776 167.057 159.059C161.898 152.439 159.853 143.483 161.119 134.039ZM175.624 134.039C173.969 145.819 179.518 156.43 191.98 156.43C204.343 156.43 214.955 146.501 216.804 134.039C218.654 122.162 212.813 111.551 200.449 111.551C187.891 111.551 177.766 121.578 175.624 134.039ZM287.198 142.217L294.5 99.9662H307.837L295.668 171.423L256.435 125.764L249.134 168.113H235.796L247.965 96.6562L287.198 142.217ZM365.048 142.801H346.551L348.498 131.703H381.208C379.748 141.828 375.757 151.271 369.234 158.377C362.614 165.484 353.56 169.962 342.268 169.962C331.851 169.962 323.771 165.971 318.416 159.254C313.062 152.634 310.726 143.775 312.186 134.039C313.841 123.915 318.806 114.958 326.302 108.631C333.701 102.303 343.241 98.6033 353.755 98.6033C366.314 98.5059 375.27 104.542 380.722 114.277L368.163 121.092C365.437 114.861 360.278 111.064 352.392 111.064C339.736 111.064 328.638 121.189 326.594 134.039C324.744 146.793 330.975 157.404 343.728 157.404C354.145 157.404 360.959 151.271 365.048 142.801ZM436.244 133.163C433.031 137.252 428.65 140.173 423.49 141.828L436.828 168.113H421.154L409.861 143.385H403.923L399.639 168.113H386.01L397.595 99.9662H419.499C424.269 99.9662 428.455 100.842 431.863 102.692C438.677 106.294 442.279 113.011 441.014 121.676C440.43 126.057 438.872 129.951 436.244 133.163ZM426.898 122.065C428.066 115.835 423.88 111.843 417.455 111.843H409.277L405.772 132.287H413.171C419.986 132.287 425.73 128.49 426.898 122.065ZM504.447 168.113H489.358L485.171 152.634H462.488L452.948 168.113H437.079L483.224 95.6827L504.447 168.113ZM467.453 141.633H483.808L478.941 122.065L467.453 141.633ZM525.487 112.525H507.574L509.813 99.9662H559.17L556.931 112.525H539.213L529.673 168.113H515.946L525.487 112.525ZM558.452 145.722L566.143 99.9662H579.87L572.082 144.846C571.108 151.952 573.931 157.501 581.33 157.696C587.269 157.696 594.667 150.687 595.641 144.846L603.332 99.9662H617.058L609.27 145.722C608.491 150.687 606.836 154.97 604.208 158.67C599.048 166.068 590.676 170.254 580.065 170.254C575.1 170.254 570.913 169.281 567.506 167.139C560.497 163.05 556.992 155.457 558.452 145.722ZM619.025 168.113L630.707 99.9662H644.434L634.894 155.944H661.276L659.134 168.113H619.025ZM729.669 168.113H714.579L710.393 152.634H687.71L678.17 168.113H662.301L708.446 95.6827L729.669 168.113ZM692.675 141.633H709.03L704.163 122.065L692.675 141.633ZM750.708 112.525H732.796L735.035 99.9662H784.392L782.153 112.525H764.435L754.895 168.113H741.168L750.708 112.525ZM780.267 168.113L791.852 99.9662H805.773L794.091 168.113H780.267ZM810.26 134.039C811.817 124.012 816.782 115.348 824.084 108.825C831.385 102.303 840.731 98.6033 850.953 98.6033C861.078 98.6033 869.158 102.497 874.415 109.02C879.672 115.64 881.911 124.402 880.451 134.039C878.893 143.872 874.025 152.828 866.724 159.351C859.423 165.971 850.077 169.962 839.66 169.962C829.438 169.962 821.358 165.776 816.198 159.059C811.039 152.439 808.994 143.483 810.26 134.039ZM824.765 134.039C823.11 145.819 828.659 156.43 841.12 156.43C853.484 156.43 864.095 146.501 865.945 134.039C867.795 122.162 861.954 111.551 849.59 111.551C837.032 111.551 826.907 121.578 824.765 134.039ZM936.339 142.217L943.641 99.9662H956.978L944.809 171.423L905.576 125.764L898.274 168.113H884.937L897.106 96.6562L936.339 142.217ZM958.211 152.244L968.628 145.235C971.062 150.492 977.779 157.696 983.62 157.696C989.656 157.696 994.329 153.705 994.718 148.642C995.108 142.606 989.461 140.562 982.841 137.641C975.053 134.331 967.265 128.198 967.752 117.976C968.044 114.18 969.31 110.772 971.549 107.852C976.027 102.011 983.426 98.5059 992.09 98.6033C996.081 98.6033 999.489 99.2847 1002.41 100.648C1008.15 103.374 1011.95 108.046 1014.19 113.401L1002.99 119.242C1000.66 114.18 997.152 110.578 990.824 110.578C985.762 110.578 982.16 113.206 981.771 117.49C981.479 122.941 987.904 125.667 994.621 128.393C997.444 129.464 999.975 130.827 1002.21 132.579C1006.69 136.084 1009.42 140.951 1009.03 147.961C1008.74 152.342 1007.28 156.236 1004.84 159.448C999.781 166.068 991.701 169.962 982.841 169.962C978.85 169.865 975.151 169.086 971.938 167.529C965.318 164.413 960.548 158.767 958.211 152.244ZM1023.34 146.501L1028.6 99.9662H1043.98L1033.37 146.501H1023.34ZM1017.69 162.758C1017.69 158.475 1021.1 155.36 1025.68 155.36C1030.25 155.36 1033.66 158.475 1033.66 162.758C1033.66 167.042 1030.25 170.157 1025.68 170.157C1021.1 170.157 1017.69 167.042 1017.69 162.758Z" fill="#585858"/>
<g filter="url(#filter0_d_22_209)">
<mask id="path-2-inside-1_22_209" fill="white">
<path d="M110.32 125.927C108.568 137.706 115.188 147.928 127.357 147.928C136.41 148.026 143.712 143.742 149.456 138.777L147.119 154.354C140.889 158.637 134.269 161.363 125.215 161.363C115.09 161.363 106.913 157.469 101.656 150.849C96.3988 144.326 93.965 135.565 95.4252 125.927C96.9829 115.899 101.948 107.04 109.347 100.615C116.648 94.19 125.994 90.4906 136.508 90.4906C145.172 90.3932 151.111 92.9244 156.562 97.4999L154.129 113.174C149.942 107.625 144.199 103.828 135.632 103.828C123.463 103.828 112.365 113.466 110.32 125.927ZM161.119 125.927C162.677 115.899 167.641 107.235 174.943 100.713C182.244 94.19 191.59 90.4906 201.812 90.4906C211.937 90.4906 220.017 94.3847 225.274 100.907C230.531 107.527 232.77 116.289 231.31 125.927C229.752 135.759 224.885 144.716 217.583 151.238C210.282 157.858 200.936 161.85 190.519 161.85C180.297 161.85 172.217 157.664 167.057 150.946C161.898 144.326 159.853 135.37 161.119 125.927ZM175.624 125.927C173.969 137.706 179.518 148.318 191.98 148.318C204.343 148.318 214.955 138.388 216.804 125.927C218.654 114.05 212.813 103.438 200.449 103.438C187.891 103.438 177.766 113.466 175.624 125.927ZM287.198 134.104L294.5 91.8535H307.837L295.668 163.31L256.435 117.652L249.134 160H235.796L247.965 88.5435L287.198 134.104ZM365.048 134.688H346.551L348.498 123.59H381.208C379.748 133.715 375.757 143.158 369.234 150.265C362.614 157.371 353.56 161.85 342.268 161.85C331.851 161.85 323.771 157.858 318.416 151.141C313.062 144.521 310.726 135.662 312.186 125.927C313.841 115.802 318.806 106.846 326.302 100.518C333.701 94.19 343.241 90.4906 353.755 90.4906C366.314 90.3932 375.27 96.4291 380.722 106.164L368.163 112.979C365.437 106.748 360.278 102.952 352.392 102.952C339.736 102.952 328.638 113.076 326.594 125.927C324.744 138.68 330.975 149.291 343.728 149.291C354.145 149.291 360.959 143.158 365.048 134.688ZM436.244 125.051C433.031 129.139 428.65 132.06 423.49 133.715L436.828 160H421.154L409.861 135.273H403.923L399.639 160H386.01L397.595 91.8535H419.499C424.269 91.8535 428.455 92.7297 431.863 94.5794C438.677 98.1814 442.279 104.899 441.014 113.563C440.43 117.944 438.872 121.838 436.244 125.051ZM426.898 113.952C428.066 107.722 423.88 103.73 417.455 103.73H409.277L405.772 124.174H413.171C419.986 124.174 425.73 120.378 426.898 113.952ZM504.447 160H489.358L485.171 144.521H462.488L452.948 160H437.079L483.224 87.57L504.447 160ZM467.453 133.52H483.808L478.941 113.952L467.453 133.52ZM525.487 104.412H507.574L509.813 91.8535H559.17L556.931 104.412H539.213L529.673 160H515.946L525.487 104.412ZM558.452 137.609L566.143 91.8535H579.87L572.082 136.733C571.108 143.84 573.931 149.389 581.33 149.583C587.269 149.583 594.667 142.574 595.641 136.733L603.332 91.8535H617.058L609.27 137.609C608.491 142.574 606.836 146.857 604.208 150.557C599.048 157.956 590.676 162.142 580.065 162.142C575.1 162.142 570.913 161.168 567.506 159.026C560.497 154.938 556.992 147.344 558.452 137.609ZM619.025 160L630.707 91.8535H644.434L634.894 147.831H661.276L659.134 160H619.025ZM729.669 160H714.579L710.393 144.521H687.71L678.17 160H662.301L708.446 87.57L729.669 160ZM692.675 133.52H709.03L704.163 113.952L692.675 133.52ZM750.708 104.412H732.796L735.035 91.8535H784.392L782.153 104.412H764.435L754.895 160H741.168L750.708 104.412ZM780.267 160L791.852 91.8535H805.773L794.091 160H780.267ZM810.26 125.927C811.817 115.899 816.782 107.235 824.084 100.713C831.385 94.19 840.731 90.4906 850.953 90.4906C861.078 90.4906 869.158 94.3847 874.415 100.907C879.672 107.527 881.911 116.289 880.451 125.927C878.893 135.759 874.025 144.716 866.724 151.238C859.423 157.858 850.077 161.85 839.66 161.85C829.438 161.85 821.358 157.664 816.198 150.946C811.039 144.326 808.994 135.37 810.26 125.927ZM824.765 125.927C823.11 137.706 828.659 148.318 841.12 148.318C853.484 148.318 864.095 138.388 865.945 125.927C867.795 114.05 861.954 103.438 849.59 103.438C837.032 103.438 826.907 113.466 824.765 125.927ZM936.339 134.104L943.641 91.8535H956.978L944.809 163.31L905.576 117.652L898.274 160H884.937L897.106 88.5435L936.339 134.104ZM958.211 144.132L968.628 137.122C971.062 142.379 977.779 149.583 983.62 149.583C989.656 149.583 994.329 145.592 994.718 140.53C995.108 134.494 989.461 132.449 982.841 129.529C975.053 126.219 967.265 120.086 967.752 109.864C968.044 106.067 969.31 102.66 971.549 99.739C976.027 93.8979 983.426 90.3932 992.09 90.4906C996.081 90.4906 999.489 91.1721 1002.41 92.535C1008.15 95.2608 1011.95 99.9337 1014.19 105.288L1002.99 111.129C1000.66 106.067 997.152 102.465 990.824 102.465C985.762 102.465 982.16 105.093 981.771 109.377C981.479 114.829 987.904 117.554 994.621 120.28C997.444 121.351 999.975 122.714 1002.21 124.466C1006.69 127.971 1009.42 132.839 1009.03 139.848C1008.74 144.229 1007.28 148.123 1004.84 151.336C999.781 157.956 991.701 161.85 982.841 161.85C978.85 161.752 975.151 160.974 971.938 159.416C965.318 156.301 960.548 150.654 958.211 144.132ZM1023.34 138.388L1028.6 91.8535H1043.98L1033.37 138.388H1023.34ZM1017.69 154.646C1017.69 150.362 1021.1 147.247 1025.68 147.247C1030.25 147.247 1033.66 150.362 1033.66 154.646C1033.66 158.929 1030.25 162.044 1025.68 162.044C1021.1 162.044 1017.69 158.929 1017.69 154.646Z"/>
</mask>
<path d="M110.32 125.927C108.568 137.706 115.188 147.928 127.357 147.928C136.41 148.026 143.712 143.742 149.456 138.777L147.119 154.354C140.889 158.637 134.269 161.363 125.215 161.363C115.09 161.363 106.913 157.469 101.656 150.849C96.3988 144.326 93.965 135.565 95.4252 125.927C96.9829 115.899 101.948 107.04 109.347 100.615C116.648 94.19 125.994 90.4906 136.508 90.4906C145.172 90.3932 151.111 92.9244 156.562 97.4999L154.129 113.174C149.942 107.625 144.199 103.828 135.632 103.828C123.463 103.828 112.365 113.466 110.32 125.927ZM161.119 125.927C162.677 115.899 167.641 107.235 174.943 100.713C182.244 94.19 191.59 90.4906 201.812 90.4906C211.937 90.4906 220.017 94.3847 225.274 100.907C230.531 107.527 232.77 116.289 231.31 125.927C229.752 135.759 224.885 144.716 217.583 151.238C210.282 157.858 200.936 161.85 190.519 161.85C180.297 161.85 172.217 157.664 167.057 150.946C161.898 144.326 159.853 135.37 161.119 125.927ZM175.624 125.927C173.969 137.706 179.518 148.318 191.98 148.318C204.343 148.318 214.955 138.388 216.804 125.927C218.654 114.05 212.813 103.438 200.449 103.438C187.891 103.438 177.766 113.466 175.624 125.927ZM287.198 134.104L294.5 91.8535H307.837L295.668 163.31L256.435 117.652L249.134 160H235.796L247.965 88.5435L287.198 134.104ZM365.048 134.688H346.551L348.498 123.59H381.208C379.748 133.715 375.757 143.158 369.234 150.265C362.614 157.371 353.56 161.85 342.268 161.85C331.851 161.85 323.771 157.858 318.416 151.141C313.062 144.521 310.726 135.662 312.186 125.927C313.841 115.802 318.806 106.846 326.302 100.518C333.701 94.19 343.241 90.4906 353.755 90.4906C366.314 90.3932 375.27 96.4291 380.722 106.164L368.163 112.979C365.437 106.748 360.278 102.952 352.392 102.952C339.736 102.952 328.638 113.076 326.594 125.927C324.744 138.68 330.975 149.291 343.728 149.291C354.145 149.291 360.959 143.158 365.048 134.688ZM436.244 125.051C433.031 129.139 428.65 132.06 423.49 133.715L436.828 160H421.154L409.861 135.273H403.923L399.639 160H386.01L397.595 91.8535H419.499C424.269 91.8535 428.455 92.7297 431.863 94.5794C438.677 98.1814 442.279 104.899 441.014 113.563C440.43 117.944 438.872 121.838 436.244 125.051ZM426.898 113.952C428.066 107.722 423.88 103.73 417.455 103.73H409.277L405.772 124.174H413.171C419.986 124.174 425.73 120.378 426.898 113.952ZM504.447 160H489.358L485.171 144.521H462.488L452.948 160H437.079L483.224 87.57L504.447 160ZM467.453 133.52H483.808L478.941 113.952L467.453 133.52ZM525.487 104.412H507.574L509.813 91.8535H559.17L556.931 104.412H539.213L529.673 160H515.946L525.487 104.412ZM558.452 137.609L566.143 91.8535H579.87L572.082 136.733C571.108 143.84 573.931 149.389 581.33 149.583C587.269 149.583 594.667 142.574 595.641 136.733L603.332 91.8535H617.058L609.27 137.609C608.491 142.574 606.836 146.857 604.208 150.557C599.048 157.956 590.676 162.142 580.065 162.142C575.1 162.142 570.913 161.168 567.506 159.026C560.497 154.938 556.992 147.344 558.452 137.609ZM619.025 160L630.707 91.8535H644.434L634.894 147.831H661.276L659.134 160H619.025ZM729.669 160H714.579L710.393 144.521H687.71L678.17 160H662.301L708.446 87.57L729.669 160ZM692.675 133.52H709.03L704.163 113.952L692.675 133.52ZM750.708 104.412H732.796L735.035 91.8535H784.392L782.153 104.412H764.435L754.895 160H741.168L750.708 104.412ZM780.267 160L791.852 91.8535H805.773L794.091 160H780.267ZM810.26 125.927C811.817 115.899 816.782 107.235 824.084 100.713C831.385 94.19 840.731 90.4906 850.953 90.4906C861.078 90.4906 869.158 94.3847 874.415 100.907C879.672 107.527 881.911 116.289 880.451 125.927C878.893 135.759 874.025 144.716 866.724 151.238C859.423 157.858 850.077 161.85 839.66 161.85C829.438 161.85 821.358 157.664 816.198 150.946C811.039 144.326 808.994 135.37 810.26 125.927ZM824.765 125.927C823.11 137.706 828.659 148.318 841.12 148.318C853.484 148.318 864.095 138.388 865.945 125.927C867.795 114.05 861.954 103.438 849.59 103.438C837.032 103.438 826.907 113.466 824.765 125.927ZM936.339 134.104L943.641 91.8535H956.978L944.809 163.31L905.576 117.652L898.274 160H884.937L897.106 88.5435L936.339 134.104ZM958.211 144.132L968.628 137.122C971.062 142.379 977.779 149.583 983.62 149.583C989.656 149.583 994.329 145.592 994.718 140.53C995.108 134.494 989.461 132.449 982.841 129.529C975.053 126.219 967.265 120.086 967.752 109.864C968.044 106.067 969.31 102.66 971.549 99.739C976.027 93.8979 983.426 90.3932 992.09 90.4906C996.081 90.4906 999.489 91.1721 1002.41 92.535C1008.15 95.2608 1011.95 99.9337 1014.19 105.288L1002.99 111.129C1000.66 106.067 997.152 102.465 990.824 102.465C985.762 102.465 982.16 105.093 981.771 109.377C981.479 114.829 987.904 117.554 994.621 120.28C997.444 121.351 999.975 122.714 1002.21 124.466C1006.69 127.971 1009.42 132.839 1009.03 139.848C1008.74 144.229 1007.28 148.123 1004.84 151.336C999.781 157.956 991.701 161.85 982.841 161.85C978.85 161.752 975.151 160.974 971.938 159.416C965.318 156.301 960.548 150.654 958.211 144.132ZM1023.34 138.388L1028.6 91.8535H1043.98L1033.37 138.388H1023.34ZM1017.69 154.646C1017.69 150.362 1021.1 147.247 1025.68 147.247C1030.25 147.247 1033.66 150.362 1033.66 154.646C1033.66 158.929 1030.25 162.044 1025.68 162.044C1021.1 162.044 1017.69 158.929 1017.69 154.646Z" fill="url(#paint0_linear_22_209)"/>
<path d="M110.32 125.927L108.319 125.598L108.316 125.613L108.314 125.628L110.32 125.927ZM127.357 147.928L127.379 145.9L127.368 145.9H127.357V147.928ZM149.456 138.777L151.461 139.078L152.274 133.66L148.129 137.243L149.456 138.777ZM147.119 154.354L148.268 156.025L148.994 155.526L149.125 154.654L147.119 154.354ZM101.656 150.849L103.244 149.588L103.239 149.582L103.235 149.576L101.656 150.849ZM95.4252 125.927L93.4211 125.615L93.42 125.623L95.4252 125.927ZM109.347 100.615L110.676 102.147L110.686 102.138L109.347 100.615ZM136.508 90.4906V92.5188H136.519L136.531 92.5186L136.508 90.4906ZM156.562 97.4999L158.567 97.8111L158.742 96.6814L157.866 95.9464L156.562 97.4999ZM154.129 113.174L152.509 114.395L155.397 118.223L156.133 113.485L154.129 113.174ZM110.32 125.927L108.314 125.628C107.373 131.956 108.659 138.017 111.983 142.545C115.337 147.114 120.653 149.957 127.357 149.957V147.928V145.9C121.892 145.9 117.813 143.631 115.253 140.145C112.663 136.616 111.515 131.677 112.326 126.225L110.32 125.927ZM127.357 147.928L127.335 149.956C137.084 150.061 144.851 145.438 150.782 140.312L149.456 138.777L148.129 137.243C142.573 142.046 135.737 145.99 127.379 145.9L127.357 147.928ZM149.456 138.777L147.45 138.476L145.113 154.053L147.119 154.354L149.125 154.654L151.461 139.078L149.456 138.777ZM147.119 154.354L145.97 152.682C140.01 156.78 133.783 159.335 125.215 159.335V161.363V163.391C134.754 163.391 141.767 160.494 148.268 156.025L147.119 154.354ZM125.215 161.363V159.335C115.636 159.335 108.073 155.669 103.244 149.588L101.656 150.849L100.067 152.11C105.752 159.269 114.544 163.391 125.215 163.391V161.363ZM101.656 150.849L103.235 149.576C98.357 143.524 96.0499 135.343 97.4305 126.231L95.4252 125.927L93.42 125.623C91.88 135.787 94.4406 145.129 100.077 152.122L101.656 150.849ZM95.4252 125.927L97.4294 126.238C98.9134 116.684 103.639 108.258 110.676 102.147L109.347 100.615L108.017 99.0839C100.256 105.823 95.0523 115.115 93.4211 125.615L95.4252 125.927ZM109.347 100.615L110.686 102.138C117.62 96.0362 126.49 92.5188 136.508 92.5188V90.4906V88.4624C125.497 88.4624 115.676 92.3438 108.007 99.0926L109.347 100.615ZM136.508 90.4906L136.531 92.5186C144.687 92.427 150.16 94.774 155.259 99.0535L156.562 97.4999L157.866 95.9464C152.062 91.0747 145.658 88.3595 136.485 88.4625L136.508 90.4906ZM156.562 97.4999L154.558 97.1887L152.124 112.862L154.129 113.174L156.133 113.485L158.567 97.8111L156.562 97.4999ZM154.129 113.174L155.748 111.952C151.243 105.981 144.936 101.8 135.632 101.8V103.828V105.856C143.461 105.856 148.642 109.268 152.509 114.395L154.129 113.174ZM135.632 103.828V101.8C122.424 101.8 110.516 112.202 108.319 125.598L110.32 125.927L112.322 126.255C114.213 114.729 124.501 105.856 135.632 105.856V103.828ZM161.119 125.927L159.115 125.615L159.112 125.636L159.109 125.657L161.119 125.927ZM174.943 100.713L176.294 102.225L174.943 100.713ZM225.274 100.907L226.862 99.646L226.858 99.6402L226.853 99.6345L225.274 100.907ZM231.31 125.927L233.313 126.244L233.315 126.231L231.31 125.927ZM217.583 151.238L216.232 149.726L216.226 149.731L216.221 149.736L217.583 151.238ZM167.057 150.946L168.666 149.711L168.661 149.705L168.657 149.699L167.057 150.946ZM175.624 125.927L173.626 125.583L173.62 125.614L173.616 125.645L175.624 125.927ZM216.804 125.927L214.8 125.615L214.799 125.622L214.798 125.629L216.804 125.927ZM161.119 125.927L163.123 126.238C164.605 116.698 169.324 108.451 176.294 102.225L174.943 100.713L173.592 99.2C165.959 106.019 160.748 115.101 159.115 125.615L161.119 125.927ZM174.943 100.713L176.294 102.225C183.229 96.0299 192.096 92.5188 201.812 92.5188V90.4906V88.4624C191.085 88.4624 181.26 92.3501 173.592 99.2L174.943 100.713ZM201.812 90.4906V92.5188C211.385 92.5188 218.86 96.1814 223.695 102.18L225.274 100.907L226.853 99.6345C221.174 92.5879 212.488 88.4624 201.812 88.4624V90.4906ZM225.274 100.907L223.686 102.169C228.556 108.302 230.689 116.482 229.305 125.623L231.31 125.927L233.315 126.231C234.851 116.096 232.506 106.753 226.862 99.646L225.274 100.907ZM231.31 125.927L229.307 125.609C227.821 134.987 223.18 143.519 216.232 149.726L217.583 151.238L218.934 152.751C226.589 145.913 231.683 136.532 233.313 126.244L231.31 125.927ZM217.583 151.238L216.221 149.736C209.264 156.044 200.395 159.822 190.519 159.822V161.85V163.878C201.477 163.878 211.3 159.673 218.945 152.741L217.583 151.238ZM190.519 161.85V159.822C180.892 159.822 173.42 155.901 168.666 149.711L167.057 150.946L165.449 152.182C171.014 159.426 179.703 163.878 190.519 163.878V161.85ZM167.057 150.946L168.657 149.699C163.891 143.584 161.922 135.201 163.129 126.196L161.119 125.927L159.109 125.657C157.784 135.539 159.905 145.069 165.458 152.193L167.057 150.946ZM175.624 125.927L173.616 125.645C172.738 131.895 173.741 138.024 176.819 142.661C179.948 147.376 185.098 150.346 191.98 150.346V148.318V146.29C186.4 146.29 182.545 143.954 180.198 140.418C177.8 136.804 176.856 131.739 177.633 126.209L175.624 125.927ZM191.98 148.318V150.346C205.446 150.346 216.828 139.58 218.811 126.225L216.804 125.927L214.798 125.629C213.081 137.195 203.241 146.29 191.98 146.29V148.318ZM216.804 125.927L218.808 126.239C219.793 119.916 218.761 113.751 215.641 109.099C212.476 104.379 207.282 101.41 200.449 101.41V103.438V105.467C205.98 105.467 209.888 107.803 212.272 111.358C214.702 114.982 215.665 120.06 214.8 125.615L216.804 125.927ZM200.449 103.438V101.41C186.735 101.41 175.904 112.325 173.626 125.583L175.624 125.927L177.623 126.27C179.628 114.607 189.047 105.467 200.449 105.467V103.438ZM287.198 134.104L285.661 135.428L288.465 138.684L289.197 134.45L287.198 134.104ZM294.5 91.8535V89.8253H292.792L292.501 91.5081L294.5 91.8535ZM307.837 91.8535L309.836 92.194L310.24 89.8253H307.837V91.8535ZM295.668 163.31L294.13 164.632L296.943 167.906L297.667 163.65L295.668 163.31ZM256.435 117.652L257.973 116.33L255.168 113.065L254.436 117.307L256.435 117.652ZM249.134 160V162.028H250.842L251.132 160.345L249.134 160ZM235.796 160L233.797 159.66L233.394 162.028H235.796V160ZM247.965 88.5435L249.502 87.2201L246.69 83.9538L245.966 88.2031L247.965 88.5435ZM287.198 134.104L289.197 134.45L296.498 92.1989L294.5 91.8535L292.501 91.5081L285.2 133.759L287.198 134.104ZM294.5 91.8535V93.8817H307.837V91.8535V89.8253H294.5V91.8535ZM307.837 91.8535L305.838 91.513L293.669 162.969L295.668 163.31L297.667 163.65L309.836 92.194L307.837 91.8535ZM295.668 163.31L297.206 161.988L257.973 116.33L256.435 117.652L254.897 118.974L294.13 164.632L295.668 163.31ZM256.435 117.652L254.436 117.307L247.135 159.655L249.134 160L251.132 160.345L258.434 117.996L256.435 117.652ZM249.134 160V157.972H235.796V160V162.028H249.134V160ZM235.796 160L237.796 160.34L249.965 88.884L247.965 88.5435L245.966 88.2031L233.797 159.66L235.796 160ZM247.965 88.5435L246.428 89.867L285.661 135.428L287.198 134.104L288.735 132.781L249.502 87.2201L247.965 88.5435ZM365.048 134.688L366.874 135.57L368.279 132.66H365.048V134.688ZM346.551 134.688L344.553 134.338L344.136 136.717H346.551V134.688ZM348.498 123.59V121.562H346.795L346.5 123.24L348.498 123.59ZM381.208 123.59L383.216 123.88L383.55 121.562H381.208V123.59ZM369.234 150.265L370.718 151.647L370.723 151.642L370.728 151.636L369.234 150.265ZM318.416 151.141L320.002 149.877L319.998 149.871L319.993 149.866L318.416 151.141ZM312.186 125.927L310.184 125.6L310.182 125.613L310.18 125.626L312.186 125.927ZM326.302 100.518L327.61 102.068L327.62 102.059L326.302 100.518ZM353.755 90.4906V92.5188H353.763L353.771 92.5187L353.755 90.4906ZM380.722 106.164L381.689 107.947L383.496 106.967L382.491 105.173L380.722 106.164ZM368.163 112.979L366.305 113.792L367.19 115.815L369.131 114.762L368.163 112.979ZM326.594 125.927L324.591 125.608L324.589 125.622L324.587 125.636L326.594 125.927ZM365.048 134.688V132.66H346.551V134.688V136.717H365.048V134.688ZM346.551 134.688L348.549 135.039L350.496 123.941L348.498 123.59L346.5 123.24L344.553 134.338L346.551 134.688ZM348.498 123.59V125.618H381.208V123.59V121.562H348.498V123.59ZM381.208 123.59L379.201 123.301C377.788 133.099 373.938 142.141 367.74 148.893L369.234 150.265L370.728 151.636C377.576 144.175 381.709 134.331 383.216 123.88L381.208 123.59ZM369.234 150.265L367.75 148.882C361.495 155.597 352.971 159.822 342.268 159.822V161.85V163.878C354.15 163.878 363.733 159.146 370.718 151.647L369.234 150.265ZM342.268 161.85V159.822C332.415 159.822 324.94 156.071 320.002 149.877L318.416 151.141L316.83 152.405C322.602 159.645 331.287 163.878 342.268 163.878V161.85ZM318.416 151.141L319.993 149.866C315.032 143.731 312.807 135.458 314.192 126.228L312.186 125.927L310.18 125.626C308.644 135.866 311.092 145.311 316.839 152.416L318.416 151.141ZM312.186 125.927L314.187 126.254C315.769 116.581 320.503 108.067 327.61 102.068L326.302 100.518L324.994 98.9681C317.108 105.624 311.913 115.024 310.184 125.6L312.186 125.927ZM326.302 100.518L327.62 102.059C334.655 96.0426 343.729 92.5188 353.755 92.5188V90.4906V88.4624C342.753 88.4624 332.746 92.3373 324.984 98.9765L326.302 100.518ZM353.755 90.4906L353.771 92.5187C365.536 92.4275 373.835 98.0173 378.952 107.155L380.722 106.164L382.491 105.173C376.705 94.8409 367.091 88.359 353.739 88.4625L353.755 90.4906ZM380.722 106.164L379.754 104.382L367.196 111.196L368.163 112.979L369.131 114.762L381.689 107.947L380.722 106.164ZM368.163 112.979L370.021 112.166C368.528 108.753 366.325 105.914 363.33 103.936C360.334 101.957 356.67 100.923 352.392 100.923V102.952V104.98C356 104.98 358.859 105.844 361.095 107.321C363.333 108.8 365.072 110.974 366.305 113.792L368.163 112.979ZM352.392 102.952V100.923C338.653 100.923 326.778 111.861 324.591 125.608L326.594 125.927L328.597 126.245C330.499 114.292 340.82 104.98 352.392 104.98V102.952ZM326.594 125.927L324.587 125.636C323.608 132.385 324.736 138.774 328.014 143.541C331.336 148.372 336.726 151.319 343.728 151.319V149.291V147.263C337.976 147.263 333.875 144.905 331.356 141.242C328.793 137.515 327.73 132.222 328.601 126.218L326.594 125.927ZM343.728 149.291V151.319C355.147 151.319 362.557 144.514 366.874 135.57L365.048 134.688L363.222 133.807C359.361 141.802 353.142 147.263 343.728 147.263V149.291ZM436.244 125.051L434.674 123.766L434.661 123.782L434.649 123.798L436.244 125.051ZM423.49 133.715L422.871 131.784L420.605 132.511L421.682 134.633L423.49 133.715ZM436.828 160V162.028H440.131L438.636 159.082L436.828 160ZM421.154 160L419.309 160.843L419.851 162.028H421.154V160ZM409.861 135.273L411.706 134.43L411.165 133.244H409.861V135.273ZM403.923 135.273V133.244H402.216L401.924 134.926L403.923 135.273ZM399.639 160V162.028H401.346L401.638 160.346L399.639 160ZM386.01 160L384.01 159.66L383.608 162.028H386.01V160ZM397.595 91.8535V89.8253H395.882L395.595 91.5136L397.595 91.8535ZM431.863 94.5794L430.895 96.3618L430.905 96.3672L430.915 96.3725L431.863 94.5794ZM441.014 113.563L439.007 113.27L439.005 113.282L439.003 113.295L441.014 113.563ZM426.898 113.952L424.904 113.579L424.902 113.59L426.898 113.952ZM409.277 103.73V101.702H407.567L407.278 103.388L409.277 103.73ZM405.772 124.174L403.773 123.832L403.367 126.203H405.772V124.174ZM436.244 125.051L434.649 123.798C431.709 127.54 427.681 130.241 422.871 131.784L423.49 133.715L424.11 135.646C429.619 133.879 434.353 130.739 437.838 126.304L436.244 125.051ZM423.49 133.715L421.682 134.633L435.019 160.918L436.828 160L438.636 159.082L425.299 132.797L423.49 133.715ZM436.828 160V157.972H421.154V160V162.028H436.828V160ZM421.154 160L422.999 159.157L411.706 134.43L409.861 135.273L408.016 136.115L419.309 160.843L421.154 160ZM409.861 135.273V133.244H403.923V135.273V137.301H409.861V135.273ZM403.923 135.273L401.924 134.926L397.641 159.654L399.639 160L401.638 160.346L405.921 135.619L403.923 135.273ZM399.639 160V157.972H386.01V160V162.028H399.639V160ZM386.01 160L388.009 160.34L399.594 92.1934L397.595 91.8535L395.595 91.5136L384.01 159.66L386.01 160ZM397.595 91.8535V93.8817H419.499V91.8535V89.8253H397.595V91.8535ZM419.499 91.8535V93.8817C424.034 93.8817 427.863 94.716 430.895 96.3618L431.863 94.5794L432.83 92.7969C429.047 90.7433 424.505 89.8253 419.499 89.8253V91.8535ZM431.863 94.5794L430.915 96.3725C436.944 99.5593 440.153 105.425 439.007 113.27L441.014 113.563L443.021 113.856C444.406 104.373 440.411 96.8035 432.81 92.7863L431.863 94.5794ZM441.014 113.563L439.003 113.295C438.462 117.357 437.032 120.885 434.674 123.766L436.244 125.051L437.813 126.335C440.713 122.791 442.398 118.531 443.024 113.831L441.014 113.563ZM426.898 113.952L428.891 114.326C429.577 110.668 428.711 107.42 426.488 105.101C424.306 102.827 421.065 101.702 417.455 101.702V103.73V105.759C420.269 105.759 422.334 106.63 423.56 107.909C424.744 109.144 425.387 111.006 424.904 113.579L426.898 113.952ZM417.455 103.73V101.702H409.277V103.73V105.759H417.455V103.73ZM409.277 103.73L407.278 103.388L403.773 123.832L405.772 124.174L407.771 124.517L411.276 104.073L409.277 103.73ZM405.772 124.174V126.203H413.171V124.174V122.146H405.772V124.174ZM413.171 124.174V126.203C420.704 126.203 427.507 121.942 428.893 114.315L426.898 113.952L424.902 113.59C423.952 118.814 419.268 122.146 413.171 122.146V124.174ZM504.447 160V162.028H507.155L506.393 159.43L504.447 160ZM489.358 160L487.4 160.529L487.805 162.028H489.358V160ZM485.171 144.521L487.129 143.992L486.724 142.493H485.171V144.521ZM462.488 144.521V142.493H461.356L460.762 143.457L462.488 144.521ZM452.948 160V162.028H454.08L454.674 161.064L452.948 160ZM437.079 160L435.369 158.91L433.382 162.028H437.079V160ZM483.224 87.57L485.171 86.9997L483.914 82.7123L481.514 86.4803L483.224 87.57ZM467.453 133.52L465.704 132.493L463.911 135.548H467.453V133.52ZM483.808 133.52V135.548H486.403L485.777 133.031L483.808 133.52ZM478.941 113.952L480.909 113.463L479.709 108.638L477.192 112.926L478.941 113.952ZM504.447 160V157.972H489.358V160V162.028H504.447V160ZM489.358 160L491.315 159.471L487.129 143.992L485.171 144.521L483.214 145.05L487.4 160.529L489.358 160ZM485.171 144.521V142.493H462.488V144.521V146.549H485.171V144.521ZM462.488 144.521L460.762 143.457L451.221 158.936L452.948 160L454.674 161.064L464.215 145.585L462.488 144.521ZM452.948 160V157.972H437.079V160V162.028H452.948V160ZM437.079 160L438.79 161.09L484.935 88.6598L483.224 87.57L481.514 86.4803L435.369 158.91L437.079 160ZM483.224 87.57L481.278 88.1403L502.501 160.57L504.447 160L506.393 159.43L485.171 86.9997L483.224 87.57ZM467.453 133.52V135.548H483.808V133.52V131.492H467.453V133.52ZM483.808 133.52L485.777 133.031L480.909 113.463L478.941 113.952L476.973 114.442L481.84 134.01L483.808 133.52ZM478.941 113.952L477.192 112.926L465.704 132.493L467.453 133.52L469.202 134.547L480.69 114.979L478.941 113.952ZM525.487 104.412L527.486 104.755L527.892 102.384H525.487V104.412ZM507.574 104.412L505.577 104.056L505.152 106.44H507.574V104.412ZM509.813 91.8535V89.8253H508.114L507.816 91.4975L509.813 91.8535ZM559.17 91.8535L561.167 92.2095L561.592 89.8253H559.17V91.8535ZM556.931 104.412V106.44H558.63L558.928 104.768L556.931 104.412ZM539.213 104.412V102.384H537.503L537.214 104.069L539.213 104.412ZM529.673 160V162.028H531.382L531.672 160.343L529.673 160ZM515.946 160L513.947 159.657L513.54 162.028H515.946V160ZM525.487 104.412V102.384H507.574V104.412V106.44H525.487V104.412ZM507.574 104.412L509.57 104.768L511.81 92.2095L509.813 91.8535L507.816 91.4975L505.577 104.056L507.574 104.412ZM509.813 91.8535V93.8817H559.17V91.8535V89.8253H509.813V91.8535ZM559.17 91.8535L557.174 91.4975L554.935 104.056L556.931 104.412L558.928 104.768L561.167 92.2095L559.17 91.8535ZM556.931 104.412V102.384H539.213V104.412V106.44H556.931V104.412ZM539.213 104.412L537.214 104.069L527.674 159.657L529.673 160L531.672 160.343L541.212 104.755L539.213 104.412ZM529.673 160V157.972H515.946V160V162.028H529.673V160ZM515.946 160L517.945 160.343L527.486 104.755L525.487 104.412L523.488 104.069L513.947 159.657L515.946 160ZM558.452 137.609L556.452 137.273L556.449 137.29L556.447 137.308L558.452 137.609ZM566.143 91.8535V89.8253H564.428L564.143 91.5173L566.143 91.8535ZM579.87 91.8535L581.868 92.2003L582.28 89.8253H579.87V91.8535ZM572.082 136.733L570.083 136.386L570.077 136.422L570.072 136.458L572.082 136.733ZM581.33 149.583L581.277 151.611L581.303 151.611H581.33V149.583ZM595.641 136.733L593.642 136.39L593.64 136.399L595.641 136.733ZM603.332 91.8535V89.8253H601.622L601.333 91.511L603.332 91.8535ZM617.058 91.8535L619.058 92.1938L619.461 89.8253H617.058V91.8535ZM609.27 137.609L607.271 137.269L607.269 137.282L607.267 137.295L609.27 137.609ZM604.208 150.557L602.555 149.382L602.549 149.389L602.544 149.397L604.208 150.557ZM567.506 159.026L568.586 157.309L568.557 157.291L568.528 157.275L567.506 159.026ZM558.452 137.609L560.453 137.945L568.143 92.1897L566.143 91.8535L564.143 91.5173L556.452 137.273L558.452 137.609ZM566.143 91.8535V93.8817H579.87V91.8535V89.8253H566.143V91.8535ZM579.87 91.8535L577.872 91.5067L570.083 136.386L572.082 136.733L574.08 137.08L581.868 92.2003L579.87 91.8535ZM572.082 136.733L570.072 136.458C569.546 140.298 570.001 144.012 571.871 146.863C573.802 149.807 577.027 151.499 581.277 151.611L581.33 149.583L581.384 147.556C578.234 147.473 576.348 146.293 575.262 144.638C574.114 142.888 573.644 140.274 574.091 137.008L572.082 136.733ZM581.33 149.583V151.611C585.016 151.611 588.82 149.495 591.716 146.845C594.625 144.184 597.054 140.59 597.642 137.066L595.641 136.733L593.64 136.399C593.254 138.716 591.497 141.548 588.978 143.852C586.448 146.167 583.583 147.555 581.33 147.555V149.583ZM595.641 136.733L597.64 137.075L605.331 92.1961L603.332 91.8535L601.333 91.511L593.642 136.39L595.641 136.733ZM603.332 91.8535V93.8817H617.058V91.8535V89.8253H603.332V91.8535ZM617.058 91.8535L615.059 91.5132L607.271 137.269L609.27 137.609L611.27 137.949L619.058 92.1938L617.058 91.8535ZM609.27 137.609L607.267 137.295C606.53 141.992 604.978 145.971 602.555 149.382L604.208 150.557L605.861 151.732C608.695 147.744 610.453 143.156 611.274 137.923L609.27 137.609ZM604.208 150.557L602.544 149.397C597.814 156.18 590.105 160.114 580.065 160.114V162.142V164.17C591.247 164.17 600.283 159.731 605.872 151.717L604.208 150.557ZM580.065 162.142V160.114C575.358 160.114 571.579 159.191 568.586 157.309L567.506 159.026L566.427 160.744C570.248 163.146 574.842 164.17 580.065 164.17V162.142ZM567.506 159.026L568.528 157.275C562.341 153.666 559.102 146.951 560.458 137.91L558.452 137.609L556.447 137.308C554.882 147.737 558.652 156.21 566.484 160.778L567.506 159.026ZM619.025 160L617.026 159.657L616.62 162.028H619.025V160ZM630.707 91.8535V89.8253H628.997L628.708 91.5108L630.707 91.8535ZM644.434 91.8535L646.433 92.1943L646.837 89.8253H644.434V91.8535ZM634.894 147.831L632.894 147.49L632.49 149.859H634.894V147.831ZM661.276 147.831L663.273 148.183L663.692 145.803H661.276V147.831ZM659.134 160V162.028H660.837L661.132 160.352L659.134 160ZM619.025 160L621.024 160.343L632.706 92.1962L630.707 91.8535L628.708 91.5108L617.026 159.657L619.025 160ZM630.707 91.8535V93.8817H644.434V91.8535V89.8253H630.707V91.8535ZM644.434 91.8535L642.435 91.5128L632.894 147.49L634.894 147.831L636.893 148.172L646.433 92.1943L644.434 91.8535ZM634.894 147.831V149.859H661.276V147.831V145.803H634.894V147.831ZM661.276 147.831L659.279 147.479L657.137 159.648L659.134 160L661.132 160.352L663.273 148.183L661.276 147.831ZM659.134 160V157.972H619.025V160V162.028H659.134V160ZM729.669 160V162.028H732.377L731.615 159.43L729.669 160ZM714.579 160L712.621 160.529L713.027 162.028H714.579V160ZM710.393 144.521L712.351 143.992L711.946 142.493H710.393V144.521ZM687.71 144.521V142.493H686.578L685.984 143.457L687.71 144.521ZM678.17 160V162.028H679.302L679.896 161.064L678.17 160ZM662.301 160L660.591 158.91L658.604 162.028H662.301V160ZM708.446 87.57L710.392 86.9997L709.136 82.7123L706.736 86.4803L708.446 87.57ZM692.675 133.52L690.926 132.493L689.133 135.548H692.675V133.52ZM709.03 133.52V135.548H711.625L710.998 133.031L709.03 133.52ZM704.163 113.952L706.131 113.463L704.931 108.638L702.414 112.926L704.163 113.952ZM729.669 160V157.972H714.579V160V162.028H729.669V160ZM714.579 160L716.537 159.471L712.351 143.992L710.393 144.521L708.435 145.05L712.621 160.529L714.579 160ZM710.393 144.521V142.493H687.71V144.521V146.549H710.393V144.521ZM687.71 144.521L685.984 143.457L676.443 158.936L678.17 160L679.896 161.064L689.437 145.585L687.71 144.521ZM678.17 160V157.972H662.301V160V162.028H678.17V160ZM662.301 160L664.012 161.09L710.157 88.6598L708.446 87.57L706.736 86.4803L660.591 158.91L662.301 160ZM708.446 87.57L706.5 88.1403L727.723 160.57L729.669 160L731.615 159.43L710.392 86.9997L708.446 87.57ZM692.675 133.52V135.548H709.03V133.52V131.492H692.675V133.52ZM709.03 133.52L710.998 133.031L706.131 113.463L704.163 113.952L702.194 114.442L707.062 134.01L709.03 133.52ZM704.163 113.952L702.414 112.926L690.926 132.493L692.675 133.52L694.424 134.547L705.912 114.979L704.163 113.952ZM750.708 104.412L752.707 104.755L753.114 102.384H750.708V104.412ZM732.796 104.412L730.799 104.056L730.374 106.44H732.796V104.412ZM735.035 91.8535V89.8253H733.336L733.038 91.4975L735.035 91.8535ZM784.392 91.8535L786.389 92.2095L786.814 89.8253H784.392V91.8535ZM782.153 104.412V106.44H783.852L784.15 104.768L782.153 104.412ZM764.435 104.412V102.384H762.725L762.436 104.069L764.435 104.412ZM754.895 160V162.028H756.604L756.893 160.343L754.895 160ZM741.168 160L739.169 159.657L738.762 162.028H741.168V160ZM750.708 104.412V102.384H732.796V104.412V106.44H750.708V104.412ZM732.796 104.412L734.792 104.768L737.031 92.2095L735.035 91.8535L733.038 91.4975L730.799 104.056L732.796 104.412ZM735.035 91.8535V93.8817H784.392V91.8535V89.8253H735.035V91.8535ZM784.392 91.8535L782.396 91.4975L780.156 104.056L782.153 104.412L784.15 104.768L786.389 92.2095L784.392 91.8535ZM782.153 104.412V102.384H764.435V104.412V106.44H782.153V104.412ZM764.435 104.412L762.436 104.069L752.896 159.657L754.895 160L756.893 160.343L766.434 104.755L764.435 104.412ZM754.895 160V157.972H741.168V160V162.028H754.895V160ZM741.168 160L743.167 160.343L752.707 104.755L750.708 104.412L748.709 104.069L739.169 159.657L741.168 160ZM780.267 160L778.267 159.66L777.865 162.028H780.267V160ZM791.852 91.8535V89.8253H790.139L789.852 91.5136L791.852 91.8535ZM805.773 91.8535L807.772 92.1962L808.179 89.8253H805.773V91.8535ZM794.091 160V162.028H795.801L796.09 160.343L794.091 160ZM780.267 160L782.266 160.34L793.851 92.1934L791.852 91.8535L789.852 91.5136L778.267 159.66L780.267 160ZM791.852 91.8535V93.8817H805.773V91.8535V89.8253H791.852V91.8535ZM805.773 91.8535L803.774 91.5108L792.092 159.657L794.091 160L796.09 160.343L807.772 92.1962L805.773 91.8535ZM794.091 160V157.972H780.267V160V162.028H794.091V160ZM810.26 125.927L808.256 125.615L808.252 125.636L808.25 125.657L810.26 125.927ZM824.084 100.713L825.435 102.225L824.084 100.713ZM874.415 100.907L876.003 99.646L875.998 99.6402L875.994 99.6345L874.415 100.907ZM880.451 125.927L882.454 126.244L882.456 126.231L880.451 125.927ZM866.724 151.238L865.373 149.726L865.367 149.731L865.362 149.736L866.724 151.238ZM816.198 150.946L817.807 149.711L817.802 149.705L817.798 149.699L816.198 150.946ZM824.765 125.927L822.766 125.583L822.761 125.614L822.757 125.645L824.765 125.927ZM865.945 125.927L863.941 125.615L863.94 125.622L863.939 125.629L865.945 125.927ZM810.26 125.927L812.264 126.238C813.746 116.698 818.465 108.451 825.435 102.225L824.084 100.713L822.733 99.2C815.099 106.019 809.889 115.101 808.256 125.615L810.26 125.927ZM824.084 100.713L825.435 102.225C832.37 96.0299 841.236 92.5188 850.953 92.5188V90.4906V88.4624C840.225 88.4624 830.4 92.3501 822.733 99.2L824.084 100.713ZM850.953 90.4906V92.5188C860.526 92.5188 868.001 96.1814 872.836 102.18L874.415 100.907L875.994 99.6345C870.315 92.5879 861.629 88.4624 850.953 88.4624V90.4906ZM874.415 100.907L872.826 102.169C877.697 108.302 879.83 116.482 878.445 125.623L880.451 125.927L882.456 126.231C883.991 116.096 881.646 106.753 876.003 99.646L874.415 100.907ZM880.451 125.927L878.447 125.609C876.962 134.987 872.321 143.519 865.373 149.726L866.724 151.238L868.075 152.751C875.73 145.913 880.824 136.532 882.454 126.244L880.451 125.927ZM866.724 151.238L865.362 149.736C858.405 156.044 849.536 159.822 839.66 159.822V161.85V163.878C850.618 163.878 860.441 159.673 868.086 152.741L866.724 151.238ZM839.66 161.85V159.822C830.033 159.822 822.561 155.901 817.807 149.711L816.198 150.946L814.59 152.182C820.154 159.426 828.844 163.878 839.66 163.878V161.85ZM816.198 150.946L817.798 149.699C813.031 143.584 811.063 135.201 812.27 126.196L810.26 125.927L808.25 125.657C806.925 135.539 809.046 145.069 814.599 152.193L816.198 150.946ZM824.765 125.927L822.757 125.645C821.879 131.895 822.882 138.024 825.959 142.661C829.089 147.376 834.239 150.346 841.12 150.346V148.318V146.29C835.541 146.29 831.686 143.954 829.339 140.418C826.941 136.804 825.997 131.739 826.774 126.209L824.765 125.927ZM841.12 148.318V150.346C854.587 150.346 865.969 139.58 867.951 126.225L865.945 125.927L863.939 125.629C862.222 137.195 852.381 146.29 841.12 146.29V148.318ZM865.945 125.927L867.949 126.239C868.934 119.916 867.901 113.751 864.782 109.099C861.617 104.379 856.423 101.41 849.59 101.41V103.438V105.467C855.121 105.467 859.029 107.803 861.413 111.358C863.843 114.982 864.806 120.06 863.941 125.615L865.945 125.927ZM849.59 103.438V101.41C835.876 101.41 825.045 112.325 822.766 125.583L824.765 125.927L826.764 126.27C828.769 114.607 838.187 105.467 849.59 105.467V103.438ZM936.339 134.104L934.802 135.428L937.606 138.684L938.338 134.45L936.339 134.104ZM943.641 91.8535V89.8253H941.933L941.642 91.5081L943.641 91.8535ZM956.978 91.8535L958.977 92.194L959.38 89.8253H956.978V91.8535ZM944.809 163.31L943.27 164.632L946.083 167.906L946.808 163.65L944.809 163.31ZM905.576 117.652L907.114 116.33L904.309 113.065L903.577 117.307L905.576 117.652ZM898.274 160V162.028H899.983L900.273 160.345L898.274 160ZM884.937 160L882.938 159.66L882.534 162.028H884.937V160ZM897.106 88.5435L898.643 87.2201L895.83 83.9538L895.107 88.2031L897.106 88.5435ZM936.339 134.104L938.338 134.45L945.639 92.1989L943.641 91.8535L941.642 91.5081L934.341 133.759L936.339 134.104ZM943.641 91.8535V93.8817H956.978V91.8535V89.8253H943.641V91.8535ZM956.978 91.8535L954.978 91.513L942.809 162.969L944.809 163.31L946.808 163.65L958.977 92.194L956.978 91.8535ZM944.809 163.31L946.347 161.988L907.114 116.33L905.576 117.652L904.038 118.974L943.27 164.632L944.809 163.31ZM905.576 117.652L903.577 117.307L896.276 159.655L898.274 160L900.273 160.345L907.575 117.996L905.576 117.652ZM898.274 160V157.972H884.937V160V162.028H898.274V160ZM884.937 160L886.937 160.34L899.106 88.884L897.106 88.5435L895.107 88.2031L882.938 159.66L884.937 160ZM897.106 88.5435L895.569 89.867L934.802 135.428L936.339 134.104L937.876 132.781L898.643 87.2201L897.106 88.5435ZM958.211 144.132L957.079 142.449L955.77 143.33L956.302 144.816L958.211 144.132ZM968.628 137.122L970.469 136.27L969.469 134.112L967.496 135.44L968.628 137.122ZM994.718 140.53L996.741 140.685L996.742 140.673L996.742 140.66L994.718 140.53ZM982.841 129.529L983.66 127.673L983.648 127.668L983.635 127.662L982.841 129.529ZM967.752 109.864L965.73 109.708L965.727 109.738L965.726 109.767L967.752 109.864ZM971.549 99.739L973.158 100.973V100.973L971.549 99.739ZM992.09 90.4906L992.067 92.5186L992.079 92.5188H992.09V90.4906ZM1002.41 92.535L1003.28 90.7026L1003.27 90.6971L1002.41 92.535ZM1014.19 105.288L1015.13 107.086L1016.78 106.224L1016.06 104.506L1014.19 105.288ZM1002.99 111.129L1001.15 111.979L1002.04 113.912L1003.93 112.927L1002.99 111.129ZM981.771 109.377L979.751 109.193L979.747 109.231L979.745 109.268L981.771 109.377ZM994.621 120.28L993.858 122.16L993.88 122.168L993.902 122.177L994.621 120.28ZM1002.21 124.466L1000.96 126.064L1002.21 124.466ZM1009.03 139.848L1011.05 139.983L1011.05 139.972L1011.05 139.961L1009.03 139.848ZM1004.84 151.336L1006.45 152.568L1006.46 152.56L1004.84 151.336ZM982.841 161.85L982.792 163.877L982.817 163.878H982.841V161.85ZM971.938 159.416L972.823 157.591L972.812 157.586L972.802 157.581L971.938 159.416ZM958.211 144.132L959.344 145.814L969.76 138.805L968.628 137.122L967.496 135.44L957.079 142.449L958.211 144.132ZM968.628 137.122L966.788 137.974C968.13 140.875 970.591 144.206 973.485 146.827C976.322 149.398 979.939 151.611 983.62 151.611V149.583V147.555C981.46 147.555 978.798 146.167 976.208 143.821C973.674 141.526 971.559 138.626 970.469 136.27L968.628 137.122ZM983.62 149.583V151.611C990.504 151.611 996.255 147.003 996.741 140.685L994.718 140.53L992.696 140.374C992.403 144.18 988.809 147.555 983.62 147.555V149.583ZM994.718 140.53L996.742 140.66C996.862 138.809 996.518 137.169 995.748 135.722C994.989 134.296 993.876 133.169 992.62 132.234C990.194 130.429 986.835 129.074 983.66 127.673L982.841 129.529L982.023 131.384C985.467 132.904 988.242 134.032 990.197 135.488C991.132 136.183 991.771 136.882 992.167 137.628C992.554 138.353 992.77 139.233 992.694 140.399L994.718 140.53ZM982.841 129.529L983.635 127.662C976.071 124.448 969.354 118.858 969.778 109.96L967.752 109.864L965.726 109.767C965.176 121.313 974.035 127.99 982.048 131.395L982.841 129.529ZM967.752 109.864L969.774 110.019C970.038 106.593 971.171 103.565 973.158 100.973L971.549 99.739L969.939 98.505C967.448 101.754 966.05 105.541 965.73 109.708L967.752 109.864ZM971.549 99.739L973.158 100.973C977.204 95.6963 983.966 92.4276 992.067 92.5186L992.09 90.4906L992.113 88.4625C982.886 88.3589 974.85 92.0995 969.939 98.505L971.549 99.739ZM992.09 90.4906V92.5188C995.85 92.5188 998.953 93.1601 1001.55 94.3729L1002.41 92.535L1003.27 90.6971C1000.02 89.184 996.313 88.4624 992.09 88.4624V90.4906ZM1002.41 92.535L1001.54 94.3673C1006.75 96.8401 1010.23 101.087 1012.32 106.071L1014.19 105.288L1016.06 104.506C1013.67 98.7802 1009.56 93.6816 1003.28 90.7027L1002.41 92.535ZM1014.19 105.288L1013.25 103.49L1002.06 109.331L1002.99 111.129L1003.93 112.927L1015.13 107.086L1014.19 105.288ZM1002.99 111.129L1004.83 110.279C1003.59 107.581 1001.96 105.104 999.656 103.302C997.314 101.469 994.408 100.437 990.824 100.437V102.465V104.493C993.568 104.493 995.578 105.262 997.156 106.496C998.771 107.76 1000.06 109.615 1001.15 111.979L1002.99 111.129ZM990.824 102.465V100.437C987.956 100.437 985.332 101.181 983.324 102.695C981.284 104.233 979.997 106.484 979.751 109.193L981.771 109.377L983.79 109.561C983.934 107.987 984.643 106.781 985.766 105.934C986.922 105.063 988.63 104.493 990.824 104.493V102.465ZM981.771 109.377L979.745 109.268C979.546 112.991 981.717 115.612 984.396 117.507C987.033 119.371 990.552 120.818 993.858 122.16L994.621 120.28L995.384 118.401C991.973 117.017 988.92 115.738 986.738 114.195C984.599 112.682 983.703 111.215 983.796 109.485L981.771 109.377ZM994.621 120.28L993.902 122.177C996.566 123.187 998.911 124.457 1000.96 126.064L1002.21 124.466L1003.46 122.869C1001.04 120.972 998.323 119.515 995.34 118.384L994.621 120.28ZM1002.21 124.466L1000.96 126.064C1004.96 129.187 1007.35 133.433 1007 139.736L1009.03 139.848L1011.05 139.961C1011.48 132.245 1008.43 126.755 1003.46 122.869L1002.21 124.466ZM1009.03 139.848L1007.01 139.713C1006.74 143.715 1005.41 147.227 1003.23 150.111L1004.84 151.336L1006.46 152.56C1009.14 149.019 1010.74 144.743 1011.05 139.983L1009.03 139.848ZM1004.84 151.336L1003.23 150.104C998.576 156.193 991.106 159.822 982.841 159.822V161.85V163.878C992.295 163.878 1000.99 159.719 1006.45 152.568L1004.84 151.336ZM982.841 161.85L982.891 159.822C979.127 159.73 975.724 158.998 972.823 157.591L971.938 159.416L971.053 161.241C974.577 162.949 978.573 163.774 982.792 163.877L982.841 161.85ZM971.938 159.416L972.802 157.581C966.705 154.712 962.289 149.501 960.121 143.448L958.211 144.132L956.302 144.816C958.807 151.807 963.931 157.889 971.074 161.251L971.938 159.416ZM1023.34 138.388L1021.33 138.16L1021.07 140.416H1023.34V138.388ZM1028.6 91.8535V89.8253H1026.79L1026.58 91.6258L1028.6 91.8535ZM1043.98 91.8535L1045.96 92.3044L1046.52 89.8253H1043.98V91.8535ZM1033.37 138.388V140.416H1034.99L1035.35 138.839L1033.37 138.388ZM1023.34 138.388L1025.36 138.616L1030.61 92.0812L1028.6 91.8535L1026.58 91.6258L1021.33 138.16L1023.34 138.388ZM1028.6 91.8535V93.8817H1043.98V91.8535V89.8253H1028.6V91.8535ZM1043.98 91.8535L1042 91.4026L1031.39 137.937L1033.37 138.388L1035.35 138.839L1045.96 92.3044L1043.98 91.8535ZM1033.37 138.388V136.36H1023.34V138.388V140.416H1033.37V138.388ZM1017.69 154.646H1019.72C1019.72 151.632 1022.07 149.275 1025.68 149.275V147.247V145.219C1020.14 145.219 1015.67 149.092 1015.67 154.646H1017.69ZM1025.68 147.247V149.275C1029.29 149.275 1031.63 151.632 1031.63 154.646H1033.66H1035.69C1035.69 149.092 1031.22 145.219 1025.68 145.219V147.247ZM1033.66 154.646H1031.63C1031.63 157.659 1029.29 160.016 1025.68 160.016V162.044V164.073C1031.22 164.073 1035.69 160.199 1035.69 154.646H1033.66ZM1025.68 162.044V160.016C1022.07 160.016 1019.72 157.659 1019.72 154.646H1017.69H1015.67C1015.67 160.199 1020.14 164.073 1025.68 164.073V162.044Z" fill="white" mask="url(#path-2-inside-1_22_209)"/>
</g>
<g filter="url(#filter1_f_22_209)">
<rect x="104.595" y="128.386" width="944.274" height="12.169" transform="rotate(-1.49081 104.595 128.386)" fill="#0B0B0D"/>
</g>
<defs>
<filter id="filter0_d_22_209" x="0.669067" y="0.358738" width="1136.61" height="262.332" filterUnits="userSpaceOnUse" color-interpolation-filters="sRGB">
<feFlood flood-opacity="0" result="BackgroundImageFix"/>
<feColorMatrix in="SourceAlpha" type="matrix" values="0 0 0 0 0 0 0 0 0 0 0 0 0 0 0 0 0 0 127 0" result="hardAlpha"/>
<feOffset dy="6.08451"/>
<feGaussianBlur stdDeviation="46.6479"/>
<feComposite in2="hardAlpha" operator="out"/>
<feColorMatrix type="matrix" values="0 0 0 0 1 0 0 0 0 1 0 0 0 0 1 0 0 0 0.35 0"/>
<feBlend mode="normal" in2="BackgroundImageFix" result="effect1_dropShadow_22_209"/>
<feBlend mode="normal" in="SourceGraphic" in2="effect1_dropShadow_22_209" result="shape"/>
</filter>
<filter id="filter1_f_22_209" x="86.3412" y="85.5661" width="980.779" height="73.2389" filterUnits="userSpaceOnUse" color-interpolation-filters="sRGB">
<feFlood flood-opacity="0" result="BackgroundImageFix"/>
<feBlend mode="normal" in="SourceGraphic" in2="BackgroundImageFix" result="shape"/>
<feGaussianBlur stdDeviation="9.12676" result="effect1_foregroundBlur_22_209"/>
</filter>
<linearGradient id="paint0_linear_22_209" x1="566" y1="58" x2="566" y2="194" gradientUnits="userSpaceOnUse">
<stop offset="0.144311" stop-color="white"/>
<stop offset="0.703631" stop-color="#B4B4B4"/>
</linearGradient>
</defs>
</svg>
