<svg width="560" height="96" viewBox="0 0 560 96" fill="none" xmlns="http://www.w3.org/2000/svg">
<g clip-path="url(#clip0_2_2109)">
<rect width="560" height="96" rx="16" fill="url(#paint0_linear_2_2109)"/>
<g filter="url(#filter0_d_2_2109)">
<mask id="path-3-inside-1_2_2109" fill="white">
<path d="M136.754 62V55.72H150.874V62H136.754ZM136.754 40.28V34H150.874V40.28H136.754ZM136.754 50.48V44.4H150.074V50.48H136.754ZM131.474 34H138.914V62H131.474V34ZM174.999 34H182.439V63.4L163.679 47.76V62H156.239V32.6L174.999 48.24V34ZM193.473 62V55.72H207.593V62H193.473ZM193.473 40.28V34H207.593V40.28H193.473ZM193.473 50.48V44.4H206.793V50.48H193.473ZM188.193 34H195.633V62H188.193V34ZM220.558 49.64H228.518L236.918 62H227.878L220.558 49.64ZM212.958 34H220.718V62H212.958V34ZM217.918 40.56V34H223.958C226.518 34 228.625 34.4 230.278 35.2C231.958 36 233.198 37.1067 233.998 38.52C234.825 39.9067 235.238 41.52 235.238 43.36C235.238 45.1733 234.825 46.8 233.998 48.24C233.198 49.6533 231.958 50.76 230.278 51.56C228.625 52.3333 226.518 52.72 223.958 52.72H217.918V46.84H223.318C224.145 46.84 224.838 46.72 225.398 46.48C225.958 46.24 226.385 45.88 226.678 45.4C226.998 44.92 227.158 44.3467 227.158 43.68C227.158 43.0133 226.998 42.4533 226.678 42C226.385 41.52 225.958 41.16 225.398 40.92C224.838 40.68 224.145 40.56 223.318 40.56H217.918ZM253.992 52.12V46.36H268.512C268.699 48.6533 268.499 50.8133 267.912 52.84C267.326 54.8667 266.406 56.64 265.152 58.16C263.899 59.68 262.326 60.88 260.432 61.76C258.539 62.6133 256.366 63.04 253.912 63.04C251.646 63.04 249.552 62.68 247.632 61.96C245.739 61.24 244.086 60.2267 242.672 58.92C241.286 57.5867 240.206 56 239.432 54.16C238.659 52.2933 238.272 50.24 238.272 48C238.272 45.76 238.672 43.7333 239.472 41.92C240.272 40.1067 241.392 38.56 242.832 37.28C244.272 35.9733 245.966 34.9867 247.912 34.32C249.859 33.6267 251.966 33.28 254.232 33.28C256.286 33.28 258.112 33.5867 259.712 34.2C261.339 34.7867 262.766 35.6 263.992 36.64C265.219 37.6533 266.286 38.8133 267.192 40.12L260.112 43.52C259.552 42.5067 258.806 41.6533 257.872 40.96C256.939 40.2667 255.726 39.92 254.232 39.92C252.819 39.92 251.512 40.2267 250.312 40.84C249.112 41.4533 248.152 42.36 247.432 43.56C246.739 44.76 246.392 46.24 246.392 48C246.392 49.7333 246.726 51.24 247.392 52.52C248.059 53.7733 248.979 54.7333 250.152 55.4C251.326 56.0667 252.686 56.4 254.232 56.4C255.166 56.4 255.992 56.3067 256.712 56.12C257.432 55.9067 258.059 55.6133 258.592 55.24C259.126 54.84 259.579 54.3733 259.952 53.84C260.352 53.3067 260.672 52.7333 260.912 52.12H253.992ZM272.919 34H280.839V62H272.919V34ZM304.343 48.32V45.08H308.863C309.583 45.08 310.183 44.9733 310.663 44.76C311.143 44.5467 311.503 44.24 311.743 43.84C312.01 43.44 312.143 42.96 312.143 42.4C312.143 41.5467 311.863 40.92 311.303 40.52C310.77 40.12 309.956 39.92 308.863 39.92H306.343V56.08H309.583C310.356 56.08 311.05 56 311.663 55.84C312.303 55.68 312.81 55.3867 313.183 54.96C313.556 54.5067 313.743 53.8667 313.743 53.04C313.743 52.5067 313.636 52.0667 313.423 51.72C313.21 51.3733 312.903 51.0933 312.503 50.88C312.13 50.6667 311.69 50.52 311.183 50.44C310.703 50.36 310.17 50.32 309.583 50.32H304.343V46.08H310.543C311.903 46.08 313.25 46.24 314.583 46.56C315.916 46.8533 317.13 47.3333 318.223 48C319.316 48.64 320.183 49.48 320.823 50.52C321.49 51.5333 321.823 52.76 321.823 54.2C321.823 56.0667 321.37 57.5733 320.463 58.72C319.556 59.8667 318.263 60.7067 316.583 61.24C314.903 61.7467 312.89 62 310.543 62H298.583V34H309.823C311.823 34 313.596 34.2667 315.143 34.8C316.716 35.3333 317.956 36.1333 318.863 37.2C319.77 38.24 320.223 39.56 320.223 41.16C320.223 42.68 319.77 43.9867 318.863 45.08C317.956 46.1467 316.716 46.96 315.143 47.52C313.596 48.0533 311.823 48.32 309.823 48.32H304.343ZM331.676 62V55.72H345.796V62H331.676ZM331.676 40.28V34H345.796V40.28H331.676ZM331.676 50.48V44.4H344.996V50.48H331.676ZM326.396 34H333.836V62H326.396V34ZM354.841 51.76C355.401 52.7467 356.028 53.6 356.721 54.32C357.415 55.0133 358.175 55.5467 359.001 55.92C359.828 56.2933 360.681 56.48 361.561 56.48C362.415 56.48 363.121 56.2933 363.681 55.92C364.241 55.52 364.521 54.9467 364.521 54.2C364.521 53.6667 364.361 53.2267 364.041 52.88C363.721 52.5067 363.161 52.1333 362.361 51.76C361.588 51.3867 360.495 50.9333 359.081 50.4C358.388 50.1333 357.615 49.7867 356.761 49.36C355.908 48.9067 355.081 48.3333 354.281 47.64C353.508 46.9467 352.855 46.0933 352.321 45.08C351.815 44.0667 351.561 42.8667 351.561 41.48C351.561 39.72 352.028 38.24 352.961 37.04C353.895 35.8133 355.135 34.88 356.681 34.24C358.228 33.6 359.948 33.28 361.841 33.28C363.815 33.28 365.521 33.6 366.961 34.24C368.401 34.8533 369.588 35.64 370.521 36.6C371.455 37.5333 372.175 38.48 372.681 39.44L366.841 42.68C366.441 42.0133 365.975 41.4667 365.441 41.04C364.935 40.5867 364.388 40.24 363.801 40C363.215 39.76 362.615 39.64 362.001 39.64C361.228 39.64 360.615 39.8 360.161 40.12C359.708 40.44 359.481 40.8667 359.481 41.4C359.481 42.0133 359.735 42.5333 360.241 42.96C360.775 43.36 361.495 43.7467 362.401 44.12C363.335 44.4667 364.401 44.8533 365.601 45.28C366.641 45.6533 367.588 46.1067 368.441 46.64C369.321 47.1467 370.081 47.76 370.721 48.48C371.361 49.1733 371.855 49.9733 372.201 50.88C372.548 51.7867 372.721 52.8 372.721 53.92C372.721 55.4133 372.415 56.7333 371.801 57.88C371.215 59.0267 370.401 59.9867 369.361 60.76C368.348 61.5067 367.188 62.0667 365.881 62.44C364.575 62.84 363.241 63.04 361.881 63.04C359.961 63.04 358.175 62.7067 356.521 62.04C354.895 61.4 353.481 60.52 352.281 59.4C351.081 58.2533 350.175 56.9867 349.561 55.6L354.841 51.76ZM382.019 57.48L382.259 51.76H396.619L396.819 57.48H382.019ZM389.339 45.48L385.659 53.88L386.139 55.6L382.899 62H374.099L389.339 32.12L404.619 62H395.819L392.619 55.88L393.059 53.88L389.339 45.48ZM414.972 49.64H422.932L431.332 62H422.292L414.972 49.64ZM407.372 34H415.132V62H407.372V34ZM412.332 40.56V34H418.372C420.932 34 423.039 34.4 424.692 35.2C426.372 36 427.612 37.1067 428.412 38.52C429.239 39.9067 429.652 41.52 429.652 43.36C429.652 45.1733 429.239 46.8 428.412 48.24C427.612 49.6533 426.372 50.76 424.692 51.56C423.039 52.3333 420.932 52.72 418.372 52.72H412.332V46.84H417.732C418.559 46.84 419.252 46.72 419.812 46.48C420.372 46.24 420.799 45.88 421.092 45.4C421.412 44.92 421.572 44.3467 421.572 43.68C421.572 43.0133 421.412 42.4533 421.092 42C420.799 41.52 420.372 41.16 419.812 40.92C419.252 40.68 418.559 40.56 417.732 40.56H412.332Z"/>
</mask>
<path d="M136.754 62V55.72H150.874V62H136.754ZM136.754 40.28V34H150.874V40.28H136.754ZM136.754 50.48V44.4H150.074V50.48H136.754ZM131.474 34H138.914V62H131.474V34ZM174.999 34H182.439V63.4L163.679 47.76V62H156.239V32.6L174.999 48.24V34ZM193.473 62V55.72H207.593V62H193.473ZM193.473 40.28V34H207.593V40.28H193.473ZM193.473 50.48V44.4H206.793V50.48H193.473ZM188.193 34H195.633V62H188.193V34ZM220.558 49.64H228.518L236.918 62H227.878L220.558 49.64ZM212.958 34H220.718V62H212.958V34ZM217.918 40.56V34H223.958C226.518 34 228.625 34.4 230.278 35.2C231.958 36 233.198 37.1067 233.998 38.52C234.825 39.9067 235.238 41.52 235.238 43.36C235.238 45.1733 234.825 46.8 233.998 48.24C233.198 49.6533 231.958 50.76 230.278 51.56C228.625 52.3333 226.518 52.72 223.958 52.72H217.918V46.84H223.318C224.145 46.84 224.838 46.72 225.398 46.48C225.958 46.24 226.385 45.88 226.678 45.4C226.998 44.92 227.158 44.3467 227.158 43.68C227.158 43.0133 226.998 42.4533 226.678 42C226.385 41.52 225.958 41.16 225.398 40.92C224.838 40.68 224.145 40.56 223.318 40.56H217.918ZM253.992 52.12V46.36H268.512C268.699 48.6533 268.499 50.8133 267.912 52.84C267.326 54.8667 266.406 56.64 265.152 58.16C263.899 59.68 262.326 60.88 260.432 61.76C258.539 62.6133 256.366 63.04 253.912 63.04C251.646 63.04 249.552 62.68 247.632 61.96C245.739 61.24 244.086 60.2267 242.672 58.92C241.286 57.5867 240.206 56 239.432 54.16C238.659 52.2933 238.272 50.24 238.272 48C238.272 45.76 238.672 43.7333 239.472 41.92C240.272 40.1067 241.392 38.56 242.832 37.28C244.272 35.9733 245.966 34.9867 247.912 34.32C249.859 33.6267 251.966 33.28 254.232 33.28C256.286 33.28 258.112 33.5867 259.712 34.2C261.339 34.7867 262.766 35.6 263.992 36.64C265.219 37.6533 266.286 38.8133 267.192 40.12L260.112 43.52C259.552 42.5067 258.806 41.6533 257.872 40.96C256.939 40.2667 255.726 39.92 254.232 39.92C252.819 39.92 251.512 40.2267 250.312 40.84C249.112 41.4533 248.152 42.36 247.432 43.56C246.739 44.76 246.392 46.24 246.392 48C246.392 49.7333 246.726 51.24 247.392 52.52C248.059 53.7733 248.979 54.7333 250.152 55.4C251.326 56.0667 252.686 56.4 254.232 56.4C255.166 56.4 255.992 56.3067 256.712 56.12C257.432 55.9067 258.059 55.6133 258.592 55.24C259.126 54.84 259.579 54.3733 259.952 53.84C260.352 53.3067 260.672 52.7333 260.912 52.12H253.992ZM272.919 34H280.839V62H272.919V34ZM304.343 48.32V45.08H308.863C309.583 45.08 310.183 44.9733 310.663 44.76C311.143 44.5467 311.503 44.24 311.743 43.84C312.01 43.44 312.143 42.96 312.143 42.4C312.143 41.5467 311.863 40.92 311.303 40.52C310.77 40.12 309.956 39.92 308.863 39.92H306.343V56.08H309.583C310.356 56.08 311.05 56 311.663 55.84C312.303 55.68 312.81 55.3867 313.183 54.96C313.556 54.5067 313.743 53.8667 313.743 53.04C313.743 52.5067 313.636 52.0667 313.423 51.72C313.21 51.3733 312.903 51.0933 312.503 50.88C312.13 50.6667 311.69 50.52 311.183 50.44C310.703 50.36 310.17 50.32 309.583 50.32H304.343V46.08H310.543C311.903 46.08 313.25 46.24 314.583 46.56C315.916 46.8533 317.13 47.3333 318.223 48C319.316 48.64 320.183 49.48 320.823 50.52C321.49 51.5333 321.823 52.76 321.823 54.2C321.823 56.0667 321.37 57.5733 320.463 58.72C319.556 59.8667 318.263 60.7067 316.583 61.24C314.903 61.7467 312.89 62 310.543 62H298.583V34H309.823C311.823 34 313.596 34.2667 315.143 34.8C316.716 35.3333 317.956 36.1333 318.863 37.2C319.77 38.24 320.223 39.56 320.223 41.16C320.223 42.68 319.77 43.9867 318.863 45.08C317.956 46.1467 316.716 46.96 315.143 47.52C313.596 48.0533 311.823 48.32 309.823 48.32H304.343ZM331.676 62V55.72H345.796V62H331.676ZM331.676 40.28V34H345.796V40.28H331.676ZM331.676 50.48V44.4H344.996V50.48H331.676ZM326.396 34H333.836V62H326.396V34ZM354.841 51.76C355.401 52.7467 356.028 53.6 356.721 54.32C357.415 55.0133 358.175 55.5467 359.001 55.92C359.828 56.2933 360.681 56.48 361.561 56.48C362.415 56.48 363.121 56.2933 363.681 55.92C364.241 55.52 364.521 54.9467 364.521 54.2C364.521 53.6667 364.361 53.2267 364.041 52.88C363.721 52.5067 363.161 52.1333 362.361 51.76C361.588 51.3867 360.495 50.9333 359.081 50.4C358.388 50.1333 357.615 49.7867 356.761 49.36C355.908 48.9067 355.081 48.3333 354.281 47.64C353.508 46.9467 352.855 46.0933 352.321 45.08C351.815 44.0667 351.561 42.8667 351.561 41.48C351.561 39.72 352.028 38.24 352.961 37.04C353.895 35.8133 355.135 34.88 356.681 34.24C358.228 33.6 359.948 33.28 361.841 33.28C363.815 33.28 365.521 33.6 366.961 34.24C368.401 34.8533 369.588 35.64 370.521 36.6C371.455 37.5333 372.175 38.48 372.681 39.44L366.841 42.68C366.441 42.0133 365.975 41.4667 365.441 41.04C364.935 40.5867 364.388 40.24 363.801 40C363.215 39.76 362.615 39.64 362.001 39.64C361.228 39.64 360.615 39.8 360.161 40.12C359.708 40.44 359.481 40.8667 359.481 41.4C359.481 42.0133 359.735 42.5333 360.241 42.96C360.775 43.36 361.495 43.7467 362.401 44.12C363.335 44.4667 364.401 44.8533 365.601 45.28C366.641 45.6533 367.588 46.1067 368.441 46.64C369.321 47.1467 370.081 47.76 370.721 48.48C371.361 49.1733 371.855 49.9733 372.201 50.88C372.548 51.7867 372.721 52.8 372.721 53.92C372.721 55.4133 372.415 56.7333 371.801 57.88C371.215 59.0267 370.401 59.9867 369.361 60.76C368.348 61.5067 367.188 62.0667 365.881 62.44C364.575 62.84 363.241 63.04 361.881 63.04C359.961 63.04 358.175 62.7067 356.521 62.04C354.895 61.4 353.481 60.52 352.281 59.4C351.081 58.2533 350.175 56.9867 349.561 55.6L354.841 51.76ZM382.019 57.48L382.259 51.76H396.619L396.819 57.48H382.019ZM389.339 45.48L385.659 53.88L386.139 55.6L382.899 62H374.099L389.339 32.12L404.619 62H395.819L392.619 55.88L393.059 53.88L389.339 45.48ZM414.972 49.64H422.932L431.332 62H422.292L414.972 49.64ZM407.372 34H415.132V62H407.372V34ZM412.332 40.56V34H418.372C420.932 34 423.039 34.4 424.692 35.2C426.372 36 427.612 37.1067 428.412 38.52C429.239 39.9067 429.652 41.52 429.652 43.36C429.652 45.1733 429.239 46.8 428.412 48.24C427.612 49.6533 426.372 50.76 424.692 51.56C423.039 52.3333 420.932 52.72 418.372 52.72H412.332V46.84H417.732C418.559 46.84 419.252 46.72 419.812 46.48C420.372 46.24 420.799 45.88 421.092 45.4C421.412 44.92 421.572 44.3467 421.572 43.68C421.572 43.0133 421.412 42.4533 421.092 42C420.799 41.52 420.372 41.16 419.812 40.92C419.252 40.68 418.559 40.56 417.732 40.56H412.332Z" fill="url(#paint1_linear_2_2109)"/>
<path d="M136.754 62H135.754V63H136.754V62ZM136.754 55.72V54.72H135.754V55.72H136.754ZM150.874 55.72H151.874V54.72H150.874V55.72ZM150.874 62V63H151.874V62H150.874ZM136.754 40.28H135.754V41.28H136.754V40.28ZM136.754 34V33H135.754V34H136.754ZM150.874 34H151.874V33H150.874V34ZM150.874 40.28V41.28H151.874V40.28H150.874ZM136.754 50.48H135.754V51.48H136.754V50.48ZM136.754 44.4V43.4H135.754V44.4H136.754ZM150.074 44.4H151.074V43.4H150.074V44.4ZM150.074 50.48V51.48H151.074V50.48H150.074ZM131.474 34V33H130.474V34H131.474ZM138.914 34H139.914V33H138.914V34ZM138.914 62V63H139.914V62H138.914ZM131.474 62H130.474V63H131.474V62ZM136.754 62H137.754V55.72H136.754H135.754V62H136.754ZM136.754 55.72V56.72H150.874V55.72V54.72H136.754V55.72ZM150.874 55.72H149.874V62H150.874H151.874V55.72H150.874ZM150.874 62V61H136.754V62V63H150.874V62ZM136.754 40.28H137.754V34H136.754H135.754V40.28H136.754ZM136.754 34V35H150.874V34V33H136.754V34ZM150.874 34H149.874V40.28H150.874H151.874V34H150.874ZM150.874 40.28V39.28H136.754V40.28V41.28H150.874V40.28ZM136.754 50.48H137.754V44.4H136.754H135.754V50.48H136.754ZM136.754 44.4V45.4H150.074V44.4V43.4H136.754V44.4ZM150.074 44.4H149.074V50.48H150.074H151.074V44.4H150.074ZM150.074 50.48V49.48H136.754V50.48V51.48H150.074V50.48ZM131.474 34V35H138.914V34V33H131.474V34ZM138.914 34H137.914V62H138.914H139.914V34H138.914ZM138.914 62V61H131.474V62V63H138.914V62ZM131.474 62H132.474V34H131.474H130.474V62H131.474ZM174.999 34V33H173.999V34H174.999ZM182.439 34H183.439V33H182.439V34ZM182.439 63.4L181.799 64.1681L183.439 65.5356V63.4H182.439ZM163.679 47.76L164.32 46.9919L162.679 45.6244V47.76H163.679ZM163.679 62V63H164.679V62H163.679ZM156.239 62H155.239V63H156.239V62ZM156.239 32.6L156.88 31.8319L155.239 30.4644V32.6H156.239ZM174.999 48.24L174.359 49.0081L175.999 50.3756V48.24H174.999ZM174.999 34V35H182.439V34V33H174.999V34ZM182.439 34H181.439V63.4H182.439H183.439V34H182.439ZM182.439 63.4L183.08 62.6319L164.32 46.9919L163.679 47.76L163.039 48.5281L181.799 64.1681L182.439 63.4ZM163.679 47.76H162.679V62H163.679H164.679V47.76H163.679ZM163.679 62V61H156.239V62V63H163.679V62ZM156.239 62H157.239V32.6H156.239H155.239V62H156.239ZM156.239 32.6L155.599 33.3681L174.359 49.0081L174.999 48.24L175.64 47.4719L156.88 31.8319L156.239 32.6ZM174.999 48.24H175.999V34H174.999H173.999V48.24H174.999ZM193.473 62H192.472V63H193.473V62ZM193.473 55.72V54.72H192.472V55.72H193.473ZM207.592 55.72H208.592V54.72H207.592V55.72ZM207.592 62V63H208.592V62H207.592ZM193.473 40.28H192.472V41.28H193.473V40.28ZM193.473 34V33H192.472V34H193.473ZM207.592 34H208.592V33H207.592V34ZM207.592 40.28V41.28H208.592V40.28H207.592ZM193.473 50.48H192.472V51.48H193.473V50.48ZM193.473 44.4V43.4H192.472V44.4H193.473ZM206.793 44.4H207.793V43.4H206.793V44.4ZM206.793 50.48V51.48H207.793V50.48H206.793ZM188.193 34V33H187.193V34H188.193ZM195.632 34H196.632V33H195.632V34ZM195.632 62V63H196.632V62H195.632ZM188.193 62H187.193V63H188.193V62ZM193.473 62H194.473V55.72H193.473H192.472V62H193.473ZM193.473 55.72V56.72H207.592V55.72V54.72H193.473V55.72ZM207.592 55.72H206.592V62H207.592H208.592V55.72H207.592ZM207.592 62V61H193.473V62V63H207.592V62ZM193.473 40.28H194.473V34H193.473H192.472V40.28H193.473ZM193.473 34V35H207.592V34V33H193.473V34ZM207.592 34H206.592V40.28H207.592H208.592V34H207.592ZM207.592 40.28V39.28H193.473V40.28V41.28H207.592V40.28ZM193.473 50.48H194.473V44.4H193.473H192.472V50.48H193.473ZM193.473 44.4V45.4H206.793V44.4V43.4H193.473V44.4ZM206.793 44.4H205.793V50.48H206.793H207.793V44.4H206.793ZM206.793 50.48V49.48H193.473V50.48V51.48H206.793V50.48ZM188.193 34V35H195.632V34V33H188.193V34ZM195.632 34H194.632V62H195.632H196.632V34H195.632ZM195.632 62V61H188.193V62V63H195.632V62ZM188.193 62H189.193V34H188.193H187.193V62H188.193ZM220.558 49.64V48.64H218.804L219.698 50.1496L220.558 49.64ZM228.518 49.64L229.345 49.0779L229.048 48.64H228.518V49.64ZM236.918 62V63H238.807L237.745 61.4379L236.918 62ZM227.878 62L227.018 62.5096L227.308 63H227.878V62ZM212.958 34V33H211.958V34H212.958ZM220.718 34H221.718V33H220.718V34ZM220.718 62V63H221.718V62H220.718ZM212.958 62H211.958V63H212.958V62ZM217.918 40.56H216.918V41.56H217.918V40.56ZM217.918 34V33H216.918V34H217.918ZM230.278 35.2L229.843 36.1002L229.848 36.1029L230.278 35.2ZM233.998 38.52L233.128 39.0126L233.133 39.0224L233.139 39.0321L233.998 38.52ZM233.998 48.24L233.131 47.7421L233.128 47.7474L233.998 48.24ZM230.278 51.56L230.702 52.4658L230.708 52.4629L230.278 51.56ZM217.918 52.72H216.918V53.72H217.918V52.72ZM217.918 46.84V45.84H216.918V46.84H217.918ZM226.678 45.4L225.846 44.8453L225.835 44.8617L225.825 44.8785L226.678 45.4ZM226.678 42L225.825 42.5215L225.842 42.5497L225.861 42.5767L226.678 42ZM220.558 49.64V50.64H228.518V49.64V48.64H220.558V49.64ZM228.518 49.64L227.691 50.2021L236.091 62.5621L236.918 62L237.745 61.4379L229.345 49.0779L228.518 49.64ZM236.918 62V61H227.878V62V63H236.918V62ZM227.878 62L228.739 61.4904L221.419 49.1304L220.558 49.64L219.698 50.1496L227.018 62.5096L227.878 62ZM212.958 34V35H220.718V34V33H212.958V34ZM220.718 34H219.718V62H220.718H221.718V34H220.718ZM220.718 62V61H212.958V62V63H220.718V62ZM212.958 62H213.958V34H212.958H211.958V62H212.958ZM217.918 40.56H218.918V34H217.918H216.918V40.56H217.918ZM217.918 34V35H223.958V34V33H217.918V34ZM223.958 34V35C226.423 35 228.368 35.3865 229.843 36.1002L230.278 35.2L230.714 34.2998C228.882 33.4135 226.613 33 223.958 33V34ZM230.278 35.2L229.848 36.1029C231.371 36.8279 232.443 37.8032 233.128 39.0126L233.998 38.52L234.868 38.0274C233.953 36.4102 232.546 35.1721 230.708 34.2971L230.278 35.2ZM233.998 38.52L233.139 39.0321C233.861 40.2432 234.238 41.6746 234.238 43.36H235.238H236.238C236.238 41.3654 235.788 39.5701 234.857 38.0079L233.998 38.52ZM235.238 43.36H234.238C234.238 45.0152 233.863 46.4674 233.131 47.7421L233.998 48.24L234.865 48.7379C235.787 47.1326 236.238 45.3315 236.238 43.36H235.238ZM233.998 48.24L233.128 47.7474C232.443 48.9568 231.371 49.9321 229.848 50.6571L230.278 51.56L230.708 52.4629C232.546 51.5879 233.953 50.3498 234.868 48.7326L233.998 48.24ZM230.278 51.56L229.854 50.6542C228.376 51.3458 226.427 51.72 223.958 51.72V52.72V53.72C226.609 53.72 228.874 53.3209 230.702 52.4658L230.278 51.56ZM223.958 52.72V51.72H217.918V52.72V53.72H223.958V52.72ZM217.918 52.72H218.918V46.84H217.918H216.918V52.72H217.918ZM217.918 46.84V47.84H223.318V46.84V45.84H217.918V46.84ZM223.318 46.84V47.84C224.235 47.84 225.072 47.7079 225.792 47.3991L225.398 46.48L225.004 45.5609C224.605 45.7321 224.055 45.84 223.318 45.84V46.84ZM225.398 46.48L225.792 47.3991C226.526 47.0846 227.121 46.5933 227.531 45.9214L226.678 45.4L225.825 44.8785C225.649 45.1667 225.39 45.3954 225.004 45.5609L225.398 46.48ZM226.678 45.4L227.51 45.9547C227.956 45.286 228.158 44.5125 228.158 43.68H227.158H226.158C226.158 44.1808 226.04 44.554 225.846 44.8453L226.678 45.4ZM227.158 43.68H228.158C228.158 42.8493 227.957 42.077 227.495 41.4233L226.678 42L225.861 42.5767C226.04 42.8296 226.158 43.1774 226.158 43.68H227.158ZM226.678 42L227.531 41.4785C227.121 40.8067 226.526 40.3154 225.792 40.0009L225.398 40.92L225.004 41.8391C225.39 42.0046 225.649 42.2333 225.825 42.5215L226.678 42ZM225.398 40.92L225.792 40.0009C225.072 39.6921 224.235 39.56 223.318 39.56V40.56V41.56C224.055 41.56 224.605 41.6679 225.004 41.8391L225.398 40.92ZM223.318 40.56V39.56H217.918V40.56V41.56H223.318V40.56ZM253.992 52.12H252.992V53.12H253.992V52.12ZM253.992 46.36V45.36H252.992V46.36H253.992ZM268.512 46.36L269.509 46.2789L269.434 45.36H268.512V46.36ZM267.912 52.84L268.873 53.1181L267.912 52.84ZM265.152 58.16L265.924 58.7962H265.924L265.152 58.16ZM260.432 61.76L260.843 62.6717L260.854 62.6668L260.432 61.76ZM247.632 61.96L247.277 62.8947L247.281 62.8963L247.632 61.96ZM242.672 58.92L241.979 59.6408L241.986 59.6476L241.993 59.6543L242.672 58.92ZM239.432 54.16L238.508 54.5427L238.51 54.5475L239.432 54.16ZM239.472 41.92L238.557 41.5164L239.472 41.92ZM242.832 37.28L243.497 38.0274L243.504 38.0206L242.832 37.28ZM247.912 34.32L248.236 35.2661L248.248 35.262L247.912 34.32ZM259.712 34.2L259.354 35.1337L259.364 35.1373L259.373 35.1407L259.712 34.2ZM263.992 36.64L263.345 37.4028L263.355 37.411L263.992 36.64ZM267.192 40.12L267.625 41.0214L268.682 40.5136L268.014 39.5499L267.192 40.12ZM260.112 43.52L259.237 44.0037L259.694 44.8303L260.545 44.4214L260.112 43.52ZM257.872 40.96L257.276 41.7627L257.872 40.96ZM250.312 40.84L249.857 39.9496L250.312 40.84ZM247.432 43.56L246.575 43.0455L246.57 43.0526L246.566 43.0597L247.432 43.56ZM247.392 52.52L246.505 52.982L246.509 52.9896L247.392 52.52ZM256.712 56.12L256.963 57.088L256.98 57.0837L256.996 57.0788L256.712 56.12ZM258.592 55.24L259.166 56.0592L259.179 56.0498L259.192 56.04L258.592 55.24ZM259.952 53.84L259.152 53.24L259.142 53.2531L259.133 53.2665L259.952 53.84ZM260.912 52.12L261.843 52.4844L262.377 51.12H260.912V52.12ZM253.992 52.12H254.992V46.36H253.992H252.992V52.12H253.992ZM253.992 46.36V47.36H268.512V46.36V45.36H253.992V46.36ZM268.512 46.36L267.515 46.4411C267.693 48.6245 267.502 50.6619 266.952 52.5619L267.912 52.84L268.873 53.1181C269.496 50.9647 269.705 48.6822 269.509 46.2789L268.512 46.36ZM267.912 52.84L266.952 52.5619C266.4 54.467 265.541 56.1164 264.381 57.5238L265.152 58.16L265.924 58.7962C267.27 57.1636 268.251 55.2663 268.873 53.1181L267.912 52.84ZM265.152 58.16L264.381 57.5238C263.228 58.9217 261.777 60.0323 260.011 60.8532L260.432 61.76L260.854 62.6668C262.874 61.7277 264.57 60.4383 265.924 58.7962L265.152 58.16ZM260.432 61.76L260.021 60.8483C258.278 61.6338 256.249 62.04 253.912 62.04V63.04V64.04C256.482 64.04 258.799 63.5928 260.843 62.6717L260.432 61.76ZM253.912 63.04V62.04C251.753 62.04 249.78 61.6974 247.983 61.0237L247.632 61.96L247.281 62.8963C249.325 63.6626 251.538 64.04 253.912 64.04V63.04ZM247.632 61.96L247.988 61.0253C246.208 60.3484 244.666 59.401 243.351 58.1857L242.672 58.92L241.993 59.6543C243.506 61.0523 245.27 62.1316 247.277 62.8947L247.632 61.96ZM242.672 58.92L243.365 58.1992C242.08 56.9638 241.077 55.4918 240.354 53.7725L239.432 54.16L238.51 54.5475C239.334 56.5082 240.491 58.2096 241.979 59.6408L242.672 58.92ZM239.432 54.16L240.356 53.7773C239.638 52.0445 239.272 50.1229 239.272 48H238.272H237.272C237.272 50.3571 237.68 52.5422 238.508 54.5427L239.432 54.16ZM238.272 48H239.272C239.272 45.8809 239.65 43.9942 240.387 42.3236L239.472 41.92L238.557 41.5164C237.694 43.4724 237.272 45.6391 237.272 48H238.272ZM239.472 41.92L240.387 42.3236C241.131 40.6377 242.167 39.2093 243.497 38.0274L242.832 37.28L242.168 36.5326C240.618 37.9107 239.413 39.5757 238.557 41.5164L239.472 41.92ZM242.832 37.28L243.504 38.0206C244.838 36.8106 246.411 35.8912 248.236 35.2661L247.912 34.32L247.588 33.3739C245.52 34.0821 243.707 35.136 242.16 36.5394L242.832 37.28ZM247.912 34.32L248.248 35.262C250.077 34.6106 252.069 34.28 254.232 34.28V33.28V32.28C251.862 32.28 249.641 32.6427 247.577 33.378L247.912 34.32ZM254.232 33.28V34.28C256.187 34.28 257.889 34.5719 259.354 35.1337L259.712 34.2L260.07 33.2663C258.336 32.6014 256.384 32.28 254.232 32.28V33.28ZM259.712 34.2L259.373 35.1407C260.896 35.6899 262.217 36.4456 263.346 37.4028L263.992 36.64L264.639 35.8772C263.315 34.7544 261.782 33.8834 260.051 33.2593L259.712 34.2ZM263.992 36.64L263.355 37.411C264.512 38.3661 265.516 39.4585 266.371 40.6901L267.192 40.12L268.014 39.5499C267.055 38.1681 265.926 36.9406 264.629 35.869L263.992 36.64ZM267.192 40.12L266.759 39.2186L259.679 42.6186L260.112 43.52L260.545 44.4214L267.625 41.0214L267.192 40.12ZM260.112 43.52L260.987 43.0363C260.358 41.8974 259.516 40.9354 258.469 40.1573L257.872 40.96L257.276 41.7627C258.095 42.3712 258.746 43.116 259.237 44.0037L260.112 43.52ZM257.872 40.96L258.469 40.1573C257.319 39.3035 255.879 38.92 254.232 38.92V39.92V40.92C255.572 40.92 256.558 41.2298 257.276 41.7627L257.872 40.96ZM254.232 39.92V38.92C252.669 38.92 251.205 39.2607 249.857 39.9496L250.312 40.84L250.767 41.7304C251.819 41.1926 252.969 40.92 254.232 40.92V39.92ZM250.312 40.84L249.857 39.9496C248.484 40.6515 247.387 41.6915 246.575 43.0455L247.432 43.56L248.29 44.0745C248.917 43.0285 249.741 42.2552 250.767 41.7304L250.312 40.84ZM247.432 43.56L246.566 43.0597C245.764 44.4476 245.392 46.111 245.392 48H246.392H247.392C247.392 46.369 247.713 45.0724 248.298 44.0603L247.432 43.56ZM246.392 48H245.392C245.392 49.8621 245.751 51.5333 246.505 52.9819L247.392 52.52L248.279 52.0581C247.7 50.9467 247.392 49.6046 247.392 48H246.392ZM247.392 52.52L246.509 52.9896C247.26 54.4013 248.311 55.5041 249.658 56.2695L250.152 55.4L250.646 54.5305C249.647 53.9626 248.858 53.1454 248.275 52.0504L247.392 52.52ZM250.152 55.4L249.658 56.2695C251.003 57.0335 252.538 57.4 254.232 57.4V56.4V55.4C252.833 55.4 251.648 55.0998 250.646 54.5305L250.152 55.4ZM254.232 56.4V57.4C255.23 57.4 256.144 57.3005 256.963 57.088L256.712 56.12L256.461 55.152C255.841 55.3128 255.101 55.4 254.232 55.4V56.4ZM256.712 56.12L256.996 57.0788C257.804 56.8395 258.532 56.503 259.166 56.0592L258.592 55.24L258.019 54.4208C257.586 54.7236 257.06 54.9739 256.428 55.1612L256.712 56.12ZM258.592 55.24L259.192 56.04C259.808 55.5781 260.336 55.0355 260.771 54.4135L259.952 53.84L259.133 53.2665C258.822 53.7112 258.443 54.1019 257.992 54.44L258.592 55.24ZM259.952 53.84L260.752 54.44C261.206 53.8353 261.57 53.1829 261.843 52.4844L260.912 52.12L259.981 51.7556C259.774 52.2838 259.499 52.778 259.152 53.24L259.952 53.84ZM260.912 52.12V51.12H253.992V52.12V53.12H260.912V52.12ZM272.919 34V33H271.919V34H272.919ZM280.839 34H281.839V33H280.839V34ZM280.839 62V63H281.839V62H280.839ZM272.919 62H271.919V63H272.919V62ZM272.919 34V35H280.839V34V33H272.919V34ZM280.839 34H279.839V62H280.839H281.839V34H280.839ZM280.839 62V61H272.919V62V63H280.839V62ZM272.919 62H273.919V34H272.919H271.919V62H272.919ZM304.343 48.32H303.343V49.32H304.343V48.32ZM304.343 45.08V44.08H303.343V45.08H304.343ZM310.663 44.76L310.257 43.8462L310.663 44.76ZM311.743 43.84L310.911 43.2853L310.898 43.3051L310.886 43.3255L311.743 43.84ZM311.303 40.52L310.703 41.32L310.712 41.327L310.722 41.3337L311.303 40.52ZM306.343 39.92V38.92H305.343V39.92H306.343ZM306.343 56.08H305.343V57.08H306.343V56.08ZM311.663 55.84L311.421 54.8698L311.411 54.8724L311.663 55.84ZM313.183 54.96L313.936 55.6185L313.946 55.6073L313.955 55.5957L313.183 54.96ZM313.423 51.72L312.571 52.2441V52.2441L313.423 51.72ZM312.503 50.88L312.007 51.7482L312.02 51.7555L312.033 51.7624L312.503 50.88ZM311.183 50.44L311.019 51.4264L311.027 51.4278L311.183 50.44ZM304.343 50.32H303.343V51.32H304.343V50.32ZM304.343 46.08V45.08H303.343V46.08H304.343ZM314.583 46.56L314.35 47.5324L314.359 47.5346L314.368 47.5366L314.583 46.56ZM318.223 48L317.703 48.8538L317.71 48.8585L317.718 48.863L318.223 48ZM320.823 50.52L319.971 51.0441L319.979 51.057L319.988 51.0696L320.823 50.52ZM320.463 58.72L319.679 58.0998V58.0998L320.463 58.72ZM316.583 61.24L316.872 62.1974L316.879 62.1953L316.886 62.1931L316.583 61.24ZM298.583 62H297.583V63H298.583V62ZM298.583 34V33H297.583V34H298.583ZM315.143 34.8L314.817 35.7454L314.822 35.7471L315.143 34.8ZM318.863 37.2L318.101 37.8477L318.109 37.8571L318.863 37.2ZM318.863 45.08L319.625 45.7277L319.633 45.7183L318.863 45.08ZM315.143 47.52L315.469 48.4654L315.478 48.4621L315.143 47.52ZM304.343 48.32H305.343V45.08H304.343H303.343V48.32H304.343ZM304.343 45.08V46.08H308.863V45.08V44.08H304.343V45.08ZM308.863 45.08V46.08C309.674 46.08 310.423 45.9609 311.069 45.6738L310.663 44.76L310.257 43.8462C309.943 43.9858 309.492 44.08 308.863 44.08V45.08ZM310.663 44.76L311.069 45.6738C311.713 45.3879 312.242 44.9526 312.601 44.3545L311.743 43.84L310.886 43.3255C310.765 43.5274 310.574 43.7054 310.257 43.8462L310.663 44.76ZM311.743 43.84L312.575 44.3947C312.968 43.8047 313.143 43.1241 313.143 42.4H312.143H311.143C311.143 42.7959 311.051 43.0753 310.911 43.2853L311.743 43.84ZM312.143 42.4H313.143C313.143 41.3107 312.771 40.3394 311.884 39.7063L311.303 40.52L310.722 41.3337C310.956 41.5006 311.143 41.7827 311.143 42.4H312.143ZM311.303 40.52L311.903 39.72C311.117 39.1305 310.046 38.92 308.863 38.92V39.92V40.92C309.867 40.92 310.422 41.1095 310.703 41.32L311.303 40.52ZM308.863 39.92V38.92H306.343V39.92V40.92H308.863V39.92ZM306.343 39.92H305.343V56.08H306.343H307.343V39.92H306.343ZM306.343 56.08V57.08H309.583V56.08V55.08H306.343V56.08ZM309.583 56.08V57.08C310.424 57.08 311.204 56.9932 311.916 56.8076L311.663 55.84L311.411 54.8724C310.896 55.0068 310.289 55.08 309.583 55.08V56.08ZM311.663 55.84L311.906 56.8101C312.71 56.609 313.407 56.2226 313.936 55.6185L313.183 54.96L312.431 54.3015C312.212 54.5508 311.896 54.751 311.421 54.8699L311.663 55.84ZM313.183 54.96L313.955 55.5957C314.526 54.9026 314.743 54.0055 314.743 53.04H313.743H312.743C312.743 53.7279 312.587 54.1107 312.411 54.3243L313.183 54.96ZM313.743 53.04H314.743C314.743 52.3778 314.611 51.742 314.275 51.1959L313.423 51.72L312.571 52.2441C312.662 52.3913 312.743 52.6356 312.743 53.04H313.743ZM313.423 51.72L314.275 51.1959C313.958 50.6814 313.512 50.2847 312.974 49.9976L312.503 50.88L312.033 51.7624C312.294 51.9019 312.461 52.0652 312.571 52.2441L313.423 51.72ZM312.503 50.88L312.999 50.0118C312.503 49.7279 311.943 49.5476 311.339 49.4522L311.183 50.44L311.027 51.4278C311.437 51.4924 311.757 51.6054 312.007 51.7482L312.503 50.88ZM311.183 50.44L311.348 49.4536C310.803 49.3629 310.214 49.32 309.583 49.32V50.32V51.32C310.126 51.32 310.603 51.3571 311.019 51.4264L311.183 50.44ZM309.583 50.32V49.32H304.343V50.32V51.32H309.583V50.32ZM304.343 50.32H305.343V46.08H304.343H303.343V50.32H304.343ZM304.343 46.08V47.08H310.543V46.08V45.08H304.343V46.08ZM310.543 46.08V47.08C311.824 47.08 313.092 47.2306 314.35 47.5324L314.583 46.56L314.816 45.5876C313.407 45.2494 311.982 45.08 310.543 45.08V46.08ZM314.583 46.56L314.368 47.5366C315.601 47.8078 316.71 48.2484 317.703 48.8538L318.223 48L318.744 47.1462C317.55 46.4183 316.232 45.8989 314.798 45.5834L314.583 46.56ZM318.223 48L317.718 48.863C318.675 49.4234 319.421 50.1491 319.971 51.0441L320.823 50.52L321.675 49.9959C320.946 48.8109 319.958 47.8566 318.728 47.137L318.223 48ZM320.823 50.52L319.988 51.0696C320.528 51.8912 320.823 52.9182 320.823 54.2H321.823H322.823C322.823 52.6018 322.451 51.1754 321.659 49.9704L320.823 50.52ZM321.823 54.2H320.823C320.823 55.9048 320.411 57.1736 319.679 58.0998L320.463 58.72L321.248 59.3402C322.329 57.9731 322.823 56.2285 322.823 54.2H321.823ZM320.463 58.72L319.679 58.0998C318.919 59.0601 317.81 59.8013 316.281 60.2869L316.583 61.24L316.886 62.1931C318.716 61.612 320.194 60.6732 321.248 59.3402L320.463 58.72ZM316.583 61.24L316.294 60.2826C314.734 60.7533 312.823 61 310.543 61V62V63C312.957 63 315.073 62.74 316.872 62.1974L316.583 61.24ZM310.543 62V61H298.583V62V63H310.543V62ZM298.583 62H299.583V34H298.583H297.583V62H298.583ZM298.583 34V35H309.823V34V33H298.583V34ZM309.823 34V35C311.736 35 313.396 35.2552 314.817 35.7454L315.143 34.8L315.469 33.8546C313.797 33.2781 311.91 33 309.823 33V34ZM315.143 34.8L314.822 35.7471C316.256 36.2332 317.332 36.9426 318.101 37.8476L318.863 37.2L319.625 36.5524C318.581 35.324 317.177 34.4334 315.464 33.8529L315.143 34.8ZM318.863 37.2L318.109 37.8571C318.832 38.6864 319.223 39.7607 319.223 41.16H320.223H321.223C321.223 39.3593 320.707 37.7936 319.617 36.5429L318.863 37.2ZM320.223 41.16H319.223C319.223 42.4645 318.84 43.5409 318.093 44.4417L318.863 45.08L319.633 45.7183C320.699 44.4325 321.223 42.8955 321.223 41.16H320.223ZM318.863 45.08L318.101 44.4324C317.329 45.3413 316.248 46.0654 314.808 46.5779L315.143 47.52L315.478 48.4621C317.185 47.8546 318.584 46.952 319.625 45.7276L318.863 45.08ZM315.143 47.52L314.817 46.5746C313.396 47.0648 311.736 47.32 309.823 47.32V48.32V49.32C311.91 49.32 313.797 49.0419 315.469 48.4654L315.143 47.52ZM309.823 48.32V47.32H304.343V48.32V49.32H309.823V48.32ZM331.676 62H330.676V63H331.676V62ZM331.676 55.72V54.72H330.676V55.72H331.676ZM345.796 55.72H346.796V54.72H345.796V55.72ZM345.796 62V63H346.796V62H345.796ZM331.676 40.28H330.676V41.28H331.676V40.28ZM331.676 34V33H330.676V34H331.676ZM345.796 34H346.796V33H345.796V34ZM345.796 40.28V41.28H346.796V40.28H345.796ZM331.676 50.48H330.676V51.48H331.676V50.48ZM331.676 44.4V43.4H330.676V44.4H331.676ZM344.996 44.4H345.996V43.4H344.996V44.4ZM344.996 50.48V51.48H345.996V50.48H344.996ZM326.396 34V33H325.396V34H326.396ZM333.836 34H334.836V33H333.836V34ZM333.836 62V63H334.836V62H333.836ZM326.396 62H325.396V63H326.396V62ZM331.676 62H332.676V55.72H331.676H330.676V62H331.676ZM331.676 55.72V56.72H345.796V55.72V54.72H331.676V55.72ZM345.796 55.72H344.796V62H345.796H346.796V55.72H345.796ZM345.796 62V61H331.676V62V63H345.796V62ZM331.676 40.28H332.676V34H331.676H330.676V40.28H331.676ZM331.676 34V35H345.796V34V33H331.676V34ZM345.796 34H344.796V40.28H345.796H346.796V34H345.796ZM345.796 40.28V39.28H331.676V40.28V41.28H345.796V40.28ZM331.676 50.48H332.676V44.4H331.676H330.676V50.48H331.676ZM331.676 44.4V45.4H344.996V44.4V43.4H331.676V44.4ZM344.996 44.4H343.996V50.48H344.996H345.996V44.4H344.996ZM344.996 50.48V49.48H331.676V50.48V51.48H344.996V50.48ZM326.396 34V35H333.836V34V33H326.396V34ZM333.836 34H332.836V62H333.836H334.836V34H333.836ZM333.836 62V61H326.396V62V63H333.836V62ZM326.396 62H327.396V34H326.396H325.396V62H326.396ZM354.841 51.76L355.711 51.2664L355.158 50.2929L354.253 50.9513L354.841 51.76ZM356.721 54.32L356.001 55.0136L356.007 55.0204L356.014 55.0271L356.721 54.32ZM359.001 55.92L358.59 56.8314L359.001 55.92ZM363.681 55.92L364.236 56.752L364.249 56.7431L364.262 56.7337L363.681 55.92ZM364.041 52.88L363.282 53.5308L363.294 53.5448L363.306 53.5583L364.041 52.88ZM362.361 51.76L361.926 52.6606L361.938 52.6662L362.361 51.76ZM359.081 50.4L358.722 51.3334L358.728 51.3356L359.081 50.4ZM356.761 49.36L356.292 50.2431L356.303 50.2489L356.314 50.2544L356.761 49.36ZM354.281 47.64L353.614 48.3846L353.62 48.3902L353.626 48.3957L354.281 47.64ZM352.321 45.08L351.427 45.5272L351.431 45.5365L351.436 45.5457L352.321 45.08ZM352.961 37.04L353.751 37.654L353.757 37.6455L352.961 37.04ZM356.681 34.24L357.064 35.164L356.681 34.24ZM366.961 34.24L366.555 35.1538L366.562 35.157L366.569 35.16L366.961 34.24ZM370.521 36.6L369.804 37.2971L369.814 37.3071L370.521 36.6ZM372.681 39.44L373.166 40.3144L374.023 39.8393L373.566 38.9732L372.681 39.44ZM366.841 42.68L365.984 43.1945L366.481 44.0234L367.326 43.5544L366.841 42.68ZM365.441 41.04L364.774 41.7852L364.795 41.8036L364.817 41.8209L365.441 41.04ZM363.801 40L363.423 40.9255L363.801 40ZM360.161 40.12L359.585 39.303L360.161 40.12ZM360.241 42.96L359.597 43.7249L359.619 43.7431L359.641 43.76L360.241 42.96ZM362.401 44.12L362.021 45.0447L362.037 45.0513L362.053 45.0574L362.401 44.12ZM365.601 45.28L365.939 44.3388L365.936 44.3378L365.601 45.28ZM368.441 46.64L367.911 47.488L367.927 47.4976L367.942 47.5066L368.441 46.64ZM370.721 48.48L369.974 49.1444L369.98 49.1514L369.986 49.1583L370.721 48.48ZM372.201 50.88L373.135 50.5229V50.5229L372.201 50.88ZM371.801 57.88L370.919 57.4083L370.915 57.4164L370.911 57.4245L371.801 57.88ZM369.361 60.76L369.954 61.5651L369.958 61.5625L369.361 60.76ZM365.881 62.44L365.607 61.4785L365.598 61.4811L365.589 61.4838L365.881 62.44ZM356.521 62.04L356.895 61.1125L356.887 61.1094L356.521 62.04ZM352.281 59.4L351.59 60.123L351.599 60.1311L352.281 59.4ZM349.561 55.6L348.973 54.7913L348.32 55.2661L348.647 56.0045L349.561 55.6ZM354.841 51.76L353.972 52.2536C354.567 53.3033 355.242 54.226 356.001 55.0136L356.721 54.32L357.442 53.6264C356.813 52.974 356.235 52.19 355.711 51.2664L354.841 51.76ZM356.721 54.32L356.014 55.0271C356.786 55.7989 357.644 56.4045 358.59 56.8314L359.001 55.92L359.413 55.0086C358.705 54.6889 358.043 54.2278 357.428 53.6129L356.721 54.32ZM359.001 55.92L358.59 56.8314C359.542 57.2613 360.535 57.48 361.561 57.48V56.48V55.48C360.828 55.48 360.114 55.3254 359.413 55.0086L359.001 55.92ZM361.561 56.48V57.48C362.559 57.48 363.473 57.2609 364.236 56.752L363.681 55.92L363.127 55.0879C362.77 55.3258 362.27 55.48 361.561 55.48V56.48ZM363.681 55.92L364.262 56.7337C365.11 56.1281 365.521 55.2375 365.521 54.2H364.521H363.521C363.521 54.6558 363.372 54.9119 363.1 55.1063L363.681 55.92ZM364.521 54.2H365.521C365.521 53.4506 365.289 52.7575 364.776 52.2017L364.041 52.88L363.306 53.5583C363.433 53.6958 363.521 53.8827 363.521 54.2H364.521ZM364.041 52.88L364.801 52.2292C364.341 51.6933 363.627 51.2469 362.784 50.8538L362.361 51.76L361.938 52.6662C362.696 53.0197 363.101 53.3201 363.282 53.5308L364.041 52.88ZM362.361 51.76L362.796 50.8594C361.983 50.4671 360.858 50.0016 359.434 49.4644L359.081 50.4L358.728 51.3356C360.131 51.865 361.193 52.3062 361.926 52.6606L362.361 51.76ZM359.081 50.4L359.44 49.4667C358.784 49.2142 358.041 48.8817 357.208 48.4656L356.761 49.36L356.314 50.2544C357.189 50.6917 357.992 51.0524 358.722 51.3333L359.081 50.4ZM356.761 49.36L357.23 48.4769C356.45 48.0621 355.685 47.533 354.936 46.8843L354.281 47.64L353.626 48.3957C354.478 49.1337 355.366 49.7513 356.292 50.2431L356.761 49.36ZM354.281 47.64L354.949 46.8954C354.273 46.2891 353.69 45.5332 353.206 44.6143L352.321 45.08L351.436 45.5457C352.019 46.6534 352.743 47.6042 353.614 48.3846L354.281 47.64ZM352.321 45.08L353.216 44.6328C352.792 43.786 352.561 42.7456 352.561 41.48H351.561H350.561C350.561 42.9877 350.837 44.3474 351.427 45.5272L352.321 45.08ZM351.561 41.48H352.561C352.561 39.9057 352.975 38.6515 353.751 37.6539L352.961 37.04L352.172 36.4261C351.081 37.8285 350.561 39.5343 350.561 41.48H351.561ZM352.961 37.04L353.757 37.6455C354.574 36.5717 355.666 35.7423 357.064 35.164L356.681 34.24L356.299 33.316C354.603 34.0177 353.215 35.0549 352.165 36.4345L352.961 37.04ZM356.681 34.24L357.064 35.164C358.474 34.5803 360.062 34.28 361.841 34.28V33.28V32.28C359.834 32.28 357.982 32.6197 356.299 33.316L356.681 34.24ZM361.841 33.28V34.28C363.709 34.28 365.271 34.5831 366.555 35.1538L366.961 34.24L367.367 33.3262C365.772 32.6169 363.92 32.28 361.841 32.28V33.28ZM366.961 34.24L366.569 35.16C367.908 35.73 368.978 36.4469 369.804 37.2971L370.521 36.6L371.238 35.9029C370.198 34.8331 368.895 33.9766 367.353 33.32L366.961 34.24ZM370.521 36.6L369.814 37.3071C370.691 38.1844 371.346 39.052 371.797 39.9068L372.681 39.44L373.566 38.9732C373.003 37.908 372.218 36.8823 371.228 35.8929L370.521 36.6ZM372.681 39.44L372.196 38.5656L366.356 41.8056L366.841 42.68L367.326 43.5544L373.166 40.3144L372.681 39.44ZM366.841 42.68L367.699 42.1655C367.246 41.4109 366.704 40.7696 366.066 40.2591L365.441 41.04L364.817 41.8209C365.245 42.1638 365.637 42.6158 365.984 43.1945L366.841 42.68ZM365.441 41.04L366.108 40.2948C365.523 39.7709 364.88 39.3607 364.18 39.0745L363.801 40L363.423 40.9255C363.896 41.1193 364.347 41.4025 364.774 41.7852L365.441 41.04ZM363.801 40L364.18 39.0745C363.477 38.787 362.749 38.64 362.001 38.64V39.64V40.64C362.48 40.64 362.952 40.733 363.423 40.9255L363.801 40ZM362.001 39.64V38.64C361.1 38.64 360.261 38.8253 359.585 39.303L360.161 40.12L360.738 40.937C360.968 40.7747 361.356 40.64 362.001 40.64V39.64ZM360.161 40.12L359.585 39.303C358.879 39.8014 358.481 40.5265 358.481 41.4H359.481H360.481C360.481 41.2069 360.537 41.0786 360.738 40.937L360.161 40.12ZM359.481 41.4H358.481C358.481 42.3341 358.885 43.1255 359.597 43.7249L360.241 42.96L360.885 42.1951C360.584 41.9412 360.481 41.6926 360.481 41.4H359.481ZM360.241 42.96L359.641 43.76C360.266 44.2283 361.069 44.6528 362.021 45.0447L362.401 44.12L362.782 43.1953C361.92 42.8406 361.283 42.4917 360.841 42.16L360.241 42.96ZM362.401 44.12L362.053 45.0574C362.992 45.4061 364.063 45.7944 365.266 46.2222L365.601 45.28L365.936 44.3378C364.74 43.9123 363.677 43.5272 362.749 43.1826L362.401 44.12ZM365.601 45.28L365.263 46.2212C366.243 46.5727 367.124 46.996 367.911 47.488L368.441 46.64L368.971 45.792C368.052 45.2174 367.04 44.7339 365.939 44.3388L365.601 45.28ZM368.441 46.64L367.942 47.5066C368.734 47.9626 369.409 48.509 369.974 49.1444L370.721 48.48L371.469 47.8156C370.753 47.011 369.908 46.3308 368.94 45.7734L368.441 46.64ZM370.721 48.48L369.986 49.1583C370.538 49.7555 370.965 50.4457 371.267 51.2371L372.201 50.88L373.135 50.5229C372.745 49.5009 372.185 48.5912 371.456 47.8017L370.721 48.48ZM372.201 50.88L371.267 51.2371C371.564 52.0137 371.721 52.9036 371.721 53.92H372.721H373.721C373.721 52.6964 373.532 51.5597 373.135 50.5229L372.201 50.88ZM372.721 53.92H371.721C371.721 55.2734 371.444 56.427 370.919 57.4083L371.801 57.88L372.683 58.3517C373.385 57.0396 373.721 55.5533 373.721 53.92H372.721ZM371.801 57.88L370.911 57.4245C370.395 58.4337 369.682 59.2752 368.765 59.9575L369.361 60.76L369.958 61.5625C371.12 60.6981 372.034 59.6197 372.691 58.3355L371.801 57.88ZM369.361 60.76L368.768 59.9549C367.858 60.6254 366.808 61.1353 365.607 61.4785L365.881 62.44L366.156 63.4015C367.568 62.9981 368.838 62.3879 369.954 61.5651L369.361 60.76ZM365.881 62.44L365.589 61.4838C364.376 61.8549 363.142 62.04 361.881 62.04V63.04V64.04C363.341 64.04 364.773 63.8251 366.174 63.3962L365.881 62.44ZM361.881 63.04V62.04C360.079 62.04 358.421 61.7277 356.895 61.1126L356.521 62.04L356.147 62.9674C357.928 63.6856 359.843 64.04 361.881 64.04V63.04ZM356.521 62.04L356.887 61.1094C355.37 60.5124 354.066 59.6977 352.964 58.6689L352.281 59.4L351.599 60.1311C352.897 61.3423 354.419 62.2876 356.155 62.9706L356.521 62.04ZM352.281 59.4L352.972 58.677C351.858 57.6122 351.031 56.4515 350.476 55.1955L349.561 55.6L348.647 56.0045C349.318 57.5219 350.305 58.8944 351.59 60.123L352.281 59.4ZM349.561 55.6L350.149 56.4087L355.429 52.5687L354.841 51.76L354.253 50.9513L348.973 54.7913L349.561 55.6ZM382.019 57.48L381.02 57.4381L380.976 58.48H382.019V57.48ZM382.259 51.76V50.76H381.3L381.26 51.7181L382.259 51.76ZM396.619 51.76L397.618 51.7251L397.584 50.76H396.619V51.76ZM396.819 57.48V58.48H397.854L397.818 57.4451L396.819 57.48ZM389.339 45.48L390.253 45.0751L389.334 42.9992L388.423 45.0787L389.339 45.48ZM385.659 53.88L384.743 53.4787L384.6 53.8053L384.696 54.1488L385.659 53.88ZM386.139 55.6L387.031 56.0517L387.206 55.7052L387.102 55.3312L386.139 55.6ZM382.899 62V63H383.513L383.791 62.4517L382.899 62ZM374.099 62L373.208 61.5456L372.466 63H374.099V62ZM389.339 32.12L390.229 31.6647L389.338 29.9214L388.448 31.6656L389.339 32.12ZM404.619 62V63H406.253L405.509 61.5447L404.619 62ZM395.819 62L394.933 62.4634L395.213 63H395.819V62ZM392.619 55.88L391.642 55.6651L391.564 56.0207L391.733 56.3434L392.619 55.88ZM393.059 53.88L394.035 54.0949L394.106 53.7748L393.973 53.4751L393.059 53.88ZM382.019 57.48L383.018 57.5219L383.258 51.8019L382.259 51.76L381.26 51.7181L381.02 57.4381L382.019 57.48ZM382.259 51.76V52.76H396.619V51.76V50.76H382.259V51.76ZM396.619 51.76L395.619 51.7949L395.819 57.5149L396.819 57.48L397.818 57.4451L397.618 51.7251L396.619 51.76ZM396.819 57.48V56.48H382.019V57.48V58.48H396.819V57.48ZM389.339 45.48L388.423 45.0787L384.743 53.4787L385.659 53.88L386.575 54.2813L390.255 45.8813L389.339 45.48ZM385.659 53.88L384.696 54.1488L385.176 55.8688L386.139 55.6L387.102 55.3312L386.622 53.6112L385.659 53.88ZM386.139 55.6L385.247 55.1483L382.007 61.5483L382.899 62L383.791 62.4517L387.031 56.0517L386.139 55.6ZM382.899 62V61H374.099V62V63H382.899V62ZM374.099 62L374.99 62.4544L390.23 32.5744L389.339 32.12L388.448 31.6656L373.208 61.5456L374.099 62ZM389.339 32.12L388.448 32.5753L403.728 62.4553L404.619 62L405.509 61.5447L390.229 31.6647L389.339 32.12ZM404.619 62V61H395.819V62V63H404.619V62ZM395.819 62L396.705 61.5366L393.505 55.4166L392.619 55.88L391.733 56.3434L394.933 62.4634L395.819 62ZM392.619 55.88L393.595 56.0949L394.035 54.0949L393.059 53.88L392.082 53.6651L391.642 55.6651L392.619 55.88ZM393.059 53.88L393.973 53.4751L390.253 45.0751L389.339 45.48L388.424 45.8849L392.144 54.2849L393.059 53.88ZM414.972 49.64V48.64H413.218L414.112 50.1496L414.972 49.64ZM422.932 49.64L423.759 49.0779L423.462 48.64H422.932V49.64ZM431.332 62V63H433.221L432.159 61.4379L431.332 62ZM422.292 62L421.432 62.5096L421.722 63H422.292V62ZM407.372 34V33H406.372V34H407.372ZM415.132 34H416.132V33H415.132V34ZM415.132 62V63H416.132V62H415.132ZM407.372 62H406.372V63H407.372V62ZM412.332 40.56H411.332V41.56H412.332V40.56ZM412.332 34V33H411.332V34H412.332ZM424.692 35.2L424.257 36.1002L424.262 36.1029L424.692 35.2ZM428.412 38.52L427.542 39.0126L427.547 39.0224L427.553 39.0321L428.412 38.52ZM428.412 48.24L427.545 47.7421L427.542 47.7474L428.412 48.24ZM424.692 51.56L425.116 52.4658L425.122 52.4629L424.692 51.56ZM412.332 52.72H411.332V53.72H412.332V52.72ZM412.332 46.84V45.84H411.332V46.84H412.332ZM421.092 45.4L420.26 44.8453L420.249 44.8617L420.239 44.8785L421.092 45.4ZM421.092 42L420.239 42.5215L420.256 42.5497L420.275 42.5767L421.092 42ZM414.972 49.64V50.64H422.932V49.64V48.64H414.972V49.64ZM422.932 49.64L422.105 50.2021L430.505 62.5621L431.332 62L432.159 61.4379L423.759 49.0779L422.932 49.64ZM431.332 62V61H422.292V62V63H431.332V62ZM422.292 62L423.153 61.4904L415.833 49.1304L414.972 49.64L414.112 50.1496L421.432 62.5096L422.292 62ZM407.372 34V35H415.132V34V33H407.372V34ZM415.132 34H414.132V62H415.132H416.132V34H415.132ZM415.132 62V61H407.372V62V63H415.132V62ZM407.372 62H408.372V34H407.372H406.372V62H407.372ZM412.332 40.56H413.332V34H412.332H411.332V40.56H412.332ZM412.332 34V35H418.372V34V33H412.332V34ZM418.372 34V35C420.837 35 422.782 35.3865 424.257 36.1002L424.692 35.2L425.128 34.2998C423.296 33.4135 421.027 33 418.372 33V34ZM424.692 35.2L424.262 36.1029C425.785 36.8279 426.857 37.8032 427.542 39.0126L428.412 38.52L429.282 38.0274C428.367 36.4102 426.96 35.1721 425.122 34.2971L424.692 35.2ZM428.412 38.52L427.553 39.0321C428.275 40.2432 428.652 41.6746 428.652 43.36H429.652H430.652C430.652 41.3654 430.202 39.5701 429.271 38.0079L428.412 38.52ZM429.652 43.36H428.652C428.652 45.0152 428.277 46.4674 427.545 47.7421L428.412 48.24L429.279 48.7379C430.201 47.1326 430.652 45.3315 430.652 43.36H429.652ZM428.412 48.24L427.542 47.7474C426.857 48.9568 425.785 49.9321 424.262 50.6571L424.692 51.56L425.122 52.4629C426.96 51.5879 428.367 50.3498 429.282 48.7326L428.412 48.24ZM424.692 51.56L424.268 50.6542C422.79 51.3458 420.841 51.72 418.372 51.72V52.72V53.72C421.023 53.72 423.288 53.3209 425.116 52.4658L424.692 51.56ZM418.372 52.72V51.72H412.332V52.72V53.72H418.372V52.72ZM412.332 52.72H413.332V46.84H412.332H411.332V52.72H412.332ZM412.332 46.84V47.84H417.732V46.84V45.84H412.332V46.84ZM417.732 46.84V47.84C418.649 47.84 419.486 47.7079 420.206 47.3991L419.812 46.48L419.418 45.5609C419.019 45.7321 418.469 45.84 417.732 45.84V46.84ZM419.812 46.48L420.206 47.3991C420.94 47.0846 421.535 46.5933 421.945 45.9214L421.092 45.4L420.239 44.8785C420.063 45.1667 419.804 45.3954 419.418 45.5609L419.812 46.48ZM421.092 45.4L421.924 45.9547C422.37 45.286 422.572 44.5125 422.572 43.68H421.572H420.572C420.572 44.1808 420.454 44.554 420.26 44.8453L421.092 45.4ZM421.572 43.68H422.572C422.572 42.8493 422.371 42.077 421.909 41.4233L421.092 42L420.275 42.5767C420.454 42.8296 420.572 43.1774 420.572 43.68H421.572ZM421.092 42L421.945 41.4785C421.535 40.8067 420.94 40.3154 420.206 40.0009L419.812 40.92L419.418 41.8391C419.804 42.0046 420.063 42.2333 420.239 42.5215L421.092 42ZM419.812 40.92L420.206 40.0009C419.486 39.6921 418.649 39.56 417.732 39.56V40.56V41.56C418.469 41.56 419.019 41.6679 419.418 41.8391L419.812 40.92ZM417.732 40.56V39.56H412.332V40.56V41.56H417.732V40.56Z" fill="black" mask="url(#path-3-inside-1_2_2109)"/>
</g>
</g>
<rect x="1" y="1" width="558" height="94" rx="15" stroke="white" stroke-width="2"/>
<defs>
<filter id="filter0_d_2_2109" x="85.4738" y="-10.88" width="391.858" height="123.28" filterUnits="userSpaceOnUse" color-interpolation-filters="sRGB">
<feFlood flood-opacity="0" result="BackgroundImageFix"/>
<feColorMatrix in="SourceAlpha" type="matrix" values="0 0 0 0 0 0 0 0 0 0 0 0 0 0 0 0 0 0 127 0" result="hardAlpha"/>
<feOffset dy="3"/>
<feGaussianBlur stdDeviation="23"/>
<feComposite in2="hardAlpha" operator="out"/>
<feColorMatrix type="matrix" values="0 0 0 0 1 0 0 0 0 1 0 0 0 0 1 0 0 0 0.35 0"/>
<feBlend mode="normal" in2="BackgroundImageFix" result="effect1_dropShadow_2_2109"/>
<feBlend mode="normal" in="SourceGraphic" in2="effect1_dropShadow_2_2109" result="shape"/>
</filter>
<linearGradient id="paint0_linear_2_2109" x1="0" y1="0" x2="537.255" y2="168.515" gradientUnits="userSpaceOnUse">
<stop stop-color="#8E8E8E"/>
<stop offset="0.221154" stop-color="white"/>
<stop offset="0.394231" stop-color="#BCBCBC"/>
<stop offset="0.706735" stop-color="white"/>
<stop offset="0.961538" stop-color="#878787"/>
</linearGradient>
<linearGradient id="paint1_linear_2_2109" x1="280" y1="20" x2="280" y2="76" gradientUnits="userSpaceOnUse">
<stop offset="0.144311"/>
<stop offset="0.703631" stop-color="#141414"/>
</linearGradient>
<clipPath id="clip0_2_2109">
<rect width="560" height="96" rx="16" fill="white"/>
</clipPath>
</defs>
</svg>
