<svg width="602" height="124" viewBox="0 0 602 124" fill="none" xmlns="http://www.w3.org/2000/svg">
<rect x="41" y="14" width="520" height="1" fill="url(#paint0_linear_54_112)"/>
<g filter="url(#filter0_d_54_112)">
<mask id="path-2-inside-1_54_112" fill="white">
<path d="M57.4238 58.12L69.6238 73H62.6638L52.2638 60.32V73H46.3838V45H52.2638V56.36L62.2238 45H69.0238L57.4238 58.12ZM90.5119 45V49.84H78.2319V55.76H89.7119V60.52H78.2319V68.16H90.5119V73H72.7119V45H90.5119ZM113.949 45V49.84H101.669V55.76H113.149V60.52H101.669V68.16H113.949V73H96.1494V45H113.949ZM134.307 46.08C137.427 47.52 139.107 50.24 139.107 53.92C139.107 55.72 138.707 57.32 137.867 58.64C136.227 61.36 133.067 62.84 128.627 62.84H125.307V73H119.587V45H128.627C130.827 45 132.747 45.36 134.307 46.08ZM125.307 58H128.627C131.667 58 133.547 56.6 133.547 53.92C133.547 51.2 131.667 49.84 128.627 49.84H125.307V58ZM174.324 55.52V45H180.044V73H174.324V60.68H161.244V73H155.524V45H161.244V55.52H174.324ZM186.071 73V45H191.871V73H186.071ZM202.627 50.16H195.107V45H215.907V50.16H208.347V73H202.627V50.16ZM225.088 50.16H217.568V45H238.368V50.16H230.808V73H225.088V50.16ZM241.618 73V45H247.418V73H241.618ZM273.374 62.36V45H278.894V74.4L258.974 55.64V73H253.454V43.6L273.374 62.36ZM306.618 62.6H298.578V58.04H312.378C312.538 62.32 311.378 66.2 308.978 69.08C306.538 72 302.938 73.76 298.338 73.76C294.018 73.76 290.298 72.24 287.618 69.64C284.898 67.04 283.378 63.32 283.378 59C283.378 54.68 284.978 51 287.698 48.44C290.418 45.88 294.178 44.44 298.498 44.44C300.418 44.44 302.137 44.72 303.698 45.24C306.738 46.32 309.098 48.24 310.818 50.84L305.938 53.68C304.537 51.24 302.058 49.56 298.498 49.56C296.818 49.56 295.298 49.92 293.898 50.68C291.138 52.2 289.378 55.12 289.378 59C289.378 60.92 289.778 62.6 290.578 64.04C292.178 66.96 295.018 68.64 298.498 68.64C302.818 68.64 305.618 66.24 306.618 62.6ZM333.76 50.16H326.24V45H347.04V50.16H339.48V73H333.76V50.16ZM369.09 55.52V45H374.81V73H369.09V60.68H356.01V73H350.29V45H356.01V55.52H369.09ZM398.637 45V49.84H386.357V55.76H397.837V60.52H386.357V68.16H398.637V73H380.837V45H398.637ZM414.627 66.48L418.707 63.6C419.987 65.84 423.347 68.76 425.747 68.76C428.027 68.76 429.627 67.52 429.627 65.48C429.627 63.44 426.547 61.64 423.827 60.6C420.387 59.36 416.387 57.16 416.387 52.2C416.387 50.6 416.787 49.2 417.627 48.04C419.227 45.72 422.147 44.44 425.627 44.44C427.427 44.44 428.947 44.72 430.267 45.32C432.827 46.52 434.547 48.52 435.507 50.48L431.027 52.96C429.907 50.92 428.067 49.32 425.627 49.32C423.387 49.32 422.267 50.52 422.267 51.92C422.267 53.68 425.467 55.6 428.547 56.64C432.467 58.04 435.627 60.56 435.627 65.16C435.627 70.48 431.067 73.76 425.827 73.76C424.107 73.76 422.547 73.44 421.067 72.76C418.107 71.48 415.867 69.08 414.627 66.48ZM460.21 62.36V45H465.73V74.4L445.81 55.64V73H440.29V43.6L460.21 62.36ZM497.213 73H490.733L487.773 66.64H478.173L475.253 73H468.813L483.013 43.36L497.213 73ZM479.493 62.12H486.493L483.013 54.08L479.493 62.12ZM521.771 73H515.011L508.451 62.84H505.971V73H500.251V45H509.651C511.851 45 513.731 45.36 515.291 46.12C518.371 47.6 520.091 50.36 520.091 53.92C520.091 55.68 519.691 57.24 518.851 58.56C517.851 60.24 516.291 61.48 514.211 62.16L521.771 73ZM509.291 49.88H505.971V58.28H509.291C512.211 58.28 514.211 56.76 514.211 54.08C514.211 51.4 512.211 49.88 509.291 49.88ZM542.856 45V49.84H530.576V55.76H542.056V60.52H530.576V68.16H542.856V73H525.056V45H542.856ZM550.013 64.16L548.853 45H555.253L554.093 64.16H550.013ZM548.773 70.8C548.773 69.04 550.173 67.76 552.053 67.76C553.973 67.76 555.333 69.04 555.333 70.8C555.333 72.56 553.973 73.84 552.053 73.84C550.173 73.84 548.773 72.56 548.773 70.8Z"/>
</mask>
<path d="M57.4238 58.12L69.6238 73H62.6638L52.2638 60.32V73H46.3838V45H52.2638V56.36L62.2238 45H69.0238L57.4238 58.12ZM90.5119 45V49.84H78.2319V55.76H89.7119V60.52H78.2319V68.16H90.5119V73H72.7119V45H90.5119ZM113.949 45V49.84H101.669V55.76H113.149V60.52H101.669V68.16H113.949V73H96.1494V45H113.949ZM134.307 46.08C137.427 47.52 139.107 50.24 139.107 53.92C139.107 55.72 138.707 57.32 137.867 58.64C136.227 61.36 133.067 62.84 128.627 62.84H125.307V73H119.587V45H128.627C130.827 45 132.747 45.36 134.307 46.08ZM125.307 58H128.627C131.667 58 133.547 56.6 133.547 53.92C133.547 51.2 131.667 49.84 128.627 49.84H125.307V58ZM174.324 55.52V45H180.044V73H174.324V60.68H161.244V73H155.524V45H161.244V55.52H174.324ZM186.071 73V45H191.871V73H186.071ZM202.627 50.16H195.107V45H215.907V50.16H208.347V73H202.627V50.16ZM225.088 50.16H217.568V45H238.368V50.16H230.808V73H225.088V50.16ZM241.618 73V45H247.418V73H241.618ZM273.374 62.36V45H278.894V74.4L258.974 55.64V73H253.454V43.6L273.374 62.36ZM306.618 62.6H298.578V58.04H312.378C312.538 62.32 311.378 66.2 308.978 69.08C306.538 72 302.938 73.76 298.338 73.76C294.018 73.76 290.298 72.24 287.618 69.64C284.898 67.04 283.378 63.32 283.378 59C283.378 54.68 284.978 51 287.698 48.44C290.418 45.88 294.178 44.44 298.498 44.44C300.418 44.44 302.137 44.72 303.698 45.24C306.738 46.32 309.098 48.24 310.818 50.84L305.938 53.68C304.537 51.24 302.058 49.56 298.498 49.56C296.818 49.56 295.298 49.92 293.898 50.68C291.138 52.2 289.378 55.12 289.378 59C289.378 60.92 289.778 62.6 290.578 64.04C292.178 66.96 295.018 68.64 298.498 68.64C302.818 68.64 305.618 66.24 306.618 62.6ZM333.76 50.16H326.24V45H347.04V50.16H339.48V73H333.76V50.16ZM369.09 55.52V45H374.81V73H369.09V60.68H356.01V73H350.29V45H356.01V55.52H369.09ZM398.637 45V49.84H386.357V55.76H397.837V60.52H386.357V68.16H398.637V73H380.837V45H398.637ZM414.627 66.48L418.707 63.6C419.987 65.84 423.347 68.76 425.747 68.76C428.027 68.76 429.627 67.52 429.627 65.48C429.627 63.44 426.547 61.64 423.827 60.6C420.387 59.36 416.387 57.16 416.387 52.2C416.387 50.6 416.787 49.2 417.627 48.04C419.227 45.72 422.147 44.44 425.627 44.44C427.427 44.44 428.947 44.72 430.267 45.32C432.827 46.52 434.547 48.52 435.507 50.48L431.027 52.96C429.907 50.92 428.067 49.32 425.627 49.32C423.387 49.32 422.267 50.52 422.267 51.92C422.267 53.68 425.467 55.6 428.547 56.64C432.467 58.04 435.627 60.56 435.627 65.16C435.627 70.48 431.067 73.76 425.827 73.76C424.107 73.76 422.547 73.44 421.067 72.76C418.107 71.48 415.867 69.08 414.627 66.48ZM460.21 62.36V45H465.73V74.4L445.81 55.64V73H440.29V43.6L460.21 62.36ZM497.213 73H490.733L487.773 66.64H478.173L475.253 73H468.813L483.013 43.36L497.213 73ZM479.493 62.12H486.493L483.013 54.08L479.493 62.12ZM521.771 73H515.011L508.451 62.84H505.971V73H500.251V45H509.651C511.851 45 513.731 45.36 515.291 46.12C518.371 47.6 520.091 50.36 520.091 53.92C520.091 55.68 519.691 57.24 518.851 58.56C517.851 60.24 516.291 61.48 514.211 62.16L521.771 73ZM509.291 49.88H505.971V58.28H509.291C512.211 58.28 514.211 56.76 514.211 54.08C514.211 51.4 512.211 49.88 509.291 49.88ZM542.856 45V49.84H530.576V55.76H542.056V60.52H530.576V68.16H542.856V73H525.056V45H542.856ZM550.013 64.16L548.853 45H555.253L554.093 64.16H550.013ZM548.773 70.8C548.773 69.04 550.173 67.76 552.053 67.76C553.973 67.76 555.333 69.04 555.333 70.8C555.333 72.56 553.973 73.84 552.053 73.84C550.173 73.84 548.773 72.56 548.773 70.8Z" fill="white"/>
<path d="M57.4238 58.12L69.6238 73H62.6638L52.2638 60.32V73H46.3838V45H52.2638V56.36L62.2238 45H69.0238L57.4238 58.12ZM90.5119 45V49.84H78.2319V55.76H89.7119V60.52H78.2319V68.16H90.5119V73H72.7119V45H90.5119ZM113.949 45V49.84H101.669V55.76H113.149V60.52H101.669V68.16H113.949V73H96.1494V45H113.949ZM134.307 46.08C137.427 47.52 139.107 50.24 139.107 53.92C139.107 55.72 138.707 57.32 137.867 58.64C136.227 61.36 133.067 62.84 128.627 62.84H125.307V73H119.587V45H128.627C130.827 45 132.747 45.36 134.307 46.08ZM125.307 58H128.627C131.667 58 133.547 56.6 133.547 53.92C133.547 51.2 131.667 49.84 128.627 49.84H125.307V58ZM174.324 55.52V45H180.044V73H174.324V60.68H161.244V73H155.524V45H161.244V55.52H174.324ZM186.071 73V45H191.871V73H186.071ZM202.627 50.16H195.107V45H215.907V50.16H208.347V73H202.627V50.16ZM225.088 50.16H217.568V45H238.368V50.16H230.808V73H225.088V50.16ZM241.618 73V45H247.418V73H241.618ZM273.374 62.36V45H278.894V74.4L258.974 55.64V73H253.454V43.6L273.374 62.36ZM306.618 62.6H298.578V58.04H312.378C312.538 62.32 311.378 66.2 308.978 69.08C306.538 72 302.938 73.76 298.338 73.76C294.018 73.76 290.298 72.24 287.618 69.64C284.898 67.04 283.378 63.32 283.378 59C283.378 54.68 284.978 51 287.698 48.44C290.418 45.88 294.178 44.44 298.498 44.44C300.418 44.44 302.137 44.72 303.698 45.24C306.738 46.32 309.098 48.24 310.818 50.84L305.938 53.68C304.537 51.24 302.058 49.56 298.498 49.56C296.818 49.56 295.298 49.92 293.898 50.68C291.138 52.2 289.378 55.12 289.378 59C289.378 60.92 289.778 62.6 290.578 64.04C292.178 66.96 295.018 68.64 298.498 68.64C302.818 68.64 305.618 66.24 306.618 62.6ZM333.76 50.16H326.24V45H347.04V50.16H339.48V73H333.76V50.16ZM369.09 55.52V45H374.81V73H369.09V60.68H356.01V73H350.29V45H356.01V55.52H369.09ZM398.637 45V49.84H386.357V55.76H397.837V60.52H386.357V68.16H398.637V73H380.837V45H398.637ZM414.627 66.48L418.707 63.6C419.987 65.84 423.347 68.76 425.747 68.76C428.027 68.76 429.627 67.52 429.627 65.48C429.627 63.44 426.547 61.64 423.827 60.6C420.387 59.36 416.387 57.16 416.387 52.2C416.387 50.6 416.787 49.2 417.627 48.04C419.227 45.72 422.147 44.44 425.627 44.44C427.427 44.44 428.947 44.72 430.267 45.32C432.827 46.52 434.547 48.52 435.507 50.48L431.027 52.96C429.907 50.92 428.067 49.32 425.627 49.32C423.387 49.32 422.267 50.52 422.267 51.92C422.267 53.68 425.467 55.6 428.547 56.64C432.467 58.04 435.627 60.56 435.627 65.16C435.627 70.48 431.067 73.76 425.827 73.76C424.107 73.76 422.547 73.44 421.067 72.76C418.107 71.48 415.867 69.08 414.627 66.48ZM460.21 62.36V45H465.73V74.4L445.81 55.64V73H440.29V43.6L460.21 62.36ZM497.213 73H490.733L487.773 66.64H478.173L475.253 73H468.813L483.013 43.36L497.213 73ZM479.493 62.12H486.493L483.013 54.08L479.493 62.12ZM521.771 73H515.011L508.451 62.84H505.971V73H500.251V45H509.651C511.851 45 513.731 45.36 515.291 46.12C518.371 47.6 520.091 50.36 520.091 53.92C520.091 55.68 519.691 57.24 518.851 58.56C517.851 60.24 516.291 61.48 514.211 62.16L521.771 73ZM509.291 49.88H505.971V58.28H509.291C512.211 58.28 514.211 56.76 514.211 54.08C514.211 51.4 512.211 49.88 509.291 49.88ZM542.856 45V49.84H530.576V55.76H542.056V60.52H530.576V68.16H542.856V73H525.056V45H542.856ZM550.013 64.16L548.853 45H555.253L554.093 64.16H550.013ZM548.773 70.8C548.773 69.04 550.173 67.76 552.053 67.76C553.973 67.76 555.333 69.04 555.333 70.8C555.333 72.56 553.973 73.84 552.053 73.84C550.173 73.84 548.773 72.56 548.773 70.8Z" fill="url(#paint1_linear_54_112)"/>
<path d="M57.4238 58.12L56.6746 57.4576L56.1106 58.0955L56.6504 58.754L57.4238 58.12ZM69.6238 73V74H71.7368L70.3971 72.366L69.6238 73ZM62.6637 73L61.8906 73.6342L62.1906 74H62.6637V73ZM52.2638 60.32L53.0369 59.6858L51.2638 57.5239V60.32H52.2638ZM52.2638 73V74H53.2638V73H52.2638ZM46.3838 73H45.3838V74H46.3838V73ZM46.3838 45V44H45.3838V45H46.3838ZM52.2638 45H53.2638V44H52.2638V45ZM52.2638 56.36H51.2638V59.0174L53.0157 57.0193L52.2638 56.36ZM62.2238 45V44H61.7706L61.4718 44.3407L62.2238 45ZM69.0238 45L69.7729 45.6624L71.2427 44H69.0238V45ZM57.4238 58.12L56.6504 58.754L68.8504 73.634L69.6238 73L70.3971 72.366L58.1971 57.486L57.4238 58.12ZM69.6238 73V72H62.6637V73V74H69.6238V73ZM62.6637 73L63.4369 72.3658L53.0369 59.6858L52.2638 60.32L51.4906 60.9542L61.8906 73.6342L62.6637 73ZM52.2638 60.32H51.2638V73H52.2638H53.2638V60.32H52.2638ZM52.2638 73V72H46.3838V73V74H52.2638V73ZM46.3838 73H47.3837V45H46.3838H45.3838V73H46.3838ZM46.3838 45V46H52.2638V45V44H46.3838V45ZM52.2638 45H51.2638V56.36H52.2638H53.2638V45H52.2638ZM52.2638 56.36L53.0157 57.0193L62.9757 45.6593L62.2238 45L61.4718 44.3407L51.5118 55.7007L52.2638 56.36ZM62.2238 45V46H69.0238V45V44H62.2238V45ZM69.0238 45L68.2746 44.3376L56.6746 57.4576L57.4238 58.12L58.1729 58.7824L69.7729 45.6624L69.0238 45ZM90.5119 45H91.5119V44H90.5119V45ZM90.5119 49.84V50.84H91.5119V49.84H90.5119ZM78.2319 49.84V48.84H77.2319V49.84H78.2319ZM78.2319 55.76H77.2319V56.76H78.2319V55.76ZM89.7119 55.76H90.7119V54.76H89.7119V55.76ZM89.7119 60.52V61.52H90.7119V60.52H89.7119ZM78.2319 60.52V59.52H77.2319V60.52H78.2319ZM78.2319 68.16H77.2319V69.16H78.2319V68.16ZM90.5119 68.16H91.5119V67.16H90.5119V68.16ZM90.5119 73V74H91.5119V73H90.5119ZM72.7119 73H71.7119V74H72.7119V73ZM72.7119 45V44H71.7119V45H72.7119ZM90.5119 45H89.5119V49.84H90.5119H91.5119V45H90.5119ZM90.5119 49.84V48.84H78.2319V49.84V50.84H90.5119V49.84ZM78.2319 49.84H77.2319V55.76H78.2319H79.2319V49.84H78.2319ZM78.2319 55.76V56.76H89.7119V55.76V54.76H78.2319V55.76ZM89.7119 55.76H88.7119V60.52H89.7119H90.7119V55.76H89.7119ZM89.7119 60.52V59.52H78.2319V60.52V61.52H89.7119V60.52ZM78.2319 60.52H77.2319V68.16H78.2319H79.2319V60.52H78.2319ZM78.2319 68.16V69.16H90.5119V68.16V67.16H78.2319V68.16ZM90.5119 68.16H89.5119V73H90.5119H91.5119V68.16H90.5119ZM90.5119 73V72H72.7119V73V74H90.5119V73ZM72.7119 73H73.7119V45H72.7119H71.7119V73H72.7119ZM72.7119 45V46H90.5119V45V44H72.7119V45ZM113.949 45H114.949V44H113.949V45ZM113.949 49.84V50.84H114.949V49.84H113.949ZM101.669 49.84V48.84H100.669V49.84H101.669ZM101.669 55.76H100.669V56.76H101.669V55.76ZM113.149 55.76H114.149V54.76H113.149V55.76ZM113.149 60.52V61.52H114.149V60.52H113.149ZM101.669 60.52V59.52H100.669V60.52H101.669ZM101.669 68.16H100.669V69.16H101.669V68.16ZM113.949 68.16H114.949V67.16H113.949V68.16ZM113.949 73V74H114.949V73H113.949ZM96.1494 73H95.1494V74H96.1494V73ZM96.1494 45V44H95.1494V45H96.1494ZM113.949 45H112.949V49.84H113.949H114.949V45H113.949ZM113.949 49.84V48.84H101.669V49.84V50.84H113.949V49.84ZM101.669 49.84H100.669V55.76H101.669H102.669V49.84H101.669ZM101.669 55.76V56.76H113.149V55.76V54.76H101.669V55.76ZM113.149 55.76H112.149V60.52H113.149H114.149V55.76H113.149ZM113.149 60.52V59.52H101.669V60.52V61.52H113.149V60.52ZM101.669 60.52H100.669V68.16H101.669H102.669V60.52H101.669ZM101.669 68.16V69.16H113.949V68.16V67.16H101.669V68.16ZM113.949 68.16H112.949V73H113.949H114.949V68.16H113.949ZM113.949 73V72H96.1494V73V74H113.949V73ZM96.1494 73H97.1494V45H96.1494H95.1494V73H96.1494ZM96.1494 45V46H113.949V45V44H96.1494V45ZM134.307 46.08L134.726 45.172L134.307 46.08ZM137.867 58.64L137.023 58.1031L137.017 58.1133L137.01 58.1237L137.867 58.64ZM125.307 62.84V61.84H124.307V62.84H125.307ZM125.307 73V74H126.307V73H125.307ZM119.587 73H118.587V74H119.587V73ZM119.587 45V44H118.587V45H119.587ZM125.307 58H124.307V59H125.307V58ZM125.307 49.84V48.84H124.307V49.84H125.307ZM134.307 46.08L133.888 46.988C136.627 48.2522 138.107 50.5998 138.107 53.92H139.107H140.107C140.107 49.8802 138.227 46.7878 134.726 45.172L134.307 46.08ZM139.107 53.92H138.107C138.107 55.5728 137.74 56.9764 137.023 58.1031L137.867 58.64L138.711 59.1769C139.674 57.6636 140.107 55.8672 140.107 53.92H139.107ZM137.867 58.64L137.01 58.1237C135.613 60.441 132.855 61.84 128.627 61.84V62.84V63.84C133.278 63.84 136.84 62.279 138.723 59.1563L137.867 58.64ZM128.627 62.84V61.84H125.307V62.84V63.84H128.627V62.84ZM125.307 62.84H124.307V73H125.307H126.307V62.84H125.307ZM125.307 73V72H119.587V73V74H125.307V73ZM119.587 73H120.587V45H119.587H118.587V73H119.587ZM119.587 45V46H128.627V45V44H119.587V45ZM128.627 45V46C130.724 46 132.493 46.3441 133.888 46.988L134.307 46.08L134.726 45.172C133.001 44.3759 130.929 44 128.627 44V45ZM125.307 58V59H128.627V58V57H125.307V58ZM128.627 58V59C130.283 59 131.766 58.6205 132.854 57.7436C133.975 56.8406 134.547 55.5145 134.547 53.92H133.547H132.547C132.547 55.0055 132.179 55.7194 131.599 56.1864C130.987 56.6795 130.01 57 128.627 57V58ZM133.547 53.92H134.547C134.547 52.3092 133.977 50.9797 132.852 50.0791C131.761 49.2068 130.277 48.84 128.627 48.84V49.84V50.84C130.017 50.84 130.993 51.1532 131.602 51.6409C132.176 52.1003 132.547 52.8108 132.547 53.92H133.547ZM128.627 49.84V48.84H125.307V49.84V50.84H128.627V49.84ZM125.307 49.84H124.307V58H125.307H126.307V49.84H125.307ZM174.324 55.52V56.52H175.324V55.52H174.324ZM174.324 45V44H173.324V45H174.324ZM180.044 45H181.044V44H180.044V45ZM180.044 73V74H181.044V73H180.044ZM174.324 73H173.324V74H174.324V73ZM174.324 60.68H175.324V59.68H174.324V60.68ZM161.244 60.68V59.68H160.244V60.68H161.244ZM161.244 73V74H162.244V73H161.244ZM155.524 73H154.524V74H155.524V73ZM155.524 45V44H154.524V45H155.524ZM161.244 45H162.244V44H161.244V45ZM161.244 55.52H160.244V56.52H161.244V55.52ZM174.324 55.52H175.324V45H174.324H173.324V55.52H174.324ZM174.324 45V46H180.044V45V44H174.324V45ZM180.044 45H179.044V73H180.044H181.044V45H180.044ZM180.044 73V72H174.324V73V74H180.044V73ZM174.324 73H175.324V60.68H174.324H173.324V73H174.324ZM174.324 60.68V59.68H161.244V60.68V61.68H174.324V60.68ZM161.244 60.68H160.244V73H161.244H162.244V60.68H161.244ZM161.244 73V72H155.524V73V74H161.244V73ZM155.524 73H156.524V45H155.524H154.524V73H155.524ZM155.524 45V46H161.244V45V44H155.524V45ZM161.244 45H160.244V55.52H161.244H162.244V45H161.244ZM161.244 55.52V56.52H174.324V55.52V54.52H161.244V55.52ZM186.071 73H185.071V74H186.071V73ZM186.071 45V44H185.071V45H186.071ZM191.871 45H192.871V44H191.871V45ZM191.871 73V74H192.871V73H191.871ZM186.071 73H187.071V45H186.071H185.071V73H186.071ZM186.071 45V46H191.871V45V44H186.071V45ZM191.871 45H190.871V73H191.871H192.871V45H191.871ZM191.871 73V72H186.071V73V74H191.871V73ZM202.627 50.16H203.627V49.16H202.627V50.16ZM195.107 50.16H194.107V51.16H195.107V50.16ZM195.107 45V44H194.107V45H195.107ZM215.907 45H216.907V44H215.907V45ZM215.907 50.16V51.16H216.907V50.16H215.907ZM208.347 50.16V49.16H207.347V50.16H208.347ZM208.347 73V74H209.347V73H208.347ZM202.627 73H201.627V74H202.627V73ZM202.627 50.16V49.16H195.107V50.16V51.16H202.627V50.16ZM195.107 50.16H196.107V45H195.107H194.107V50.16H195.107ZM195.107 45V46H215.907V45V44H195.107V45ZM215.907 45H214.907V50.16H215.907H216.907V45H215.907ZM215.907 50.16V49.16H208.347V50.16V51.16H215.907V50.16ZM208.347 50.16H207.347V73H208.347H209.347V50.16H208.347ZM208.347 73V72H202.627V73V74H208.347V73ZM202.627 73H203.627V50.16H202.627H201.627V73H202.627ZM225.088 50.16H226.088V49.16H225.088V50.16ZM217.568 50.16H216.568V51.16H217.568V50.16ZM217.568 45V44H216.568V45H217.568ZM238.368 45H239.368V44H238.368V45ZM238.368 50.16V51.16H239.368V50.16H238.368ZM230.808 50.16V49.16H229.808V50.16H230.808ZM230.808 73V74H231.808V73H230.808ZM225.088 73H224.088V74H225.088V73ZM225.088 50.16V49.16H217.568V50.16V51.16H225.088V50.16ZM217.568 50.16H218.568V45H217.568H216.568V50.16H217.568ZM217.568 45V46H238.368V45V44H217.568V45ZM238.368 45H237.368V50.16H238.368H239.368V45H238.368ZM238.368 50.16V49.16H230.808V50.16V51.16H238.368V50.16ZM230.808 50.16H229.808V73H230.808H231.808V50.16H230.808ZM230.808 73V72H225.088V73V74H230.808V73ZM225.088 73H226.088V50.16H225.088H224.088V73H225.088ZM241.618 73H240.618V74H241.618V73ZM241.618 45V44H240.618V45H241.618ZM247.418 45H248.418V44H247.418V45ZM247.418 73V74H248.418V73H247.418ZM241.618 73H242.618V45H241.618H240.618V73H241.618ZM241.618 45V46H247.418V45V44H241.618V45ZM247.418 45H246.418V73H247.418H248.418V45H247.418ZM247.418 73V72H241.618V73V74H247.418V73ZM273.374 62.36L272.688 63.088L274.374 64.6754V62.36H273.374ZM273.374 45V44H272.374V45H273.374ZM278.894 45H279.894V44H278.894V45ZM278.894 74.4L278.208 75.128L279.894 76.7154V74.4H278.894ZM258.974 55.64L259.66 54.912L257.974 53.3246V55.64H258.974ZM258.974 73V74H259.974V73H258.974ZM253.454 73H252.454V74H253.454V73ZM253.454 43.6L254.14 42.872L252.454 41.2846V43.6H253.454ZM273.374 62.36H274.374V45H273.374H272.374V62.36H273.374ZM273.374 45V46H278.894V45V44H273.374V45ZM278.894 45H277.894V74.4H278.894H279.894V45H278.894ZM278.894 74.4L279.58 73.672L259.66 54.912L258.974 55.64L258.288 56.368L278.208 75.128L278.894 74.4ZM258.974 55.64H257.974V73H258.974H259.974V55.64H258.974ZM258.974 73V72H253.454V73V74H258.974V73ZM253.454 73H254.454V43.6H253.454H252.454V73H253.454ZM253.454 43.6L252.768 44.328L272.688 63.088L273.374 62.36L274.06 61.632L254.14 42.872L253.454 43.6ZM306.617 62.6L307.582 62.8649L307.929 61.6H306.617V62.6ZM298.577 62.6H297.577V63.6H298.577V62.6ZM298.577 58.04V57.04H297.577V58.04H298.577ZM312.378 58.04L313.377 58.0026L313.341 57.04H312.378V58.04ZM308.978 69.08L309.745 69.7212L309.746 69.7202L308.978 69.08ZM287.617 69.64L288.314 68.9222L288.308 68.9171L287.617 69.64ZM303.698 45.24L304.032 44.2977L304.023 44.2944L304.014 44.2913L303.698 45.24ZM310.818 50.84L311.32 51.7043L312.236 51.1716L311.652 50.2883L310.818 50.84ZM305.938 53.68L305.07 54.1777L305.571 55.0504L306.44 54.5443L305.938 53.68ZM293.898 50.68L293.42 49.8011L293.415 49.8041L293.898 50.68ZM290.577 64.04L291.454 63.5595L291.452 63.5544L290.577 64.04ZM306.617 62.6V61.6H298.577V62.6V63.6H306.617V62.6ZM298.577 62.6H299.578V58.04H298.577H297.577V62.6H298.577ZM298.577 58.04V59.04H312.378V58.04V57.04H298.577V58.04ZM312.378 58.04L311.378 58.0774C311.531 62.1584 310.423 65.7831 308.209 68.4398L308.978 69.08L309.746 69.7202C312.332 66.6169 313.544 62.4816 313.377 58.0026L312.378 58.04ZM308.978 69.08L308.21 68.4388C305.972 71.1173 302.66 72.76 298.337 72.76V73.76V74.76C303.215 74.76 307.103 72.8827 309.745 69.7212L308.978 69.08ZM298.337 73.76V72.76C294.259 72.76 290.794 71.3287 288.314 68.9223L287.617 69.64L286.921 70.3577C289.801 73.1513 293.776 74.76 298.337 74.76V73.76ZM287.617 69.64L288.308 68.9171C285.809 66.5278 284.378 63.0805 284.378 59H283.378H282.378C282.378 63.5595 283.986 67.5522 286.927 70.3629L287.617 69.64ZM283.378 59H284.378C284.378 54.9353 285.878 51.5257 288.383 49.1682L287.697 48.44L287.012 47.7118C284.077 50.4743 282.378 54.4247 282.378 59H283.378ZM287.697 48.44L288.383 49.1682C290.897 46.8019 294.403 45.44 298.497 45.44V44.44V43.44C293.952 43.44 289.938 44.9581 287.012 47.7118L287.697 48.44ZM298.497 44.44V45.44C300.318 45.44 301.931 45.7052 303.381 46.1887L303.698 45.24L304.014 44.2913C302.344 43.7348 300.517 43.44 298.497 43.44V44.44ZM303.698 45.24L303.363 46.1823C306.19 47.1865 308.378 48.9646 309.983 51.3917L310.818 50.84L311.652 50.2883C309.817 47.5154 307.285 45.4534 304.032 44.2977L303.698 45.24ZM310.818 50.84L310.315 49.9757L305.435 52.8157L305.938 53.68L306.44 54.5443L311.32 51.7043L310.818 50.84ZM305.938 53.68L306.805 53.1823C305.23 50.4372 302.422 48.56 298.497 48.56V49.56V50.56C301.693 50.56 303.845 52.0428 305.07 54.1777L305.938 53.68ZM298.497 49.56V48.56C296.667 48.56 294.98 48.9543 293.42 49.8011L293.898 50.68L294.375 51.5589C295.615 50.8857 296.968 50.56 298.497 50.56V49.56ZM293.898 50.68L293.415 49.8041C290.304 51.5176 288.378 54.7937 288.378 59H289.378H290.378C290.378 55.4463 291.971 52.8824 294.38 51.5559L293.898 50.68ZM289.378 59H288.378C288.378 61.0616 288.808 62.9142 289.703 64.5256L290.577 64.04L291.452 63.5544C290.747 62.2858 290.378 60.7784 290.378 59H289.378ZM290.577 64.04L289.701 64.5205C291.481 67.7696 294.662 69.64 298.497 69.64V68.64V67.64C295.373 67.64 292.874 66.1504 291.454 63.5595L290.577 64.04ZM298.497 68.64V69.64C300.849 69.64 302.851 68.984 304.414 67.7762C305.974 66.5703 307.033 64.863 307.582 62.8649L306.617 62.6L305.653 62.3351C305.202 63.977 304.361 65.2897 303.191 66.1938C302.024 67.096 300.466 67.64 298.497 67.64V68.64ZM333.76 50.16H334.76V49.16H333.76V50.16ZM326.24 50.16H325.24V51.16H326.24V50.16ZM326.24 45V44H325.24V45H326.24ZM347.04 45H348.04V44H347.04V45ZM347.04 50.16V51.16H348.04V50.16H347.04ZM339.48 50.16V49.16H338.48V50.16H339.48ZM339.48 73V74H340.48V73H339.48ZM333.76 73H332.76V74H333.76V73ZM333.76 50.16V49.16H326.24V50.16V51.16H333.76V50.16ZM326.24 50.16H327.24V45H326.24H325.24V50.16H326.24ZM326.24 45V46H347.04V45V44H326.24V45ZM347.04 45H346.04V50.16H347.04H348.04V45H347.04ZM347.04 50.16V49.16H339.48V50.16V51.16H347.04V50.16ZM339.48 50.16H338.48V73H339.48H340.48V50.16H339.48ZM339.48 73V72H333.76V73V74H339.48V73ZM333.76 73H334.76V50.16H333.76H332.76V73H333.76ZM369.09 55.52V56.52H370.09V55.52H369.09ZM369.09 45V44H368.09V45H369.09ZM374.81 45H375.81V44H374.81V45ZM374.81 73V74H375.81V73H374.81ZM369.09 73H368.09V74H369.09V73ZM369.09 60.68H370.09V59.68H369.09V60.68ZM356.01 60.68V59.68H355.01V60.68H356.01ZM356.01 73V74H357.01V73H356.01ZM350.29 73H349.29V74H350.29V73ZM350.29 45V44H349.29V45H350.29ZM356.01 45H357.01V44H356.01V45ZM356.01 55.52H355.01V56.52H356.01V55.52ZM369.09 55.52H370.09V45H369.09H368.09V55.52H369.09ZM369.09 45V46H374.81V45V44H369.09V45ZM374.81 45H373.81V73H374.81H375.81V45H374.81ZM374.81 73V72H369.09V73V74H374.81V73ZM369.09 73H370.09V60.68H369.09H368.09V73H369.09ZM369.09 60.68V59.68H356.01V60.68V61.68H369.09V60.68ZM356.01 60.68H355.01V73H356.01H357.01V60.68H356.01ZM356.01 73V72H350.29V73V74H356.01V73ZM350.29 73H351.29V45H350.29H349.29V73H350.29ZM350.29 45V46H356.01V45V44H350.29V45ZM356.01 45H355.01V55.52H356.01H357.01V45H356.01ZM356.01 55.52V56.52H369.09V55.52V54.52H356.01V55.52ZM398.637 45H399.637V44H398.637V45ZM398.637 49.84V50.84H399.637V49.84H398.637ZM386.357 49.84V48.84H385.357V49.84H386.357ZM386.357 55.76H385.357V56.76H386.357V55.76ZM397.837 55.76H398.837V54.76H397.837V55.76ZM397.837 60.52V61.52H398.837V60.52H397.837ZM386.357 60.52V59.52H385.357V60.52H386.357ZM386.357 68.16H385.357V69.16H386.357V68.16ZM398.637 68.16H399.637V67.16H398.637V68.16ZM398.637 73V74H399.637V73H398.637ZM380.837 73H379.837V74H380.837V73ZM380.837 45V44H379.837V45H380.837ZM398.637 45H397.637V49.84H398.637H399.637V45H398.637ZM398.637 49.84V48.84H386.357V49.84V50.84H398.637V49.84ZM386.357 49.84H385.357V55.76H386.357H387.357V49.84H386.357ZM386.357 55.76V56.76H397.837V55.76V54.76H386.357V55.76ZM397.837 55.76H396.837V60.52H397.837H398.837V55.76H397.837ZM397.837 60.52V59.52H386.357V60.52V61.52H397.837V60.52ZM386.357 60.52H385.357V68.16H386.357H387.357V60.52H386.357ZM386.357 68.16V69.16H398.637V68.16V67.16H386.357V68.16ZM398.637 68.16H397.637V73H398.637H399.637V68.16H398.637ZM398.637 73V72H380.837V73V74H398.637V73ZM380.837 73H381.837V45H380.837H379.837V73H380.837ZM380.837 45V46H398.637V45V44H380.837V45ZM414.627 66.48L414.05 65.663L413.361 66.1493L413.724 66.9105L414.627 66.48ZM418.707 63.6L419.575 63.1039L419.029 62.1485L418.13 62.783L418.707 63.6ZM423.827 60.6L424.184 59.6659L424.175 59.6625L424.166 59.6593L423.827 60.6ZM417.627 48.04L418.436 48.6265L418.443 48.6172L418.45 48.6077L417.627 48.04ZM430.267 45.32L430.691 44.4145L430.68 44.4096L430.267 45.32ZM435.507 50.48L435.991 51.3549L436.823 50.8943L436.405 50.0401L435.507 50.48ZM431.027 52.96L430.15 53.4413L430.633 54.3209L431.511 53.8349L431.027 52.96ZM428.547 56.64L428.883 55.6983L428.875 55.6953L428.866 55.6926L428.547 56.64ZM421.067 72.76L421.484 71.8513L421.474 71.8466L421.463 71.8421L421.067 72.76ZM414.627 66.48L415.203 67.297L419.283 64.417L418.707 63.6L418.13 62.783L414.05 65.663L414.627 66.48ZM418.707 63.6L417.838 64.0961C418.556 65.3527 419.813 66.7375 421.193 67.8097C422.541 68.8569 424.204 69.76 425.747 69.76V68.76V67.76C424.889 67.76 423.672 67.2031 422.42 66.2303C421.2 65.2825 420.137 64.0873 419.575 63.1039L418.707 63.6ZM425.747 68.76V69.76C427.059 69.76 428.273 69.4032 429.178 68.6564C430.103 67.8931 430.627 66.7851 430.627 65.48H429.627H428.627C428.627 66.2149 428.35 66.7469 427.905 67.1136C427.441 67.4968 426.714 67.76 425.747 67.76V68.76ZM429.627 65.48H430.627C430.627 63.9575 429.505 62.7368 428.348 61.8659C427.136 60.9542 425.592 60.2044 424.184 59.6659L423.827 60.6L423.469 61.5341C424.781 62.0356 426.137 62.7058 427.145 63.4641C428.208 64.2632 428.627 64.9625 428.627 65.48H429.627ZM423.827 60.6L424.166 59.6593C422.49 59.0551 420.779 58.2502 419.496 57.0615C418.245 55.9023 417.387 54.3689 417.387 52.2H416.387H415.387C415.387 54.9911 416.528 57.0377 418.137 58.5285C419.714 59.9898 421.724 60.9049 423.487 61.5407L423.827 60.6ZM416.387 52.2H417.387C417.387 50.7719 417.741 49.587 418.436 48.6265L417.627 48.04L416.817 47.4535C415.832 48.813 415.387 50.4281 415.387 52.2H416.387ZM417.627 48.04L418.45 48.6077C419.812 46.632 422.374 45.44 425.627 45.44V44.44V43.44C421.919 43.44 418.641 44.808 416.803 47.4723L417.627 48.04ZM425.627 44.44V45.44C427.323 45.44 428.694 45.7038 429.853 46.2304L430.267 45.32L430.68 44.4096C429.199 43.7362 427.53 43.44 425.627 43.44V44.44ZM430.267 45.32L429.842 46.2255C432.168 47.3156 433.734 49.1347 434.608 50.9199L435.507 50.48L436.405 50.0401C435.359 47.9053 433.485 45.7244 430.691 44.4145L430.267 45.32ZM435.507 50.48L435.022 49.6051L430.542 52.0851L431.027 52.96L431.511 53.8349L435.991 51.3549L435.507 50.48ZM431.027 52.96L431.903 52.4787C430.681 50.2535 428.563 48.32 425.627 48.32V49.32V50.32C427.57 50.32 429.132 51.5865 430.15 53.4413L431.027 52.96ZM425.627 49.32V48.32C424.333 48.32 423.243 48.6677 422.46 49.3324C421.666 50.0056 421.267 50.9392 421.267 51.92H422.267H423.267C423.267 51.5008 423.427 51.1344 423.753 50.8576C424.09 50.5723 424.68 50.32 425.627 50.32V49.32ZM422.267 51.92H421.267C421.267 52.6663 421.603 53.3294 422.028 53.871C422.457 54.4183 423.038 54.9206 423.678 55.3691C424.96 56.2673 426.622 57.0456 428.227 57.5874L428.547 56.64L428.866 55.6926C427.391 55.1944 425.913 54.4927 424.825 53.7309C424.281 53.3494 423.868 52.9767 423.601 52.6365C423.33 52.2906 423.267 52.0537 423.267 51.92H422.267ZM428.547 56.64L428.21 57.5817C430.083 58.2507 431.691 59.1595 432.823 60.38C433.934 61.5775 434.627 63.1155 434.627 65.16H435.627H436.627C436.627 62.6045 435.739 60.5825 434.29 59.02C432.862 57.4805 430.93 56.4293 428.883 55.6983L428.547 56.64ZM435.627 65.16H434.627C434.627 69.7587 430.7 72.76 425.827 72.76V73.76V74.76C431.433 74.76 436.627 71.2013 436.627 65.16H435.627ZM425.827 73.76V72.76C424.238 72.76 422.822 72.4659 421.484 71.8513L421.067 72.76L420.649 73.6687C422.271 74.4141 423.976 74.76 425.827 74.76V73.76ZM421.067 72.76L421.463 71.8421C418.749 70.6683 416.677 68.4555 415.529 66.0495L414.627 66.48L413.724 66.9105C415.056 69.7045 417.464 72.2917 420.67 73.6779L421.067 72.76ZM460.21 62.36L459.524 63.088L461.21 64.6754V62.36H460.21ZM460.21 45V44H459.21V45H460.21ZM465.73 45H466.73V44H465.73V45ZM465.73 74.4L465.044 75.128L466.73 76.7154V74.4H465.73ZM445.81 55.64L446.496 54.912L444.81 53.3246V55.64H445.81ZM445.81 73V74H446.81V73H445.81ZM440.29 73H439.29V74H440.29V73ZM440.29 43.6L440.976 42.872L439.29 41.2846V43.6H440.29ZM460.21 62.36H461.21V45H460.21H459.21V62.36H460.21ZM460.21 45V46H465.73V45V44H460.21V45ZM465.73 45H464.73V74.4H465.73H466.73V45H465.73ZM465.73 74.4L466.416 73.672L446.496 54.912L445.81 55.64L445.124 56.368L465.044 75.128L465.73 74.4ZM445.81 55.64H444.81V73H445.81H446.81V55.64H445.81ZM445.81 73V72H440.29V73V74H445.81V73ZM440.29 73H441.29V43.6H440.29H439.29V73H440.29ZM440.29 43.6L439.604 44.328L459.524 63.088L460.21 62.36L460.896 61.632L440.976 42.872L440.29 43.6ZM497.213 73V74H498.801L498.115 72.5679L497.213 73ZM490.733 73L489.827 73.4219L490.096 74H490.733V73ZM487.773 66.64L488.68 66.2181L488.411 65.64H487.773V66.64ZM478.173 66.64V65.64H477.532L477.265 66.2228L478.173 66.64ZM475.253 73V74H475.895L476.162 73.4172L475.253 73ZM468.813 73L467.912 72.5679L467.226 74H468.813V73ZM483.013 43.36L483.915 42.9279L483.013 41.0455L482.112 42.9279L483.013 43.36ZM479.493 62.12L478.577 61.7189L477.964 63.12H479.493V62.12ZM486.493 62.12V63.12H488.016L487.411 61.7228L486.493 62.12ZM483.013 54.08L483.931 53.6828L483.019 51.5746L482.097 53.6789L483.013 54.08ZM497.213 73V72H490.733V73V74H497.213V73ZM490.733 73L491.64 72.5781L488.68 66.2181L487.773 66.64L486.867 67.0619L489.827 73.4219L490.733 73ZM487.773 66.64V65.64H478.173V66.64V67.64H487.773V66.64ZM478.173 66.64L477.265 66.2228L474.345 72.5828L475.253 73L476.162 73.4172L479.082 67.0572L478.173 66.64ZM475.253 73V72H468.813V73V74H475.253V73ZM468.813 73L469.715 73.4321L483.915 43.7921L483.013 43.36L482.112 42.9279L467.912 72.5679L468.813 73ZM483.013 43.36L482.112 43.7921L496.312 73.4321L497.213 73L498.115 72.5679L483.915 42.9279L483.013 43.36ZM479.493 62.12V63.12H486.493V62.12V61.12H479.493V62.12ZM486.493 62.12L487.411 61.7228L483.931 53.6828L483.013 54.08L482.096 54.4772L485.576 62.5172L486.493 62.12ZM483.013 54.08L482.097 53.6789L478.577 61.7189L479.493 62.12L480.409 62.5211L483.93 54.4811L483.013 54.08ZM521.771 73V74H523.688L522.591 72.428L521.771 73ZM515.011 73L514.171 73.5424L514.466 74H515.011V73ZM508.451 62.84L509.291 62.2976L508.996 61.84H508.451V62.84ZM505.971 62.84V61.84H504.971V62.84H505.971ZM505.971 73V74H506.971V73H505.971ZM500.251 73H499.251V74H500.251V73ZM500.251 45V44H499.251V45H500.251ZM515.291 46.12L514.853 47.019L514.858 47.0213L515.291 46.12ZM518.851 58.56L518.007 58.0231L517.999 58.0357L517.992 58.0485L518.851 58.56ZM514.211 62.16L513.9 61.2095L512.621 61.6278L513.391 62.732L514.211 62.16ZM505.971 49.88V48.88H504.971V49.88H505.971ZM505.971 58.28H504.971V59.28H505.971V58.28ZM521.771 73V72H515.011V73V74H521.771V73ZM515.011 73L515.851 72.4576L509.291 62.2976L508.451 62.84L507.611 63.3824L514.171 73.5424L515.011 73ZM508.451 62.84V61.84H505.971V62.84V63.84H508.451V62.84ZM505.971 62.84H504.971V73H505.971H506.971V62.84H505.971ZM505.971 73V72H500.251V73V74H505.971V73ZM500.251 73H501.251V45H500.251H499.251V73H500.251ZM500.251 45V46H509.651V45V44H500.251V45ZM509.651 45V46C511.747 46 513.466 46.3435 514.853 47.019L515.291 46.12L515.729 45.221C513.995 44.3765 511.955 44 509.651 44V45ZM515.291 46.12L514.858 47.0213C517.58 48.3292 519.091 50.7313 519.091 53.92H520.091H521.091C521.091 49.9887 519.162 46.8708 515.724 45.2187L515.291 46.12ZM520.091 53.92H519.091C519.091 55.5257 518.727 56.8914 518.007 58.0231L518.851 58.56L519.695 59.0969C520.654 57.5886 521.091 55.8343 521.091 53.92H520.091ZM518.851 58.56L517.992 58.0485C517.124 59.5061 515.767 60.5992 513.9 61.2095L514.211 62.16L514.522 63.1105C516.815 62.3608 518.578 60.9739 519.71 59.0715L518.851 58.56ZM514.211 62.16L513.391 62.732L520.951 73.572L521.771 73L522.591 72.428L515.031 61.588L514.211 62.16ZM509.291 49.88V48.88H505.971V49.88V50.88H509.291V49.88ZM505.971 49.88H504.971V58.28H505.971H506.971V49.88H505.971ZM505.971 58.28V59.28H509.291V58.28V57.28H505.971V58.28ZM509.291 58.28V59.28C510.914 59.28 512.391 58.8581 513.483 57.9558C514.598 57.0341 515.211 55.691 515.211 54.08H514.211H513.211C513.211 55.149 512.824 55.9059 512.209 56.4142C511.57 56.9419 510.588 57.28 509.291 57.28V58.28ZM514.211 54.08H515.211C515.211 52.469 514.598 51.1259 513.483 50.2042C512.391 49.3019 510.914 48.88 509.291 48.88V49.88V50.88C510.588 50.88 511.57 51.2181 512.209 51.7458C512.824 52.2541 513.211 53.011 513.211 54.08H514.211ZM542.856 45H543.856V44H542.856V45ZM542.856 49.84V50.84H543.856V49.84H542.856ZM530.576 49.84V48.84H529.576V49.84H530.576ZM530.576 55.76H529.576V56.76H530.576V55.76ZM542.056 55.76H543.056V54.76H542.056V55.76ZM542.056 60.52V61.52H543.056V60.52H542.056ZM530.576 60.52V59.52H529.576V60.52H530.576ZM530.576 68.16H529.576V69.16H530.576V68.16ZM542.856 68.16H543.856V67.16H542.856V68.16ZM542.856 73V74H543.856V73H542.856ZM525.056 73H524.056V74H525.056V73ZM525.056 45V44H524.056V45H525.056ZM542.856 45H541.856V49.84H542.856H543.856V45H542.856ZM542.856 49.84V48.84H530.576V49.84V50.84H542.856V49.84ZM530.576 49.84H529.576V55.76H530.576H531.576V49.84H530.576ZM530.576 55.76V56.76H542.056V55.76V54.76H530.576V55.76ZM542.056 55.76H541.056V60.52H542.056H543.056V55.76H542.056ZM542.056 60.52V59.52H530.576V60.52V61.52H542.056V60.52ZM530.576 60.52H529.576V68.16H530.576H531.576V60.52H530.576ZM530.576 68.16V69.16H542.856V68.16V67.16H530.576V68.16ZM542.856 68.16H541.856V73H542.856H543.856V68.16H542.856ZM542.856 73V72H525.056V73V74H542.856V73ZM525.056 73H526.056V45H525.056H524.056V73H525.056ZM525.056 45V46H542.856V45V44H525.056V45ZM550.013 64.16L549.015 64.2204L549.072 65.16H550.013V64.16ZM548.853 45V44H547.791L547.855 45.0604L548.853 45ZM555.253 45L556.251 45.0604L556.315 44H555.253V45ZM554.093 64.16V65.16H555.034L555.091 64.2204L554.093 64.16ZM550.013 64.16L551.011 64.0996L549.851 44.9396L548.853 45L547.855 45.0604L549.015 64.2204L550.013 64.16ZM548.853 45V46H555.253V45V44H548.853V45ZM555.253 45L554.255 44.9396L553.095 64.0996L554.093 64.16L555.091 64.2204L556.251 45.0604L555.253 45ZM554.093 64.16V63.16H550.013V64.16V65.16H554.093V64.16ZM548.773 70.8H549.773C549.773 69.6661 550.649 68.76 552.053 68.76V67.76V66.76C549.698 66.76 547.773 68.4139 547.773 70.8H548.773ZM552.053 67.76V68.76C553.489 68.76 554.333 69.6584 554.333 70.8H555.333H556.333C556.333 68.4216 554.457 66.76 552.053 66.76V67.76ZM555.333 70.8H554.333C554.333 71.9416 553.489 72.84 552.053 72.84V73.84V74.84C554.457 74.84 556.333 73.1784 556.333 70.8H555.333ZM552.053 73.84V72.84C550.649 72.84 549.773 71.9339 549.773 70.8H548.773H547.773C547.773 73.1861 549.698 74.84 552.053 74.84V73.84Z" fill="white" mask="url(#path-2-inside-1_54_112)"/>
</g>
<rect x="41" y="103" width="520" height="1" fill="url(#paint2_linear_54_112)"/>
<defs>
<filter id="filter0_d_54_112" x="0.383789" y="0.360107" width="600.949" height="123.04" filterUnits="userSpaceOnUse" color-interpolation-filters="sRGB">
<feFlood flood-opacity="0" result="BackgroundImageFix"/>
<feColorMatrix in="SourceAlpha" type="matrix" values="0 0 0 0 0 0 0 0 0 0 0 0 0 0 0 0 0 0 127 0" result="hardAlpha"/>
<feOffset dy="3"/>
<feGaussianBlur stdDeviation="23"/>
<feComposite in2="hardAlpha" operator="out"/>
<feColorMatrix type="matrix" values="0 0 0 0 1 0 0 0 0 1 0 0 0 0 1 0 0 0 0.35 0"/>
<feBlend mode="normal" in2="BackgroundImageFix" result="effect1_dropShadow_54_112"/>
<feBlend mode="normal" in="SourceGraphic" in2="effect1_dropShadow_54_112" result="shape"/>
</filter>
<linearGradient id="paint0_linear_54_112" x1="41" y1="14.5" x2="561" y2="14.5" gradientUnits="userSpaceOnUse">
<stop stop-color="white" stop-opacity="0"/>
<stop offset="0.25" stop-color="white" stop-opacity="0.4"/>
<stop offset="0.5" stop-color="white"/>
<stop offset="0.75" stop-color="white" stop-opacity="0.4"/>
<stop offset="1" stop-color="white" stop-opacity="0"/>
</linearGradient>
<linearGradient id="paint1_linear_54_112" x1="301" y1="31" x2="301" y2="87" gradientUnits="userSpaceOnUse">
<stop offset="0.144311" stop-color="white"/>
<stop offset="0.703631" stop-color="#B4B4B4"/>
</linearGradient>
<linearGradient id="paint2_linear_54_112" x1="41" y1="103.5" x2="561" y2="103.5" gradientUnits="userSpaceOnUse">
<stop stop-color="white" stop-opacity="0"/>
<stop offset="0.25" stop-color="white" stop-opacity="0.4"/>
<stop offset="0.5" stop-color="white"/>
<stop offset="0.75" stop-color="white" stop-opacity="0.4"/>
<stop offset="1" stop-color="white" stop-opacity="0"/>
</linearGradient>
</defs>
</svg>
