<svg width="560" height="96" viewBox="0 0 560 96" fill="none" xmlns="http://www.w3.org/2000/svg">
<g clip-path="url(#clip0_22_24)">
<rect width="560" height="96" rx="16" fill="url(#paint0_linear_22_24)"/>
<g filter="url(#filter0_d_22_24)">
<mask id="path-3-inside-1_22_24" fill="white">
<path d="M158.603 62V34H166.363V55.4H177.683V62H158.603ZM200.034 34V40.28H188.074V44.4H199.234V50.48H188.074V55.72H200.034V62H180.634V34H200.034ZM210.44 40.92H202.6V34H226.04V40.92H218.2V62H210.44V40.92ZM228.113 44.48L230.193 34H237.233L233.073 44.48H228.113ZM241.3 55.6L246.58 51.76C247.78 53.88 251.1 56.48 253.3 56.48C255.02 56.48 256.26 55.68 256.26 54.2C256.26 52.92 253.82 51.52 250.82 50.4C247.38 49.08 243.3 46.64 243.3 41.48C243.3 39.72 243.78 38.24 244.7 37C246.58 34.6 249.78 33.28 253.58 33.28C255.54 33.28 257.26 33.6 258.7 34.2C261.58 35.48 263.42 37.52 264.42 39.44L258.58 42.68C257.46 40.84 255.58 39.64 253.74 39.64C252.18 39.64 251.22 40.32 251.22 41.4C251.22 43.04 254.74 44.36 257.34 45.28C261.58 46.8 264.46 49.44 264.46 53.92C264.46 59.8 259.38 63.04 253.62 63.04C251.7 63.04 249.94 62.72 248.3 62.08C245.02 60.76 242.54 58.36 241.3 55.6ZM279.229 55.6L284.509 51.76C285.709 53.88 289.029 56.48 291.229 56.48C292.949 56.48 294.189 55.68 294.189 54.2C294.189 52.92 291.749 51.52 288.749 50.4C285.309 49.08 281.229 46.64 281.229 41.48C281.229 39.72 281.709 38.24 282.629 37C284.509 34.6 287.709 33.28 291.509 33.28C293.469 33.28 295.189 33.6 296.629 34.2C299.509 35.48 301.349 37.52 302.349 39.44L296.509 42.68C295.389 40.84 293.509 39.64 291.669 39.64C290.109 39.64 289.149 40.32 289.149 41.4C289.149 43.04 292.669 44.36 295.269 45.28C299.509 46.8 302.389 49.44 302.389 53.92C302.389 59.8 297.309 63.04 291.549 63.04C289.629 63.04 287.869 62.72 286.229 62.08C282.949 60.76 280.469 58.36 279.229 55.6ZM311.807 40.92H303.967V34H327.407V40.92H319.567V62H311.807V40.92ZM353.896 62H345.096L342.736 57.48H334.456L332.176 62H323.376L338.616 32.12L353.896 62ZM335.856 51.76H341.416L338.616 45.48L335.856 51.76ZM380.61 62H371.57L366.05 52.72H364.41V62H356.65V34H367.65C370.21 34 372.33 34.4 374.01 35.2C377.33 36.8 378.93 39.68 378.93 43.36C378.93 45.16 378.53 46.8 377.73 48.2C376.85 49.76 375.49 50.92 373.61 51.72L380.61 62ZM367.01 40.56H364.41V46.84H367.01C369.37 46.84 370.85 45.76 370.85 43.68C370.85 41.6 369.37 40.56 367.01 40.56ZM388.604 40.92H380.764V34H404.204V40.92H396.364V62H388.604V40.92Z"/>
</mask>
<path d="M158.603 62V34H166.363V55.4H177.683V62H158.603ZM200.034 34V40.28H188.074V44.4H199.234V50.48H188.074V55.72H200.034V62H180.634V34H200.034ZM210.44 40.92H202.6V34H226.04V40.92H218.2V62H210.44V40.92ZM228.113 44.48L230.193 34H237.233L233.073 44.48H228.113ZM241.3 55.6L246.58 51.76C247.78 53.88 251.1 56.48 253.3 56.48C255.02 56.48 256.26 55.68 256.26 54.2C256.26 52.92 253.82 51.52 250.82 50.4C247.38 49.08 243.3 46.64 243.3 41.48C243.3 39.72 243.78 38.24 244.7 37C246.58 34.6 249.78 33.28 253.58 33.28C255.54 33.28 257.26 33.6 258.7 34.2C261.58 35.48 263.42 37.52 264.42 39.44L258.58 42.68C257.46 40.84 255.58 39.64 253.74 39.64C252.18 39.64 251.22 40.32 251.22 41.4C251.22 43.04 254.74 44.36 257.34 45.28C261.58 46.8 264.46 49.44 264.46 53.92C264.46 59.8 259.38 63.04 253.62 63.04C251.7 63.04 249.94 62.72 248.3 62.08C245.02 60.76 242.54 58.36 241.3 55.6ZM279.229 55.6L284.509 51.76C285.709 53.88 289.029 56.48 291.229 56.48C292.949 56.48 294.189 55.68 294.189 54.2C294.189 52.92 291.749 51.52 288.749 50.4C285.309 49.08 281.229 46.64 281.229 41.48C281.229 39.72 281.709 38.24 282.629 37C284.509 34.6 287.709 33.28 291.509 33.28C293.469 33.28 295.189 33.6 296.629 34.2C299.509 35.48 301.349 37.52 302.349 39.44L296.509 42.68C295.389 40.84 293.509 39.64 291.669 39.64C290.109 39.64 289.149 40.32 289.149 41.4C289.149 43.04 292.669 44.36 295.269 45.28C299.509 46.8 302.389 49.44 302.389 53.92C302.389 59.8 297.309 63.04 291.549 63.04C289.629 63.04 287.869 62.72 286.229 62.08C282.949 60.76 280.469 58.36 279.229 55.6ZM311.807 40.92H303.967V34H327.407V40.92H319.567V62H311.807V40.92ZM353.896 62H345.096L342.736 57.48H334.456L332.176 62H323.376L338.616 32.12L353.896 62ZM335.856 51.76H341.416L338.616 45.48L335.856 51.76ZM380.61 62H371.57L366.05 52.72H364.41V62H356.65V34H367.65C370.21 34 372.33 34.4 374.01 35.2C377.33 36.8 378.93 39.68 378.93 43.36C378.93 45.16 378.53 46.8 377.73 48.2C376.85 49.76 375.49 50.92 373.61 51.72L380.61 62ZM367.01 40.56H364.41V46.84H367.01C369.37 46.84 370.85 45.76 370.85 43.68C370.85 41.6 369.37 40.56 367.01 40.56ZM388.604 40.92H380.764V34H404.204V40.92H396.364V62H388.604V40.92Z" fill="url(#paint1_linear_22_24)"/>
<path d="M158.603 62H157.603V63H158.603V62ZM158.603 34V33H157.603V34H158.603ZM166.363 34H167.363V33H166.363V34ZM166.363 55.4H165.363V56.4H166.363V55.4ZM177.683 55.4H178.683V54.4H177.683V55.4ZM177.683 62V63H178.683V62H177.683ZM158.603 62H159.603V34H158.603H157.603V62H158.603ZM158.603 34V35H166.363V34V33H158.603V34ZM166.363 34H165.363V55.4H166.363H167.363V34H166.363ZM166.363 55.4V56.4H177.683V55.4V54.4H166.363V55.4ZM177.683 55.4H176.683V62H177.683H178.683V55.4H177.683ZM177.683 62V61H158.603V62V63H177.683V62ZM200.034 34H201.034V33H200.034V34ZM200.034 40.28V41.28H201.034V40.28H200.034ZM188.074 40.28V39.28H187.074V40.28H188.074ZM188.074 44.4H187.074V45.4H188.074V44.4ZM199.234 44.4H200.234V43.4H199.234V44.4ZM199.234 50.48V51.48H200.234V50.48H199.234ZM188.074 50.48V49.48H187.074V50.48H188.074ZM188.074 55.72H187.074V56.72H188.074V55.72ZM200.034 55.72H201.034V54.72H200.034V55.72ZM200.034 62V63H201.034V62H200.034ZM180.634 62H179.634V63H180.634V62ZM180.634 34V33H179.634V34H180.634ZM200.034 34H199.034V40.28H200.034H201.034V34H200.034ZM200.034 40.28V39.28H188.074V40.28V41.28H200.034V40.28ZM188.074 40.28H187.074V44.4H188.074H189.074V40.28H188.074ZM188.074 44.4V45.4H199.234V44.4V43.4H188.074V44.4ZM199.234 44.4H198.234V50.48H199.234H200.234V44.4H199.234ZM199.234 50.48V49.48H188.074V50.48V51.48H199.234V50.48ZM188.074 50.48H187.074V55.72H188.074H189.074V50.48H188.074ZM188.074 55.72V56.72H200.034V55.72V54.72H188.074V55.72ZM200.034 55.72H199.034V62H200.034H201.034V55.72H200.034ZM200.034 62V61H180.634V62V63H200.034V62ZM180.634 62H181.634V34H180.634H179.634V62H180.634ZM180.634 34V35H200.034V34V33H180.634V34ZM210.44 40.92H211.44V39.92H210.44V40.92ZM202.6 40.92H201.6V41.92H202.6V40.92ZM202.6 34V33H201.6V34H202.6ZM226.04 34H227.04V33H226.04V34ZM226.04 40.92V41.92H227.04V40.92H226.04ZM218.2 40.92V39.92H217.2V40.92H218.2ZM218.2 62V63H219.2V62H218.2ZM210.44 62H209.44V63H210.44V62ZM210.44 40.92V39.92H202.6V40.92V41.92H210.44V40.92ZM202.6 40.92H203.6V34H202.6H201.6V40.92H202.6ZM202.6 34V35H226.04V34V33H202.6V34ZM226.04 34H225.04V40.92H226.04H227.04V34H226.04ZM226.04 40.92V39.92H218.2V40.92V41.92H226.04V40.92ZM218.2 40.92H217.2V62H218.2H219.2V40.92H218.2ZM218.2 62V61H210.44V62V63H218.2V62ZM210.44 62H211.44V40.92H210.44H209.44V62H210.44ZM228.113 44.48L227.132 44.2853L226.895 45.48H228.113V44.48ZM230.193 34V33H229.372L229.212 33.8053L230.193 34ZM237.233 34L238.163 34.3689L238.706 33H237.233V34ZM233.073 44.48V45.48H233.752L234.003 44.8489L233.073 44.48ZM228.113 44.48L229.094 44.6747L231.174 34.1947L230.193 34L229.212 33.8053L227.132 44.2853L228.113 44.48ZM230.193 34V35H237.233V34V33H230.193V34ZM237.233 34L236.304 33.6311L232.144 44.1111L233.073 44.48L234.003 44.8489L238.163 34.3689L237.233 34ZM233.073 44.48V43.48H228.113V44.48V45.48H233.073V44.48ZM241.3 55.6L240.711 54.7913L240.055 55.269L240.387 56.0098L241.3 55.6ZM246.58 51.76L247.45 51.2674L246.898 50.2921L245.991 50.9513L246.58 51.76ZM250.82 50.4L250.461 51.3337L250.47 51.3368L250.82 50.4ZM244.7 37L243.912 36.3833L243.904 36.3936L243.896 36.4042L244.7 37ZM258.7 34.2L259.106 33.2862L259.095 33.2814L259.084 33.2769L258.7 34.2ZM264.42 39.44L264.905 40.3144L265.756 39.8419L265.306 38.9781L264.42 39.44ZM258.58 42.68L257.725 43.1999L258.225 44.0204L259.065 43.5544L258.58 42.68ZM257.34 45.28L257.677 44.3387L257.673 44.3373L257.34 45.28ZM248.3 62.08L247.926 63.0077L247.936 63.0116L248.3 62.08ZM241.3 55.6L241.888 56.4087L247.168 52.5687L246.58 51.76L245.991 50.9513L240.711 54.7913L241.3 55.6ZM246.58 51.76L245.709 52.2526C246.399 53.4712 247.642 54.7512 248.975 55.723C250.28 56.6744 251.875 57.48 253.3 57.48V56.48V55.48C252.524 55.48 251.359 54.9856 250.154 54.107C248.977 53.2488 247.96 52.1688 247.45 51.2674L246.58 51.76ZM253.3 56.48V57.48C254.298 57.48 255.268 57.2497 256.016 56.7014C256.799 56.1272 257.26 55.2571 257.26 54.2H256.26H255.26C255.26 54.6229 255.1 54.8928 254.833 55.0886C254.531 55.3103 254.021 55.48 253.3 55.48V56.48ZM256.26 54.2H257.26C257.26 53.5552 256.954 53.0066 256.598 52.5813C256.237 52.1506 255.751 51.7591 255.215 51.4054C254.141 50.6961 252.702 50.0352 251.169 49.4632L250.82 50.4L250.47 51.3368C251.937 51.8848 253.219 52.4839 254.114 53.0746C254.563 53.3709 254.875 53.6394 255.065 53.8662C255.158 53.9771 255.209 54.0629 255.235 54.122C255.248 54.1506 255.254 54.1708 255.257 54.183C255.258 54.189 255.259 54.1933 255.259 54.1959C255.26 54.1985 255.26 54.1998 255.26 54.2H256.26ZM250.82 50.4L251.178 49.4664C247.793 48.1674 244.3 45.9586 244.3 41.48H243.3H242.3C242.3 47.3214 246.966 49.9926 250.461 51.3336L250.82 50.4ZM243.3 41.48H244.3C244.3 39.9151 244.722 38.6485 245.503 37.5958L244.7 37L243.896 36.4042C242.837 37.8315 242.3 39.5249 242.3 41.48H243.3ZM244.7 37L245.487 37.6167C247.127 35.5222 249.996 34.28 253.58 34.28V33.28V32.28C249.563 32.28 246.032 33.6778 243.912 36.3833L244.7 37ZM253.58 33.28V34.28C255.433 34.28 257.018 34.5829 258.315 35.1231L258.7 34.2L259.084 33.2769C257.501 32.6171 255.646 32.28 253.58 32.28V33.28ZM258.7 34.2L258.293 35.1138C260.951 36.2951 262.629 38.1672 263.533 39.9019L264.42 39.44L265.306 38.9781C264.21 36.8728 262.208 34.6649 259.106 33.2862L258.7 34.2ZM264.42 39.44L263.934 38.5656L258.094 41.8056L258.58 42.68L259.065 43.5544L264.905 40.3144L264.42 39.44ZM258.58 42.68L259.434 42.1601C258.175 40.0914 256.003 38.64 253.74 38.64V39.64V40.64C255.156 40.64 256.745 41.5886 257.725 43.1999L258.58 42.68ZM253.74 39.64V38.64C252.831 38.64 251.977 38.8358 251.32 39.2962C250.628 39.7814 250.22 40.522 250.22 41.4H251.22H252.22C252.22 41.198 252.291 41.0586 252.469 40.9338C252.682 40.7842 253.088 40.64 253.74 40.64V39.64ZM251.22 41.4H250.22C250.22 42.1868 250.642 42.8172 251.105 43.2776C251.573 43.7438 252.19 44.1449 252.83 44.4901C254.113 45.1822 255.714 45.7655 257.006 46.2227L257.34 45.28L257.673 44.3373C256.365 43.8745 254.906 43.3378 253.779 42.7299C253.214 42.4251 252.788 42.1312 252.515 41.8598C252.237 41.5828 252.22 41.4332 252.22 41.4H251.22ZM257.34 45.28L257.002 46.2213C259.027 46.9472 260.64 47.9111 261.741 49.1534C262.824 50.3746 263.46 51.9165 263.46 53.92H264.46H265.46C265.46 51.4435 264.655 49.4254 263.238 47.8266C261.839 46.2489 259.892 45.1328 257.677 44.3387L257.34 45.28ZM264.46 53.92H263.46C263.46 56.5379 262.343 58.5313 260.586 59.8951C258.805 61.2778 256.324 62.04 253.62 62.04V63.04V64.04C256.675 64.04 259.614 63.1822 261.813 61.4749C264.036 59.7487 265.46 57.1821 265.46 53.92H264.46ZM253.62 63.04V62.04C251.814 62.04 250.178 61.7397 248.663 61.1484L248.3 62.08L247.936 63.0116C249.701 63.7003 251.585 64.04 253.62 64.04V63.04ZM248.3 62.08L248.673 61.1523C245.615 59.9218 243.338 57.6978 242.212 55.1902L241.3 55.6L240.387 56.0098C241.741 59.0222 244.424 61.5982 247.926 63.0077L248.3 62.08ZM279.229 55.6L278.641 54.7913L277.984 55.269L278.317 56.0098L279.229 55.6ZM284.509 51.76L285.379 51.2674L284.827 50.2921L283.921 50.9513L284.509 51.76ZM288.749 50.4L288.391 51.3337L288.399 51.3368L288.749 50.4ZM282.629 37L281.842 36.3833L281.834 36.3936L281.826 36.4042L282.629 37ZM296.629 34.2L297.035 33.2862L297.025 33.2814L297.014 33.2769L296.629 34.2ZM302.349 39.44L302.834 40.3144L303.686 39.8419L303.236 38.9781L302.349 39.44ZM296.509 42.68L295.655 43.1999L296.154 44.0204L296.994 43.5544L296.509 42.68ZM295.269 45.28L295.607 44.3387L295.603 44.3373L295.269 45.28ZM286.229 62.08L285.856 63.0077L285.866 63.0116L286.229 62.08ZM279.229 55.6L279.817 56.4087L285.097 52.5687L284.509 51.76L283.921 50.9513L278.641 54.7913L279.229 55.6ZM284.509 51.76L283.639 52.2526C284.329 53.4712 285.572 54.7512 286.905 55.723C288.21 56.6744 289.805 57.48 291.229 57.48V56.48V55.48C290.453 55.48 289.288 54.9856 288.083 54.107C286.906 53.2488 285.89 52.1688 285.379 51.2674L284.509 51.76ZM291.229 56.48V57.48C292.228 57.48 293.198 57.2497 293.946 56.7014C294.729 56.1272 295.189 55.2571 295.189 54.2H294.189H293.189C293.189 54.6229 293.03 54.8928 292.763 55.0886C292.461 55.3103 291.95 55.48 291.229 55.48V56.48ZM294.189 54.2H295.189C295.189 53.5552 294.884 53.0066 294.527 52.5813C294.166 52.1506 293.681 51.7591 293.145 51.4054C292.07 50.6961 290.631 50.0352 289.099 49.4632L288.749 50.4L288.399 51.3368C289.867 51.8848 291.148 52.4839 292.043 53.0746C292.492 53.3709 292.805 53.6394 292.995 53.8662C293.088 53.9771 293.139 54.0629 293.165 54.122C293.178 54.1506 293.184 54.1708 293.187 54.183C293.188 54.189 293.189 54.1933 293.189 54.1959C293.189 54.1985 293.189 54.1998 293.189 54.2H294.189ZM288.749 50.4L289.107 49.4664C285.722 48.1674 282.229 45.9586 282.229 41.48H281.229H280.229C280.229 47.3214 284.896 49.9926 288.391 51.3336L288.749 50.4ZM281.229 41.48H282.229C282.229 39.9151 282.651 38.6485 283.432 37.5958L282.629 37L281.826 36.4042C280.767 37.8315 280.229 39.5249 280.229 41.48H281.229ZM282.629 37L283.416 37.6167C285.057 35.5222 287.926 34.28 291.509 34.28V33.28V32.28C287.493 32.28 283.961 33.6778 281.842 36.3833L282.629 37ZM291.509 33.28V34.28C293.363 34.28 294.948 34.5829 296.245 35.1231L296.629 34.2L297.014 33.2769C295.43 32.6171 293.576 32.28 291.509 32.28V33.28ZM296.629 34.2L296.223 35.1138C298.881 36.2951 300.559 38.1672 301.462 39.9019L302.349 39.44L303.236 38.9781C302.14 36.8728 300.137 34.6649 297.035 33.2862L296.629 34.2ZM302.349 39.44L301.864 38.5656L296.024 41.8056L296.509 42.68L296.994 43.5544L302.834 40.3144L302.349 39.44ZM296.509 42.68L297.363 42.1601C296.104 40.0914 293.932 38.64 291.669 38.64V39.64V40.64C293.086 40.64 294.674 41.5886 295.655 43.1999L296.509 42.68ZM291.669 39.64V38.64C290.761 38.64 289.907 38.8358 289.25 39.2962C288.558 39.7814 288.149 40.522 288.149 41.4H289.149H290.149C290.149 41.198 290.22 41.0586 290.398 40.9338C290.612 40.7842 291.018 40.64 291.669 40.64V39.64ZM289.149 41.4H288.149C288.149 42.1868 288.572 42.8172 289.035 43.2776C289.503 43.7438 290.119 44.1449 290.759 44.4901C292.043 45.1822 293.643 45.7655 294.936 46.2227L295.269 45.28L295.603 44.3373C294.295 43.8745 292.836 43.3378 291.709 42.7299C291.144 42.4251 290.718 42.1312 290.445 41.8598C290.167 41.5828 290.149 41.4332 290.149 41.4H289.149ZM295.269 45.28L294.932 46.2213C296.957 46.9472 298.57 47.9111 299.671 49.1534C300.754 50.3746 301.389 51.9165 301.389 53.92H302.389H303.389C303.389 51.4435 302.585 49.4254 301.168 47.8266C299.769 46.2489 297.822 45.1328 295.607 44.3387L295.269 45.28ZM302.389 53.92H301.389C301.389 56.5379 300.273 58.5313 298.516 59.8951C296.735 61.2778 294.254 62.04 291.549 62.04V63.04V64.04C294.605 64.04 297.543 63.1822 299.742 61.4749C301.966 59.7487 303.389 57.1821 303.389 53.92H302.389ZM291.549 63.04V62.04C289.744 62.04 288.108 61.7397 286.593 61.1484L286.229 62.08L285.866 63.0116C287.63 63.7003 289.515 64.04 291.549 64.04V63.04ZM286.229 62.08L286.603 61.1523C283.545 59.9218 281.268 57.6978 280.141 55.1902L279.229 55.6L278.317 56.0098C279.67 59.0222 282.353 61.5982 285.856 63.0077L286.229 62.08ZM311.807 40.92H312.807V39.92H311.807V40.92ZM303.967 40.92H302.967V41.92H303.967V40.92ZM303.967 34V33H302.967V34H303.967ZM327.407 34H328.407V33H327.407V34ZM327.407 40.92V41.92H328.407V40.92H327.407ZM319.567 40.92V39.92H318.567V40.92H319.567ZM319.567 62V63H320.567V62H319.567ZM311.807 62H310.807V63H311.807V62ZM311.807 40.92V39.92H303.967V40.92V41.92H311.807V40.92ZM303.967 40.92H304.967V34H303.967H302.967V40.92H303.967ZM303.967 34V35H327.407V34V33H303.967V34ZM327.407 34H326.407V40.92H327.407H328.407V34H327.407ZM327.407 40.92V39.92H319.567V40.92V41.92H327.407V40.92ZM319.567 40.92H318.567V62H319.567H320.567V40.92H319.567ZM319.567 62V61H311.807V62V63H319.567V62ZM311.807 62H312.807V40.92H311.807H310.807V62H311.807ZM353.896 62V63H355.531L354.786 61.5447L353.896 62ZM345.096 62L344.21 62.4628L344.49 63H345.096V62ZM342.736 57.48L343.623 57.0172L343.342 56.48H342.736V57.48ZM334.456 57.48V56.48H333.84L333.563 57.0296L334.456 57.48ZM332.176 62V63H332.792L333.069 62.4504L332.176 62ZM323.376 62L322.485 61.5456L321.743 63H323.376V62ZM338.616 32.12L339.506 31.6647L338.615 29.9214L337.725 31.6656L338.616 32.12ZM335.856 51.76L334.941 51.3577L334.324 52.76H335.856V51.76ZM341.416 51.76V52.76H342.957L342.329 51.3528L341.416 51.76ZM338.616 45.48L339.529 45.0728L338.61 43.0096L337.701 45.0777L338.616 45.48ZM353.896 62V61H345.096V62V63H353.896V62ZM345.096 62L345.983 61.5372L343.623 57.0172L342.736 57.48L341.85 57.9428L344.21 62.4628L345.096 62ZM342.736 57.48V56.48H334.456V57.48V58.48H342.736V57.48ZM334.456 57.48L333.563 57.0296L331.283 61.5496L332.176 62L333.069 62.4504L335.349 57.9304L334.456 57.48ZM332.176 62V61H323.376V62V63H332.176V62ZM323.376 62L324.267 62.4544L339.507 32.5744L338.616 32.12L337.725 31.6656L322.485 61.5456L323.376 62ZM338.616 32.12L337.726 32.5753L353.006 62.4553L353.896 62L354.786 61.5447L339.506 31.6647L338.616 32.12ZM335.856 51.76V52.76H341.416V51.76V50.76H335.856V51.76ZM341.416 51.76L342.329 51.3528L339.529 45.0728L338.616 45.48L337.703 45.8872L340.503 52.1672L341.416 51.76ZM338.616 45.48L337.701 45.0777L334.941 51.3577L335.856 51.76L336.772 52.1623L339.532 45.8823L338.616 45.48ZM380.61 62V63H382.5L381.436 61.4372L380.61 62ZM371.57 62L370.71 62.5112L371.001 63H371.57V62ZM366.05 52.72L366.909 52.2088L366.618 51.72H366.05V52.72ZM364.41 52.72V51.72H363.41V52.72H364.41ZM364.41 62V63H365.41V62H364.41ZM356.65 62H355.65V63H356.65V62ZM356.65 34V33H355.65V34H356.65ZM374.01 35.2L374.444 34.2991L374.439 34.2971L374.01 35.2ZM377.73 48.2L376.861 47.7039L376.859 47.7087L377.73 48.2ZM373.61 51.72L373.218 50.7998L372.098 51.2765L372.783 52.2828L373.61 51.72ZM364.41 40.56V39.56H363.41V40.56H364.41ZM364.41 46.84H363.41V47.84H364.41V46.84ZM380.61 62V61H371.57V62V63H380.61V62ZM371.57 62L372.429 61.4888L366.909 52.2088L366.05 52.72L365.19 53.2312L370.71 62.5112L371.57 62ZM366.05 52.72V51.72H364.41V52.72V53.72H366.05V52.72ZM364.41 52.72H363.41V62H364.41H365.41V52.72H364.41ZM364.41 62V61H356.65V62V63H364.41V62ZM356.65 62H357.65V34H356.65H355.65V62H356.65ZM356.65 34V35H367.65V34V33H356.65V34ZM367.65 34V35C370.113 35 372.074 35.3861 373.58 36.1029L374.01 35.2L374.439 34.2971C372.585 33.4139 370.306 33 367.65 33V34ZM374.01 35.2L373.575 36.1008C376.511 37.5158 377.93 40.02 377.93 43.36H378.93H379.93C379.93 39.34 378.148 36.0842 374.444 34.2992L374.01 35.2ZM378.93 43.36H377.93C377.93 45.0109 377.563 46.4752 376.861 47.7039L377.73 48.2L378.598 48.6961C379.496 47.1248 379.93 45.3091 379.93 43.36H378.93ZM377.73 48.2L376.859 47.7087C376.102 49.0497 374.926 50.073 373.218 50.7998L373.61 51.72L374.001 52.6402C376.053 51.767 377.597 50.4703 378.601 48.6913L377.73 48.2ZM373.61 51.72L372.783 52.2828L379.783 62.5628L380.61 62L381.436 61.4372L374.436 51.1572L373.61 51.72ZM367.01 40.56V39.56H364.41V40.56V41.56H367.01V40.56ZM364.41 40.56H363.41V46.84H364.41H365.41V40.56H364.41ZM364.41 46.84V47.84H367.01V46.84V45.84H364.41V46.84ZM367.01 46.84V47.84C368.325 47.84 369.536 47.5411 370.438 46.822C371.374 46.076 371.85 44.9796 371.85 43.68H370.85H369.85C369.85 44.4604 369.585 44.944 369.191 45.258C368.764 45.5989 368.054 45.84 367.01 45.84V46.84ZM370.85 43.68H371.85C371.85 42.3789 371.372 41.2887 370.431 40.5522C369.527 39.8455 368.317 39.56 367.01 39.56V40.56V41.56C368.062 41.56 368.772 41.7945 369.199 42.1278C369.587 42.4313 369.85 42.9011 369.85 43.68H370.85ZM388.604 40.92H389.604V39.92H388.604V40.92ZM380.764 40.92H379.764V41.92H380.764V40.92ZM380.764 34V33H379.764V34H380.764ZM404.204 34H405.204V33H404.204V34ZM404.204 40.92V41.92H405.204V40.92H404.204ZM396.364 40.92V39.92H395.364V40.92H396.364ZM396.364 62V63H397.364V62H396.364ZM388.604 62H387.604V63H388.604V62ZM388.604 40.92V39.92H380.764V40.92V41.92H388.604V40.92ZM380.764 40.92H381.764V34H380.764H379.764V40.92H380.764ZM380.764 34V35H404.204V34V33H380.764V34ZM404.204 34H403.204V40.92H404.204H405.204V34H404.204ZM404.204 40.92V39.92H396.364V40.92V41.92H404.204V40.92ZM396.364 40.92H395.364V62H396.364H397.364V40.92H396.364ZM396.364 62V61H388.604V62V63H396.364V62ZM388.604 62H389.604V40.92H388.604H387.604V62H388.604Z" fill="black" mask="url(#path-3-inside-1_22_24)"/>
</g>
</g>
<rect x="1" y="1" width="558" height="94" rx="15" stroke="white" stroke-width="2"/>
<defs>
<filter id="filter0_d_22_24" x="112.603" y="-10.88" width="337.601" height="122.92" filterUnits="userSpaceOnUse" color-interpolation-filters="sRGB">
<feFlood flood-opacity="0" result="BackgroundImageFix"/>
<feColorMatrix in="SourceAlpha" type="matrix" values="0 0 0 0 0 0 0 0 0 0 0 0 0 0 0 0 0 0 127 0" result="hardAlpha"/>
<feOffset dy="3"/>
<feGaussianBlur stdDeviation="23"/>
<feComposite in2="hardAlpha" operator="out"/>
<feColorMatrix type="matrix" values="0 0 0 0 1 0 0 0 0 1 0 0 0 0 1 0 0 0 0.35 0"/>
<feBlend mode="normal" in2="BackgroundImageFix" result="effect1_dropShadow_22_24"/>
<feBlend mode="normal" in="SourceGraphic" in2="effect1_dropShadow_22_24" result="shape"/>
</filter>
<linearGradient id="paint0_linear_22_24" x1="0" y1="0" x2="537.255" y2="168.515" gradientUnits="userSpaceOnUse">
<stop stop-color="#8E8E8E"/>
<stop offset="0.221154" stop-color="white"/>
<stop offset="0.394231" stop-color="#BCBCBC"/>
<stop offset="0.706735" stop-color="white"/>
<stop offset="0.961538" stop-color="#878787"/>
</linearGradient>
<linearGradient id="paint1_linear_22_24" x1="280" y1="20" x2="280" y2="76" gradientUnits="userSpaceOnUse">
<stop offset="0.144311"/>
<stop offset="0.703631" stop-color="#141414"/>
</linearGradient>
<clipPath id="clip0_22_24">
<rect width="560" height="96" rx="16" fill="white"/>
</clipPath>
</defs>
</svg>
