<svg width="389" height="64" viewBox="0 0 389 64" fill="none" xmlns="http://www.w3.org/2000/svg">
<g clip-path="url(#clip0_22_212)">
<rect width="389" height="64" rx="12" fill="#D9D9D9"/>
<rect width="389" height="64" rx="12" fill="url(#paint0_linear_22_212)"/>
<g filter="url(#filter0_d_22_212)">
<mask id="path-3-inside-1_22_212" fill="white">
<path d="M34.5883 43V20.6H39.2283V43H34.5883ZM47.833 24.728H41.817V20.6H58.457V24.728H52.409V43H47.833V24.728ZM60.225 28.504L62.017 20.6H66.433L63.137 28.504H60.225ZM69.8075 37.784L73.0715 35.48C74.0955 37.272 76.7835 39.608 78.7035 39.608C80.5275 39.608 81.8075 38.616 81.8075 36.984C81.8075 35.352 79.3435 33.912 77.1675 33.08C74.4155 32.088 71.2155 30.328 71.2155 26.36C71.2155 25.08 71.5355 23.96 72.2075 23.032C73.4875 21.176 75.8235 20.152 78.6075 20.152C80.0475 20.152 81.2635 20.376 82.3195 20.856C84.3675 21.816 85.7435 23.416 86.5115 24.984L82.9275 26.968C82.0315 25.336 80.5595 24.056 78.6075 24.056C76.8155 24.056 75.9195 25.016 75.9195 26.136C75.9195 27.544 78.4795 29.08 80.9435 29.912C84.0795 31.032 86.6075 33.048 86.6075 36.728C86.6075 40.984 82.9595 43.608 78.7675 43.608C77.3915 43.608 76.1435 43.352 74.9595 42.808C72.5915 41.784 70.7995 39.864 69.8075 37.784ZM120.252 43H115.068L112.7 37.912H105.02L102.684 43H97.532L108.892 19.288L120.252 43ZM106.076 34.296H111.676L108.892 27.864L106.076 34.296ZM148.212 34.488V20.6H152.628V44.12L136.692 29.112V43H132.276V19.48L148.212 34.488ZM171.735 20.6V24.472H161.911V29.208H171.095V33.016H161.911V39.128H171.735V43H157.495V20.6H171.735ZM190.485 19.48L196.789 34.52L201.589 20.6H206.965L197.525 44.248L190.485 29.528L183.413 44.248L174.005 20.6H179.381L184.245 34.52L190.485 19.48ZM236.367 43H230.959L225.711 34.872H223.727V43H219.151V20.6H226.671C228.431 20.6 229.935 20.888 231.183 21.496C233.647 22.68 235.023 24.888 235.023 27.736C235.023 29.144 234.703 30.392 234.031 31.448C233.231 32.792 231.983 33.784 230.319 34.328L236.367 43ZM226.383 24.504H223.727V31.224H226.383C228.719 31.224 230.319 30.008 230.319 27.864C230.319 25.72 228.719 24.504 226.383 24.504ZM253.235 20.6V24.472H243.411V29.208H252.595V33.016H243.411V39.128H253.235V43H238.995V20.6H253.235ZM261.425 31.8C261.425 33.272 261.777 34.552 262.449 35.64C263.793 37.848 266.065 39.064 268.625 39.064C269.681 39.064 270.641 38.936 271.472 38.648C273.137 38.104 274.481 37.112 275.473 35.992V41.144C273.649 42.584 271.697 43.448 268.401 43.448C264.977 43.448 262.001 42.296 259.857 40.216C257.681 38.136 256.465 35.256 256.465 31.8C256.465 28.344 257.681 25.464 259.857 23.384C262.001 21.304 264.977 20.152 268.401 20.152C271.697 20.152 273.649 21.016 275.473 22.456V27.608C274.993 27.064 274.417 26.552 273.745 26.072C272.401 25.144 270.769 24.536 268.625 24.536C267.345 24.536 266.161 24.824 265.073 25.4C262.897 26.584 261.425 28.824 261.425 31.8ZM278.746 31.8C278.746 28.376 279.994 25.496 282.138 23.416C284.282 21.336 287.226 20.152 290.586 20.152C294.01 20.152 296.89 21.336 299.066 23.416C301.21 25.496 302.426 28.376 302.426 31.8C302.426 35.16 301.21 38.104 299.098 40.248C296.986 42.392 294.042 43.608 290.586 43.608C287.13 43.608 284.218 42.392 282.074 40.248C279.93 38.104 278.746 35.16 278.746 31.8ZM283.578 31.8C283.578 33.24 283.866 34.488 284.474 35.608C285.658 37.816 287.802 39.192 290.586 39.192C291.962 39.192 293.178 38.872 294.234 38.232C296.314 36.952 297.562 34.648 297.562 31.8C297.562 30.36 297.274 29.112 296.698 27.992C295.546 25.784 293.402 24.408 290.586 24.408C289.21 24.408 287.994 24.728 286.938 25.368C284.858 26.648 283.578 28.952 283.578 31.8ZM323.179 43H317.771L312.523 34.872H310.539V43H305.963V20.6H313.483C315.243 20.6 316.747 20.888 317.995 21.496C320.459 22.68 321.835 24.888 321.835 27.736C321.835 29.144 321.515 30.392 320.843 31.448C320.043 32.792 318.795 33.784 317.131 34.328L323.179 43ZM313.195 24.504H310.539V31.224H313.195C315.531 31.224 317.131 30.008 317.131 27.864C317.131 25.72 315.531 24.504 313.195 24.504ZM339.599 21.976C343.119 23.8 345.167 27.224 345.167 31.8C345.167 34.072 344.687 36.056 343.695 37.72C341.743 41.08 338.127 43 333.423 43H325.807V20.6H333.423C335.759 20.6 337.839 21.048 339.599 21.976ZM330.479 38.84H333.263C337.455 38.84 340.463 36.536 340.463 31.8C340.463 27.064 337.455 24.76 333.263 24.76H330.479V38.84ZM349.929 35.928L349.001 20.6H354.121L353.193 35.928H349.929ZM348.937 41.24C348.937 39.832 350.057 38.808 351.561 38.808C353.097 38.808 354.185 39.832 354.185 41.24C354.185 42.648 353.097 43.672 351.561 43.672C350.057 43.672 348.937 42.648 348.937 41.24Z"/>
</mask>
<path d="M34.5883 43V20.6H39.2283V43H34.5883ZM47.833 24.728H41.817V20.6H58.457V24.728H52.409V43H47.833V24.728ZM60.225 28.504L62.017 20.6H66.433L63.137 28.504H60.225ZM69.8075 37.784L73.0715 35.48C74.0955 37.272 76.7835 39.608 78.7035 39.608C80.5275 39.608 81.8075 38.616 81.8075 36.984C81.8075 35.352 79.3435 33.912 77.1675 33.08C74.4155 32.088 71.2155 30.328 71.2155 26.36C71.2155 25.08 71.5355 23.96 72.2075 23.032C73.4875 21.176 75.8235 20.152 78.6075 20.152C80.0475 20.152 81.2635 20.376 82.3195 20.856C84.3675 21.816 85.7435 23.416 86.5115 24.984L82.9275 26.968C82.0315 25.336 80.5595 24.056 78.6075 24.056C76.8155 24.056 75.9195 25.016 75.9195 26.136C75.9195 27.544 78.4795 29.08 80.9435 29.912C84.0795 31.032 86.6075 33.048 86.6075 36.728C86.6075 40.984 82.9595 43.608 78.7675 43.608C77.3915 43.608 76.1435 43.352 74.9595 42.808C72.5915 41.784 70.7995 39.864 69.8075 37.784ZM120.252 43H115.068L112.7 37.912H105.02L102.684 43H97.532L108.892 19.288L120.252 43ZM106.076 34.296H111.676L108.892 27.864L106.076 34.296ZM148.212 34.488V20.6H152.628V44.12L136.692 29.112V43H132.276V19.48L148.212 34.488ZM171.735 20.6V24.472H161.911V29.208H171.095V33.016H161.911V39.128H171.735V43H157.495V20.6H171.735ZM190.485 19.48L196.789 34.52L201.589 20.6H206.965L197.525 44.248L190.485 29.528L183.413 44.248L174.005 20.6H179.381L184.245 34.52L190.485 19.48ZM236.367 43H230.959L225.711 34.872H223.727V43H219.151V20.6H226.671C228.431 20.6 229.935 20.888 231.183 21.496C233.647 22.68 235.023 24.888 235.023 27.736C235.023 29.144 234.703 30.392 234.031 31.448C233.231 32.792 231.983 33.784 230.319 34.328L236.367 43ZM226.383 24.504H223.727V31.224H226.383C228.719 31.224 230.319 30.008 230.319 27.864C230.319 25.72 228.719 24.504 226.383 24.504ZM253.235 20.6V24.472H243.411V29.208H252.595V33.016H243.411V39.128H253.235V43H238.995V20.6H253.235ZM261.425 31.8C261.425 33.272 261.777 34.552 262.449 35.64C263.793 37.848 266.065 39.064 268.625 39.064C269.681 39.064 270.641 38.936 271.472 38.648C273.137 38.104 274.481 37.112 275.473 35.992V41.144C273.649 42.584 271.697 43.448 268.401 43.448C264.977 43.448 262.001 42.296 259.857 40.216C257.681 38.136 256.465 35.256 256.465 31.8C256.465 28.344 257.681 25.464 259.857 23.384C262.001 21.304 264.977 20.152 268.401 20.152C271.697 20.152 273.649 21.016 275.473 22.456V27.608C274.993 27.064 274.417 26.552 273.745 26.072C272.401 25.144 270.769 24.536 268.625 24.536C267.345 24.536 266.161 24.824 265.073 25.4C262.897 26.584 261.425 28.824 261.425 31.8ZM278.746 31.8C278.746 28.376 279.994 25.496 282.138 23.416C284.282 21.336 287.226 20.152 290.586 20.152C294.01 20.152 296.89 21.336 299.066 23.416C301.21 25.496 302.426 28.376 302.426 31.8C302.426 35.16 301.21 38.104 299.098 40.248C296.986 42.392 294.042 43.608 290.586 43.608C287.13 43.608 284.218 42.392 282.074 40.248C279.93 38.104 278.746 35.16 278.746 31.8ZM283.578 31.8C283.578 33.24 283.866 34.488 284.474 35.608C285.658 37.816 287.802 39.192 290.586 39.192C291.962 39.192 293.178 38.872 294.234 38.232C296.314 36.952 297.562 34.648 297.562 31.8C297.562 30.36 297.274 29.112 296.698 27.992C295.546 25.784 293.402 24.408 290.586 24.408C289.21 24.408 287.994 24.728 286.938 25.368C284.858 26.648 283.578 28.952 283.578 31.8ZM323.179 43H317.771L312.523 34.872H310.539V43H305.963V20.6H313.483C315.243 20.6 316.747 20.888 317.995 21.496C320.459 22.68 321.835 24.888 321.835 27.736C321.835 29.144 321.515 30.392 320.843 31.448C320.043 32.792 318.795 33.784 317.131 34.328L323.179 43ZM313.195 24.504H310.539V31.224H313.195C315.531 31.224 317.131 30.008 317.131 27.864C317.131 25.72 315.531 24.504 313.195 24.504ZM339.599 21.976C343.119 23.8 345.167 27.224 345.167 31.8C345.167 34.072 344.687 36.056 343.695 37.72C341.743 41.08 338.127 43 333.423 43H325.807V20.6H333.423C335.759 20.6 337.839 21.048 339.599 21.976ZM330.479 38.84H333.263C337.455 38.84 340.463 36.536 340.463 31.8C340.463 27.064 337.455 24.76 333.263 24.76H330.479V38.84ZM349.929 35.928L349.001 20.6H354.121L353.193 35.928H349.929ZM348.937 41.24C348.937 39.832 350.057 38.808 351.561 38.808C353.097 38.808 354.185 39.832 354.185 41.24C354.185 42.648 353.097 43.672 351.561 43.672C350.057 43.672 348.937 42.648 348.937 41.24Z" fill="url(#paint1_linear_22_212)"/>
<path d="M34.5883 43H33.5883V44H34.5883V43ZM34.5883 20.6V19.6H33.5883V20.6H34.5883ZM39.2283 20.6H40.2283V19.6H39.2283V20.6ZM39.2283 43V44H40.2283V43H39.2283ZM34.5883 43H35.5883V20.6H34.5883H33.5883V43H34.5883ZM34.5883 20.6V21.6H39.2283V20.6V19.6H34.5883V20.6ZM39.2283 20.6H38.2283V43H39.2283H40.2283V20.6H39.2283ZM39.2283 43V42H34.5883V43V44H39.2283V43ZM47.833 24.728H48.833V23.728H47.833V24.728ZM41.817 24.728H40.817V25.728H41.817V24.728ZM41.817 20.6V19.6H40.817V20.6H41.817ZM58.457 20.6H59.457V19.6H58.457V20.6ZM58.457 24.728V25.728H59.457V24.728H58.457ZM52.409 24.728V23.728H51.409V24.728H52.409ZM52.409 43V44H53.409V43H52.409ZM47.833 43H46.833V44H47.833V43ZM47.833 24.728V23.728H41.817V24.728V25.728H47.833V24.728ZM41.817 24.728H42.817V20.6H41.817H40.817V24.728H41.817ZM41.817 20.6V21.6H58.457V20.6V19.6H41.817V20.6ZM58.457 20.6H57.457V24.728H58.457H59.457V20.6H58.457ZM58.457 24.728V23.728H52.409V24.728V25.728H58.457V24.728ZM52.409 24.728H51.409V43H52.409H53.409V24.728H52.409ZM52.409 43V42H47.833V43V44H52.409V43ZM47.833 43H48.833V24.728H47.833H46.833V43H47.833ZM60.225 28.504L59.2498 28.2829L58.9729 29.504H60.225V28.504ZM62.017 20.6V19.6H61.2183L61.0418 20.3789L62.017 20.6ZM66.433 20.6L67.356 20.9849L67.9335 19.6H66.433V20.6ZM63.137 28.504V29.504H63.8035L64.06 28.8889L63.137 28.504ZM60.225 28.504L61.2002 28.7251L62.9922 20.8211L62.017 20.6L61.0418 20.3789L59.2498 28.2829L60.225 28.504ZM62.017 20.6V21.6H66.433V20.6V19.6H62.017V20.6ZM66.433 20.6L65.51 20.2151L62.214 28.1191L63.137 28.504L64.06 28.8889L67.356 20.9849L66.433 20.6ZM63.137 28.504V27.504H60.225V28.504V29.504H63.137V28.504ZM69.8075 37.784L69.2308 36.967L68.5419 37.4533L68.9049 38.2145L69.8075 37.784ZM73.0715 35.48L73.9397 34.9839L73.3938 34.0285L72.4948 34.663L73.0715 35.48ZM77.1675 33.08L77.5246 32.1459L77.5157 32.1425L77.5066 32.1393L77.1675 33.08ZM72.2075 23.032L73.0174 23.6185L73.0242 23.6092L73.0307 23.5997L72.2075 23.032ZM82.3195 20.856L82.744 19.9505L82.7333 19.9456L82.3195 20.856ZM86.5115 24.984L86.9958 25.8589L87.8279 25.3983L87.4096 24.5441L86.5115 24.984ZM82.9275 26.968L82.0509 27.4493L82.5339 28.3289L83.4118 27.8429L82.9275 26.968ZM80.9435 29.912L81.2798 28.9703L81.2717 28.9673L81.2634 28.9646L80.9435 29.912ZM74.9595 42.808L75.377 41.8993L75.3668 41.8946L75.3564 41.8901L74.9595 42.808ZM69.8075 37.784L70.3842 38.601L73.6482 36.297L73.0715 35.48L72.4948 34.663L69.2308 36.967L69.8075 37.784ZM73.0715 35.48L72.2033 35.9761C72.7933 37.0087 73.8179 38.1355 74.938 39.0057C76.0259 39.8509 77.401 40.608 78.7035 40.608V39.608V38.608C78.086 38.608 77.1571 38.1971 76.165 37.4263C75.2051 36.6805 74.3737 35.7433 73.9397 34.9839L73.0715 35.48ZM78.7035 39.608V40.608C79.788 40.608 80.8075 40.3132 81.5758 39.6794C82.3643 39.0291 82.8075 38.0851 82.8075 36.984H81.8075H80.8075C80.8075 37.5149 80.6107 37.8829 80.3032 38.1366C79.9755 38.4068 79.443 38.608 78.7035 38.608V39.608ZM81.8075 36.984H82.8075C82.8075 35.6655 81.8404 34.6368 80.9047 33.9329C79.9148 33.1882 78.661 32.5804 77.5246 32.1459L77.1675 33.08L76.8104 34.0141C77.85 34.4116 78.9162 34.9398 79.7024 35.5311C80.5426 36.1632 80.8075 36.6705 80.8075 36.984H81.8075ZM77.1675 33.08L77.5066 32.1393C76.1745 31.6591 74.8361 31.0262 73.8392 30.1025C72.8741 29.2083 72.2155 28.0329 72.2155 26.36H71.2155H70.2155C70.2155 28.6551 71.1569 30.3437 72.4798 31.5695C73.7709 32.7658 75.4085 33.5089 76.8284 34.0207L77.1675 33.08ZM71.2155 26.36H72.2155C72.2155 25.2519 72.4899 24.347 73.0174 23.6185L72.2075 23.032L71.3976 22.4455C70.5811 23.573 70.2155 24.9081 70.2155 26.36H71.2155ZM72.2075 23.032L73.0307 23.5997C74.0733 22.088 76.0513 21.152 78.6075 21.152V20.152V19.152C75.5957 19.152 72.9017 20.264 71.3843 22.4643L72.2075 23.032ZM78.6075 20.152V21.152C79.9442 21.152 81.0113 21.3598 81.9057 21.7664L82.3195 20.856L82.7333 19.9456C81.5157 19.3922 80.1508 19.152 78.6075 19.152V20.152ZM82.3195 20.856L81.8951 21.7615C83.7086 22.6116 84.9311 24.0307 85.6134 25.4239L86.5115 24.984L87.4096 24.5441C86.5559 22.8013 85.0264 21.0204 82.7439 19.9505L82.3195 20.856ZM86.5115 24.984L86.0272 24.1091L82.4432 26.0931L82.9275 26.968L83.4118 27.8429L86.9958 25.8589L86.5115 24.984ZM82.9275 26.968L83.8041 26.4867C82.8064 24.6695 81.0559 23.056 78.6075 23.056V24.056V25.056C80.0631 25.056 81.2566 26.0025 82.0509 27.4493L82.9275 26.968ZM78.6075 24.056V23.056C77.5377 23.056 76.6163 23.3437 75.9446 23.9134C75.263 24.4916 74.9195 25.2952 74.9195 26.136H75.9195H76.9195C76.9195 25.8568 77.024 25.6204 77.2384 25.4386C77.4627 25.2483 77.8853 25.056 78.6075 25.056V24.056ZM75.9195 26.136H74.9195C74.9195 26.7943 75.216 27.3674 75.5712 27.8202C75.931 28.2788 76.412 28.6936 76.9338 29.0591C77.9792 29.7913 79.3268 30.4216 80.6236 30.8594L80.9435 29.912L81.2634 28.9646C80.0962 28.5704 78.9318 28.0167 78.0812 27.4209C77.655 27.1224 77.342 26.8372 77.1448 26.5858C76.943 26.3286 76.9195 26.1817 76.9195 26.136H75.9195ZM80.9435 29.912L80.6072 30.8537C82.0882 31.3827 83.3423 32.0955 84.2183 33.04C85.0731 33.9615 85.6075 35.1435 85.6075 36.728H86.6075H87.6075C87.6075 34.6325 86.8779 32.9665 85.6847 31.68C84.5127 30.4165 82.9348 29.5613 81.2798 28.9703L80.9435 29.912ZM86.6075 36.728H85.6075C85.6075 40.2627 82.593 42.608 78.7675 42.608V43.608V44.608C83.326 44.608 87.6075 41.7053 87.6075 36.728H86.6075ZM78.7675 43.608V42.608C77.5225 42.608 76.4186 42.3779 75.377 41.8993L74.9595 42.808L74.542 43.7167C75.8684 44.3261 77.2605 44.608 78.7675 44.608V43.608ZM74.9595 42.808L75.3564 41.8901C73.2339 40.9723 71.6096 39.2395 70.7101 37.3535L69.8075 37.784L68.9049 38.2145C69.9894 40.4885 71.9491 42.5957 74.5626 43.7259L74.9595 42.808ZM120.252 43V44H121.84L121.154 42.5679L120.252 43ZM115.068 43L114.161 43.4219L114.43 44H115.068V43ZM112.7 37.912L113.607 37.4901L113.338 36.912H112.7V37.912ZM105.02 37.912V36.912H104.379L104.111 37.4948L105.02 37.912ZM102.684 43V44H103.325L103.593 43.4172L102.684 43ZM97.532 43L96.6302 42.5679L95.9441 44H97.532V43ZM108.892 19.288L109.794 18.8559L108.892 16.9735L107.99 18.8559L108.892 19.288ZM106.076 34.296L105.16 33.8949L104.547 35.296H106.076V34.296ZM111.676 34.296V35.296H113.198L112.594 33.8988L111.676 34.296ZM108.892 27.864L109.81 27.4668L108.897 25.3586L107.976 27.4629L108.892 27.864ZM120.252 43V42H115.068V43V44H120.252V43ZM115.068 43L115.975 42.5781L113.607 37.4901L112.7 37.912L111.793 38.3339L114.161 43.4219L115.068 43ZM112.7 37.912V36.912H105.02V37.912V38.912H112.7V37.912ZM105.02 37.912L104.111 37.4948L101.775 42.5828L102.684 43L103.593 43.4172L105.929 38.3292L105.02 37.912ZM102.684 43V42H97.532V43V44H102.684V43ZM97.532 43L98.4338 43.4321L109.794 19.7201L108.892 19.288L107.99 18.8559L96.6302 42.5679L97.532 43ZM108.892 19.288L107.99 19.7201L119.35 43.4321L120.252 43L121.154 42.5679L109.794 18.8559L108.892 19.288ZM106.076 34.296V35.296H111.676V34.296V33.296H106.076V34.296ZM111.676 34.296L112.594 33.8988L109.81 27.4668L108.892 27.864L107.974 28.2612L110.758 34.6932L111.676 34.296ZM108.892 27.864L107.976 27.4629L105.16 33.8949L106.076 34.296L106.992 34.6971L109.808 28.2651L108.892 27.864ZM148.212 34.488L147.526 35.216L149.212 36.8034V34.488H148.212ZM148.212 20.6V19.6H147.212V20.6H148.212ZM152.628 20.6H153.628V19.6H152.628V20.6ZM152.628 44.12L151.942 44.848L153.628 46.4354V44.12H152.628ZM136.692 29.112L137.377 28.384L135.692 26.7966V29.112H136.692ZM136.692 43V44H137.692V43H136.692ZM132.276 43H131.276V44H132.276V43ZM132.276 19.48L132.961 18.752L131.276 17.1646V19.48H132.276ZM148.212 34.488H149.212V20.6H148.212H147.212V34.488H148.212ZM148.212 20.6V21.6H152.628V20.6V19.6H148.212V20.6ZM152.628 20.6H151.628V44.12H152.628H153.628V20.6H152.628ZM152.628 44.12L153.313 43.392L137.377 28.384L136.692 29.112L136.006 29.84L151.942 44.848L152.628 44.12ZM136.692 29.112H135.692V43H136.692H137.692V29.112H136.692ZM136.692 43V42H132.276V43V44H136.692V43ZM132.276 43H133.276V19.48H132.276H131.276V43H132.276ZM132.276 19.48L131.59 20.208L147.526 35.216L148.212 34.488L148.897 33.76L132.961 18.752L132.276 19.48ZM171.734 20.6H172.734V19.6H171.734V20.6ZM171.734 24.472V25.472H172.734V24.472H171.734ZM161.911 24.472V23.472H160.911V24.472H161.911ZM161.911 29.208H160.911V30.208H161.911V29.208ZM171.094 29.208H172.094V28.208H171.094V29.208ZM171.094 33.016V34.016H172.094V33.016H171.094ZM161.911 33.016V32.016H160.911V33.016H161.911ZM161.911 39.128H160.911V40.128H161.911V39.128ZM171.734 39.128H172.734V38.128H171.734V39.128ZM171.734 43V44H172.734V43H171.734ZM157.494 43H156.494V44H157.494V43ZM157.494 20.6V19.6H156.494V20.6H157.494ZM171.734 20.6H170.734V24.472H171.734H172.734V20.6H171.734ZM171.734 24.472V23.472H161.911V24.472V25.472H171.734V24.472ZM161.911 24.472H160.911V29.208H161.911H162.911V24.472H161.911ZM161.911 29.208V30.208H171.094V29.208V28.208H161.911V29.208ZM171.094 29.208H170.094V33.016H171.094H172.094V29.208H171.094ZM171.094 33.016V32.016H161.911V33.016V34.016H171.094V33.016ZM161.911 33.016H160.911V39.128H161.911H162.911V33.016H161.911ZM161.911 39.128V40.128H171.734V39.128V38.128H161.911V39.128ZM171.734 39.128H170.734V43H171.734H172.734V39.128H171.734ZM171.734 43V42H157.494V43V44H171.734V43ZM157.494 43H158.494V20.6H157.494H156.494V43H157.494ZM157.494 20.6V21.6H171.734V20.6V19.6H157.494V20.6ZM190.484 19.48L191.407 19.0934L190.48 16.8819L189.561 19.0968L190.484 19.48ZM196.788 34.52L195.866 34.9066L196.879 37.3238L197.734 34.846L196.788 34.52ZM201.589 20.6V19.6H200.876L200.643 20.274L201.589 20.6ZM206.965 20.6L207.893 20.9707L208.44 19.6H206.965V20.6ZM197.525 44.248L196.622 44.6795L197.607 46.7384L198.453 44.6187L197.525 44.248ZM190.484 29.528L191.387 29.0965L190.487 27.2145L189.583 29.0949L190.484 29.528ZM183.413 44.248L182.483 44.6177L183.326 46.7366L184.314 44.681L183.413 44.248ZM174.005 20.6V19.6H172.53L173.075 20.9697L174.005 20.6ZM179.38 20.6L180.325 20.2701L180.09 19.6H179.38V20.6ZM184.245 34.52L183.3 34.8499L184.164 37.3224L185.168 34.9032L184.245 34.52ZM190.484 19.48L189.562 19.8666L195.866 34.9066L196.788 34.52L197.711 34.1334L191.407 19.0934L190.484 19.48ZM196.788 34.52L197.734 34.846L202.534 20.926L201.589 20.6L200.643 20.274L195.843 34.194L196.788 34.52ZM201.589 20.6V21.6H206.965V20.6V19.6H201.589V20.6ZM206.965 20.6L206.036 20.2293L196.596 43.8773L197.525 44.248L198.453 44.6187L207.893 20.9707L206.965 20.6ZM197.525 44.248L198.427 43.8165L191.387 29.0965L190.484 29.528L189.582 29.9595L196.622 44.6795L197.525 44.248ZM190.484 29.528L189.583 29.0949L182.511 43.815L183.413 44.248L184.314 44.681L191.386 29.961L190.484 29.528ZM183.413 44.248L184.342 43.8783L174.934 20.2303L174.005 20.6L173.075 20.9697L182.483 44.6177L183.413 44.248ZM174.005 20.6V21.6H179.38V20.6V19.6H174.005V20.6ZM179.38 20.6L178.436 20.9299L183.3 34.8499L184.245 34.52L185.189 34.1901L180.325 20.2701L179.38 20.6ZM184.245 34.52L185.168 34.9032L191.408 19.8632L190.484 19.48L189.561 19.0968L183.321 34.1368L184.245 34.52ZM236.367 43V44H238.283L237.187 42.428L236.367 43ZM230.959 43L230.119 43.5424L230.414 44H230.959V43ZM225.711 34.872L226.551 34.3296L226.255 33.872H225.711V34.872ZM223.727 34.872V33.872H222.727V34.872H223.727ZM223.727 43V44H224.727V43H223.727ZM219.151 43H218.151V44H219.151V43ZM219.151 20.6V19.6H218.151V20.6H219.151ZM231.183 21.496L230.745 22.395L230.75 22.3973L231.183 21.496ZM234.031 31.448L233.187 30.9111L233.179 30.9237L233.171 30.9365L234.031 31.448ZM230.319 34.328L230.008 33.3775L228.728 33.7958L229.499 34.9L230.319 34.328ZM223.727 24.504V23.504H222.727V24.504H223.727ZM223.727 31.224H222.727V32.224H223.727V31.224ZM236.367 43V42H230.959V43V44H236.367V43ZM230.959 43L231.799 42.4576L226.551 34.3296L225.711 34.872L224.871 35.4144L230.119 43.5424L230.959 43ZM225.711 34.872V33.872H223.727V34.872V35.872H225.711V34.872ZM223.727 34.872H222.727V43H223.727H224.727V34.872H223.727ZM223.727 43V42H219.151V43V44H223.727V43ZM219.151 43H220.151V20.6H219.151H218.151V43H219.151ZM219.151 20.6V21.6H226.671V20.6V19.6H219.151V20.6ZM226.671 20.6V21.6C228.326 21.6 229.67 21.8715 230.745 22.395L231.183 21.496L231.621 20.597C230.199 19.9045 228.535 19.6 226.671 19.6V20.6ZM231.183 21.496L230.75 22.3973C232.855 23.4092 234.023 25.2593 234.023 27.736H235.023H236.023C236.023 24.5167 234.438 21.9508 231.616 20.5947L231.183 21.496ZM235.023 27.736H234.023C234.023 28.9897 233.739 30.0434 233.187 30.9111L234.031 31.448L234.874 31.9849C235.666 30.7406 236.023 29.2983 236.023 27.736H235.023ZM234.031 31.448L233.171 30.9365C232.504 32.0581 231.459 32.9032 230.008 33.3775L230.319 34.328L230.629 35.2785C232.507 34.6648 233.958 33.5259 234.89 31.9595L234.031 31.448ZM230.319 34.328L229.499 34.9L235.547 43.572L236.367 43L237.187 42.428L231.139 33.756L230.319 34.328ZM226.383 24.504V23.504H223.727V24.504V25.504H226.383V24.504ZM223.727 24.504H222.727V31.224H223.727H224.727V24.504H223.727ZM223.727 31.224V32.224H226.383V31.224V30.224H223.727V31.224ZM226.383 31.224V32.224C227.713 32.224 228.945 31.8781 229.864 31.1188C230.806 30.3401 231.319 29.207 231.319 27.864H230.319H229.319C229.319 28.665 229.032 29.2119 228.59 29.5772C228.124 29.9619 227.388 30.224 226.383 30.224V31.224ZM230.319 27.864H231.319C231.319 26.521 230.806 25.3879 229.864 24.6092C228.945 23.8499 227.713 23.504 226.383 23.504V24.504V25.504C227.388 25.504 228.124 25.7661 228.59 26.1508C229.032 26.5161 229.319 27.063 229.319 27.864H230.319ZM253.234 20.6H254.234V19.6H253.234V20.6ZM253.234 24.472V25.472H254.234V24.472H253.234ZM243.411 24.472V23.472H242.411V24.472H243.411ZM243.411 29.208H242.411V30.208H243.411V29.208ZM252.594 29.208H253.594V28.208H252.594V29.208ZM252.594 33.016V34.016H253.594V33.016H252.594ZM243.411 33.016V32.016H242.411V33.016H243.411ZM243.411 39.128H242.411V40.128H243.411V39.128ZM253.234 39.128H254.234V38.128H253.234V39.128ZM253.234 43V44H254.234V43H253.234ZM238.995 43H237.995V44H238.995V43ZM238.995 20.6V19.6H237.995V20.6H238.995ZM253.234 20.6H252.234V24.472H253.234H254.234V20.6H253.234ZM253.234 24.472V23.472H243.411V24.472V25.472H253.234V24.472ZM243.411 24.472H242.411V29.208H243.411H244.411V24.472H243.411ZM243.411 29.208V30.208H252.594V29.208V28.208H243.411V29.208ZM252.594 29.208H251.594V33.016H252.594H253.594V29.208H252.594ZM252.594 33.016V32.016H243.411V33.016V34.016H252.594V33.016ZM243.411 33.016H242.411V39.128H243.411H244.411V33.016H243.411ZM243.411 39.128V40.128H253.234V39.128V38.128H243.411V39.128ZM253.234 39.128H252.234V43H253.234H254.234V39.128H253.234ZM253.234 43V42H238.995V43V44H253.234V43ZM238.995 43H239.995V20.6H238.995H237.995V43H238.995ZM238.995 20.6V21.6H253.234V20.6V19.6H238.995V20.6ZM262.449 35.64L263.303 35.12L263.299 35.1145L262.449 35.64ZM271.473 38.648L271.162 37.6975L271.154 37.7002L271.145 37.703L271.473 38.648ZM275.473 35.992H276.473V33.3548L274.724 35.329L275.473 35.992ZM275.473 41.144L276.092 41.9289L276.473 41.6286V41.144H275.473ZM259.857 40.216L260.553 39.4982L260.547 39.4931L259.857 40.216ZM259.857 23.384L260.548 24.1069L260.553 24.1017L259.857 23.384ZM275.473 22.456H276.473V21.9714L276.092 21.6711L275.473 22.456ZM275.473 27.608L274.723 28.2696L276.473 30.2528V27.608H275.473ZM273.745 26.072L274.326 25.2583L274.319 25.2536L274.313 25.2491L273.745 26.072ZM265.072 25.4L264.605 24.5162L264.595 24.5216L265.072 25.4ZM261.424 31.8H260.424C260.424 33.4376 260.818 34.9034 261.598 36.1655L262.449 35.64L263.299 35.1145C262.735 34.2006 262.424 33.1064 262.424 31.8H261.424ZM262.449 35.64L261.594 36.1599C263.127 38.6787 265.731 40.064 268.624 40.064V39.064V38.064C266.398 38.064 264.458 37.0173 263.303 35.1201L262.449 35.64ZM268.624 39.064V40.064C269.756 40.064 270.833 39.9275 271.8 39.593L271.473 38.648L271.145 37.703C270.448 37.9445 269.605 38.064 268.624 38.064V39.064ZM271.473 38.648L271.783 39.5985C273.639 38.9918 275.128 37.8888 276.221 36.655L275.473 35.992L274.724 35.329C273.833 36.3352 272.634 37.2162 271.162 37.6975L271.473 38.648ZM275.473 35.992H274.473V41.144H275.473H276.473V35.992H275.473ZM275.473 41.144L274.853 40.3591C273.201 41.6628 271.467 42.448 268.4 42.448V43.448V44.448C271.926 44.448 274.096 43.5052 276.092 41.9289L275.473 41.144ZM268.4 43.448V42.448C265.205 42.448 262.489 41.3763 260.553 39.4983L259.857 40.216L259.16 40.9337C261.512 43.2157 264.748 44.448 268.4 44.448V43.448ZM259.857 40.216L260.547 39.4931C258.586 37.6181 257.464 35.0076 257.464 31.8H256.464H255.464C255.464 35.5044 256.775 38.6539 259.166 40.9389L259.857 40.216ZM256.464 31.8H257.464C257.464 28.5924 258.586 25.9818 260.547 24.1069L259.857 23.384L259.166 22.6611C256.775 24.9461 255.464 28.0956 255.464 31.8H256.464ZM259.857 23.384L260.553 24.1017C262.489 22.2237 265.205 21.152 268.4 21.152V20.152V19.152C264.748 19.152 261.512 20.3843 259.16 22.6663L259.857 23.384ZM268.4 20.152V21.152C271.467 21.152 273.201 21.9372 274.853 23.2409L275.473 22.456L276.092 21.6711C274.096 20.0948 271.926 19.152 268.4 19.152V20.152ZM275.473 22.456H274.473V27.608H275.473H276.473V22.456H275.473ZM275.473 27.608L276.222 26.9464C275.686 26.3382 275.051 25.7765 274.326 25.2583L273.745 26.072L273.163 26.8857C273.782 27.3275 274.299 27.7898 274.723 28.2696L275.473 27.608ZM273.745 26.072L274.313 25.2491C272.808 24.21 270.979 23.536 268.624 23.536V24.536V25.536C270.558 25.536 271.993 26.078 273.176 26.8949L273.745 26.072ZM268.624 24.536V23.536C267.188 23.536 265.843 23.8608 264.605 24.5162L265.072 25.4L265.54 26.2838C266.478 25.7872 267.501 25.536 268.624 25.536V24.536ZM265.072 25.4L264.595 24.5216C262.095 25.8816 260.424 28.4597 260.424 31.8H261.424H262.424C262.424 29.1883 263.698 27.2864 265.55 26.2784L265.072 25.4ZM299.066 23.416L299.762 22.6982L299.757 22.6931L299.066 23.416ZM299.098 40.248L299.81 40.9498L299.098 40.248ZM282.074 40.248L281.367 40.9551L282.074 40.248ZM284.474 35.608L285.355 35.1354L285.353 35.1309L284.474 35.608ZM294.234 38.232L294.752 39.0872L294.758 39.0837L294.234 38.232ZM296.698 27.992L297.587 27.5346L297.584 27.5294L296.698 27.992ZM286.938 25.368L286.419 24.5128L286.414 24.5163L286.938 25.368ZM278.746 31.8H279.746C279.746 28.6325 280.894 26.0159 282.834 24.1337L282.138 23.416L281.441 22.6983C279.094 24.9761 277.746 28.1195 277.746 31.8H278.746ZM282.138 23.416L282.834 24.1337C284.778 22.2475 287.467 21.152 290.586 21.152V20.152V19.152C286.985 19.152 283.785 20.4245 281.441 22.6983L282.138 23.416ZM290.586 20.152V21.152C293.764 21.152 296.393 22.2448 298.375 24.1389L299.066 23.416L299.757 22.6931C297.386 20.4272 294.255 19.152 290.586 19.152V20.152ZM299.066 23.416L298.369 24.1337C300.305 26.0111 301.426 28.6253 301.426 31.8H302.426H303.426C303.426 28.1267 302.115 24.9809 299.762 22.6983L299.066 23.416ZM302.426 31.8H301.426C301.426 34.9111 300.304 37.5989 298.385 39.5462L299.098 40.248L299.81 40.9498C302.116 38.6091 303.426 35.4089 303.426 31.8H302.426ZM299.098 40.248L298.385 39.5462C296.478 41.4828 293.798 42.608 290.586 42.608V43.608V44.608C294.285 44.608 297.494 43.3012 299.81 40.9498L299.098 40.248ZM290.586 43.608V42.608C287.378 42.608 284.726 41.4856 282.781 39.5409L282.074 40.248L281.367 40.9551C283.71 43.2984 286.882 44.608 290.586 44.608V43.608ZM282.074 40.248L282.781 39.5409C280.84 37.6 279.746 34.9177 279.746 31.8H278.746H277.746C277.746 35.4023 279.02 38.608 281.367 40.9551L282.074 40.248ZM283.578 31.8H282.578C282.578 33.3801 282.896 34.7969 283.595 36.0851L284.474 35.608L285.353 35.1309C284.836 34.1791 284.578 33.0999 284.578 31.8H283.578ZM284.474 35.608L283.592 36.0806C284.949 38.611 287.431 40.192 290.586 40.192V39.192V38.192C288.173 38.192 286.366 37.021 285.355 35.1354L284.474 35.608ZM290.586 39.192V40.192C292.123 40.192 293.522 39.8325 294.752 39.0872L294.234 38.232L293.715 37.3768C292.833 37.9115 291.8 38.192 290.586 38.192V39.192ZM294.234 38.232L294.758 39.0837C297.168 37.6005 298.562 34.9529 298.562 31.8H297.562H296.562C296.562 34.3431 295.46 36.3035 293.71 37.3803L294.234 38.232ZM297.562 31.8H298.562C298.562 30.2199 298.244 28.8121 297.587 27.5347L296.698 27.992L295.808 28.4493C296.303 29.4119 296.562 30.5001 296.562 31.8H297.562ZM296.698 27.992L297.584 27.5294C296.257 24.9857 293.768 23.408 290.586 23.408V24.408V25.408C293.035 25.408 294.834 26.5823 295.811 28.4546L296.698 27.992ZM290.586 24.408V23.408C289.048 23.408 287.649 23.7675 286.419 24.5128L286.938 25.368L287.456 26.2232C288.338 25.6885 289.371 25.408 290.586 25.408V24.408ZM286.938 25.368L286.414 24.5163C284.011 25.9951 282.578 28.6379 282.578 31.8H283.578H284.578C284.578 29.2661 285.705 27.3009 287.462 26.2197L286.938 25.368ZM323.179 43V44H325.096L323.999 42.428L323.179 43ZM317.771 43L316.931 43.5424L317.227 44H317.771V43ZM312.523 34.872L313.363 34.3296L313.068 33.872H312.523V34.872ZM310.539 34.872V33.872H309.539V34.872H310.539ZM310.539 43V44H311.539V43H310.539ZM305.963 43H304.963V44H305.963V43ZM305.963 20.6V19.6H304.963V20.6H305.963ZM317.995 21.496L317.557 22.395L317.562 22.3973L317.995 21.496ZM320.843 31.448L320 30.9111L319.992 30.9237L319.984 30.9365L320.843 31.448ZM317.131 34.328L316.821 33.3775L315.541 33.7958L316.311 34.9L317.131 34.328ZM310.539 24.504V23.504H309.539V24.504H310.539ZM310.539 31.224H309.539V32.224H310.539V31.224ZM323.179 43V42H317.771V43V44H323.179V43ZM317.771 43L318.611 42.4576L313.363 34.3296L312.523 34.872L311.683 35.4144L316.931 43.5424L317.771 43ZM312.523 34.872V33.872H310.539V34.872V35.872H312.523V34.872ZM310.539 34.872H309.539V43H310.539H311.539V34.872H310.539ZM310.539 43V42H305.963V43V44H310.539V43ZM305.963 43H306.963V20.6H305.963H304.963V43H305.963ZM305.963 20.6V21.6H313.483V20.6V19.6H305.963V20.6ZM313.483 20.6V21.6C315.139 21.6 316.483 21.8715 317.557 22.395L317.995 21.496L318.433 20.597C317.012 19.9045 315.348 19.6 313.483 19.6V20.6ZM317.995 21.496L317.562 22.3973C319.668 23.4092 320.835 25.2593 320.835 27.736H321.835H322.835C322.835 24.5167 321.251 21.9508 318.428 20.5947L317.995 21.496ZM321.835 27.736H320.835C320.835 28.9897 320.552 30.0434 320 30.9111L320.843 31.448L321.687 31.9849C322.479 30.7406 322.835 29.2983 322.835 27.736H321.835ZM320.843 31.448L319.984 30.9365C319.316 32.0581 318.271 32.9032 316.821 33.3775L317.131 34.328L317.442 35.2785C319.319 34.6648 320.77 33.5259 321.703 31.9595L320.843 31.448ZM317.131 34.328L316.311 34.9L322.359 43.572L323.179 43L323.999 42.428L317.951 33.756L317.131 34.328ZM313.195 24.504V23.504H310.539V24.504V25.504H313.195V24.504ZM310.539 24.504H309.539V31.224H310.539H311.539V24.504H310.539ZM310.539 31.224V32.224H313.195V31.224V30.224H310.539V31.224ZM313.195 31.224V32.224C314.526 32.224 315.758 31.8781 316.676 31.1188C317.618 30.3401 318.131 29.207 318.131 27.864H317.131H316.131C316.131 28.665 315.844 29.2119 315.402 29.5772C314.937 29.9619 314.201 30.224 313.195 30.224V31.224ZM317.131 27.864H318.131C318.131 26.521 317.618 25.3879 316.676 24.6092C315.758 23.8499 314.526 23.504 313.195 23.504V24.504V25.504C314.201 25.504 314.937 25.7661 315.402 26.1508C315.844 26.5161 316.131 27.063 316.131 27.864H317.131ZM339.599 21.976L339.133 22.8606L339.139 22.8639L339.599 21.976ZM343.695 37.72L342.836 37.2079L342.83 37.2177L343.695 37.72ZM325.807 43H324.807V44H325.807V43ZM325.807 20.6V19.6H324.807V20.6H325.807ZM330.479 38.84H329.479V39.84H330.479V38.84ZM330.479 24.76V23.76H329.479V24.76H330.479ZM339.599 21.976L339.139 22.8639C342.294 24.4987 344.167 27.5584 344.167 31.8H345.167H346.167C346.167 26.8896 343.944 23.1013 340.059 21.0881L339.599 21.976ZM345.167 31.8H344.167C344.167 33.9304 343.718 35.7289 342.836 37.2079L343.695 37.72L344.554 38.2321C345.656 36.3831 346.167 34.2136 346.167 31.8H345.167ZM343.695 37.72L342.83 37.2177C341.09 40.2134 337.841 42 333.423 42V43V44C338.413 44 342.396 41.9466 344.56 38.2223L343.695 37.72ZM333.423 43V42H325.807V43V44H333.423V43ZM325.807 43H326.807V20.6H325.807H324.807V43H325.807ZM325.807 20.6V21.6H333.423V20.6V19.6H325.807V20.6ZM333.423 20.6V21.6C335.633 21.6 337.545 22.0237 339.133 22.8606L339.599 21.976L340.065 21.0914C338.133 20.0723 335.885 19.6 333.423 19.6V20.6ZM330.479 38.84V39.84H333.263V38.84V37.84H330.479V38.84ZM333.263 38.84V39.84C335.534 39.84 337.601 39.215 339.11 37.8336C340.634 36.4391 341.463 34.3885 341.463 31.8H340.463H339.463C339.463 33.9475 338.788 35.4169 337.76 36.3584C336.717 37.313 335.184 37.84 333.263 37.84V38.84ZM340.463 31.8H341.463C341.463 29.2115 340.634 27.1609 339.11 25.7664C337.601 24.385 335.534 23.76 333.263 23.76V24.76V25.76C335.184 25.76 336.717 26.287 337.76 27.2416C338.788 28.1831 339.463 29.6525 339.463 31.8H340.463ZM333.263 24.76V23.76H330.479V24.76V25.76H333.263V24.76ZM330.479 24.76H329.479V38.84H330.479H331.479V24.76H330.479ZM349.929 35.928L348.931 35.9884L348.988 36.928H349.929V35.928ZM349.001 20.6V19.6H347.939L348.003 20.6604L349.001 20.6ZM354.121 20.6L355.119 20.6604L355.184 19.6H354.121V20.6ZM353.193 35.928V36.928H354.135L354.191 35.9884L353.193 35.928ZM349.929 35.928L350.927 35.8676L349.999 20.5396L349.001 20.6L348.003 20.6604L348.931 35.9884L349.929 35.928ZM349.001 20.6V21.6H354.121V20.6V19.6H349.001V20.6ZM354.121 20.6L353.123 20.5396L352.195 35.8676L353.193 35.928L354.191 35.9884L355.119 20.6604L354.121 20.6ZM353.193 35.928V34.928H349.929V35.928V36.928H353.193V35.928ZM348.937 41.24H349.937C349.937 40.4581 350.533 39.808 351.561 39.808V38.808V37.808C349.582 37.808 347.937 39.2059 347.937 41.24H348.937ZM351.561 38.808V39.808C352.613 39.808 353.185 40.4504 353.185 41.24H354.185H355.185C355.185 39.2136 353.581 37.808 351.561 37.808V38.808ZM354.185 41.24H353.185C353.185 42.0296 352.613 42.672 351.561 42.672V43.672V44.672C353.581 44.672 355.185 43.2664 355.185 41.24H354.185ZM351.561 43.672V42.672C350.533 42.672 349.937 42.0219 349.937 41.24H348.937H347.937C347.937 43.2741 349.582 44.672 351.561 44.672V43.672Z" fill="black" mask="url(#path-3-inside-1_22_212)"/>
</g>
</g>
<rect x="1" y="1" width="387" height="62" rx="11" stroke="#FFE39A" stroke-width="2"/>
<defs>
<filter id="filter0_d_22_212" x="-11.4121" y="-23.712" width="411.598" height="116.96" filterUnits="userSpaceOnUse" color-interpolation-filters="sRGB">
<feFlood flood-opacity="0" result="BackgroundImageFix"/>
<feColorMatrix in="SourceAlpha" type="matrix" values="0 0 0 0 0 0 0 0 0 0 0 0 0 0 0 0 0 0 127 0" result="hardAlpha"/>
<feOffset dy="3"/>
<feGaussianBlur stdDeviation="23"/>
<feComposite in2="hardAlpha" operator="out"/>
<feColorMatrix type="matrix" values="0 0 0 0 1 0 0 0 0 1 0 0 0 0 1 0 0 0 0.35 0"/>
<feBlend mode="normal" in2="BackgroundImageFix" result="effect1_dropShadow_22_212"/>
<feBlend mode="normal" in="SourceGraphic" in2="effect1_dropShadow_22_212" result="shape"/>
</filter>
<linearGradient id="paint0_linear_22_212" x1="0" y1="0" x2="385.992" y2="78.7458" gradientUnits="userSpaceOnUse">
<stop stop-color="#FFD158"/>
<stop offset="0.1875" stop-color="#BF921D"/>
<stop offset="0.475962" stop-color="#FFCC46"/>
<stop offset="0.735577" stop-color="#A47803"/>
<stop offset="0.879808" stop-color="#FFD25B"/>
</linearGradient>
<linearGradient id="paint1_linear_22_212" x1="194.5" y1="16" x2="194.5" y2="48" gradientUnits="userSpaceOnUse">
<stop offset="0.144311"/>
<stop offset="0.703631" stop-color="#141414"/>
</linearGradient>
<clipPath id="clip0_22_212">
<rect width="389" height="64" rx="12" fill="white"/>
</clipPath>
</defs>
</svg>
