<svg width="560" height="96" viewBox="0 0 560 96" fill="none" xmlns="http://www.w3.org/2000/svg">
<g clip-path="url(#clip0_2_2109)">
<rect width="560" height="96" rx="16" fill="url(#paint0_linear_2_2109)"/>
<g filter="url(#filter0_d_2_2109)">
<mask id="path-3-inside-1_2_2109" fill="white">
<path d="M87.4323 55.6L92.7123 51.76C93.9123 53.88 97.2323 56.48 99.4323 56.48C101.152 56.48 102.392 55.68 102.392 54.2C102.392 52.92 99.9523 51.52 96.9523 50.4C93.5123 49.08 89.4323 46.64 89.4323 41.48C89.4323 39.72 89.9123 38.24 90.8323 37C92.7123 34.6 95.9123 33.28 99.7123 33.28C101.672 33.28 103.392 33.6 104.832 34.2C107.712 35.48 109.552 37.52 110.552 39.44L104.712 42.68C103.592 40.84 101.712 39.64 99.8723 39.64C98.3123 39.64 97.3523 40.32 97.3523 41.4C97.3523 43.04 100.872 44.36 103.472 45.28C107.712 46.8 110.592 49.44 110.592 53.92C110.592 59.8 105.512 63.04 99.7523 63.04C97.8323 63.04 96.0723 62.72 94.4323 62.08C91.1523 60.76 88.6723 58.36 87.4323 55.6ZM120.01 40.92H112.17V34H135.61V40.92H127.77V62H120.01V40.92ZM162.099 62H153.299L150.939 57.48H142.659L140.379 62H131.579L146.819 32.12L162.099 62ZM144.059 51.76H149.619L146.819 45.48L144.059 51.76ZM188.813 62H179.773L174.253 52.72H172.613V62H164.853V34H175.853C178.413 34 180.533 34.4 182.213 35.2C185.533 36.8 187.133 39.68 187.133 43.36C187.133 45.16 186.733 46.8 185.933 48.2C185.053 49.76 183.693 50.92 181.813 51.72L188.813 62ZM175.213 40.56H172.613V46.84H175.213C177.573 46.84 179.053 45.76 179.053 43.68C179.053 41.6 177.573 40.56 175.213 40.56ZM196.807 40.92H188.967V34H212.407V40.92H204.567V62H196.807V40.92ZM234.273 48C234.273 49.56 234.633 50.92 235.353 52C236.753 54.24 239.193 55.4 242.033 55.4C244.793 55.4 248.713 53.36 250.193 51.8V59.96C247.993 61.56 245.633 62.72 241.513 62.72C236.873 62.72 232.873 61.28 230.113 58.68C227.353 56.08 225.753 52.44 225.753 48C225.753 43.56 227.353 39.92 230.113 37.32C232.873 34.72 236.873 33.28 241.513 33.28C245.633 33.28 247.993 34.4 250.193 36.04V44.2C248.713 42.64 244.793 40.6 242.033 40.6C240.633 40.6 239.313 40.88 238.153 41.44C235.793 42.6 234.273 44.84 234.273 48ZM274.356 43.92V34H282.116V62H274.356V50.84H263.316V62H255.556V34H263.316V43.92H274.356ZM315.38 62H306.58L304.22 57.48H295.94L293.66 62H284.86L300.1 32.12L315.38 62ZM297.34 51.76H302.9L300.1 45.48L297.34 51.76ZM318.134 62V34H325.894V55.4H337.214V62H318.134ZM340.165 62V34H347.925V55.4H359.245V62H340.165ZM381.596 34V40.28H369.636V44.4H380.796V50.48H369.636V55.72H381.596V62H362.196V34H381.596ZM405.722 48.24V34H413.162V63.4L394.402 47.76V62H386.962V32.6L405.722 48.24ZM439.955 52.12H433.035V46.36H447.555C447.915 50.96 446.715 55.12 444.195 58.16C441.675 61.2 437.875 63.04 432.955 63.04C428.435 63.04 424.555 61.52 421.755 58.88C418.955 56.24 417.315 52.48 417.315 48C417.315 43.52 418.995 39.84 421.875 37.24C424.755 34.68 428.755 33.28 433.275 33.28C435.315 33.28 437.155 33.56 438.795 34.16C441.995 35.36 444.435 37.52 446.235 40.12L439.155 43.52C438.035 41.48 436.275 39.92 433.275 39.92C431.835 39.92 430.515 40.24 429.355 40.84C426.955 42.08 425.435 44.48 425.435 48C425.435 49.72 425.755 51.24 426.435 52.48C427.755 55.04 430.195 56.4 433.275 56.4C436.795 56.4 438.875 54.88 439.955 52.12ZM471.362 34V40.28H459.402V44.4H470.562V50.48H459.402V55.72H471.362V62H451.962V34H471.362Z"/>
</mask>
<path d="M87.4323 55.6L92.7123 51.76C93.9123 53.88 97.2323 56.48 99.4323 56.48C101.152 56.48 102.392 55.68 102.392 54.2C102.392 52.92 99.9523 51.52 96.9523 50.4C93.5123 49.08 89.4323 46.64 89.4323 41.48C89.4323 39.72 89.9123 38.24 90.8323 37C92.7123 34.6 95.9123 33.28 99.7123 33.28C101.672 33.28 103.392 33.6 104.832 34.2C107.712 35.48 109.552 37.52 110.552 39.44L104.712 42.68C103.592 40.84 101.712 39.64 99.8723 39.64C98.3123 39.64 97.3523 40.32 97.3523 41.4C97.3523 43.04 100.872 44.36 103.472 45.28C107.712 46.8 110.592 49.44 110.592 53.92C110.592 59.8 105.512 63.04 99.7523 63.04C97.8323 63.04 96.0723 62.72 94.4323 62.08C91.1523 60.76 88.6723 58.36 87.4323 55.6ZM120.01 40.92H112.17V34H135.61V40.92H127.77V62H120.01V40.92ZM162.099 62H153.299L150.939 57.48H142.659L140.379 62H131.579L146.819 32.12L162.099 62ZM144.059 51.76H149.619L146.819 45.48L144.059 51.76ZM188.813 62H179.773L174.253 52.72H172.613V62H164.853V34H175.853C178.413 34 180.533 34.4 182.213 35.2C185.533 36.8 187.133 39.68 187.133 43.36C187.133 45.16 186.733 46.8 185.933 48.2C185.053 49.76 183.693 50.92 181.813 51.72L188.813 62ZM175.213 40.56H172.613V46.84H175.213C177.573 46.84 179.053 45.76 179.053 43.68C179.053 41.6 177.573 40.56 175.213 40.56ZM196.807 40.92H188.967V34H212.407V40.92H204.567V62H196.807V40.92ZM234.273 48C234.273 49.56 234.633 50.92 235.353 52C236.753 54.24 239.193 55.4 242.033 55.4C244.793 55.4 248.713 53.36 250.193 51.8V59.96C247.993 61.56 245.633 62.72 241.513 62.72C236.873 62.72 232.873 61.28 230.113 58.68C227.353 56.08 225.753 52.44 225.753 48C225.753 43.56 227.353 39.92 230.113 37.32C232.873 34.72 236.873 33.28 241.513 33.28C245.633 33.28 247.993 34.4 250.193 36.04V44.2C248.713 42.64 244.793 40.6 242.033 40.6C240.633 40.6 239.313 40.88 238.153 41.44C235.793 42.6 234.273 44.84 234.273 48ZM274.356 43.92V34H282.116V62H274.356V50.84H263.316V62H255.556V34H263.316V43.92H274.356ZM315.38 62H306.58L304.22 57.48H295.94L293.66 62H284.86L300.1 32.12L315.38 62ZM297.34 51.76H302.9L300.1 45.48L297.34 51.76ZM318.134 62V34H325.894V55.4H337.214V62H318.134ZM340.165 62V34H347.925V55.4H359.245V62H340.165ZM381.596 34V40.28H369.636V44.4H380.796V50.48H369.636V55.72H381.596V62H362.196V34H381.596ZM405.722 48.24V34H413.162V63.4L394.402 47.76V62H386.962V32.6L405.722 48.24ZM439.955 52.12H433.035V46.36H447.555C447.915 50.96 446.715 55.12 444.195 58.16C441.675 61.2 437.875 63.04 432.955 63.04C428.435 63.04 424.555 61.52 421.755 58.88C418.955 56.24 417.315 52.48 417.315 48C417.315 43.52 418.995 39.84 421.875 37.24C424.755 34.68 428.755 33.28 433.275 33.28C435.315 33.28 437.155 33.56 438.795 34.16C441.995 35.36 444.435 37.52 446.235 40.12L439.155 43.52C438.035 41.48 436.275 39.92 433.275 39.92C431.835 39.92 430.515 40.24 429.355 40.84C426.955 42.08 425.435 44.48 425.435 48C425.435 49.72 425.755 51.24 426.435 52.48C427.755 55.04 430.195 56.4 433.275 56.4C436.795 56.4 438.875 54.88 439.955 52.12ZM471.362 34V40.28H459.402V44.4H470.562V50.48H459.402V55.72H471.362V62H451.962V34H471.362Z" fill="url(#paint1_linear_2_2109)"/>
<path d="M87.4323 55.6L86.8442 54.7913L86.1873 55.269L86.5202 56.0098L87.4323 55.6ZM92.7123 51.76L93.5826 51.2674L93.0305 50.2921L92.1242 50.9513L92.7123 51.76ZM96.9523 50.4L96.5941 51.3337L96.6026 51.3368L96.9523 50.4ZM90.8323 37L90.0451 36.3833L90.037 36.3936L90.0292 36.4042L90.8323 37ZM104.832 34.2L105.238 33.2862L105.228 33.2814L105.217 33.2769L104.832 34.2ZM110.552 39.44L111.037 40.3144L111.889 39.8419L111.439 38.9781L110.552 39.44ZM104.712 42.68L103.858 43.1999L104.358 44.0204L105.197 43.5544L104.712 42.68ZM103.472 45.28L103.81 44.3387L103.806 44.3373L103.472 45.28ZM94.4323 62.08L94.059 63.0077L94.0688 63.0116L94.4323 62.08ZM87.4323 55.6L88.0205 56.4087L93.3005 52.5687L92.7123 51.76L92.1242 50.9513L86.8442 54.7913L87.4323 55.6ZM92.7123 51.76L91.8421 52.2526C92.5318 53.4712 93.7753 54.7512 95.1082 55.723C96.4131 56.6744 98.0083 57.48 99.4323 57.48V56.48V55.48C98.6564 55.48 97.4916 54.9856 96.2865 54.107C95.1094 53.2488 94.0929 52.1688 93.5826 51.2674L92.7123 51.76ZM99.4323 56.48V57.48C100.431 57.48 101.401 57.2497 102.149 56.7014C102.932 56.1272 103.392 55.2571 103.392 54.2H102.392H101.392C101.392 54.6229 101.233 54.8928 100.966 55.0886C100.664 55.3103 100.153 55.48 99.4323 55.48V56.48ZM102.392 54.2H103.392C103.392 53.5552 103.087 53.0066 102.731 52.5813C102.369 52.1506 101.884 51.7591 101.348 51.4054C100.273 50.6961 98.8344 50.0352 97.3021 49.4632L96.9523 50.4L96.6026 51.3368C98.0703 51.8848 99.3513 52.4839 100.247 53.0746C100.696 53.3709 101.008 53.6394 101.198 53.8662C101.291 53.9771 101.342 54.0629 101.368 54.122C101.381 54.1506 101.387 54.1708 101.39 54.183C101.391 54.189 101.392 54.1933 101.392 54.1959C101.392 54.1985 101.392 54.1998 101.392 54.2H102.392ZM96.9523 50.4L97.3106 49.4664C93.9254 48.1674 90.4323 45.9586 90.4323 41.48H89.4323H88.4323C88.4323 47.3214 93.0993 49.9926 96.5941 51.3336L96.9523 50.4ZM89.4323 41.48H90.4323C90.4323 39.9151 90.8545 38.6485 91.6354 37.5958L90.8323 37L90.0292 36.4042C88.9702 37.8315 88.4323 39.5249 88.4323 41.48H89.4323ZM90.8323 37L91.6196 37.6167C93.2603 35.5222 96.1288 34.28 99.7123 34.28V33.28V32.28C95.6959 32.28 92.1644 33.6778 90.0451 36.3833L90.8323 37ZM99.7123 33.28V34.28C101.566 34.28 103.151 34.5829 104.448 35.1231L104.832 34.2L105.217 33.2769C103.633 32.6171 101.779 32.28 99.7123 32.28V33.28ZM104.832 34.2L104.426 35.1138C107.084 36.2951 108.762 38.1672 109.665 39.9019L110.552 39.44L111.439 38.9781C110.343 36.8728 108.341 34.6649 105.238 33.2862L104.832 34.2ZM110.552 39.44L110.067 38.5656L104.227 41.8056L104.712 42.68L105.197 43.5544L111.037 40.3144L110.552 39.44ZM104.712 42.68L105.567 42.1601C104.307 40.0914 102.136 38.64 99.8723 38.64V39.64V40.64C101.289 40.64 102.877 41.5886 103.858 43.1999L104.712 42.68ZM99.8723 39.64V38.64C98.9636 38.64 98.1099 38.8358 97.4533 39.2962C96.7613 39.7814 96.3523 40.522 96.3523 41.4H97.3523H98.3523C98.3523 41.198 98.4234 41.0586 98.6014 40.9338C98.8148 40.7842 99.221 40.64 99.8723 40.64V39.64ZM97.3523 41.4H96.3523C96.3523 42.1868 96.7749 42.8172 97.2377 43.2776C97.7062 43.7438 98.3226 44.1449 98.9626 44.4901C100.246 45.1822 101.847 45.7655 103.139 46.2227L103.472 45.28L103.806 44.3373C102.498 43.8745 101.039 43.3378 99.9121 42.7299C99.3471 42.4251 98.921 42.1312 98.6483 41.8598C98.3698 41.5828 98.3523 41.4332 98.3523 41.4H97.3523ZM103.472 45.28L103.135 46.2213C105.16 46.9472 106.773 47.9111 107.874 49.1534C108.957 50.3746 109.592 51.9165 109.592 53.92H110.592H111.592C111.592 51.4435 110.788 49.4254 109.371 47.8266C107.972 46.2489 106.025 45.1328 103.81 44.3387L103.472 45.28ZM110.592 53.92H109.592C109.592 56.5379 108.476 58.5313 106.719 59.8951C104.938 61.2778 102.457 62.04 99.7523 62.04V63.04V64.04C102.808 64.04 105.747 63.1822 107.946 61.4749C110.169 59.7487 111.592 57.1821 111.592 53.92H110.592ZM99.7523 63.04V62.04C97.9468 62.04 96.3111 61.7397 94.7959 61.1484L94.4323 62.08L94.0688 63.0116C95.8336 63.7003 97.7179 64.04 99.7523 64.04V63.04ZM94.4323 62.08L94.8057 61.1523C91.7481 59.9218 89.4711 57.6978 88.3445 55.1902L87.4323 55.6L86.5202 56.0098C87.8736 59.0222 90.5566 61.5982 94.059 63.0077L94.4323 62.08ZM120.01 40.92H121.01V39.92H120.01V40.92ZM112.17 40.92H111.17V41.92H112.17V40.92ZM112.17 34V33H111.17V34H112.17ZM135.61 34H136.61V33H135.61V34ZM135.61 40.92V41.92H136.61V40.92H135.61ZM127.77 40.92V39.92H126.77V40.92H127.77ZM127.77 62V63H128.77V62H127.77ZM120.01 62H119.01V63H120.01V62ZM120.01 40.92V39.92H112.17V40.92V41.92H120.01V40.92ZM112.17 40.92H113.17V34H112.17H111.17V40.92H112.17ZM112.17 34V35H135.61V34V33H112.17V34ZM135.61 34H134.61V40.92H135.61H136.61V34H135.61ZM135.61 40.92V39.92H127.77V40.92V41.92H135.61V40.92ZM127.77 40.92H126.77V62H127.77H128.77V40.92H127.77ZM127.77 62V61H120.01V62V63H127.77V62ZM120.01 62H121.01V40.92H120.01H119.01V62H120.01ZM162.099 62V63H163.734L162.99 61.5447L162.099 62ZM153.299 62L152.413 62.4628L152.693 63H153.299V62ZM150.939 57.48L151.826 57.0172L151.545 56.48H150.939V57.48ZM142.659 57.48V56.48H142.044L141.766 57.0296L142.659 57.48ZM140.379 62V63H140.995L141.272 62.4504L140.379 62ZM131.579 62L130.688 61.5456L129.947 63H131.579V62ZM146.819 32.12L147.71 31.6647L146.818 29.9214L145.928 31.6656L146.819 32.12ZM144.059 51.76L143.144 51.3577L142.527 52.76H144.059V51.76ZM149.619 51.76V52.76H151.16L150.533 51.3528L149.619 51.76ZM146.819 45.48L147.733 45.0728L146.813 43.0096L145.904 45.0777L146.819 45.48ZM162.099 62V61H153.299V62V63H162.099V62ZM153.299 62L154.186 61.5372L151.826 57.0172L150.939 57.48L150.053 57.9428L152.413 62.4628L153.299 62ZM150.939 57.48V56.48H142.659V57.48V58.48H150.939V57.48ZM142.659 57.48L141.766 57.0296L139.486 61.5496L140.379 62L141.272 62.4504L143.552 57.9304L142.659 57.48ZM140.379 62V61H131.579V62V63H140.379V62ZM131.579 62L132.47 62.4544L147.71 32.5744L146.819 32.12L145.928 31.6656L130.688 61.5456L131.579 62ZM146.819 32.12L145.929 32.5753L161.209 62.4553L162.099 62L162.99 61.5447L147.71 31.6647L146.819 32.12ZM144.059 51.76V52.76H149.619V51.76V50.76H144.059V51.76ZM149.619 51.76L150.533 51.3528L147.733 45.0728L146.819 45.48L145.906 45.8872L148.706 52.1672L149.619 51.76ZM146.819 45.48L145.904 45.0777L143.144 51.3577L144.059 51.76L144.975 52.1623L147.735 45.8823L146.819 45.48ZM188.813 62V63H190.703L189.639 61.4372L188.813 62ZM179.773 62L178.913 62.5112L179.204 63H179.773V62ZM174.253 52.72L175.112 52.2088L174.821 51.72H174.253V52.72ZM172.613 52.72V51.72H171.613V52.72H172.613ZM172.613 62V63H173.613V62H172.613ZM164.853 62H163.853V63H164.853V62ZM164.853 34V33H163.853V34H164.853ZM182.213 35.2L182.647 34.2991L182.643 34.2971L182.213 35.2ZM185.933 48.2L185.064 47.7039L185.062 47.7087L185.933 48.2ZM181.813 51.72L181.421 50.7998L180.301 51.2765L180.986 52.2828L181.813 51.72ZM172.613 40.56V39.56H171.613V40.56H172.613ZM172.613 46.84H171.613V47.84H172.613V46.84ZM188.813 62V61H179.773V62V63H188.813V62ZM179.773 62L180.632 61.4888L175.112 52.2088L174.253 52.72L173.393 53.2312L178.913 62.5112L179.773 62ZM174.253 52.72V51.72H172.613V52.72V53.72H174.253V52.72ZM172.613 52.72H171.613V62H172.613H173.613V52.72H172.613ZM172.613 62V61H164.853V62V63H172.613V62ZM164.853 62H165.853V34H164.853H163.853V62H164.853ZM164.853 34V35H175.853V34V33H164.853V34ZM175.853 34V35C178.317 35 180.278 35.3861 181.783 36.1029L182.213 35.2L182.643 34.2971C180.788 33.4139 178.509 33 175.853 33V34ZM182.213 35.2L181.779 36.1008C184.715 37.5158 186.133 40.02 186.133 43.36H187.133H188.133C188.133 39.34 186.351 36.0842 182.647 34.2992L182.213 35.2ZM187.133 43.36H186.133C186.133 45.0109 185.766 46.4752 185.064 47.7039L185.933 48.2L186.801 48.6961C187.699 47.1248 188.133 45.3091 188.133 43.36H187.133ZM185.933 48.2L185.062 47.7087C184.305 49.0497 183.129 50.073 181.421 50.7998L181.813 51.72L182.204 52.6402C184.256 51.767 185.8 50.4703 186.804 48.6913L185.933 48.2ZM181.813 51.72L180.986 52.2828L187.986 62.5628L188.813 62L189.639 61.4372L182.639 51.1572L181.813 51.72ZM175.213 40.56V39.56H172.613V40.56V41.56H175.213V40.56ZM172.613 40.56H171.613V46.84H172.613H173.613V40.56H172.613ZM172.613 46.84V47.84H175.213V46.84V45.84H172.613V46.84ZM175.213 46.84V47.84C176.528 47.84 177.739 47.5411 178.641 46.822C179.577 46.076 180.053 44.9796 180.053 43.68H179.053H178.053C178.053 44.4604 177.788 44.944 177.394 45.258C176.967 45.5989 176.257 45.84 175.213 45.84V46.84ZM179.053 43.68H180.053C180.053 42.3789 179.575 41.2887 178.634 40.5522C177.73 39.8455 176.52 39.56 175.213 39.56V40.56V41.56C176.265 41.56 176.975 41.7945 177.402 42.1278C177.79 42.4313 178.053 42.9011 178.053 43.68H179.053ZM196.807 40.92H197.807V39.92H196.807V40.92ZM188.967 40.92H187.967V41.92H188.967V40.92ZM188.967 34V33H187.967V34H188.967ZM212.407 34H213.407V33H212.407V34ZM212.407 40.92V41.92H213.407V40.92H212.407ZM204.567 40.92V39.92H203.567V40.92H204.567ZM204.567 62V63H205.567V62H204.567ZM196.807 62H195.807V63H196.807V62ZM196.807 40.92V39.92H188.967V40.92V41.92H196.807V40.92ZM188.967 40.92H189.967V34H188.967H187.967V40.92H188.967ZM188.967 34V35H212.407V34V33H188.967V34ZM212.407 34H211.407V40.92H212.407H213.407V34H212.407ZM212.407 40.92V39.92H204.567V40.92V41.92H212.407V40.92ZM204.567 40.92H203.567V62H204.567H205.567V40.92H204.567ZM204.567 62V61H196.807V62V63H204.567V62ZM196.807 62H197.807V40.92H196.807H195.807V62H196.807ZM235.353 52L236.201 51.47L236.193 51.4575L236.185 51.4453L235.353 52ZM250.193 51.8H251.193V49.293L249.467 51.1117L250.193 51.8ZM250.193 59.96L250.781 60.7687L251.193 60.4692V59.96H250.193ZM230.113 58.68L229.427 59.4079L230.113 58.68ZM230.113 37.32L229.427 36.5921L230.113 37.32ZM250.193 36.04H251.193V35.5382L250.79 35.2383L250.193 36.04ZM250.193 44.2L249.467 44.8883L251.193 46.707V44.2H250.193ZM238.153 41.44L237.718 40.5394L237.712 40.5426L238.153 41.44ZM234.273 48H233.273C233.273 49.7112 233.668 51.2758 234.521 52.5547L235.353 52L236.185 51.4453C235.597 50.5642 235.273 49.4088 235.273 48H234.273ZM235.353 52L234.505 52.53C236.12 55.1151 238.915 56.4 242.033 56.4V55.4V54.4C239.47 54.4 237.385 53.3649 236.201 51.47L235.353 52ZM242.033 55.4V56.4C243.621 56.4 245.445 55.8246 247.016 55.0911C248.587 54.3573 250.06 53.3931 250.918 52.4883L250.193 51.8L249.467 51.1117C248.846 51.7669 247.618 52.6027 246.17 53.2789C244.721 53.9554 243.204 54.4 242.033 54.4V55.4ZM250.193 51.8H249.193V59.96H250.193H251.193V51.8H250.193ZM250.193 59.96L249.604 59.1513C247.544 60.65 245.385 61.72 241.513 61.72V62.72V63.72C245.88 63.72 248.442 62.47 250.781 60.7687L250.193 59.96ZM241.513 62.72V61.72C237.074 61.72 233.337 60.3436 230.798 57.9521L230.113 58.68L229.427 59.4079C232.408 62.2164 236.672 63.72 241.513 63.72V62.72ZM230.113 58.68L230.798 57.9521C228.253 55.554 226.753 52.1839 226.753 48H225.753H224.753C224.753 52.6961 226.453 56.606 229.427 59.4079L230.113 58.68ZM225.753 48H226.753C226.753 43.8161 228.253 40.446 230.798 38.0479L230.113 37.32L229.427 36.5921C226.453 39.394 224.753 43.3039 224.753 48H225.753ZM230.113 37.32L230.798 38.0479C233.337 35.6564 237.074 34.28 241.513 34.28V33.28V32.28C236.672 32.28 232.408 33.7836 229.427 36.5921L230.113 37.32ZM241.513 33.28V34.28C245.393 34.28 247.547 35.3152 249.595 36.8417L250.193 36.04L250.79 35.2383C248.438 33.4848 245.872 32.28 241.513 32.28V33.28ZM250.193 36.04H249.193V44.2H250.193H251.193V36.04H250.193ZM250.193 44.2L250.918 43.5117C250.06 42.6069 248.587 41.6427 247.016 40.9089C245.445 40.1754 243.621 39.6 242.033 39.6V40.6V41.6C243.204 41.6 244.721 42.0446 246.17 42.7211C247.618 43.3973 248.846 44.2331 249.467 44.8883L250.193 44.2ZM242.033 40.6V39.6C240.5 39.6 239.029 39.9066 237.718 40.5394L238.153 41.44L238.587 42.3406C239.597 41.8534 240.765 41.6 242.033 41.6V40.6ZM238.153 41.44L237.712 40.5426C235 41.8753 233.273 44.4692 233.273 48H234.273H235.273C235.273 45.2108 236.585 43.3247 238.594 42.3374L238.153 41.44ZM274.356 43.92V44.92H275.356V43.92H274.356ZM274.356 34V33H273.356V34H274.356ZM282.116 34H283.116V33H282.116V34ZM282.116 62V63H283.116V62H282.116ZM274.356 62H273.356V63H274.356V62ZM274.356 50.84H275.356V49.84H274.356V50.84ZM263.316 50.84V49.84H262.316V50.84H263.316ZM263.316 62V63H264.316V62H263.316ZM255.556 62H254.556V63H255.556V62ZM255.556 34V33H254.556V34H255.556ZM263.316 34H264.316V33H263.316V34ZM263.316 43.92H262.316V44.92H263.316V43.92ZM274.356 43.92H275.356V34H274.356H273.356V43.92H274.356ZM274.356 34V35H282.116V34V33H274.356V34ZM282.116 34H281.116V62H282.116H283.116V34H282.116ZM282.116 62V61H274.356V62V63H282.116V62ZM274.356 62H275.356V50.84H274.356H273.356V62H274.356ZM274.356 50.84V49.84H263.316V50.84V51.84H274.356V50.84ZM263.316 50.84H262.316V62H263.316H264.316V50.84H263.316ZM263.316 62V61H255.556V62V63H263.316V62ZM255.556 62H256.556V34H255.556H254.556V62H255.556ZM255.556 34V35H263.316V34V33H255.556V34ZM263.316 34H262.316V43.92H263.316H264.316V34H263.316ZM263.316 43.92V44.92H274.356V43.92V42.92H263.316V43.92ZM315.38 62V63H317.015L316.271 61.5447L315.38 62ZM306.58 62L305.694 62.4628L305.974 63H306.58V62ZM304.22 57.48L305.107 57.0172L304.826 56.48H304.22V57.48ZM295.94 57.48V56.48H295.325L295.048 57.0296L295.94 57.48ZM293.66 62V63H294.276L294.553 62.4504L293.66 62ZM284.86 62L283.97 61.5456L283.228 63H284.86V62ZM300.1 32.12L300.991 31.6647L300.099 29.9214L299.21 31.6656L300.1 32.12ZM297.34 51.76L296.425 51.3577L295.809 52.76H297.34V51.76ZM302.9 51.76V52.76H304.441L303.814 51.3528L302.9 51.76ZM300.1 45.48L301.014 45.0728L300.094 43.0096L299.185 45.0777L300.1 45.48ZM315.38 62V61H306.58V62V63H315.38V62ZM306.58 62L307.467 61.5372L305.107 57.0172L304.22 57.48L303.334 57.9428L305.694 62.4628L306.58 62ZM304.22 57.48V56.48H295.94V57.48V58.48H304.22V57.48ZM295.94 57.48L295.048 57.0296L292.768 61.5496L293.66 62L294.553 62.4504L296.833 57.9304L295.94 57.48ZM293.66 62V61H284.86V62V63H293.66V62ZM284.86 62L285.751 62.4544L300.991 32.5744L300.1 32.12L299.21 31.6656L283.97 61.5456L284.86 62ZM300.1 32.12L299.21 32.5753L314.49 62.4553L315.38 62L316.271 61.5447L300.991 31.6647L300.1 32.12ZM297.34 51.76V52.76H302.9V51.76V50.76H297.34V51.76ZM302.9 51.76L303.814 51.3528L301.014 45.0728L300.1 45.48L299.187 45.8872L301.987 52.1672L302.9 51.76ZM300.1 45.48L299.185 45.0777L296.425 51.3577L297.34 51.76L298.256 52.1623L301.016 45.8823L300.1 45.48ZM318.134 62H317.134V63H318.134V62ZM318.134 34V33H317.134V34H318.134ZM325.894 34H326.894V33H325.894V34ZM325.894 55.4H324.894V56.4H325.894V55.4ZM337.214 55.4H338.214V54.4H337.214V55.4ZM337.214 62V63H338.214V62H337.214ZM318.134 62H319.134V34H318.134H317.134V62H318.134ZM318.134 34V35H325.894V34V33H318.134V34ZM325.894 34H324.894V55.4H325.894H326.894V34H325.894ZM325.894 55.4V56.4H337.214V55.4V54.4H325.894V55.4ZM337.214 55.4H336.214V62H337.214H338.214V55.4H337.214ZM337.214 62V61H318.134V62V63H337.214V62ZM340.165 62H339.165V63H340.165V62ZM340.165 34V33H339.165V34H340.165ZM347.925 34H348.925V33H347.925V34ZM347.925 55.4H346.925V56.4H347.925V55.4ZM359.245 55.4H360.245V54.4H359.245V55.4ZM359.245 62V63H360.245V62H359.245ZM340.165 62H341.165V34H340.165H339.165V62H340.165ZM340.165 34V35H347.925V34V33H340.165V34ZM347.925 34H346.925V55.4H347.925H348.925V34H347.925ZM347.925 55.4V56.4H359.245V55.4V54.4H347.925V55.4ZM359.245 55.4H358.245V62H359.245H360.245V55.4H359.245ZM359.245 62V61H340.165V62V63H359.245V62ZM381.596 34H382.596V33H381.596V34ZM381.596 40.28V41.28H382.596V40.28H381.596ZM369.636 40.28V39.28H368.636V40.28H369.636ZM369.636 44.4H368.636V45.4H369.636V44.4ZM380.796 44.4H381.796V43.4H380.796V44.4ZM380.796 50.48V51.48H381.796V50.48H380.796ZM369.636 50.48V49.48H368.636V50.48H369.636ZM369.636 55.72H368.636V56.72H369.636V55.72ZM381.596 55.72H382.596V54.72H381.596V55.72ZM381.596 62V63H382.596V62H381.596ZM362.196 62H361.196V63H362.196V62ZM362.196 34V33H361.196V34H362.196ZM381.596 34H380.596V40.28H381.596H382.596V34H381.596ZM381.596 40.28V39.28H369.636V40.28V41.28H381.596V40.28ZM369.636 40.28H368.636V44.4H369.636H370.636V40.28H369.636ZM369.636 44.4V45.4H380.796V44.4V43.4H369.636V44.4ZM380.796 44.4H379.796V50.48H380.796H381.796V44.4H380.796ZM380.796 50.48V49.48H369.636V50.48V51.48H380.796V50.48ZM369.636 50.48H368.636V55.72H369.636H370.636V50.48H369.636ZM369.636 55.72V56.72H381.596V55.72V54.72H369.636V55.72ZM381.596 55.72H380.596V62H381.596H382.596V55.72H381.596ZM381.596 62V61H362.196V62V63H381.596V62ZM362.196 62H363.196V34H362.196H361.196V62H362.196ZM362.196 34V35H381.596V34V33H362.196V34ZM405.722 48.24L405.082 49.0081L406.722 50.3756V48.24H405.722ZM405.722 34V33H404.722V34H405.722ZM413.162 34H414.162V33H413.162V34ZM413.162 63.4L412.522 64.1681L414.162 65.5356V63.4H413.162ZM394.402 47.76L395.042 46.9919L393.402 45.6244V47.76H394.402ZM394.402 62V63H395.402V62H394.402ZM386.962 62H385.962V63H386.962V62ZM386.962 32.6L387.602 31.8319L385.962 30.4644V32.6H386.962ZM405.722 48.24H406.722V34H405.722H404.722V48.24H405.722ZM405.722 34V35H413.162V34V33H405.722V34ZM413.162 34H412.162V63.4H413.162H414.162V34H413.162ZM413.162 63.4L413.802 62.6319L395.042 46.9919L394.402 47.76L393.762 48.5281L412.522 64.1681L413.162 63.4ZM394.402 47.76H393.402V62H394.402H395.402V47.76H394.402ZM394.402 62V61H386.962V62V63H394.402V62ZM386.962 62H387.962V32.6H386.962H385.962V62H386.962ZM386.962 32.6L386.322 33.3681L405.082 49.0081L405.722 48.24L406.362 47.4719L387.602 31.8319L386.962 32.6ZM439.955 52.12L440.886 52.4844L441.42 51.12H439.955V52.12ZM433.035 52.12H432.035V53.12H433.035V52.12ZM433.035 46.36V45.36H432.035V46.36H433.035ZM447.555 46.36L448.552 46.282L448.48 45.36H447.555V46.36ZM444.195 58.16L444.965 58.7982L444.195 58.16ZM421.755 58.88L421.069 59.6076L421.755 58.88ZM421.875 37.24L421.211 36.4926L421.205 36.4977L421.875 37.24ZM438.795 34.16L439.146 33.2236L439.139 33.2209L438.795 34.16ZM446.235 40.12L446.668 41.0214L447.724 40.5142L447.057 39.5508L446.235 40.12ZM439.155 43.52L438.279 44.0013L438.734 44.8314L439.588 44.4214L439.155 43.52ZM429.355 40.84L429.814 41.7284L429.815 41.7282L429.355 40.84ZM426.435 52.48L427.324 52.0217L427.318 52.0104L427.312 51.9992L426.435 52.48ZM439.955 52.12V51.12H433.035V52.12V53.12H439.955V52.12ZM433.035 52.12H434.035V46.36H433.035H432.035V52.12H433.035ZM433.035 46.36V47.36H447.555V46.36V45.36H433.035V46.36ZM447.555 46.36L446.558 46.438C446.901 50.8215 445.754 54.7126 443.425 57.5218L444.195 58.16L444.965 58.7982C447.676 55.5274 448.929 51.0985 448.552 46.282L447.555 46.36ZM444.195 58.16L443.425 57.5218C441.113 60.3114 437.606 62.04 432.955 62.04V63.04V64.04C438.144 64.04 442.237 62.0886 444.965 58.7982L444.195 58.16ZM432.955 63.04V62.04C428.664 62.04 425.037 60.6003 422.441 58.1524L421.755 58.88L421.069 59.6076C424.073 62.4397 428.206 64.04 432.955 64.04V63.04ZM421.755 58.88L422.441 58.1524C419.856 55.7149 418.315 52.2249 418.315 48H417.315H416.315C416.315 52.7351 418.054 56.7651 421.069 59.6076L421.755 58.88ZM417.315 48H418.315C418.315 43.7877 419.886 40.3827 422.545 37.9823L421.875 37.24L421.205 36.4977C418.104 39.2973 416.315 43.2523 416.315 48H417.315ZM421.875 37.24L422.54 37.9874C425.207 35.616 428.958 34.28 433.275 34.28V33.28V32.28C428.552 32.28 424.303 33.744 421.211 36.4926L421.875 37.24ZM433.275 33.28V34.28C435.225 34.28 436.945 34.5478 438.452 35.0991L438.795 34.16L439.139 33.2209C437.366 32.5722 435.405 32.28 433.275 32.28V33.28ZM438.795 34.16L438.444 35.0963C441.421 36.2126 443.707 38.2257 445.413 40.6892L446.235 40.12L447.057 39.5508C445.163 36.8143 442.57 34.5074 439.146 33.2237L438.795 34.16ZM446.235 40.12L445.802 39.2186L438.722 42.6186L439.155 43.52L439.588 44.4214L446.668 41.0214L446.235 40.12ZM439.155 43.52L440.032 43.0387C439.419 41.9222 438.602 40.8841 437.48 40.1263C436.348 39.3617 434.96 38.92 433.275 38.92V39.92V40.92C434.59 40.92 435.583 41.2583 436.36 41.7837C437.148 42.3159 437.772 43.0778 438.279 44.0013L439.155 43.52ZM433.275 39.92V38.92C431.684 38.92 430.205 39.2744 428.896 39.9518L429.355 40.84L429.815 41.7282C430.825 41.2056 431.986 40.92 433.275 40.92V39.92ZM429.355 40.84L428.896 39.9516C426.124 41.3839 424.435 44.1533 424.435 48H425.435H426.435C426.435 44.8067 427.787 42.7761 429.814 41.7284L429.355 40.84ZM425.435 48H424.435C424.435 49.8378 424.776 51.5349 425.558 52.9608L426.435 52.48L427.312 51.9992C426.734 50.9451 426.435 49.6022 426.435 48H425.435ZM426.435 52.48L425.546 52.9383C427.059 55.8717 429.869 57.4 433.275 57.4V56.4V55.4C430.521 55.4 428.451 54.2083 427.324 52.0217L426.435 52.48ZM433.275 56.4V57.4C435.179 57.4 436.785 56.988 438.082 56.1288C439.384 55.2672 440.288 54.0134 440.886 52.4844L439.955 52.12L439.024 51.7556C438.542 52.9866 437.867 53.8728 436.978 54.4612C436.086 55.052 434.891 55.4 433.275 55.4V56.4ZM471.362 34H472.362V33H471.362V34ZM471.362 40.28V41.28H472.362V40.28H471.362ZM459.402 40.28V39.28H458.402V40.28H459.402ZM459.402 44.4H458.402V45.4H459.402V44.4ZM470.562 44.4H471.562V43.4H470.562V44.4ZM470.562 50.48V51.48H471.562V50.48H470.562ZM459.402 50.48V49.48H458.402V50.48H459.402ZM459.402 55.72H458.402V56.72H459.402V55.72ZM471.362 55.72H472.362V54.72H471.362V55.72ZM471.362 62V63H472.362V62H471.362ZM451.962 62H450.962V63H451.962V62ZM451.962 34V33H450.962V34H451.962ZM471.362 34H470.362V40.28H471.362H472.362V34H471.362ZM471.362 40.28V39.28H459.402V40.28V41.28H471.362V40.28ZM459.402 40.28H458.402V44.4H459.402H460.402V40.28H459.402ZM459.402 44.4V45.4H470.562V44.4V43.4H459.402V44.4ZM470.562 44.4H469.562V50.48H470.562H471.562V44.4H470.562ZM470.562 50.48V49.48H459.402V50.48V51.48H470.562V50.48ZM459.402 50.48H458.402V55.72H459.402H460.402V50.48H459.402ZM459.402 55.72V56.72H471.362V55.72V54.72H459.402V55.72ZM471.362 55.72H470.362V62H471.362H472.362V55.72H471.362ZM471.362 62V61H451.962V62V63H471.362V62ZM451.962 62H452.962V34H451.962H450.962V62H451.962ZM451.962 34V35H471.362V34V33H451.962V34Z" fill="black" mask="url(#path-3-inside-1_2_2109)"/>
</g>
</g>
<rect x="1" y="1" width="558" height="94" rx="15" stroke="white" stroke-width="2"/>
<defs>
<filter id="filter0_d_2_2109" x="41.4324" y="-10.88" width="475.93" height="123.28" filterUnits="userSpaceOnUse" color-interpolation-filters="sRGB">
<feFlood flood-opacity="0" result="BackgroundImageFix"/>
<feColorMatrix in="SourceAlpha" type="matrix" values="0 0 0 0 0 0 0 0 0 0 0 0 0 0 0 0 0 0 127 0" result="hardAlpha"/>
<feOffset dy="3"/>
<feGaussianBlur stdDeviation="23"/>
<feComposite in2="hardAlpha" operator="out"/>
<feColorMatrix type="matrix" values="0 0 0 0 1 0 0 0 0 1 0 0 0 0 1 0 0 0 0.35 0"/>
<feBlend mode="normal" in2="BackgroundImageFix" result="effect1_dropShadow_2_2109"/>
<feBlend mode="normal" in="SourceGraphic" in2="effect1_dropShadow_2_2109" result="shape"/>
</filter>
<linearGradient id="paint0_linear_2_2109" x1="0" y1="0" x2="537.255" y2="168.515" gradientUnits="userSpaceOnUse">
<stop stop-color="#8E8E8E"/>
<stop offset="0.221154" stop-color="white"/>
<stop offset="0.394231" stop-color="#BCBCBC"/>
<stop offset="0.706735" stop-color="white"/>
<stop offset="0.961538" stop-color="#878787"/>
</linearGradient>
<linearGradient id="paint1_linear_2_2109" x1="280" y1="20" x2="280" y2="76" gradientUnits="userSpaceOnUse">
<stop offset="0.144311"/>
<stop offset="0.703631" stop-color="#141414"/>
</linearGradient>
<clipPath id="clip0_2_2109">
<rect width="560" height="96" rx="16" fill="white"/>
</clipPath>
</defs>
</svg>
