<svg width="56" height="56" viewBox="0 0 56 56" fill="none" xmlns="http://www.w3.org/2000/svg">
<path d="M27.9998 53.0833C23.827 53.0911 19.7533 51.8127 16.3331 49.4223C15.9522 49.1569 15.6924 48.7509 15.6108 48.2939C15.5291 47.8368 15.6324 47.3661 15.8979 46.9852C16.1634 46.6043 16.5693 46.3444 17.0264 46.2628C17.4834 46.1812 17.9542 46.2845 18.3351 46.55C20.8718 48.3161 23.8438 49.3534 26.9284 49.5493C30.0131 49.7453 33.0925 49.0923 35.8322 47.6614C38.572 46.2305 40.8673 44.0764 42.469 41.4329C44.0707 38.7894 44.9175 35.7576 44.9175 32.6667C44.9175 29.5758 44.0707 26.544 42.469 23.9005C40.8673 21.257 38.572 19.1028 35.8322 17.6719C33.0925 16.241 30.0131 15.5881 26.9284 15.784C23.8438 15.98 20.8718 17.0173 18.3351 18.7833C18.1465 18.9148 17.9339 19.0078 17.7093 19.0571C17.4848 19.1064 17.2527 19.1109 17.0264 19.0705C16.8001 19.0301 16.5839 18.9455 16.3903 18.8216C16.1967 18.6976 16.0294 18.5368 15.8979 18.3482C15.7665 18.1596 15.6735 17.9469 15.6242 17.7224C15.5749 17.4978 15.5704 17.2658 15.6108 17.0395C15.6924 16.5824 15.9522 16.1765 16.3331 15.911C18.963 14.08 21.987 12.8937 25.1605 12.4483C28.3339 12.0028 31.5677 12.3105 34.6001 13.3467C37.6325 14.3828 40.3785 16.1182 42.6158 18.4124C44.8531 20.7067 46.5189 23.4954 47.4785 26.5529C48.4382 29.6104 48.6646 32.8508 48.1395 36.0121C47.6144 39.1733 46.3526 42.1666 44.456 44.7497C42.5595 47.3328 40.0816 49.4332 37.2227 50.8809C34.3638 52.3287 31.2043 53.0832 27.9998 53.0833Z" fill="black"/>
<path d="M16.3333 35.5833H7C6.53587 35.5833 6.09075 35.3989 5.76256 35.0707C5.43437 34.7426 5.25 34.2974 5.25 33.8333C5.25 33.3692 5.43437 32.9241 5.76256 32.5959C6.09075 32.2677 6.53587 32.0833 7 32.0833H16.3333C16.7975 32.0833 17.2426 32.2677 17.5708 32.5959C17.899 32.9241 18.0833 33.3692 18.0833 33.8333C18.0833 34.2974 17.899 34.7426 17.5708 35.0707C17.2426 35.3989 16.7975 35.5833 16.3333 35.5833Z" fill="black"/>
<path d="M17.9198 28.5833H4.6665C4.20238 28.5833 3.75726 28.3989 3.42907 28.0707C3.10088 27.7426 2.9165 27.2974 2.9165 26.8333C2.9165 26.3692 3.10088 25.9241 3.42907 25.5959C3.75726 25.2677 4.20238 25.0833 4.6665 25.0833H17.9198C18.384 25.0833 18.8291 25.2677 19.1573 25.5959C19.4855 25.9241 19.6698 26.3692 19.6698 26.8333C19.6698 27.2974 19.4855 27.7426 19.1573 28.0707C18.8291 28.3989 18.384 28.5833 17.9198 28.5833Z" fill="black"/>
<path d="M18.6665 42.5833H4.6665C4.20238 42.5833 3.75726 42.3989 3.42907 42.0708C3.10088 41.7426 2.9165 41.2974 2.9165 40.8333C2.9165 40.3692 3.10088 39.9241 3.42907 39.5959C3.75726 39.2677 4.20238 39.0833 4.6665 39.0833H18.6665C19.1306 39.0833 19.5758 39.2677 19.9039 39.5959C20.2321 39.9241 20.4165 40.3692 20.4165 40.8333C20.4165 41.2974 20.2321 41.7426 19.9039 42.0708C19.5758 42.3989 19.1306 42.5833 18.6665 42.5833Z" fill="black"/>
<path d="M50.4445 8.49565L42.5765 3.47198C41.6627 2.89125 40.5558 2.69654 39.4987 2.93054C38.4415 3.16455 37.5202 3.80817 36.9368 4.72032L35.6815 6.68732C35.1 7.60035 34.9047 8.7068 35.1383 9.76375C35.3719 10.8207 36.0154 11.7417 36.9275 12.3247L44.8002 17.346C45.7135 17.9248 46.8188 18.1187 47.8747 17.8853C48.9305 17.6518 49.851 17.01 50.4352 16.1L51.6905 14.133C52.2707 13.2196 52.4654 12.1135 52.2318 11.057C51.9983 10.0004 51.3556 9.0794 50.4445 8.49565Z" fill="black"/>
<path d="M39.2909 19.0447C38.9775 19.044 38.6701 18.9593 38.4006 18.7992C38.1312 18.6392 37.9097 18.4097 37.7593 18.1348C37.6089 17.8599 37.535 17.5497 37.5454 17.2365C37.5558 16.9233 37.6502 16.6186 37.8185 16.3543L40.3269 12.4203C40.4505 12.2265 40.6111 12.059 40.7995 11.9272C40.9879 11.7955 41.2004 11.7021 41.4249 11.6525C41.6493 11.6029 41.8814 11.598 42.1078 11.6381C42.3341 11.6781 42.5504 11.7624 42.7442 11.886C42.938 12.0096 43.1056 12.1702 43.2373 12.3586C43.3691 12.547 43.4624 12.7595 43.512 12.984C43.5616 13.2085 43.5666 13.4405 43.5265 13.6669C43.4864 13.8933 43.4022 14.1095 43.2785 14.3033L40.7679 18.235C40.6102 18.4838 40.392 18.6885 40.1337 18.8301C39.8754 18.9717 39.5854 19.0455 39.2909 19.0447Z" fill="black"/>
<path d="M28.0002 19.25C25.3466 19.25 22.7526 20.0369 20.5463 21.5111C18.3399 22.9853 16.6203 25.0807 15.6048 27.5323C14.5893 29.9839 14.3236 32.6815 14.8413 35.2841C15.359 37.8867 16.6368 40.2773 18.5132 42.1537C20.3895 44.03 22.7801 45.3078 25.3827 45.8255C27.9853 46.3432 30.6829 46.0775 33.1345 45.062C35.5861 44.0466 37.6815 42.3269 39.1557 40.1206C40.63 37.9142 41.4168 35.3202 41.4168 32.6667C41.4286 30.9015 41.0896 29.1515 40.4196 27.5184C39.7495 25.8853 38.7617 24.4016 37.5135 23.1534C36.2652 21.9052 34.7815 20.9174 33.1484 20.2473C31.5153 19.5772 29.7654 19.2382 28.0002 19.25ZM33.8148 29.9367L31.4325 32.004C31.4764 32.2222 31.499 32.4441 31.5002 32.6667C31.512 33.4238 31.2819 34.1649 30.8433 34.7822C30.4047 35.3994 29.7805 35.8606 29.0616 36.0984C28.3428 36.3363 27.5667 36.3385 26.8465 36.1046C26.1263 35.8708 25.4995 35.4132 25.0575 34.7984C24.6154 34.1836 24.3812 33.4438 24.3888 32.6866C24.3964 31.9294 24.6456 31.1944 25.0999 30.5887C25.5543 29.9829 26.1902 29.538 26.9149 29.3188C27.6397 29.0995 28.4156 29.1173 29.1295 29.3697L31.5188 27.293C31.8694 26.9885 32.3266 26.8358 32.7898 26.8684C33.2529 26.901 33.6842 27.1163 33.9887 27.4668C34.2931 27.8174 34.4459 28.2746 34.4133 28.7377C34.3807 29.2009 34.1654 29.6322 33.8148 29.9367Z" fill="black"/>
</svg>
