<svg width="765" height="64" viewBox="0 0 765 64" fill="none" xmlns="http://www.w3.org/2000/svg">
<g clip-path="url(#clip0_22_253)">
<rect x="0.5" width="764" height="64" rx="12" fill="url(#paint0_linear_22_253)"/>
<rect x="0.5" width="764" height="64" rx="12" fill="url(#paint1_linear_22_253)"/>
<g filter="url(#filter0_d_22_253)">
<mask id="path-3-inside-1_22_253" fill="white">
<path d="M40.9208 30.132L44.8468 22.8H49.0848L42.8188 33.46V41H39.0488V33.486L32.7828 22.8H37.0208L40.9208 30.132ZM48.7495 31.9C48.7495 29.118 49.7635 26.778 51.5055 25.088C53.2475 23.398 55.6395 22.436 58.3695 22.436C61.1515 22.436 63.4915 23.398 65.2595 25.088C67.0015 26.778 67.9895 29.118 67.9895 31.9C67.9895 34.63 67.0015 37.022 65.2855 38.764C63.5695 40.506 61.1775 41.494 58.3695 41.494C55.5615 41.494 53.1955 40.506 51.4535 38.764C49.7115 37.022 48.7495 34.63 48.7495 31.9ZM52.6755 31.9C52.6755 33.07 52.9095 34.084 53.4035 34.994C54.3655 36.788 56.1075 37.906 58.3695 37.906C59.4875 37.906 60.4755 37.646 61.3335 37.126C63.0235 36.086 64.0375 34.214 64.0375 31.9C64.0375 30.73 63.8035 29.716 63.3355 28.806C62.3995 27.012 60.6575 25.894 58.3695 25.894C57.2515 25.894 56.2635 26.154 55.4055 26.674C53.7155 27.714 52.6755 29.586 52.6755 31.9ZM70.7337 35.02V22.8H74.4517V34.786C74.4517 36.866 75.5437 38.244 77.7017 38.244C79.8597 38.244 80.9517 36.866 80.9517 34.786V22.8H84.6697V35.02C84.6697 39.206 81.7837 41.598 77.7017 41.598C73.6197 41.598 70.7337 39.206 70.7337 35.02ZM99.2443 31.9C99.2443 33.096 99.5303 34.136 100.076 35.02C101.168 36.814 103.014 37.802 105.094 37.802C105.952 37.802 106.732 37.698 107.408 37.464C108.76 37.022 109.852 36.216 110.658 35.306V39.492C109.176 40.662 107.59 41.364 104.912 41.364C102.13 41.364 99.7123 40.428 97.9703 38.738C96.2023 37.048 95.2143 34.708 95.2143 31.9C95.2143 29.092 96.2023 26.752 97.9703 25.062C99.7123 23.372 102.13 22.436 104.912 22.436C107.59 22.436 109.176 23.138 110.658 24.308V28.494C110.268 28.052 109.8 27.636 109.254 27.246C108.162 26.492 106.836 25.998 105.094 25.998C104.054 25.998 103.092 26.232 102.208 26.7C100.44 27.662 99.2443 29.482 99.2443 31.9ZM130.487 41H126.275L124.351 36.866H118.111L116.213 41H112.027L121.257 21.734L130.487 41ZM118.969 33.928H123.519L121.257 28.702L118.969 33.928ZM145.409 34.084V22.8H148.997V41.91L136.049 29.716V41H132.461V21.89L145.409 34.084ZM163.815 26.154H158.927V22.8H172.447V26.154H167.533V41H163.815V26.154ZM188.547 41H184.153L179.889 34.396H178.277V41H174.559V22.8H180.669C182.099 22.8 183.321 23.034 184.335 23.528C186.337 24.49 187.455 26.284 187.455 28.598C187.455 29.742 187.195 30.756 186.649 31.614C185.999 32.706 184.985 33.512 183.633 33.954L188.547 41ZM180.435 25.972H178.277V31.432H180.435C182.333 31.432 183.633 30.444 183.633 28.702C183.633 26.96 182.333 25.972 180.435 25.972ZM196.87 30.132L200.796 22.8H205.034L198.768 33.46V41H194.998V33.486L188.732 22.8H192.97L196.87 30.132ZM231.339 41H227.127L225.203 36.866H218.963L217.065 41H212.879L222.109 21.734L231.339 41ZM219.821 33.928H224.371L222.109 28.702L219.821 33.928ZM246.592 34.24H241.366V31.276H250.336C250.44 34.058 249.686 36.58 248.126 38.452C246.54 40.35 244.2 41.494 241.21 41.494C238.402 41.494 235.984 40.506 234.242 38.816C232.474 37.126 231.486 34.708 231.486 31.9C231.486 29.092 232.526 26.7 234.294 25.036C236.062 23.372 238.506 22.436 241.314 22.436C242.562 22.436 243.68 22.618 244.694 22.956C246.67 23.658 248.204 24.906 249.322 26.596L246.15 28.442C245.24 26.856 243.628 25.764 241.314 25.764C240.222 25.764 239.234 25.998 238.324 26.492C236.53 27.48 235.386 29.378 235.386 31.9C235.386 33.148 235.646 34.24 236.166 35.176C237.206 37.074 239.052 38.166 241.314 38.166C244.122 38.166 245.942 36.606 246.592 34.24ZM269.094 41H264.882L262.958 36.866H256.718L254.82 41H250.634L259.864 21.734L269.094 41ZM257.576 33.928H262.126L259.864 28.702L257.576 33.928ZM271.069 41V22.8H274.839V41H271.069ZM291.71 34.084V22.8H295.298V41.91L282.35 29.716V41H278.762V21.89L291.71 34.084ZM298.342 44.874L300.63 38.14L303.984 38.972L300.838 45.472L298.342 44.874ZM331.86 41H327.648L325.724 36.866H319.484L317.586 41H313.4L322.63 21.734L331.86 41ZM320.342 33.928H324.892L322.63 28.702L320.342 33.928ZM346.782 34.084V22.8H350.37V41.91L337.422 29.716V41H333.834V21.89L346.782 34.084ZM365.531 23.918C368.391 25.4 370.055 28.182 370.055 31.9C370.055 33.746 369.665 35.358 368.859 36.71C367.273 39.44 364.335 41 360.513 41H354.325V22.8H360.513C362.411 22.8 364.101 23.164 365.531 23.918ZM358.121 37.62H360.383C363.789 37.62 366.233 35.748 366.233 31.9C366.233 28.052 363.789 26.18 360.383 26.18H358.121V37.62ZM397.241 41H393.029L391.105 36.866H384.865L382.967 41H378.781L388.011 21.734L397.241 41ZM385.723 33.928H390.273L388.011 28.702L385.723 33.928ZM401.418 31.9C401.418 33.096 401.704 34.136 402.25 35.02C403.342 36.814 405.188 37.802 407.268 37.802C408.126 37.802 408.906 37.698 409.582 37.464C410.934 37.022 412.026 36.216 412.832 35.306V39.492C411.35 40.662 409.764 41.364 407.086 41.364C404.304 41.364 401.886 40.428 400.144 38.738C398.376 37.048 397.388 34.708 397.388 31.9C397.388 29.092 398.376 26.752 400.144 25.062C401.886 23.372 404.304 22.436 407.086 22.436C409.764 22.436 411.35 23.138 412.832 24.308V28.494C412.442 28.052 411.974 27.636 411.428 27.246C410.336 26.492 409.01 25.998 407.268 25.998C406.228 25.998 405.266 26.232 404.382 26.7C402.614 27.662 401.418 29.482 401.418 31.9ZM428.752 29.638V22.8H432.47V41H428.752V32.992H420.25V41H416.532V22.8H420.25V29.638H428.752ZM436.387 41V22.8H440.157V41H436.387ZM455.65 22.8V25.946H447.668V29.794H455.13V32.888H447.668V37.854H455.65V41H444.08V22.8H455.65ZM461.655 22.8L466.595 34.656L471.509 22.8H475.825L466.595 42.066L457.365 22.8H461.655ZM489.369 22.8V25.946H481.387V29.794H488.849V32.888H481.387V37.854H489.369V41H477.799V22.8H489.369ZM517.339 41H513.127L511.203 36.866H504.963L503.065 41H498.879L508.109 21.734L517.339 41ZM505.821 33.928H510.371L508.109 28.702L505.821 33.928ZM519.313 41V22.8H523.031V37.75H530.285V41H519.313ZM532.414 41V22.8H536.132V37.75H543.386V41H532.414ZM556.379 26.154H551.491V22.8H565.011V26.154H560.097V41H556.379V26.154ZM567.123 41V22.8H570.893V41H567.123ZM584.099 37.152L578.821 31.978V41H574.947V21.89L584.099 31.484L593.251 21.89V41H589.377V31.978L584.099 37.152ZM608.908 22.8V25.946H600.926V29.794H608.388V32.888H600.926V37.854H608.908V41H597.338V22.8H608.908ZM634.356 41H629.962L625.698 34.396H624.086V41H620.368V22.8H626.478C627.908 22.8 629.13 23.034 630.144 23.528C632.146 24.49 633.264 26.284 633.264 28.598C633.264 29.742 633.004 30.756 632.458 31.614C631.808 32.706 630.794 33.512 629.442 33.954L634.356 41ZM626.244 25.972H624.086V31.432H626.244C628.142 31.432 629.442 30.444 629.442 28.702C629.442 26.96 628.142 25.972 626.244 25.972ZM648.061 22.8V25.946H640.079V29.794H647.541V32.888H640.079V37.854H648.061V41H636.491V22.8H648.061ZM654.715 31.9C654.715 33.096 655.001 34.136 655.547 35.02C656.639 36.814 658.485 37.802 660.565 37.802C661.423 37.802 662.203 37.698 662.879 37.464C664.231 37.022 665.323 36.216 666.129 35.306V39.492C664.647 40.662 663.061 41.364 660.383 41.364C657.601 41.364 655.183 40.428 653.441 38.738C651.673 37.048 650.685 34.708 650.685 31.9C650.685 29.092 651.673 26.752 653.441 25.062C655.183 23.372 657.601 22.436 660.383 22.436C663.061 22.436 664.647 23.138 666.129 24.308V28.494C665.739 28.052 665.271 27.636 664.725 27.246C663.633 26.492 662.307 25.998 660.565 25.998C659.525 25.998 658.563 26.232 657.679 26.7C655.911 27.662 654.715 29.482 654.715 31.9ZM668.789 31.9C668.789 29.118 669.803 26.778 671.545 25.088C673.287 23.398 675.679 22.436 678.409 22.436C681.191 22.436 683.531 23.398 685.299 25.088C687.041 26.778 688.029 29.118 688.029 31.9C688.029 34.63 687.041 37.022 685.325 38.764C683.609 40.506 681.217 41.494 678.409 41.494C675.601 41.494 673.235 40.506 671.493 38.764C669.751 37.022 668.789 34.63 668.789 31.9ZM672.715 31.9C672.715 33.07 672.949 34.084 673.443 34.994C674.405 36.788 676.147 37.906 678.409 37.906C679.527 37.906 680.515 37.646 681.373 37.126C683.063 36.086 684.077 34.214 684.077 31.9C684.077 30.73 683.843 29.716 683.375 28.806C682.439 27.012 680.697 25.894 678.409 25.894C677.291 25.894 676.303 26.154 675.445 26.674C673.755 27.714 672.715 29.586 672.715 31.9ZM704.891 41H700.497L696.233 34.396H694.621V41H690.903V22.8H697.013C698.443 22.8 699.665 23.034 700.679 23.528C702.681 24.49 703.799 26.284 703.799 28.598C703.799 29.742 703.539 30.756 702.993 31.614C702.343 32.706 701.329 33.512 699.977 33.954L704.891 41ZM696.779 25.972H694.621V31.432H696.779C698.677 31.432 699.977 30.444 699.977 28.702C699.977 26.96 698.677 25.972 696.779 25.972ZM718.232 23.918C721.092 25.4 722.756 28.182 722.756 31.9C722.756 33.746 722.366 35.358 721.56 36.71C719.974 39.44 717.036 41 713.214 41H707.026V22.8H713.214C715.112 22.8 716.802 23.164 718.232 23.918ZM710.822 37.62H713.084C716.49 37.62 718.934 35.748 718.934 31.9C718.934 28.052 716.49 26.18 713.084 26.18H710.822V37.62ZM726.625 35.254L725.871 22.8H730.031L729.277 35.254H726.625ZM725.819 39.57C725.819 38.426 726.729 37.594 727.951 37.594C729.199 37.594 730.083 38.426 730.083 39.57C730.083 40.714 729.199 41.546 727.951 41.546C726.729 41.546 725.819 40.714 725.819 39.57Z"/>
</mask>
<path d="M40.9208 30.132L44.8468 22.8H49.0848L42.8188 33.46V41H39.0488V33.486L32.7828 22.8H37.0208L40.9208 30.132ZM48.7495 31.9C48.7495 29.118 49.7635 26.778 51.5055 25.088C53.2475 23.398 55.6395 22.436 58.3695 22.436C61.1515 22.436 63.4915 23.398 65.2595 25.088C67.0015 26.778 67.9895 29.118 67.9895 31.9C67.9895 34.63 67.0015 37.022 65.2855 38.764C63.5695 40.506 61.1775 41.494 58.3695 41.494C55.5615 41.494 53.1955 40.506 51.4535 38.764C49.7115 37.022 48.7495 34.63 48.7495 31.9ZM52.6755 31.9C52.6755 33.07 52.9095 34.084 53.4035 34.994C54.3655 36.788 56.1075 37.906 58.3695 37.906C59.4875 37.906 60.4755 37.646 61.3335 37.126C63.0235 36.086 64.0375 34.214 64.0375 31.9C64.0375 30.73 63.8035 29.716 63.3355 28.806C62.3995 27.012 60.6575 25.894 58.3695 25.894C57.2515 25.894 56.2635 26.154 55.4055 26.674C53.7155 27.714 52.6755 29.586 52.6755 31.9ZM70.7337 35.02V22.8H74.4517V34.786C74.4517 36.866 75.5437 38.244 77.7017 38.244C79.8597 38.244 80.9517 36.866 80.9517 34.786V22.8H84.6697V35.02C84.6697 39.206 81.7837 41.598 77.7017 41.598C73.6197 41.598 70.7337 39.206 70.7337 35.02ZM99.2443 31.9C99.2443 33.096 99.5303 34.136 100.076 35.02C101.168 36.814 103.014 37.802 105.094 37.802C105.952 37.802 106.732 37.698 107.408 37.464C108.76 37.022 109.852 36.216 110.658 35.306V39.492C109.176 40.662 107.59 41.364 104.912 41.364C102.13 41.364 99.7123 40.428 97.9703 38.738C96.2023 37.048 95.2143 34.708 95.2143 31.9C95.2143 29.092 96.2023 26.752 97.9703 25.062C99.7123 23.372 102.13 22.436 104.912 22.436C107.59 22.436 109.176 23.138 110.658 24.308V28.494C110.268 28.052 109.8 27.636 109.254 27.246C108.162 26.492 106.836 25.998 105.094 25.998C104.054 25.998 103.092 26.232 102.208 26.7C100.44 27.662 99.2443 29.482 99.2443 31.9ZM130.487 41H126.275L124.351 36.866H118.111L116.213 41H112.027L121.257 21.734L130.487 41ZM118.969 33.928H123.519L121.257 28.702L118.969 33.928ZM145.409 34.084V22.8H148.997V41.91L136.049 29.716V41H132.461V21.89L145.409 34.084ZM163.815 26.154H158.927V22.8H172.447V26.154H167.533V41H163.815V26.154ZM188.547 41H184.153L179.889 34.396H178.277V41H174.559V22.8H180.669C182.099 22.8 183.321 23.034 184.335 23.528C186.337 24.49 187.455 26.284 187.455 28.598C187.455 29.742 187.195 30.756 186.649 31.614C185.999 32.706 184.985 33.512 183.633 33.954L188.547 41ZM180.435 25.972H178.277V31.432H180.435C182.333 31.432 183.633 30.444 183.633 28.702C183.633 26.96 182.333 25.972 180.435 25.972ZM196.87 30.132L200.796 22.8H205.034L198.768 33.46V41H194.998V33.486L188.732 22.8H192.97L196.87 30.132ZM231.339 41H227.127L225.203 36.866H218.963L217.065 41H212.879L222.109 21.734L231.339 41ZM219.821 33.928H224.371L222.109 28.702L219.821 33.928ZM246.592 34.24H241.366V31.276H250.336C250.44 34.058 249.686 36.58 248.126 38.452C246.54 40.35 244.2 41.494 241.21 41.494C238.402 41.494 235.984 40.506 234.242 38.816C232.474 37.126 231.486 34.708 231.486 31.9C231.486 29.092 232.526 26.7 234.294 25.036C236.062 23.372 238.506 22.436 241.314 22.436C242.562 22.436 243.68 22.618 244.694 22.956C246.67 23.658 248.204 24.906 249.322 26.596L246.15 28.442C245.24 26.856 243.628 25.764 241.314 25.764C240.222 25.764 239.234 25.998 238.324 26.492C236.53 27.48 235.386 29.378 235.386 31.9C235.386 33.148 235.646 34.24 236.166 35.176C237.206 37.074 239.052 38.166 241.314 38.166C244.122 38.166 245.942 36.606 246.592 34.24ZM269.094 41H264.882L262.958 36.866H256.718L254.82 41H250.634L259.864 21.734L269.094 41ZM257.576 33.928H262.126L259.864 28.702L257.576 33.928ZM271.069 41V22.8H274.839V41H271.069ZM291.71 34.084V22.8H295.298V41.91L282.35 29.716V41H278.762V21.89L291.71 34.084ZM298.342 44.874L300.63 38.14L303.984 38.972L300.838 45.472L298.342 44.874ZM331.86 41H327.648L325.724 36.866H319.484L317.586 41H313.4L322.63 21.734L331.86 41ZM320.342 33.928H324.892L322.63 28.702L320.342 33.928ZM346.782 34.084V22.8H350.37V41.91L337.422 29.716V41H333.834V21.89L346.782 34.084ZM365.531 23.918C368.391 25.4 370.055 28.182 370.055 31.9C370.055 33.746 369.665 35.358 368.859 36.71C367.273 39.44 364.335 41 360.513 41H354.325V22.8H360.513C362.411 22.8 364.101 23.164 365.531 23.918ZM358.121 37.62H360.383C363.789 37.62 366.233 35.748 366.233 31.9C366.233 28.052 363.789 26.18 360.383 26.18H358.121V37.62ZM397.241 41H393.029L391.105 36.866H384.865L382.967 41H378.781L388.011 21.734L397.241 41ZM385.723 33.928H390.273L388.011 28.702L385.723 33.928ZM401.418 31.9C401.418 33.096 401.704 34.136 402.25 35.02C403.342 36.814 405.188 37.802 407.268 37.802C408.126 37.802 408.906 37.698 409.582 37.464C410.934 37.022 412.026 36.216 412.832 35.306V39.492C411.35 40.662 409.764 41.364 407.086 41.364C404.304 41.364 401.886 40.428 400.144 38.738C398.376 37.048 397.388 34.708 397.388 31.9C397.388 29.092 398.376 26.752 400.144 25.062C401.886 23.372 404.304 22.436 407.086 22.436C409.764 22.436 411.35 23.138 412.832 24.308V28.494C412.442 28.052 411.974 27.636 411.428 27.246C410.336 26.492 409.01 25.998 407.268 25.998C406.228 25.998 405.266 26.232 404.382 26.7C402.614 27.662 401.418 29.482 401.418 31.9ZM428.752 29.638V22.8H432.47V41H428.752V32.992H420.25V41H416.532V22.8H420.25V29.638H428.752ZM436.387 41V22.8H440.157V41H436.387ZM455.65 22.8V25.946H447.668V29.794H455.13V32.888H447.668V37.854H455.65V41H444.08V22.8H455.65ZM461.655 22.8L466.595 34.656L471.509 22.8H475.825L466.595 42.066L457.365 22.8H461.655ZM489.369 22.8V25.946H481.387V29.794H488.849V32.888H481.387V37.854H489.369V41H477.799V22.8H489.369ZM517.339 41H513.127L511.203 36.866H504.963L503.065 41H498.879L508.109 21.734L517.339 41ZM505.821 33.928H510.371L508.109 28.702L505.821 33.928ZM519.313 41V22.8H523.031V37.75H530.285V41H519.313ZM532.414 41V22.8H536.132V37.75H543.386V41H532.414ZM556.379 26.154H551.491V22.8H565.011V26.154H560.097V41H556.379V26.154ZM567.123 41V22.8H570.893V41H567.123ZM584.099 37.152L578.821 31.978V41H574.947V21.89L584.099 31.484L593.251 21.89V41H589.377V31.978L584.099 37.152ZM608.908 22.8V25.946H600.926V29.794H608.388V32.888H600.926V37.854H608.908V41H597.338V22.8H608.908ZM634.356 41H629.962L625.698 34.396H624.086V41H620.368V22.8H626.478C627.908 22.8 629.13 23.034 630.144 23.528C632.146 24.49 633.264 26.284 633.264 28.598C633.264 29.742 633.004 30.756 632.458 31.614C631.808 32.706 630.794 33.512 629.442 33.954L634.356 41ZM626.244 25.972H624.086V31.432H626.244C628.142 31.432 629.442 30.444 629.442 28.702C629.442 26.96 628.142 25.972 626.244 25.972ZM648.061 22.8V25.946H640.079V29.794H647.541V32.888H640.079V37.854H648.061V41H636.491V22.8H648.061ZM654.715 31.9C654.715 33.096 655.001 34.136 655.547 35.02C656.639 36.814 658.485 37.802 660.565 37.802C661.423 37.802 662.203 37.698 662.879 37.464C664.231 37.022 665.323 36.216 666.129 35.306V39.492C664.647 40.662 663.061 41.364 660.383 41.364C657.601 41.364 655.183 40.428 653.441 38.738C651.673 37.048 650.685 34.708 650.685 31.9C650.685 29.092 651.673 26.752 653.441 25.062C655.183 23.372 657.601 22.436 660.383 22.436C663.061 22.436 664.647 23.138 666.129 24.308V28.494C665.739 28.052 665.271 27.636 664.725 27.246C663.633 26.492 662.307 25.998 660.565 25.998C659.525 25.998 658.563 26.232 657.679 26.7C655.911 27.662 654.715 29.482 654.715 31.9ZM668.789 31.9C668.789 29.118 669.803 26.778 671.545 25.088C673.287 23.398 675.679 22.436 678.409 22.436C681.191 22.436 683.531 23.398 685.299 25.088C687.041 26.778 688.029 29.118 688.029 31.9C688.029 34.63 687.041 37.022 685.325 38.764C683.609 40.506 681.217 41.494 678.409 41.494C675.601 41.494 673.235 40.506 671.493 38.764C669.751 37.022 668.789 34.63 668.789 31.9ZM672.715 31.9C672.715 33.07 672.949 34.084 673.443 34.994C674.405 36.788 676.147 37.906 678.409 37.906C679.527 37.906 680.515 37.646 681.373 37.126C683.063 36.086 684.077 34.214 684.077 31.9C684.077 30.73 683.843 29.716 683.375 28.806C682.439 27.012 680.697 25.894 678.409 25.894C677.291 25.894 676.303 26.154 675.445 26.674C673.755 27.714 672.715 29.586 672.715 31.9ZM704.891 41H700.497L696.233 34.396H694.621V41H690.903V22.8H697.013C698.443 22.8 699.665 23.034 700.679 23.528C702.681 24.49 703.799 26.284 703.799 28.598C703.799 29.742 703.539 30.756 702.993 31.614C702.343 32.706 701.329 33.512 699.977 33.954L704.891 41ZM696.779 25.972H694.621V31.432H696.779C698.677 31.432 699.977 30.444 699.977 28.702C699.977 26.96 698.677 25.972 696.779 25.972ZM718.232 23.918C721.092 25.4 722.756 28.182 722.756 31.9C722.756 33.746 722.366 35.358 721.56 36.71C719.974 39.44 717.036 41 713.214 41H707.026V22.8H713.214C715.112 22.8 716.802 23.164 718.232 23.918ZM710.822 37.62H713.084C716.49 37.62 718.934 35.748 718.934 31.9C718.934 28.052 716.49 26.18 713.084 26.18H710.822V37.62ZM726.625 35.254L725.871 22.8H730.031L729.277 35.254H726.625ZM725.819 39.57C725.819 38.426 726.729 37.594 727.951 37.594C729.199 37.594 730.083 38.426 730.083 39.57C730.083 40.714 729.199 41.546 727.951 41.546C726.729 41.546 725.819 40.714 725.819 39.57Z" fill="url(#paint2_linear_22_253)"/>
<path d="M40.9208 30.132L44.8468 22.8H49.0848L42.8188 33.46V41H39.0488V33.486L32.7828 22.8H37.0208L40.9208 30.132ZM48.7495 31.9C48.7495 29.118 49.7635 26.778 51.5055 25.088C53.2475 23.398 55.6395 22.436 58.3695 22.436C61.1515 22.436 63.4915 23.398 65.2595 25.088C67.0015 26.778 67.9895 29.118 67.9895 31.9C67.9895 34.63 67.0015 37.022 65.2855 38.764C63.5695 40.506 61.1775 41.494 58.3695 41.494C55.5615 41.494 53.1955 40.506 51.4535 38.764C49.7115 37.022 48.7495 34.63 48.7495 31.9ZM52.6755 31.9C52.6755 33.07 52.9095 34.084 53.4035 34.994C54.3655 36.788 56.1075 37.906 58.3695 37.906C59.4875 37.906 60.4755 37.646 61.3335 37.126C63.0235 36.086 64.0375 34.214 64.0375 31.9C64.0375 30.73 63.8035 29.716 63.3355 28.806C62.3995 27.012 60.6575 25.894 58.3695 25.894C57.2515 25.894 56.2635 26.154 55.4055 26.674C53.7155 27.714 52.6755 29.586 52.6755 31.9ZM70.7337 35.02V22.8H74.4517V34.786C74.4517 36.866 75.5437 38.244 77.7017 38.244C79.8597 38.244 80.9517 36.866 80.9517 34.786V22.8H84.6697V35.02C84.6697 39.206 81.7837 41.598 77.7017 41.598C73.6197 41.598 70.7337 39.206 70.7337 35.02ZM99.2443 31.9C99.2443 33.096 99.5303 34.136 100.076 35.02C101.168 36.814 103.014 37.802 105.094 37.802C105.952 37.802 106.732 37.698 107.408 37.464C108.76 37.022 109.852 36.216 110.658 35.306V39.492C109.176 40.662 107.59 41.364 104.912 41.364C102.13 41.364 99.7123 40.428 97.9703 38.738C96.2023 37.048 95.2143 34.708 95.2143 31.9C95.2143 29.092 96.2023 26.752 97.9703 25.062C99.7123 23.372 102.13 22.436 104.912 22.436C107.59 22.436 109.176 23.138 110.658 24.308V28.494C110.268 28.052 109.8 27.636 109.254 27.246C108.162 26.492 106.836 25.998 105.094 25.998C104.054 25.998 103.092 26.232 102.208 26.7C100.44 27.662 99.2443 29.482 99.2443 31.9ZM130.487 41H126.275L124.351 36.866H118.111L116.213 41H112.027L121.257 21.734L130.487 41ZM118.969 33.928H123.519L121.257 28.702L118.969 33.928ZM145.409 34.084V22.8H148.997V41.91L136.049 29.716V41H132.461V21.89L145.409 34.084ZM163.815 26.154H158.927V22.8H172.447V26.154H167.533V41H163.815V26.154ZM188.547 41H184.153L179.889 34.396H178.277V41H174.559V22.8H180.669C182.099 22.8 183.321 23.034 184.335 23.528C186.337 24.49 187.455 26.284 187.455 28.598C187.455 29.742 187.195 30.756 186.649 31.614C185.999 32.706 184.985 33.512 183.633 33.954L188.547 41ZM180.435 25.972H178.277V31.432H180.435C182.333 31.432 183.633 30.444 183.633 28.702C183.633 26.96 182.333 25.972 180.435 25.972ZM196.87 30.132L200.796 22.8H205.034L198.768 33.46V41H194.998V33.486L188.732 22.8H192.97L196.87 30.132ZM231.339 41H227.127L225.203 36.866H218.963L217.065 41H212.879L222.109 21.734L231.339 41ZM219.821 33.928H224.371L222.109 28.702L219.821 33.928ZM246.592 34.24H241.366V31.276H250.336C250.44 34.058 249.686 36.58 248.126 38.452C246.54 40.35 244.2 41.494 241.21 41.494C238.402 41.494 235.984 40.506 234.242 38.816C232.474 37.126 231.486 34.708 231.486 31.9C231.486 29.092 232.526 26.7 234.294 25.036C236.062 23.372 238.506 22.436 241.314 22.436C242.562 22.436 243.68 22.618 244.694 22.956C246.67 23.658 248.204 24.906 249.322 26.596L246.15 28.442C245.24 26.856 243.628 25.764 241.314 25.764C240.222 25.764 239.234 25.998 238.324 26.492C236.53 27.48 235.386 29.378 235.386 31.9C235.386 33.148 235.646 34.24 236.166 35.176C237.206 37.074 239.052 38.166 241.314 38.166C244.122 38.166 245.942 36.606 246.592 34.24ZM269.094 41H264.882L262.958 36.866H256.718L254.82 41H250.634L259.864 21.734L269.094 41ZM257.576 33.928H262.126L259.864 28.702L257.576 33.928ZM271.069 41V22.8H274.839V41H271.069ZM291.71 34.084V22.8H295.298V41.91L282.35 29.716V41H278.762V21.89L291.71 34.084ZM298.342 44.874L300.63 38.14L303.984 38.972L300.838 45.472L298.342 44.874ZM331.86 41H327.648L325.724 36.866H319.484L317.586 41H313.4L322.63 21.734L331.86 41ZM320.342 33.928H324.892L322.63 28.702L320.342 33.928ZM346.782 34.084V22.8H350.37V41.91L337.422 29.716V41H333.834V21.89L346.782 34.084ZM365.531 23.918C368.391 25.4 370.055 28.182 370.055 31.9C370.055 33.746 369.665 35.358 368.859 36.71C367.273 39.44 364.335 41 360.513 41H354.325V22.8H360.513C362.411 22.8 364.101 23.164 365.531 23.918ZM358.121 37.62H360.383C363.789 37.62 366.233 35.748 366.233 31.9C366.233 28.052 363.789 26.18 360.383 26.18H358.121V37.62ZM397.241 41H393.029L391.105 36.866H384.865L382.967 41H378.781L388.011 21.734L397.241 41ZM385.723 33.928H390.273L388.011 28.702L385.723 33.928ZM401.418 31.9C401.418 33.096 401.704 34.136 402.25 35.02C403.342 36.814 405.188 37.802 407.268 37.802C408.126 37.802 408.906 37.698 409.582 37.464C410.934 37.022 412.026 36.216 412.832 35.306V39.492C411.35 40.662 409.764 41.364 407.086 41.364C404.304 41.364 401.886 40.428 400.144 38.738C398.376 37.048 397.388 34.708 397.388 31.9C397.388 29.092 398.376 26.752 400.144 25.062C401.886 23.372 404.304 22.436 407.086 22.436C409.764 22.436 411.35 23.138 412.832 24.308V28.494C412.442 28.052 411.974 27.636 411.428 27.246C410.336 26.492 409.01 25.998 407.268 25.998C406.228 25.998 405.266 26.232 404.382 26.7C402.614 27.662 401.418 29.482 401.418 31.9ZM428.752 29.638V22.8H432.47V41H428.752V32.992H420.25V41H416.532V22.8H420.25V29.638H428.752ZM436.387 41V22.8H440.157V41H436.387ZM455.65 22.8V25.946H447.668V29.794H455.13V32.888H447.668V37.854H455.65V41H444.08V22.8H455.65ZM461.655 22.8L466.595 34.656L471.509 22.8H475.825L466.595 42.066L457.365 22.8H461.655ZM489.369 22.8V25.946H481.387V29.794H488.849V32.888H481.387V37.854H489.369V41H477.799V22.8H489.369ZM517.339 41H513.127L511.203 36.866H504.963L503.065 41H498.879L508.109 21.734L517.339 41ZM505.821 33.928H510.371L508.109 28.702L505.821 33.928ZM519.313 41V22.8H523.031V37.75H530.285V41H519.313ZM532.414 41V22.8H536.132V37.75H543.386V41H532.414ZM556.379 26.154H551.491V22.8H565.011V26.154H560.097V41H556.379V26.154ZM567.123 41V22.8H570.893V41H567.123ZM584.099 37.152L578.821 31.978V41H574.947V21.89L584.099 31.484L593.251 21.89V41H589.377V31.978L584.099 37.152ZM608.908 22.8V25.946H600.926V29.794H608.388V32.888H600.926V37.854H608.908V41H597.338V22.8H608.908ZM634.356 41H629.962L625.698 34.396H624.086V41H620.368V22.8H626.478C627.908 22.8 629.13 23.034 630.144 23.528C632.146 24.49 633.264 26.284 633.264 28.598C633.264 29.742 633.004 30.756 632.458 31.614C631.808 32.706 630.794 33.512 629.442 33.954L634.356 41ZM626.244 25.972H624.086V31.432H626.244C628.142 31.432 629.442 30.444 629.442 28.702C629.442 26.96 628.142 25.972 626.244 25.972ZM648.061 22.8V25.946H640.079V29.794H647.541V32.888H640.079V37.854H648.061V41H636.491V22.8H648.061ZM654.715 31.9C654.715 33.096 655.001 34.136 655.547 35.02C656.639 36.814 658.485 37.802 660.565 37.802C661.423 37.802 662.203 37.698 662.879 37.464C664.231 37.022 665.323 36.216 666.129 35.306V39.492C664.647 40.662 663.061 41.364 660.383 41.364C657.601 41.364 655.183 40.428 653.441 38.738C651.673 37.048 650.685 34.708 650.685 31.9C650.685 29.092 651.673 26.752 653.441 25.062C655.183 23.372 657.601 22.436 660.383 22.436C663.061 22.436 664.647 23.138 666.129 24.308V28.494C665.739 28.052 665.271 27.636 664.725 27.246C663.633 26.492 662.307 25.998 660.565 25.998C659.525 25.998 658.563 26.232 657.679 26.7C655.911 27.662 654.715 29.482 654.715 31.9ZM668.789 31.9C668.789 29.118 669.803 26.778 671.545 25.088C673.287 23.398 675.679 22.436 678.409 22.436C681.191 22.436 683.531 23.398 685.299 25.088C687.041 26.778 688.029 29.118 688.029 31.9C688.029 34.63 687.041 37.022 685.325 38.764C683.609 40.506 681.217 41.494 678.409 41.494C675.601 41.494 673.235 40.506 671.493 38.764C669.751 37.022 668.789 34.63 668.789 31.9ZM672.715 31.9C672.715 33.07 672.949 34.084 673.443 34.994C674.405 36.788 676.147 37.906 678.409 37.906C679.527 37.906 680.515 37.646 681.373 37.126C683.063 36.086 684.077 34.214 684.077 31.9C684.077 30.73 683.843 29.716 683.375 28.806C682.439 27.012 680.697 25.894 678.409 25.894C677.291 25.894 676.303 26.154 675.445 26.674C673.755 27.714 672.715 29.586 672.715 31.9ZM704.891 41H700.497L696.233 34.396H694.621V41H690.903V22.8H697.013C698.443 22.8 699.665 23.034 700.679 23.528C702.681 24.49 703.799 26.284 703.799 28.598C703.799 29.742 703.539 30.756 702.993 31.614C702.343 32.706 701.329 33.512 699.977 33.954L704.891 41ZM696.779 25.972H694.621V31.432H696.779C698.677 31.432 699.977 30.444 699.977 28.702C699.977 26.96 698.677 25.972 696.779 25.972ZM718.232 23.918C721.092 25.4 722.756 28.182 722.756 31.9C722.756 33.746 722.366 35.358 721.56 36.71C719.974 39.44 717.036 41 713.214 41H707.026V22.8H713.214C715.112 22.8 716.802 23.164 718.232 23.918ZM710.822 37.62H713.084C716.49 37.62 718.934 35.748 718.934 31.9C718.934 28.052 716.49 26.18 713.084 26.18H710.822V37.62ZM726.625 35.254L725.871 22.8H730.031L729.277 35.254H726.625ZM725.819 39.57C725.819 38.426 726.729 37.594 727.951 37.594C729.199 37.594 730.083 38.426 730.083 39.57C730.083 40.714 729.199 41.546 727.951 41.546C726.729 41.546 725.819 40.714 725.819 39.57Z" fill="url(#paint3_linear_22_253)"/>
<path d="M40.9208 30.132L40.038 30.6016L40.9179 32.2559L41.8024 30.604L40.9208 30.132ZM44.8468 22.8V21.8H44.248L43.9653 22.328L44.8468 22.8ZM49.0848 22.8L49.9469 23.3067L50.8326 21.8H49.0848V22.8ZM42.8188 33.46L41.9567 32.9533L41.8188 33.1879V33.46H42.8188ZM42.8188 41V42H43.8188V41H42.8188ZM39.0488 41H38.0488V42H39.0488V41ZM39.0488 33.486H40.0488V33.2144L39.9115 32.9802L39.0488 33.486ZM32.7828 22.8V21.8H31.0372L31.9202 23.3058L32.7828 22.8ZM37.0208 22.8L37.9037 22.3304L37.6216 21.8H37.0208V22.8ZM40.9208 30.132L41.8024 30.604L45.7284 23.272L44.8468 22.8L43.9653 22.328L40.0393 29.66L40.9208 30.132ZM44.8468 22.8V23.8H49.0848V22.8V21.8H44.8468V22.8ZM49.0848 22.8L48.2227 22.2933L41.9567 32.9533L42.8188 33.46L43.6809 33.9667L49.9469 23.3067L49.0848 22.8ZM42.8188 33.46H41.8188V41H42.8188H43.8188V33.46H42.8188ZM42.8188 41V40H39.0488V41V42H42.8188V41ZM39.0488 41H40.0488V33.486H39.0488H38.0488V41H39.0488ZM39.0488 33.486L39.9115 32.9802L33.6455 22.2942L32.7828 22.8L31.9202 23.3058L38.1862 33.9918L39.0488 33.486ZM32.7828 22.8V23.8H37.0208V22.8V21.8H32.7828V22.8ZM37.0208 22.8L36.138 23.2696L40.038 30.6016L40.9208 30.132L41.8037 29.6624L37.9037 22.3304L37.0208 22.8ZM65.2595 25.088L65.9558 24.3702L65.9505 24.3651L65.2595 25.088ZM65.2855 38.764L65.9979 39.4658H65.9979L65.2855 38.764ZM51.4535 38.764L50.7464 39.4711L51.4535 38.764ZM53.4035 34.994L54.2848 34.5214L54.2823 34.5169L53.4035 34.994ZM61.3335 37.126L61.8518 37.9812L61.8576 37.9777L61.3335 37.126ZM63.3355 28.806L64.2248 28.3486L64.2221 28.3434L63.3355 28.806ZM55.4055 26.674L54.8872 25.8188L54.8814 25.8223L55.4055 26.674ZM48.7495 31.9H49.7495C49.7495 29.3745 50.6637 27.2979 52.2018 25.8057L51.5055 25.088L50.8092 24.3703C48.8633 26.2581 47.7495 28.8615 47.7495 31.9H48.7495ZM51.5055 25.088L52.2018 25.8057C53.7441 24.3095 55.8806 23.436 58.3695 23.436V22.436V21.436C55.3983 21.436 52.7508 22.4865 50.8092 24.3703L51.5055 25.088ZM58.3695 22.436V23.436C60.906 23.436 62.995 24.3068 64.5685 25.8109L65.2595 25.088L65.9505 24.3651C63.9879 22.4892 61.397 21.436 58.3695 21.436V22.436ZM65.2595 25.088L64.5632 25.8057C66.0963 27.2931 66.9895 29.3673 66.9895 31.9H67.9895H68.9895C68.9895 28.8687 67.9066 26.2629 65.9558 24.3703L65.2595 25.088ZM67.9895 31.9H66.9895C66.9895 34.3811 66.0954 36.5169 64.5731 38.0622L65.2855 38.764L65.9979 39.4658C67.9076 37.5271 68.9895 34.8789 68.9895 31.9H67.9895ZM65.2855 38.764L64.5731 38.0622C63.0614 39.5968 60.9339 40.494 58.3695 40.494V41.494V42.494C61.4211 42.494 64.0776 41.4152 65.9979 39.4658L65.2855 38.764ZM58.3695 41.494V40.494C55.8096 40.494 53.7033 39.5996 52.1606 38.0569L51.4535 38.764L50.7464 39.4711C52.6877 41.4124 55.3134 42.494 58.3695 42.494V41.494ZM51.4535 38.764L52.1606 38.0569C50.6217 36.518 49.7495 34.3877 49.7495 31.9H48.7495H47.7495C47.7495 34.8723 48.8012 37.526 50.7464 39.4711L51.4535 38.764ZM52.6755 31.9H51.6755C51.6755 33.2101 51.9393 34.3929 52.5246 35.4711L53.4035 34.994L54.2823 34.5169C53.8796 33.7751 53.6755 32.9299 53.6755 31.9H52.6755ZM53.4035 34.994L52.5222 35.4666C53.6571 37.583 55.7363 38.906 58.3695 38.906V37.906V36.906C56.4786 36.906 55.0739 35.993 54.2848 34.5214L53.4035 34.994ZM58.3695 37.906V38.906C59.6488 38.906 60.8201 38.6065 61.8518 37.9812L61.3335 37.126L60.8152 36.2708C60.1309 36.6855 59.3262 36.906 58.3695 36.906V37.906ZM61.3335 37.126L61.8576 37.9777C63.8777 36.7345 65.0375 34.5189 65.0375 31.9H64.0375H63.0375C63.0375 33.9091 62.1693 35.4375 60.8094 36.2743L61.3335 37.126ZM64.0375 31.9H65.0375C65.0375 30.5899 64.7737 29.4161 64.2248 28.3487L63.3355 28.806L62.4462 29.2633C62.8332 30.0159 63.0375 30.8701 63.0375 31.9H64.0375ZM63.3355 28.806L64.2221 28.3434C63.1109 26.2137 61.0238 24.894 58.3695 24.894V25.894V26.894C60.2911 26.894 61.6881 27.8103 62.4489 29.2686L63.3355 28.806ZM58.3695 25.894V24.894C57.0902 24.894 55.9189 25.1935 54.8872 25.8188L55.4055 26.674L55.9238 27.5292C56.6081 27.1145 57.4127 26.894 58.3695 26.894V25.894ZM55.4055 26.674L54.8814 25.8223C52.8684 27.0611 51.6755 29.2719 51.6755 31.9H52.6755H53.6755C53.6755 29.9001 54.5625 28.3669 55.9296 27.5257L55.4055 26.674ZM70.7337 22.8V21.8H69.7337V22.8H70.7337ZM74.4517 22.8H75.4517V21.8H74.4517V22.8ZM80.9517 22.8V21.8H79.9517V22.8H80.9517ZM84.6697 22.8H85.6697V21.8H84.6697V22.8ZM70.7337 35.02H71.7337V22.8H70.7337H69.7337V35.02H70.7337ZM70.7337 22.8V23.8H74.4517V22.8V21.8H70.7337V22.8ZM74.4517 22.8H73.4517V34.786H74.4517H75.4517V22.8H74.4517ZM74.4517 34.786H73.4517C73.4517 35.9907 73.7683 37.1221 74.5234 37.9631C75.2934 38.8208 76.4005 39.244 77.7017 39.244V38.244V37.244C76.8449 37.244 76.327 36.9782 76.0115 36.6269C75.6811 36.2589 75.4517 35.6613 75.4517 34.786H74.4517ZM77.7017 38.244V39.244C79.0029 39.244 80.11 38.8208 80.88 37.9631C81.6351 37.1221 81.9517 35.9907 81.9517 34.786H80.9517H79.9517C79.9517 35.6613 79.7223 36.2589 79.3919 36.6269C79.0764 36.9782 78.5585 37.244 77.7017 37.244V38.244ZM80.9517 34.786H81.9517V22.8H80.9517H79.9517V34.786H80.9517ZM80.9517 22.8V23.8H84.6697V22.8V21.8H80.9517V22.8ZM84.6697 22.8H83.6697V35.02H84.6697H85.6697V22.8H84.6697ZM84.6697 35.02H83.6697C83.6697 36.8704 83.0397 38.2322 82.0433 39.1393C81.0347 40.0574 79.552 40.598 77.7017 40.598V41.598V42.598C79.9334 42.598 81.9347 41.9426 83.3896 40.6182C84.8567 39.2828 85.6697 37.3556 85.6697 35.02H84.6697ZM77.7017 41.598V40.598C75.8514 40.598 74.3687 40.0574 73.3601 39.1393C72.3637 38.2322 71.7337 36.8704 71.7337 35.02H70.7337H69.7337C69.7337 37.3556 70.5467 39.2828 72.0138 40.6182C73.4687 41.9426 75.47 42.598 77.7017 42.598V41.598ZM100.076 35.02L100.931 34.5L100.927 34.4945L100.076 35.02ZM107.408 37.464L107.098 36.5135L107.089 36.5162L107.081 36.519L107.408 37.464ZM110.658 35.306H111.658V32.6688L109.91 34.643L110.658 35.306ZM110.658 39.492L111.278 40.2769L111.658 39.9766V39.492H110.658ZM97.9703 38.738L98.6666 38.0202L98.6613 38.0151L97.9703 38.738ZM97.9703 25.062L98.6613 25.7849L98.6666 25.7797L97.9703 25.062ZM110.658 24.308H111.658V23.8234L111.278 23.5231L110.658 24.308ZM110.658 28.494L109.908 29.1556L111.658 31.1388V28.494H110.658ZM109.254 27.246L109.836 26.4323L109.829 26.4276L109.823 26.4231L109.254 27.246ZM102.208 26.7L101.74 25.8162L101.73 25.8216L102.208 26.7ZM99.2443 31.9H98.2443C98.2443 33.2616 98.572 34.4874 99.2255 35.5455L100.076 35.02L100.927 34.4945C100.489 33.7846 100.244 32.9304 100.244 31.9H99.2443ZM100.076 35.02L99.2221 35.5399C100.503 37.6447 102.68 38.802 105.094 38.802V37.802V36.802C103.348 36.802 101.833 35.9833 100.931 34.5001L100.076 35.02ZM105.094 37.802V38.802C106.028 38.802 106.925 38.6895 107.735 38.409L107.408 37.464L107.081 36.519C106.54 36.7065 105.877 36.802 105.094 36.802V37.802ZM107.408 37.464L107.719 38.4145C109.263 37.9098 110.5 36.9928 111.407 35.969L110.658 35.306L109.91 34.643C109.204 35.4392 108.258 36.1342 107.098 36.5135L107.408 37.464ZM110.658 35.306H109.658V39.492H110.658H111.658V35.306H110.658ZM110.658 39.492L110.039 38.7071C108.729 39.7408 107.361 40.364 104.912 40.364V41.364V42.364C107.82 42.364 109.623 41.5832 111.278 40.2769L110.658 39.492ZM104.912 41.364V40.364C102.359 40.364 100.2 39.5083 98.6666 38.0203L97.9703 38.738L97.274 39.4557C99.2242 41.3477 101.902 42.364 104.912 42.364V41.364ZM97.9703 38.738L98.6613 38.0151C97.1078 36.5301 96.2143 34.4596 96.2143 31.9H95.2143H94.2143C94.2143 34.9564 95.2969 37.5658 97.2793 39.4609L97.9703 38.738ZM95.2143 31.9H96.2143C96.2143 29.3404 97.1078 27.2698 98.6613 25.7849L97.9703 25.062L97.2793 24.3391C95.2969 26.2341 94.2143 28.8436 94.2143 31.9H95.2143ZM97.9703 25.062L98.6666 25.7797C100.2 24.2917 102.359 23.436 104.912 23.436V22.436V21.436C101.902 21.436 99.2242 22.4523 97.274 24.3443L97.9703 25.062ZM104.912 22.436V23.436C107.361 23.436 108.729 24.0592 110.039 25.0929L110.658 24.308L111.278 23.5231C109.623 22.2168 107.82 21.436 104.912 21.436V22.436ZM110.658 24.308H109.658V28.494H110.658H111.658V24.308H110.658ZM110.658 28.494L111.408 27.8324C110.962 27.3262 110.435 26.8605 109.836 26.4323L109.254 27.246L108.673 28.0597C109.166 28.4115 109.575 28.7778 109.908 29.1556L110.658 28.494ZM109.254 27.246L109.823 26.4231C108.57 25.558 107.047 24.998 105.094 24.998V25.998V26.998C106.626 26.998 107.755 27.426 108.686 28.0689L109.254 27.246ZM105.094 25.998V24.998C103.898 24.998 102.774 25.2688 101.74 25.8162L102.208 26.7L102.676 27.5838C103.41 27.1952 104.211 26.998 105.094 26.998V25.998ZM102.208 26.7L101.73 25.8216C99.6389 26.9596 98.2443 29.1177 98.2443 31.9H99.2443H100.244C100.244 29.8463 101.242 28.3644 102.686 27.5784L102.208 26.7ZM130.487 41V42H132.075L131.389 40.5679L130.487 41ZM126.275 41L125.368 41.4219L125.637 42H126.275V41ZM124.351 36.866L125.258 36.4441L124.989 35.866H124.351V36.866ZM118.111 36.866V35.866H117.47L117.202 36.4488L118.111 36.866ZM116.213 41V42H116.854L117.122 41.4172L116.213 41ZM112.027 41L111.125 40.5679L110.439 42H112.027V41ZM121.257 21.734L122.159 21.3019L121.257 19.4195L120.355 21.3019L121.257 21.734ZM118.969 33.928L118.053 33.5269L117.44 34.928H118.969V33.928ZM123.519 33.928V34.928H125.041L124.437 33.5308L123.519 33.928ZM121.257 28.702L122.175 28.3048L121.262 26.1966L120.341 28.3009L121.257 28.702ZM130.487 41V40H126.275V41V42H130.487V41ZM126.275 41L127.182 40.5781L125.258 36.4441L124.351 36.866L123.444 37.2879L125.368 41.4219L126.275 41ZM124.351 36.866V35.866H118.111V36.866V37.866H124.351V36.866ZM118.111 36.866L117.202 36.4488L115.304 40.5828L116.213 41L117.122 41.4172L119.02 37.2832L118.111 36.866ZM116.213 41V40H112.027V41V42H116.213V41ZM112.027 41L112.929 41.4321L122.159 22.1661L121.257 21.734L120.355 21.3019L111.125 40.5679L112.027 41ZM121.257 21.734L120.355 22.1661L129.585 41.4321L130.487 41L131.389 40.5679L122.159 21.3019L121.257 21.734ZM118.969 33.928V34.928H123.519V33.928V32.928H118.969V33.928ZM123.519 33.928L124.437 33.5308L122.175 28.3048L121.257 28.702L120.339 29.0992L122.601 34.3252L123.519 33.928ZM121.257 28.702L120.341 28.3009L118.053 33.5269L118.969 33.928L119.885 34.3291L122.173 29.1031L121.257 28.702ZM145.409 34.084L144.724 34.812L146.409 36.3994V34.084H145.409ZM145.409 22.8V21.8H144.409V22.8H145.409ZM148.997 22.8H149.997V21.8H148.997V22.8ZM148.997 41.91L148.312 42.638L149.997 44.2254V41.91H148.997ZM136.049 29.716L136.735 28.988L135.049 27.4006V29.716H136.049ZM136.049 41V42H137.049V41H136.049ZM132.461 41H131.461V42H132.461V41ZM132.461 21.89L133.147 21.162L131.461 19.5746V21.89H132.461ZM145.409 34.084H146.409V22.8H145.409H144.409V34.084H145.409ZM145.409 22.8V23.8H148.997V22.8V21.8H145.409V22.8ZM148.997 22.8H147.997V41.91H148.997H149.997V22.8H148.997ZM148.997 41.91L149.683 41.182L136.735 28.988L136.049 29.716L135.364 30.444L148.312 42.638L148.997 41.91ZM136.049 29.716H135.049V41H136.049H137.049V29.716H136.049ZM136.049 41V40H132.461V41V42H136.049V41ZM132.461 41H133.461V21.89H132.461H131.461V41H132.461ZM132.461 21.89L131.776 22.618L144.724 34.812L145.409 34.084L146.095 33.356L133.147 21.162L132.461 21.89ZM163.815 26.154H164.815V25.154H163.815V26.154ZM158.927 26.154H157.927V27.154H158.927V26.154ZM158.927 22.8V21.8H157.927V22.8H158.927ZM172.447 22.8H173.447V21.8H172.447V22.8ZM172.447 26.154V27.154H173.447V26.154H172.447ZM167.533 26.154V25.154H166.533V26.154H167.533ZM167.533 41V42H168.533V41H167.533ZM163.815 41H162.815V42H163.815V41ZM163.815 26.154V25.154H158.927V26.154V27.154H163.815V26.154ZM158.927 26.154H159.927V22.8H158.927H157.927V26.154H158.927ZM158.927 22.8V23.8H172.447V22.8V21.8H158.927V22.8ZM172.447 22.8H171.447V26.154H172.447H173.447V22.8H172.447ZM172.447 26.154V25.154H167.533V26.154V27.154H172.447V26.154ZM167.533 26.154H166.533V41H167.533H168.533V26.154H167.533ZM167.533 41V40H163.815V41V42H167.533V41ZM163.815 41H164.815V26.154H163.815H162.815V41H163.815ZM188.547 41V42H190.464L189.367 40.428L188.547 41ZM184.153 41L183.313 41.5424L183.608 42H184.153V41ZM179.889 34.396L180.729 33.8536L180.434 33.396H179.889V34.396ZM178.277 34.396V33.396H177.277V34.396H178.277ZM178.277 41V42H179.277V41H178.277ZM174.559 41H173.559V42H174.559V41ZM174.559 22.8V21.8H173.559V22.8H174.559ZM184.335 23.528L183.897 24.427L183.902 24.4293L184.335 23.528ZM186.649 31.614L185.805 31.0771L185.797 31.0897L185.79 31.1025L186.649 31.614ZM183.633 33.954L183.322 33.0035L182.043 33.4218L182.813 34.526L183.633 33.954ZM178.277 25.972V24.972H177.277V25.972H178.277ZM178.277 31.432H177.277V32.432H178.277V31.432ZM188.547 41V40H184.153V41V42H188.547V41ZM184.153 41L184.993 40.4576L180.729 33.8536L179.889 34.396L179.049 34.9384L183.313 41.5424L184.153 41ZM179.889 34.396V33.396H178.277V34.396V35.396H179.889V34.396ZM178.277 34.396H177.277V41H178.277H179.277V34.396H178.277ZM178.277 41V40H174.559V41V42H178.277V41ZM174.559 41H175.559V22.8H174.559H173.559V41H174.559ZM174.559 22.8V23.8H180.669V22.8V21.8H174.559V22.8ZM180.669 22.8V23.8C181.995 23.8 183.056 24.0175 183.897 24.427L184.335 23.528L184.773 22.629C183.586 22.0505 182.203 21.8 180.669 21.8V22.8ZM184.335 23.528L183.902 24.4293C185.546 25.2192 186.455 26.6553 186.455 28.598H187.455H188.455C188.455 25.9127 187.128 23.7608 184.768 22.6267L184.335 23.528ZM187.455 28.598H186.455C186.455 29.5877 186.232 30.4074 185.805 31.0771L186.649 31.614L187.493 32.1509C188.158 31.1046 188.455 29.8963 188.455 28.598H187.455ZM186.649 31.614L185.79 31.1025C185.272 31.9721 184.461 32.6312 183.322 33.0035L183.633 33.954L183.944 34.9045C185.509 34.3928 186.726 33.4399 187.508 32.1255L186.649 31.614ZM183.633 33.954L182.813 34.526L187.727 41.572L188.547 41L189.367 40.428L184.453 33.382L183.633 33.954ZM180.435 25.972V24.972H178.277V25.972V26.972H180.435V25.972ZM178.277 25.972H177.277V31.432H178.277H179.277V25.972H178.277ZM178.277 31.432V32.432H180.435V31.432V30.432H178.277V31.432ZM180.435 31.432V32.432C181.547 32.432 182.594 32.1431 183.383 31.491C184.195 30.8196 184.633 29.844 184.633 28.702H183.633H182.633C182.633 29.302 182.421 29.6914 182.109 29.9495C181.773 30.2269 181.221 30.432 180.435 30.432V31.432ZM183.633 28.702H184.633C184.633 27.56 184.195 26.5844 183.383 25.913C182.594 25.2609 181.547 24.972 180.435 24.972V25.972V26.972C181.221 26.972 181.773 27.1771 182.109 27.4545C182.421 27.7126 182.633 28.102 182.633 28.702H183.633ZM196.87 30.132L195.987 30.6016L196.867 32.2559L197.752 30.604L196.87 30.132ZM200.796 22.8V21.8H200.197L199.914 22.328L200.796 22.8ZM205.034 22.8L205.896 23.3067L206.782 21.8H205.034V22.8ZM198.768 33.46L197.906 32.9533L197.768 33.1879V33.46H198.768ZM198.768 41V42H199.768V41H198.768ZM194.998 41H193.998V42H194.998V41ZM194.998 33.486H195.998V33.2144L195.861 32.9802L194.998 33.486ZM188.732 22.8V21.8H186.986L187.869 23.3058L188.732 22.8ZM192.97 22.8L193.853 22.3304L193.571 21.8H192.97V22.8ZM196.87 30.132L197.752 30.604L201.678 23.272L200.796 22.8L199.914 22.328L195.988 29.66L196.87 30.132ZM200.796 22.8V23.8H205.034V22.8V21.8H200.796V22.8ZM205.034 22.8L204.172 22.2933L197.906 32.9533L198.768 33.46L199.63 33.9667L205.896 23.3067L205.034 22.8ZM198.768 33.46H197.768V41H198.768H199.768V33.46H198.768ZM198.768 41V40H194.998V41V42H198.768V41ZM194.998 41H195.998V33.486H194.998H193.998V41H194.998ZM194.998 33.486L195.861 32.9802L189.595 22.2942L188.732 22.8L187.869 23.3058L194.135 33.9918L194.998 33.486ZM188.732 22.8V23.8H192.97V22.8V21.8H188.732V22.8ZM192.97 22.8L192.087 23.2696L195.987 30.6016L196.87 30.132L197.753 29.6624L193.853 22.3304L192.97 22.8ZM231.339 41V42H232.926L232.24 40.5679L231.339 41ZM227.127 41L226.22 41.4219L226.489 42H227.127V41ZM225.203 36.866L226.109 36.4441L225.84 35.866H225.203V36.866ZM218.963 36.866V35.866H218.321L218.054 36.4488L218.963 36.866ZM217.065 41V42H217.706L217.973 41.4172L217.065 41ZM212.879 41L211.977 40.5679L211.291 42H212.879V41ZM222.109 21.734L223.01 21.3019L222.109 19.4195L221.207 21.3019L222.109 21.734ZM219.821 33.928L218.904 33.5269L218.291 34.928H219.821V33.928ZM224.371 33.928V34.928H225.893L225.288 33.5308L224.371 33.928ZM222.109 28.702L223.026 28.3048L222.114 26.1966L221.192 28.3009L222.109 28.702ZM231.339 41V40H227.127V41V42H231.339V41ZM227.127 41L228.033 40.5781L226.109 36.4441L225.203 36.866L224.296 37.2879L226.22 41.4219L227.127 41ZM225.203 36.866V35.866H218.963V36.866V37.866H225.203V36.866ZM218.963 36.866L218.054 36.4488L216.156 40.5828L217.065 41L217.973 41.4172L219.871 37.2832L218.963 36.866ZM217.065 41V40H212.879V41V42H217.065V41ZM212.879 41L213.78 41.4321L223.01 22.1661L222.109 21.734L221.207 21.3019L211.977 40.5679L212.879 41ZM222.109 21.734L221.207 22.1661L230.437 41.4321L231.339 41L232.24 40.5679L223.01 21.3019L222.109 21.734ZM219.821 33.928V34.928H224.371V33.928V32.928H219.821V33.928ZM224.371 33.928L225.288 33.5308L223.026 28.3048L222.109 28.702L221.191 29.0992L223.453 34.3252L224.371 33.928ZM222.109 28.702L221.192 28.3009L218.904 33.5269L219.821 33.928L220.737 34.3291L223.025 29.1031L222.109 28.702ZM246.592 34.24L247.556 34.5049L247.904 33.24H246.592V34.24ZM241.366 34.24H240.366V35.24H241.366V34.24ZM241.366 31.276V30.276H240.366V31.276H241.366ZM250.336 31.276L251.335 31.2386L251.299 30.276H250.336V31.276ZM248.126 38.452L248.893 39.0932L248.894 39.0922L248.126 38.452ZM234.242 38.816L234.938 38.0982L234.933 38.0931L234.242 38.816ZM244.694 22.956L245.029 22.0137L245.019 22.0104L245.01 22.0073L244.694 22.956ZM249.322 26.596L249.825 27.4603L250.74 26.9276L250.156 26.0443L249.322 26.596ZM246.15 28.442L245.282 28.9397L245.783 29.8124L246.653 29.3063L246.15 28.442ZM238.324 26.492L237.847 25.6131L237.841 25.6161L238.324 26.492ZM236.166 35.176L237.043 34.6955L237.04 34.6904L236.166 35.176ZM246.592 34.24V33.24H241.366V34.24V35.24H246.592V34.24ZM241.366 34.24H242.366V31.276H241.366H240.366V34.24H241.366ZM241.366 31.276V32.276H250.336V31.276V30.276H241.366V31.276ZM250.336 31.276L249.337 31.3134C249.433 33.8964 248.732 36.1631 247.358 37.8118L248.126 38.452L248.894 39.0922C250.64 36.9969 251.447 34.2196 251.335 31.2386L250.336 31.276ZM248.126 38.452L247.358 37.8108C245.974 39.4673 243.922 40.494 241.21 40.494V41.494V42.494C244.477 42.494 247.105 41.2327 248.893 39.0932L248.126 38.452ZM241.21 41.494V40.494C238.643 40.494 236.481 39.5947 234.938 38.0983L234.242 38.816L233.545 39.5337C235.487 41.4173 238.16 42.494 241.21 42.494V41.494ZM234.242 38.816L234.933 38.0931C233.385 36.6138 232.486 34.4685 232.486 31.9H231.486H230.486C230.486 34.9475 231.562 37.6383 233.551 39.5389L234.242 38.816ZM231.486 31.9H232.486C232.486 29.3473 233.426 27.2257 234.979 25.7642L234.294 25.036L233.608 24.3078C231.625 26.1743 230.486 28.8367 230.486 31.9H231.486ZM234.294 25.036L234.979 25.7642C236.541 24.2939 238.731 23.436 241.314 23.436V22.436V21.436C238.28 21.436 235.582 22.4501 233.608 24.3078L234.294 25.036ZM241.314 22.436V23.436C242.463 23.436 243.473 23.6032 244.378 23.9047L244.694 22.956L245.01 22.0073C243.886 21.6328 242.661 21.436 241.314 21.436V22.436ZM244.694 22.956L244.359 23.8983C246.122 24.5245 247.484 25.6306 248.488 27.1477L249.322 26.596L250.156 26.0443C248.923 24.1814 247.218 22.7914 245.029 22.0137L244.694 22.956ZM249.322 26.596L248.819 25.7317L245.647 27.5777L246.15 28.442L246.653 29.3063L249.825 27.4603L249.322 26.596ZM246.15 28.442L247.017 27.9443C245.932 26.0532 243.992 24.764 241.314 24.764V25.764V26.764C243.263 26.764 244.548 27.6588 245.282 28.9397L246.15 28.442ZM241.314 25.764V24.764C240.071 24.764 238.917 25.0323 237.847 25.6131L238.324 26.492L238.801 27.3709C239.551 26.9637 240.372 26.764 241.314 26.764V25.764ZM238.324 26.492L237.841 25.6161C235.696 26.7976 234.386 29.0517 234.386 31.9H235.386H236.386C236.386 29.7043 237.364 28.1624 238.806 27.3679L238.324 26.492ZM235.386 31.9H234.386C234.386 33.2896 234.676 34.5541 235.292 35.6616L236.166 35.176L237.04 34.6904C236.615 33.9258 236.386 33.0064 236.386 31.9H235.386ZM236.166 35.176L235.289 35.6565C236.509 37.8836 238.697 39.166 241.314 39.166V38.166V37.166C239.407 37.166 237.902 36.2644 237.043 34.6955L236.166 35.176ZM241.314 38.166V39.166C242.909 39.166 244.289 38.72 245.374 37.8815C246.456 37.0448 247.182 35.866 247.556 34.5049L246.592 34.24L245.628 33.9751C245.351 34.98 244.843 35.7642 244.151 36.299C243.461 36.832 242.527 37.166 241.314 37.166V38.166ZM269.094 41V42H270.682L269.996 40.5679L269.094 41ZM264.882 41L263.976 41.4219L264.245 42H264.882V41ZM262.958 36.866L263.865 36.4441L263.596 35.866H262.958V36.866ZM256.718 36.866V35.866H256.077L255.81 36.4488L256.718 36.866ZM254.82 41V42H255.462L255.729 41.4172L254.82 41ZM250.634 41L249.733 40.5679L249.046 42H250.634V41ZM259.864 21.734L260.766 21.3019L259.864 19.4195L258.963 21.3019L259.864 21.734ZM257.576 33.928L256.66 33.5269L256.047 34.928H257.576V33.928ZM262.126 33.928V34.928H263.649L263.044 33.5308L262.126 33.928ZM259.864 28.702L260.782 28.3048L259.87 26.1966L258.948 28.3009L259.864 28.702ZM269.094 41V40H264.882V41V42H269.094V41ZM264.882 41L265.789 40.5781L263.865 36.4441L262.958 36.866L262.052 37.2879L263.976 41.4219L264.882 41ZM262.958 36.866V35.866H256.718V36.866V37.866H262.958V36.866ZM256.718 36.866L255.81 36.4488L253.912 40.5828L254.82 41L255.729 41.4172L257.627 37.2832L256.718 36.866ZM254.82 41V40H250.634V41V42H254.82V41ZM250.634 41L251.536 41.4321L260.766 22.1661L259.864 21.734L258.963 21.3019L249.733 40.5679L250.634 41ZM259.864 21.734L258.963 22.1661L268.193 41.4321L269.094 41L269.996 40.5679L260.766 21.3019L259.864 21.734ZM257.576 33.928V34.928H262.126V33.928V32.928H257.576V33.928ZM262.126 33.928L263.044 33.5308L260.782 28.3048L259.864 28.702L258.947 29.0992L261.209 34.3252L262.126 33.928ZM259.864 28.702L258.948 28.3009L256.66 33.5269L257.576 33.928L258.492 34.3291L260.78 29.1031L259.864 28.702ZM271.069 41H270.069V42H271.069V41ZM271.069 22.8V21.8H270.069V22.8H271.069ZM274.839 22.8H275.839V21.8H274.839V22.8ZM274.839 41V42H275.839V41H274.839ZM271.069 41H272.069V22.8H271.069H270.069V41H271.069ZM271.069 22.8V23.8H274.839V22.8V21.8H271.069V22.8ZM274.839 22.8H273.839V41H274.839H275.839V22.8H274.839ZM274.839 41V40H271.069V41V42H274.839V41ZM291.71 34.084L291.025 34.812L292.71 36.3994V34.084H291.71ZM291.71 22.8V21.8H290.71V22.8H291.71ZM295.298 22.8H296.298V21.8H295.298V22.8ZM295.298 41.91L294.613 42.638L296.298 44.2254V41.91H295.298ZM282.35 29.716L283.036 28.988L281.35 27.4006V29.716H282.35ZM282.35 41V42H283.35V41H282.35ZM278.762 41H277.762V42H278.762V41ZM278.762 21.89L279.448 21.162L277.762 19.5746V21.89H278.762ZM291.71 34.084H292.71V22.8H291.71H290.71V34.084H291.71ZM291.71 22.8V23.8H295.298V22.8V21.8H291.71V22.8ZM295.298 22.8H294.298V41.91H295.298H296.298V22.8H295.298ZM295.298 41.91L295.984 41.182L283.036 28.988L282.35 29.716L281.665 30.444L294.613 42.638L295.298 41.91ZM282.35 29.716H281.35V41H282.35H283.35V29.716H282.35ZM282.35 41V40H278.762V41V42H282.35V41ZM278.762 41H279.762V21.89H278.762H277.762V41H278.762ZM278.762 21.89L278.077 22.618L291.025 34.812L291.71 34.084L292.396 33.356L279.448 21.162L278.762 21.89ZM298.342 44.874L297.396 44.5523L297.043 45.5909L298.109 45.8465L298.342 44.874ZM300.63 38.14L300.871 37.1694L299.979 36.9482L299.684 37.8183L300.63 38.14ZM303.984 38.972L304.884 39.4077L305.421 38.2982L304.225 38.0014L303.984 38.972ZM300.838 45.472L300.605 46.4445L301.388 46.632L301.738 45.9077L300.838 45.472ZM298.342 44.874L299.289 45.1957L301.577 38.4617L300.63 38.14L299.684 37.8183L297.396 44.5523L298.342 44.874ZM300.63 38.14L300.39 39.1106L303.744 39.9426L303.984 38.972L304.225 38.0014L300.871 37.1694L300.63 38.14ZM303.984 38.972L303.084 38.5363L299.938 45.0363L300.838 45.472L301.738 45.9077L304.884 39.4077L303.984 38.972ZM300.838 45.472L301.071 44.4995L298.575 43.9015L298.342 44.874L298.109 45.8465L300.605 46.4445L300.838 45.472ZM331.86 41V42H333.448L332.762 40.5679L331.86 41ZM327.648 41L326.741 41.4219L327.01 42H327.648V41ZM325.724 36.866L326.631 36.4441L326.362 35.866H325.724V36.866ZM319.484 36.866V35.866H318.843L318.575 36.4488L319.484 36.866ZM317.586 41V42H318.227L318.495 41.4172L317.586 41ZM313.4 41L312.498 40.5679L311.812 42H313.4V41ZM322.63 21.734L323.532 21.3019L322.63 19.4195L321.728 21.3019L322.63 21.734ZM320.342 33.928L319.426 33.5269L318.813 34.928H320.342V33.928ZM324.892 33.928V34.928H326.415L325.81 33.5308L324.892 33.928ZM322.63 28.702L323.548 28.3048L322.635 26.1966L321.714 28.3009L322.63 28.702ZM331.86 41V40H327.648V41V42H331.86V41ZM327.648 41L328.555 40.5781L326.631 36.4441L325.724 36.866L324.817 37.2879L326.741 41.4219L327.648 41ZM325.724 36.866V35.866H319.484V36.866V37.866H325.724V36.866ZM319.484 36.866L318.575 36.4488L316.677 40.5828L317.586 41L318.495 41.4172L320.393 37.2832L319.484 36.866ZM317.586 41V40H313.4V41V42H317.586V41ZM313.4 41L314.302 41.4321L323.532 22.1661L322.63 21.734L321.728 21.3019L312.498 40.5679L313.4 41ZM322.63 21.734L321.728 22.1661L330.958 41.4321L331.86 41L332.762 40.5679L323.532 21.3019L322.63 21.734ZM320.342 33.928V34.928H324.892V33.928V32.928H320.342V33.928ZM324.892 33.928L325.81 33.5308L323.548 28.3048L322.63 28.702L321.712 29.0992L323.974 34.3252L324.892 33.928ZM322.63 28.702L321.714 28.3009L319.426 33.5269L320.342 33.928L321.258 34.3291L323.546 29.1031L322.63 28.702ZM346.782 34.084L346.097 34.812L347.782 36.3994V34.084H346.782ZM346.782 22.8V21.8H345.782V22.8H346.782ZM350.37 22.8H351.37V21.8H350.37V22.8ZM350.37 41.91L349.685 42.638L351.37 44.2254V41.91H350.37ZM337.422 29.716L338.108 28.988L336.422 27.4006V29.716H337.422ZM337.422 41V42H338.422V41H337.422ZM333.834 41H332.834V42H333.834V41ZM333.834 21.89L334.52 21.162L332.834 19.5746V21.89H333.834ZM346.782 34.084H347.782V22.8H346.782H345.782V34.084H346.782ZM346.782 22.8V23.8H350.37V22.8V21.8H346.782V22.8ZM350.37 22.8H349.37V41.91H350.37H351.37V22.8H350.37ZM350.37 41.91L351.056 41.182L338.108 28.988L337.422 29.716L336.737 30.444L349.685 42.638L350.37 41.91ZM337.422 29.716H336.422V41H337.422H338.422V29.716H337.422ZM337.422 41V40H333.834V41V42H337.422V41ZM333.834 41H334.834V21.89H333.834H332.834V41H333.834ZM333.834 21.89L333.149 22.618L346.097 34.812L346.782 34.084L347.468 33.356L334.52 21.162L333.834 21.89ZM365.531 23.918L365.064 24.8026L365.071 24.8059L365.531 23.918ZM368.859 36.71L368 36.1979L367.994 36.2077L368.859 36.71ZM354.325 41H353.325V42H354.325V41ZM354.325 22.8V21.8H353.325V22.8H354.325ZM358.121 37.62H357.121V38.62H358.121V37.62ZM358.121 26.18V25.18H357.121V26.18H358.121ZM365.531 23.918L365.071 24.8059C367.565 26.0987 369.055 28.5164 369.055 31.9H370.055H371.055C371.055 27.8476 369.216 24.7013 365.991 23.0301L365.531 23.918ZM370.055 31.9H369.055C369.055 33.6044 368.695 35.0309 368 36.1979L368.859 36.71L369.718 37.2221C370.634 35.6851 371.055 33.8876 371.055 31.9H370.055ZM368.859 36.71L367.994 36.2077C366.62 38.5734 364.049 40 360.513 40V41V42C364.621 42 367.926 40.3067 369.723 37.2123L368.859 36.71ZM360.513 41V40H354.325V41V42H360.513V41ZM354.325 41H355.325V22.8H354.325H353.325V41H354.325ZM354.325 22.8V23.8H360.513V22.8V21.8H354.325V22.8ZM360.513 22.8V23.8C362.284 23.8 363.807 24.1397 365.064 24.8026L365.531 23.918L365.997 23.0334C364.394 22.1883 362.537 21.8 360.513 21.8V22.8ZM358.121 37.62V38.62H360.383V37.62V36.62H358.121V37.62ZM360.383 37.62V38.62C362.26 38.62 363.99 38.103 365.26 36.9406C366.544 35.7651 367.233 34.0445 367.233 31.9H366.233H365.233C365.233 33.6035 364.699 34.7429 363.91 35.4654C363.106 36.201 361.911 36.62 360.383 36.62V37.62ZM366.233 31.9H367.233C367.233 29.7555 366.544 28.0349 365.26 26.8594C363.99 25.697 362.26 25.18 360.383 25.18V26.18V27.18C361.911 27.18 363.106 27.599 363.91 28.3346C364.699 29.0571 365.233 30.1965 365.233 31.9H366.233ZM360.383 26.18V25.18H358.121V26.18V27.18H360.383V26.18ZM358.121 26.18H357.121V37.62H358.121H359.121V26.18H358.121ZM397.241 41V42H398.829L398.143 40.5679L397.241 41ZM393.029 41L392.122 41.4219L392.391 42H393.029V41ZM391.105 36.866L392.012 36.4441L391.742 35.866H391.105V36.866ZM384.865 36.866V35.866H384.224L383.956 36.4488L384.865 36.866ZM382.967 41V42H383.608L383.876 41.4172L382.967 41ZM378.781 41L377.879 40.5679L377.193 42H378.781V41ZM388.011 21.734L388.913 21.3019L388.011 19.4195L387.109 21.3019L388.011 21.734ZM385.723 33.928L384.807 33.5269L384.193 34.928H385.723V33.928ZM390.273 33.928V34.928H391.795L391.191 33.5308L390.273 33.928ZM388.011 28.702L388.929 28.3048L388.016 26.1966L387.095 28.3009L388.011 28.702ZM397.241 41V40H393.029V41V42H397.241V41ZM393.029 41L393.936 40.5781L392.012 36.4441L391.105 36.866L390.198 37.2879L392.122 41.4219L393.029 41ZM391.105 36.866V35.866H384.865V36.866V37.866H391.105V36.866ZM384.865 36.866L383.956 36.4488L382.058 40.5828L382.967 41L383.876 41.4172L385.774 37.2832L384.865 36.866ZM382.967 41V40H378.781V41V42H382.967V41ZM378.781 41L379.683 41.4321L388.913 22.1661L388.011 21.734L387.109 21.3019L377.879 40.5679L378.781 41ZM388.011 21.734L387.109 22.1661L396.339 41.4321L397.241 41L398.143 40.5679L388.913 21.3019L388.011 21.734ZM385.723 33.928V34.928H390.273V33.928V32.928H385.723V33.928ZM390.273 33.928L391.191 33.5308L388.929 28.3048L388.011 28.702L387.093 29.0992L389.355 34.3252L390.273 33.928ZM388.011 28.702L387.095 28.3009L384.807 33.5269L385.723 33.928L386.639 34.3291L388.927 29.1031L388.011 28.702ZM402.25 35.02L403.104 34.5L403.101 34.4945L402.25 35.02ZM409.582 37.464L409.271 36.5135L409.263 36.5162L409.255 36.519L409.582 37.464ZM412.832 35.306H413.832V32.6688L412.084 34.643L412.832 35.306ZM412.832 39.492L413.452 40.2769L413.832 39.9766V39.492H412.832ZM400.144 38.738L400.84 38.0202L400.835 38.0151L400.144 38.738ZM400.144 25.062L400.835 25.7849L400.84 25.7797L400.144 25.062ZM412.832 24.308H413.832V23.8234L413.452 23.5231L412.832 24.308ZM412.832 28.494L412.082 29.1556L413.832 31.1388V28.494H412.832ZM411.428 27.246L412.009 26.4323L412.003 26.4276L411.996 26.4231L411.428 27.246ZM404.382 26.7L403.914 25.8162L403.904 25.8216L404.382 26.7ZM401.418 31.9H400.418C400.418 33.2616 400.746 34.4874 401.399 35.5455L402.25 35.02L403.101 34.4945C402.663 33.7846 402.418 32.9304 402.418 31.9H401.418ZM402.25 35.02L401.396 35.5399C402.677 37.6447 404.854 38.802 407.268 38.802V37.802V36.802C405.522 36.802 404.007 35.9833 403.104 34.5001L402.25 35.02ZM407.268 37.802V38.802C408.202 38.802 409.099 38.6895 409.909 38.409L409.582 37.464L409.255 36.519C408.714 36.7065 408.051 36.802 407.268 36.802V37.802ZM409.582 37.464L409.893 38.4145C411.437 37.9098 412.674 36.9928 413.581 35.969L412.832 35.306L412.084 34.643C411.378 35.4392 410.432 36.1342 409.271 36.5135L409.582 37.464ZM412.832 35.306H411.832V39.492H412.832H413.832V35.306H412.832ZM412.832 39.492L412.212 38.7071C410.903 39.7408 409.534 40.364 407.086 40.364V41.364V42.364C409.994 42.364 411.797 41.5832 413.452 40.2769L412.832 39.492ZM407.086 41.364V40.364C404.532 40.364 402.374 39.5083 400.84 38.0203L400.144 38.738L399.448 39.4557C401.398 41.3477 404.076 42.364 407.086 42.364V41.364ZM400.144 38.738L400.835 38.0151C399.282 36.5301 398.388 34.4596 398.388 31.9H397.388H396.388C396.388 34.9564 397.471 37.5658 399.453 39.4609L400.144 38.738ZM397.388 31.9H398.388C398.388 29.3404 399.282 27.2698 400.835 25.7849L400.144 25.062L399.453 24.3391C397.471 26.2341 396.388 28.8436 396.388 31.9H397.388ZM400.144 25.062L400.84 25.7797C402.374 24.2917 404.532 23.436 407.086 23.436V22.436V21.436C404.076 21.436 401.398 22.4523 399.448 24.3443L400.144 25.062ZM407.086 22.436V23.436C409.534 23.436 410.903 24.0592 412.212 25.0929L412.832 24.308L413.452 23.5231C411.797 22.2168 409.994 21.436 407.086 21.436V22.436ZM412.832 24.308H411.832V28.494H412.832H413.832V24.308H412.832ZM412.832 28.494L413.582 27.8324C413.135 27.3262 412.609 26.8605 412.009 26.4323L411.428 27.246L410.847 28.0597C411.339 28.4115 411.749 28.7778 412.082 29.1556L412.832 28.494ZM411.428 27.246L411.996 26.4231C410.743 25.558 409.22 24.998 407.268 24.998V25.998V26.998C408.8 26.998 409.929 27.426 410.86 28.0689L411.428 27.246ZM407.268 25.998V24.998C406.072 24.998 404.948 25.2688 403.914 25.8162L404.382 26.7L404.85 27.5838C405.584 27.1952 406.385 26.998 407.268 26.998V25.998ZM404.382 26.7L403.904 25.8216C401.813 26.9596 400.418 29.1177 400.418 31.9H401.418H402.418C402.418 29.8463 403.416 28.3644 404.86 27.5784L404.382 26.7ZM428.752 29.638V30.638H429.752V29.638H428.752ZM428.752 22.8V21.8H427.752V22.8H428.752ZM432.47 22.8H433.47V21.8H432.47V22.8ZM432.47 41V42H433.47V41H432.47ZM428.752 41H427.752V42H428.752V41ZM428.752 32.992H429.752V31.992H428.752V32.992ZM420.25 32.992V31.992H419.25V32.992H420.25ZM420.25 41V42H421.25V41H420.25ZM416.532 41H415.532V42H416.532V41ZM416.532 22.8V21.8H415.532V22.8H416.532ZM420.25 22.8H421.25V21.8H420.25V22.8ZM420.25 29.638H419.25V30.638H420.25V29.638ZM428.752 29.638H429.752V22.8H428.752H427.752V29.638H428.752ZM428.752 22.8V23.8H432.47V22.8V21.8H428.752V22.8ZM432.47 22.8H431.47V41H432.47H433.47V22.8H432.47ZM432.47 41V40H428.752V41V42H432.47V41ZM428.752 41H429.752V32.992H428.752H427.752V41H428.752ZM428.752 32.992V31.992H420.25V32.992V33.992H428.752V32.992ZM420.25 32.992H419.25V41H420.25H421.25V32.992H420.25ZM420.25 41V40H416.532V41V42H420.25V41ZM416.532 41H417.532V22.8H416.532H415.532V41H416.532ZM416.532 22.8V23.8H420.25V22.8V21.8H416.532V22.8ZM420.25 22.8H419.25V29.638H420.25H421.25V22.8H420.25ZM420.25 29.638V30.638H428.752V29.638V28.638H420.25V29.638ZM436.387 41H435.387V42H436.387V41ZM436.387 22.8V21.8H435.387V22.8H436.387ZM440.157 22.8H441.157V21.8H440.157V22.8ZM440.157 41V42H441.157V41H440.157ZM436.387 41H437.387V22.8H436.387H435.387V41H436.387ZM436.387 22.8V23.8H440.157V22.8V21.8H436.387V22.8ZM440.157 22.8H439.157V41H440.157H441.157V22.8H440.157ZM440.157 41V40H436.387V41V42H440.157V41ZM455.65 22.8H456.65V21.8H455.65V22.8ZM455.65 25.946V26.946H456.65V25.946H455.65ZM447.668 25.946V24.946H446.668V25.946H447.668ZM447.668 29.794H446.668V30.794H447.668V29.794ZM455.13 29.794H456.13V28.794H455.13V29.794ZM455.13 32.888V33.888H456.13V32.888H455.13ZM447.668 32.888V31.888H446.668V32.888H447.668ZM447.668 37.854H446.668V38.854H447.668V37.854ZM455.65 37.854H456.65V36.854H455.65V37.854ZM455.65 41V42H456.65V41H455.65ZM444.081 41H443.081V42H444.081V41ZM444.081 22.8V21.8H443.081V22.8H444.081ZM455.65 22.8H454.65V25.946H455.65H456.65V22.8H455.65ZM455.65 25.946V24.946H447.668V25.946V26.946H455.65V25.946ZM447.668 25.946H446.668V29.794H447.668H448.668V25.946H447.668ZM447.668 29.794V30.794H455.13V29.794V28.794H447.668V29.794ZM455.13 29.794H454.13V32.888H455.13H456.13V29.794H455.13ZM455.13 32.888V31.888H447.668V32.888V33.888H455.13V32.888ZM447.668 32.888H446.668V37.854H447.668H448.668V32.888H447.668ZM447.668 37.854V38.854H455.65V37.854V36.854H447.668V37.854ZM455.65 37.854H454.65V41H455.65H456.65V37.854H455.65ZM455.65 41V40H444.081V41V42H455.65V41ZM444.081 41H445.081V22.8H444.081H443.081V41H444.081ZM444.081 22.8V23.8H455.65V22.8V21.8H444.081V22.8ZM461.655 22.8L462.578 22.4154L462.322 21.8H461.655V22.8ZM466.595 34.656L465.672 35.0406L466.597 37.2618L467.519 35.0389L466.595 34.656ZM471.509 22.8V21.8H470.841L470.585 22.4171L471.509 22.8ZM475.825 22.8L476.727 23.2321L477.413 21.8H475.825V22.8ZM466.595 42.066L465.693 42.4981L466.595 44.3805L467.497 42.4981L466.595 42.066ZM457.365 22.8V21.8H455.777L456.463 23.2321L457.365 22.8ZM461.655 22.8L460.732 23.1846L465.672 35.0406L466.595 34.656L467.518 34.2714L462.578 22.4154L461.655 22.8ZM466.595 34.656L467.519 35.0389L472.433 23.1829L471.509 22.8L470.585 22.4171L465.671 34.2731L466.595 34.656ZM471.509 22.8V23.8H475.825V22.8V21.8H471.509V22.8ZM475.825 22.8L474.923 22.3679L465.693 41.6339L466.595 42.066L467.497 42.4981L476.727 23.2321L475.825 22.8ZM466.595 42.066L467.497 41.6339L458.267 22.3679L457.365 22.8L456.463 23.2321L465.693 42.4981L466.595 42.066ZM457.365 22.8V23.8H461.655V22.8V21.8H457.365V22.8ZM489.369 22.8H490.369V21.8H489.369V22.8ZM489.369 25.946V26.946H490.369V25.946H489.369ZM481.387 25.946V24.946H480.387V25.946H481.387ZM481.387 29.794H480.387V30.794H481.387V29.794ZM488.849 29.794H489.849V28.794H488.849V29.794ZM488.849 32.888V33.888H489.849V32.888H488.849ZM481.387 32.888V31.888H480.387V32.888H481.387ZM481.387 37.854H480.387V38.854H481.387V37.854ZM489.369 37.854H490.369V36.854H489.369V37.854ZM489.369 41V42H490.369V41H489.369ZM477.799 41H476.799V42H477.799V41ZM477.799 22.8V21.8H476.799V22.8H477.799ZM489.369 22.8H488.369V25.946H489.369H490.369V22.8H489.369ZM489.369 25.946V24.946H481.387V25.946V26.946H489.369V25.946ZM481.387 25.946H480.387V29.794H481.387H482.387V25.946H481.387ZM481.387 29.794V30.794H488.849V29.794V28.794H481.387V29.794ZM488.849 29.794H487.849V32.888H488.849H489.849V29.794H488.849ZM488.849 32.888V31.888H481.387V32.888V33.888H488.849V32.888ZM481.387 32.888H480.387V37.854H481.387H482.387V32.888H481.387ZM481.387 37.854V38.854H489.369V37.854V36.854H481.387V37.854ZM489.369 37.854H488.369V41H489.369H490.369V37.854H489.369ZM489.369 41V40H477.799V41V42H489.369V41ZM477.799 41H478.799V22.8H477.799H476.799V41H477.799ZM477.799 22.8V23.8H489.369V22.8V21.8H477.799V22.8ZM517.339 41V42H518.926L518.24 40.5679L517.339 41ZM513.127 41L512.22 41.4219L512.489 42H513.127V41ZM511.203 36.866L512.109 36.4441L511.84 35.866H511.203V36.866ZM504.963 36.866V35.866H504.321L504.054 36.4488L504.963 36.866ZM503.065 41V42H503.706L503.973 41.4172L503.065 41ZM498.879 41L497.977 40.5679L497.291 42H498.879V41ZM508.109 21.734L509.01 21.3019L508.109 19.4195L507.207 21.3019L508.109 21.734ZM505.821 33.928L504.904 33.5269L504.291 34.928H505.821V33.928ZM510.371 33.928V34.928H511.893L511.288 33.5308L510.371 33.928ZM508.109 28.702L509.026 28.3048L508.114 26.1966L507.192 28.3009L508.109 28.702ZM517.339 41V40H513.127V41V42H517.339V41ZM513.127 41L514.033 40.5781L512.109 36.4441L511.203 36.866L510.296 37.2879L512.22 41.4219L513.127 41ZM511.203 36.866V35.866H504.963V36.866V37.866H511.203V36.866ZM504.963 36.866L504.054 36.4488L502.156 40.5828L503.065 41L503.973 41.4172L505.871 37.2832L504.963 36.866ZM503.065 41V40H498.879V41V42H503.065V41ZM498.879 41L499.78 41.4321L509.01 22.1661L508.109 21.734L507.207 21.3019L497.977 40.5679L498.879 41ZM508.109 21.734L507.207 22.1661L516.437 41.4321L517.339 41L518.24 40.5679L509.01 21.3019L508.109 21.734ZM505.821 33.928V34.928H510.371V33.928V32.928H505.821V33.928ZM510.371 33.928L511.288 33.5308L509.026 28.3048L508.109 28.702L507.191 29.0992L509.453 34.3252L510.371 33.928ZM508.109 28.702L507.192 28.3009L504.904 33.5269L505.821 33.928L506.737 34.3291L509.025 29.1031L508.109 28.702ZM519.313 41H518.313V42H519.313V41ZM519.313 22.8V21.8H518.313V22.8H519.313ZM523.031 22.8H524.031V21.8H523.031V22.8ZM523.031 37.75H522.031V38.75H523.031V37.75ZM530.285 37.75H531.285V36.75H530.285V37.75ZM530.285 41V42H531.285V41H530.285ZM519.313 41H520.313V22.8H519.313H518.313V41H519.313ZM519.313 22.8V23.8H523.031V22.8V21.8H519.313V22.8ZM523.031 22.8H522.031V37.75H523.031H524.031V22.8H523.031ZM523.031 37.75V38.75H530.285V37.75V36.75H523.031V37.75ZM530.285 37.75H529.285V41H530.285H531.285V37.75H530.285ZM530.285 41V40H519.313V41V42H530.285V41ZM532.414 41H531.414V42H532.414V41ZM532.414 22.8V21.8H531.414V22.8H532.414ZM536.132 22.8H537.132V21.8H536.132V22.8ZM536.132 37.75H535.132V38.75H536.132V37.75ZM543.386 37.75H544.386V36.75H543.386V37.75ZM543.386 41V42H544.386V41H543.386ZM532.414 41H533.414V22.8H532.414H531.414V41H532.414ZM532.414 22.8V23.8H536.132V22.8V21.8H532.414V22.8ZM536.132 22.8H535.132V37.75H536.132H537.132V22.8H536.132ZM536.132 37.75V38.75H543.386V37.75V36.75H536.132V37.75ZM543.386 37.75H542.386V41H543.386H544.386V37.75H543.386ZM543.386 41V40H532.414V41V42H543.386V41ZM556.379 26.154H557.379V25.154H556.379V26.154ZM551.491 26.154H550.491V27.154H551.491V26.154ZM551.491 22.8V21.8H550.491V22.8H551.491ZM565.011 22.8H566.011V21.8H565.011V22.8ZM565.011 26.154V27.154H566.011V26.154H565.011ZM560.097 26.154V25.154H559.097V26.154H560.097ZM560.097 41V42H561.097V41H560.097ZM556.379 41H555.379V42H556.379V41ZM556.379 26.154V25.154H551.491V26.154V27.154H556.379V26.154ZM551.491 26.154H552.491V22.8H551.491H550.491V26.154H551.491ZM551.491 22.8V23.8H565.011V22.8V21.8H551.491V22.8ZM565.011 22.8H564.011V26.154H565.011H566.011V22.8H565.011ZM565.011 26.154V25.154H560.097V26.154V27.154H565.011V26.154ZM560.097 26.154H559.097V41H560.097H561.097V26.154H560.097ZM560.097 41V40H556.379V41V42H560.097V41ZM556.379 41H557.379V26.154H556.379H555.379V41H556.379ZM567.123 41H566.123V42H567.123V41ZM567.123 22.8V21.8H566.123V22.8H567.123ZM570.893 22.8H571.893V21.8H570.893V22.8ZM570.893 41V42H571.893V41H570.893ZM567.123 41H568.123V22.8H567.123H566.123V41H567.123ZM567.123 22.8V23.8H570.893V22.8V21.8H567.123V22.8ZM570.893 22.8H569.893V41H570.893H571.893V22.8H570.893ZM570.893 41V40H567.123V41V42H570.893V41ZM584.099 37.152L583.399 37.8661L584.099 38.5523L584.799 37.8661L584.099 37.152ZM578.821 31.978L579.521 31.2639L577.821 29.5974V31.978H578.821ZM578.821 41V42H579.821V41H578.821ZM574.947 41H573.947V42H574.947V41ZM574.947 21.89L575.67 21.1998L573.947 19.3929V21.89H574.947ZM584.099 31.484L583.375 32.1742L584.099 32.9328L584.822 32.1742L584.099 31.484ZM593.251 21.89H594.251V19.3929L592.527 21.1998L593.251 21.89ZM593.251 41V42H594.251V41H593.251ZM589.377 41H588.377V42H589.377V41ZM589.377 31.978H590.377V29.5974L588.677 31.2639L589.377 31.978ZM584.099 37.152L584.799 36.4379L579.521 31.2639L578.821 31.978L578.121 32.6921L583.399 37.8661L584.099 37.152ZM578.821 31.978H577.821V41H578.821H579.821V31.978H578.821ZM578.821 41V40H574.947V41V42H578.821V41ZM574.947 41H575.947V21.89H574.947H573.947V41H574.947ZM574.947 21.89L574.223 22.5802L583.375 32.1742L584.099 31.484L584.822 30.7938L575.67 21.1998L574.947 21.89ZM584.099 31.484L584.822 32.1742L593.974 22.5802L593.251 21.89L592.527 21.1998L583.375 30.7938L584.099 31.484ZM593.251 21.89H592.251V41H593.251H594.251V21.89H593.251ZM593.251 41V40H589.377V41V42H593.251V41ZM589.377 41H590.377V31.978H589.377H588.377V41H589.377ZM589.377 31.978L588.677 31.2639L583.399 36.4379L584.099 37.152L584.799 37.8661L590.077 32.6921L589.377 31.978ZM608.908 22.8H609.908V21.8H608.908V22.8ZM608.908 25.946V26.946H609.908V25.946H608.908ZM600.926 25.946V24.946H599.926V25.946H600.926ZM600.926 29.794H599.926V30.794H600.926V29.794ZM608.388 29.794H609.388V28.794H608.388V29.794ZM608.388 32.888V33.888H609.388V32.888H608.388ZM600.926 32.888V31.888H599.926V32.888H600.926ZM600.926 37.854H599.926V38.854H600.926V37.854ZM608.908 37.854H609.908V36.854H608.908V37.854ZM608.908 41V42H609.908V41H608.908ZM597.338 41H596.338V42H597.338V41ZM597.338 22.8V21.8H596.338V22.8H597.338ZM608.908 22.8H607.908V25.946H608.908H609.908V22.8H608.908ZM608.908 25.946V24.946H600.926V25.946V26.946H608.908V25.946ZM600.926 25.946H599.926V29.794H600.926H601.926V25.946H600.926ZM600.926 29.794V30.794H608.388V29.794V28.794H600.926V29.794ZM608.388 29.794H607.388V32.888H608.388H609.388V29.794H608.388ZM608.388 32.888V31.888H600.926V32.888V33.888H608.388V32.888ZM600.926 32.888H599.926V37.854H600.926H601.926V32.888H600.926ZM600.926 37.854V38.854H608.908V37.854V36.854H600.926V37.854ZM608.908 37.854H607.908V41H608.908H609.908V37.854H608.908ZM608.908 41V40H597.338V41V42H608.908V41ZM597.338 41H598.338V22.8H597.338H596.338V41H597.338ZM597.338 22.8V23.8H608.908V22.8V21.8H597.338V22.8ZM634.356 41V42H636.272L635.176 40.428L634.356 41ZM629.962 41L629.122 41.5424L629.417 42H629.962V41ZM625.698 34.396L626.538 33.8536L626.242 33.396H625.698V34.396ZM624.086 34.396V33.396H623.086V34.396H624.086ZM624.086 41V42H625.086V41H624.086ZM620.368 41H619.368V42H620.368V41ZM620.368 22.8V21.8H619.368V22.8H620.368ZM630.144 23.528L629.706 24.427L629.711 24.4293L630.144 23.528ZM632.458 31.614L631.614 31.0771L631.606 31.0897L631.598 31.1025L632.458 31.614ZM629.442 33.954L629.131 33.0035L627.851 33.4218L628.621 34.526L629.442 33.954ZM624.086 25.972V24.972H623.086V25.972H624.086ZM624.086 31.432H623.086V32.432H624.086V31.432ZM634.356 41V40H629.962V41V42H634.356V41ZM629.962 41L630.802 40.4576L626.538 33.8536L625.698 34.396L624.857 34.9384L629.122 41.5424L629.962 41ZM625.698 34.396V33.396H624.086V34.396V35.396H625.698V34.396ZM624.086 34.396H623.086V41H624.086H625.086V34.396H624.086ZM624.086 41V40H620.368V41V42H624.086V41ZM620.368 41H621.368V22.8H620.368H619.368V41H620.368ZM620.368 22.8V23.8H626.478V22.8V21.8H620.368V22.8ZM626.478 22.8V23.8C627.803 23.8 628.865 24.0175 629.706 24.427L630.144 23.528L630.582 22.629C629.394 22.0505 628.012 21.8 626.478 21.8V22.8ZM630.144 23.528L629.711 24.4293C631.354 25.2192 632.264 26.6553 632.264 28.598H633.264H634.264C634.264 25.9127 632.937 23.7608 630.577 22.6267L630.144 23.528ZM633.264 28.598H632.264C632.264 29.5877 632.04 30.4074 631.614 31.0771L632.458 31.614L633.301 32.1509C633.967 31.1046 634.264 29.8963 634.264 28.598H633.264ZM632.458 31.614L631.598 31.1025C631.081 31.9721 630.27 32.6312 629.131 33.0035L629.442 33.954L629.752 34.9045C631.318 34.3928 632.534 33.4399 633.317 32.1255L632.458 31.614ZM629.442 33.954L628.621 34.526L633.535 41.572L634.356 41L635.176 40.428L630.262 33.382L629.442 33.954ZM626.244 25.972V24.972H624.086V25.972V26.972H626.244V25.972ZM624.086 25.972H623.086V31.432H624.086H625.086V25.972H624.086ZM624.086 31.432V32.432H626.244V31.432V30.432H624.086V31.432ZM626.244 31.432V32.432C627.355 32.432 628.403 32.1431 629.191 31.491C630.004 30.8196 630.442 29.844 630.442 28.702H629.442H628.442C628.442 29.302 628.229 29.6914 627.917 29.9495C627.582 30.2269 627.03 30.432 626.244 30.432V31.432ZM629.442 28.702H630.442C630.442 27.56 630.004 26.5844 629.191 25.913C628.403 25.2609 627.355 24.972 626.244 24.972V25.972V26.972C627.03 26.972 627.582 27.1771 627.917 27.4545C628.229 27.7126 628.442 28.102 628.442 28.702H629.442ZM648.061 22.8H649.061V21.8H648.061V22.8ZM648.061 25.946V26.946H649.061V25.946H648.061ZM640.079 25.946V24.946H639.079V25.946H640.079ZM640.079 29.794H639.079V30.794H640.079V29.794ZM647.541 29.794H648.541V28.794H647.541V29.794ZM647.541 32.888V33.888H648.541V32.888H647.541ZM640.079 32.888V31.888H639.079V32.888H640.079ZM640.079 37.854H639.079V38.854H640.079V37.854ZM648.061 37.854H649.061V36.854H648.061V37.854ZM648.061 41V42H649.061V41H648.061ZM636.491 41H635.491V42H636.491V41ZM636.491 22.8V21.8H635.491V22.8H636.491ZM648.061 22.8H647.061V25.946H648.061H649.061V22.8H648.061ZM648.061 25.946V24.946H640.079V25.946V26.946H648.061V25.946ZM640.079 25.946H639.079V29.794H640.079H641.079V25.946H640.079ZM640.079 29.794V30.794H647.541V29.794V28.794H640.079V29.794ZM647.541 29.794H646.541V32.888H647.541H648.541V29.794H647.541ZM647.541 32.888V31.888H640.079V32.888V33.888H647.541V32.888ZM640.079 32.888H639.079V37.854H640.079H641.079V32.888H640.079ZM640.079 37.854V38.854H648.061V37.854V36.854H640.079V37.854ZM648.061 37.854H647.061V41H648.061H649.061V37.854H648.061ZM648.061 41V40H636.491V41V42H648.061V41ZM636.491 41H637.491V22.8H636.491H635.491V41H636.491ZM636.491 22.8V23.8H648.061V22.8V21.8H636.491V22.8ZM655.547 35.02L656.401 34.5L656.398 34.4945L655.547 35.02ZM662.879 37.464L662.568 36.5135L662.56 36.5162L662.552 36.519L662.879 37.464ZM666.129 35.306H667.129V32.6688L665.38 34.643L666.129 35.306ZM666.129 39.492L666.749 40.2769L667.129 39.9766V39.492H666.129ZM653.441 38.738L654.137 38.0202L654.132 38.0151L653.441 38.738ZM653.441 25.062L654.132 25.7849L654.137 25.7797L653.441 25.062ZM666.129 24.308H667.129V23.8234L666.749 23.5231L666.129 24.308ZM666.129 28.494L665.379 29.1556L667.129 31.1388V28.494H666.129ZM664.725 27.246L665.306 26.4323L665.3 26.4276L665.293 26.4231L664.725 27.246ZM657.679 26.7L657.211 25.8162L657.201 25.8216L657.679 26.7ZM654.715 31.9H653.715C653.715 33.2616 654.043 34.4874 654.696 35.5455L655.547 35.02L656.398 34.4945C655.959 33.7846 655.715 32.9304 655.715 31.9H654.715ZM655.547 35.02L654.693 35.5399C655.974 37.6447 658.151 38.802 660.565 38.802V37.802V36.802C658.819 36.802 657.304 35.9833 656.401 34.5001L655.547 35.02ZM660.565 37.802V38.802C661.498 38.802 662.396 38.6895 663.206 38.409L662.879 37.464L662.552 36.519C662.01 36.7065 661.348 36.802 660.565 36.802V37.802ZM662.879 37.464L663.19 38.4145C664.734 37.9098 665.971 36.9928 666.878 35.969L666.129 35.306L665.38 34.643C664.675 35.4392 663.729 36.1342 662.568 36.5135L662.879 37.464ZM666.129 35.306H665.129V39.492H666.129H667.129V35.306H666.129ZM666.129 39.492L665.509 38.7071C664.2 39.7408 662.831 40.364 660.383 40.364V41.364V42.364C663.291 42.364 665.094 41.5832 666.749 40.2769L666.129 39.492ZM660.383 41.364V40.364C657.829 40.364 655.671 39.5083 654.137 38.0203L653.441 38.738L652.745 39.4557C654.695 41.3477 657.373 42.364 660.383 42.364V41.364ZM653.441 38.738L654.132 38.0151C652.578 36.5301 651.685 34.4596 651.685 31.9H650.685H649.685C649.685 34.9564 650.768 37.5658 652.75 39.4609L653.441 38.738ZM650.685 31.9H651.685C651.685 29.3404 652.578 27.2698 654.132 25.7849L653.441 25.062L652.75 24.3391C650.768 26.2341 649.685 28.8436 649.685 31.9H650.685ZM653.441 25.062L654.137 25.7797C655.671 24.2917 657.829 23.436 660.383 23.436V22.436V21.436C657.373 21.436 654.695 22.4523 652.745 24.3443L653.441 25.062ZM660.383 22.436V23.436C662.831 23.436 664.2 24.0592 665.509 25.0929L666.129 24.308L666.749 23.5231C665.094 22.2168 663.291 21.436 660.383 21.436V22.436ZM666.129 24.308H665.129V28.494H666.129H667.129V24.308H666.129ZM666.129 28.494L666.879 27.8324C666.432 27.3262 665.906 26.8605 665.306 26.4323L664.725 27.246L664.144 28.0597C664.636 28.4115 665.046 28.7778 665.379 29.1556L666.129 28.494ZM664.725 27.246L665.293 26.4231C664.04 25.558 662.517 24.998 660.565 24.998V25.998V26.998C662.097 26.998 663.226 27.426 664.157 28.0689L664.725 27.246ZM660.565 25.998V24.998C659.369 24.998 658.245 25.2688 657.211 25.8162L657.679 26.7L658.147 27.5838C658.881 27.1952 659.681 26.998 660.565 26.998V25.998ZM657.679 26.7L657.201 25.8216C655.11 26.9596 653.715 29.1177 653.715 31.9H654.715H655.715C655.715 29.8463 656.712 28.3644 658.157 27.5784L657.679 26.7ZM685.299 25.088L685.995 24.3702L685.99 24.3651L685.299 25.088ZM685.325 38.764L686.037 39.4658L685.325 38.764ZM671.493 38.764L670.785 39.4711L671.493 38.764ZM673.443 34.994L674.324 34.5214L674.321 34.5169L673.443 34.994ZM681.373 37.126L681.891 37.9812L681.897 37.9777L681.373 37.126ZM683.375 28.806L684.264 28.3486L684.261 28.3434L683.375 28.806ZM675.445 26.674L674.926 25.8188L674.92 25.8223L675.445 26.674ZM668.789 31.9H669.789C669.789 29.3745 670.703 27.2979 672.241 25.8057L671.545 25.088L670.848 24.3703C668.902 26.2581 667.789 28.8615 667.789 31.9H668.789ZM671.545 25.088L672.241 25.8057C673.783 24.3095 675.92 23.436 678.409 23.436V22.436V21.436C675.437 21.436 672.79 22.4865 670.848 24.3703L671.545 25.088ZM678.409 22.436V23.436C680.945 23.436 683.034 24.3068 684.608 25.8109L685.299 25.088L685.99 24.3651C684.027 22.4892 681.436 21.436 678.409 21.436V22.436ZM685.299 25.088L684.602 25.8057C686.135 27.2931 687.029 29.3673 687.029 31.9H688.029H689.029C689.029 28.8687 687.946 26.2629 685.995 24.3703L685.299 25.088ZM688.029 31.9H687.029C687.029 34.3811 686.134 36.5169 684.612 38.0622L685.325 38.764L686.037 39.4658C687.947 37.5271 689.029 34.8789 689.029 31.9H688.029ZM685.325 38.764L684.612 38.0622C683.1 39.5968 680.973 40.494 678.409 40.494V41.494V42.494C681.46 42.494 684.117 41.4152 686.037 39.4658L685.325 38.764ZM678.409 41.494V40.494C675.849 40.494 673.742 39.5996 672.2 38.0569L671.493 38.764L670.785 39.4711C672.727 41.4124 675.352 42.494 678.409 42.494V41.494ZM671.493 38.764L672.2 38.0569C670.661 36.518 669.789 34.3877 669.789 31.9H668.789H667.789C667.789 34.8723 668.84 37.526 670.785 39.4711L671.493 38.764ZM672.715 31.9H671.715C671.715 33.2101 671.978 34.3929 672.564 35.4711L673.443 34.994L674.321 34.5169C673.919 33.7751 673.715 32.9299 673.715 31.9H672.715ZM673.443 34.994L672.561 35.4666C673.696 37.583 675.775 38.906 678.409 38.906V37.906V36.906C676.518 36.906 675.113 35.993 674.324 34.5214L673.443 34.994ZM678.409 37.906V38.906C679.688 38.906 680.859 38.6065 681.891 37.9812L681.373 37.126L680.854 36.2708C680.17 36.6855 679.365 36.906 678.409 36.906V37.906ZM681.373 37.126L681.897 37.9777C683.917 36.7345 685.077 34.5189 685.077 31.9H684.077H683.077C683.077 33.9091 682.208 35.4375 680.848 36.2743L681.373 37.126ZM684.077 31.9H685.077C685.077 30.5899 684.813 29.4161 684.264 28.3487L683.375 28.806L682.485 29.2633C682.872 30.0159 683.077 30.8701 683.077 31.9H684.077ZM683.375 28.806L684.261 28.3434C683.15 26.2137 681.063 24.894 678.409 24.894V25.894V26.894C680.33 26.894 681.727 27.8103 682.488 29.2686L683.375 28.806ZM678.409 25.894V24.894C677.129 24.894 675.958 25.1935 674.926 25.8188L675.445 26.674L675.963 27.5292C676.647 27.1145 677.452 26.894 678.409 26.894V25.894ZM675.445 26.674L674.92 25.8223C672.907 27.0611 671.715 29.2719 671.715 31.9H672.715H673.715C673.715 29.9001 674.602 28.3669 675.969 27.5257L675.445 26.674ZM704.891 41V42H706.807L705.711 40.428L704.891 41ZM700.497 41L699.657 41.5424L699.952 42H700.497V41ZM696.233 34.396L697.073 33.8536L696.777 33.396H696.233V34.396ZM694.621 34.396V33.396H693.621V34.396H694.621ZM694.621 41V42H695.621V41H694.621ZM690.903 41H689.903V42H690.903V41ZM690.903 22.8V21.8H689.903V22.8H690.903ZM700.679 23.528L700.241 24.427L700.246 24.4293L700.679 23.528ZM702.993 31.614L702.149 31.0771L702.141 31.0897L702.133 31.1025L702.993 31.614ZM699.977 33.954L699.666 33.0035L698.386 33.4218L699.157 34.526L699.977 33.954ZM694.621 25.972V24.972H693.621V25.972H694.621ZM694.621 31.432H693.621V32.432H694.621V31.432ZM704.891 41V40H700.497V41V42H704.891V41ZM700.497 41L701.337 40.4576L697.073 33.8536L696.233 34.396L695.393 34.9384L699.657 41.5424L700.497 41ZM696.233 34.396V33.396H694.621V34.396V35.396H696.233V34.396ZM694.621 34.396H693.621V41H694.621H695.621V34.396H694.621ZM694.621 41V40H690.903V41V42H694.621V41ZM690.903 41H691.903V22.8H690.903H689.903V41H690.903ZM690.903 22.8V23.8H697.013V22.8V21.8H690.903V22.8ZM697.013 22.8V23.8C698.338 23.8 699.4 24.0175 700.241 24.427L700.679 23.528L701.117 22.629C699.929 22.0505 698.547 21.8 697.013 21.8V22.8ZM700.679 23.528L700.246 24.4293C701.889 25.2192 702.799 26.6553 702.799 28.598H703.799H704.799C704.799 25.9127 703.472 23.7608 701.112 22.6267L700.679 23.528ZM703.799 28.598H702.799C702.799 29.5877 702.575 30.4074 702.149 31.0771L702.993 31.614L703.836 32.1509C704.502 31.1046 704.799 29.8963 704.799 28.598H703.799ZM702.993 31.614L702.133 31.1025C701.616 31.9721 700.805 32.6312 699.666 33.0035L699.977 33.954L700.287 34.9045C701.853 34.3928 703.07 33.4399 703.852 32.1255L702.993 31.614ZM699.977 33.954L699.157 34.526L704.071 41.572L704.891 41L705.711 40.428L700.797 33.382L699.977 33.954ZM696.779 25.972V24.972H694.621V25.972V26.972H696.779V25.972ZM694.621 25.972H693.621V31.432H694.621H695.621V25.972H694.621ZM694.621 31.432V32.432H696.779V31.432V30.432H694.621V31.432ZM696.779 31.432V32.432C697.89 32.432 698.938 32.1431 699.727 31.491C700.539 30.8196 700.977 29.844 700.977 28.702H699.977H698.977C698.977 29.302 698.765 29.6914 698.452 29.9495C698.117 30.2269 697.565 30.432 696.779 30.432V31.432ZM699.977 28.702H700.977C700.977 27.56 700.539 26.5844 699.727 25.913C698.938 25.2609 697.89 24.972 696.779 24.972V25.972V26.972C697.565 26.972 698.117 27.1771 698.452 27.4545C698.765 27.7126 698.977 28.102 698.977 28.702H699.977ZM718.232 23.918L717.765 24.8026L717.772 24.8059L718.232 23.918ZM721.56 36.71L720.701 36.1979L720.695 36.2077L721.56 36.71ZM707.026 41H706.026V42H707.026V41ZM707.026 22.8V21.8H706.026V22.8H707.026ZM710.822 37.62H709.822V38.62H710.822V37.62ZM710.822 26.18V25.18H709.822V26.18H710.822ZM718.232 23.918L717.772 24.8059C720.267 26.0987 721.756 28.5164 721.756 31.9H722.756H723.756C723.756 27.8476 721.917 24.7013 718.692 23.0301L718.232 23.918ZM722.756 31.9H721.756C721.756 33.6044 721.397 35.0309 720.701 36.1979L721.56 36.71L722.419 37.2221C723.335 35.6851 723.756 33.8876 723.756 31.9H722.756ZM721.56 36.71L720.695 36.2077C719.321 38.5734 716.75 40 713.214 40V41V42C717.322 42 720.627 40.3067 722.424 37.2123L721.56 36.71ZM713.214 41V40H707.026V41V42H713.214V41ZM707.026 41H708.026V22.8H707.026H706.026V41H707.026ZM707.026 22.8V23.8H713.214V22.8V21.8H707.026V22.8ZM713.214 22.8V23.8C714.986 23.8 716.508 24.1397 717.765 24.8026L718.232 23.918L718.698 23.0334C717.095 22.1883 715.238 21.8 713.214 21.8V22.8ZM710.822 37.62V38.62H713.084V37.62V36.62H710.822V37.62ZM713.084 37.62V38.62C714.962 38.62 716.691 38.103 717.961 36.9406C719.245 35.7651 719.934 34.0445 719.934 31.9H718.934H717.934C717.934 33.6035 717.4 34.7429 716.611 35.4654C715.807 36.201 714.612 36.62 713.084 36.62V37.62ZM718.934 31.9H719.934C719.934 29.7555 719.245 28.0349 717.961 26.8594C716.691 25.697 714.962 25.18 713.084 25.18V26.18V27.18C714.612 27.18 715.807 27.599 716.611 28.3346C717.4 29.0571 717.934 30.1965 717.934 31.9H718.934ZM713.084 26.18V25.18H710.822V26.18V27.18H713.084V26.18ZM710.822 26.18H709.822V37.62H710.822H711.822V26.18H710.822ZM726.625 35.254L725.627 35.3144L725.684 36.254H726.625V35.254ZM725.871 22.8V21.8H724.809L724.873 22.8604L725.871 22.8ZM730.031 22.8L731.029 22.8604L731.094 21.8H730.031V22.8ZM729.277 35.254V36.254H730.218L730.275 35.3144L729.277 35.254ZM726.625 35.254L727.623 35.1936L726.869 22.7396L725.871 22.8L724.873 22.8604L725.627 35.3144L726.625 35.254ZM725.871 22.8V23.8H730.031V22.8V21.8H725.871V22.8ZM730.031 22.8L729.033 22.7396L728.279 35.1936L729.277 35.254L730.275 35.3144L731.029 22.8604L730.031 22.8ZM729.277 35.254V34.254H726.625V35.254V36.254H729.277V35.254ZM725.819 39.57H726.819C726.819 39.0521 727.205 38.594 727.951 38.594V37.594V36.594C726.254 36.594 724.819 37.7999 724.819 39.57H725.819ZM727.951 37.594V38.594C728.715 38.594 729.083 39.0444 729.083 39.57H730.083H731.083C731.083 37.8076 729.683 36.594 727.951 36.594V37.594ZM730.083 39.57H729.083C729.083 40.0956 728.715 40.546 727.951 40.546V41.546V42.546C729.683 42.546 731.083 41.3324 731.083 39.57H730.083ZM727.951 41.546V40.546C727.205 40.546 726.819 40.0879 726.819 39.57H725.819H724.819C724.819 41.3401 726.254 42.546 727.951 42.546V41.546Z" fill="white" mask="url(#path-3-inside-1_22_253)"/>
</g>
</g>
<rect x="1" y="0.5" width="763" height="63" rx="11.5" stroke="white"/>
<defs>
<filter id="filter0_d_22_253" x="-13.2168" y="-21.266" width="789.3" height="115.738" filterUnits="userSpaceOnUse" color-interpolation-filters="sRGB">
<feFlood flood-opacity="0" result="BackgroundImageFix"/>
<feColorMatrix in="SourceAlpha" type="matrix" values="0 0 0 0 0 0 0 0 0 0 0 0 0 0 0 0 0 0 127 0" result="hardAlpha"/>
<feOffset dy="3"/>
<feGaussianBlur stdDeviation="23"/>
<feComposite in2="hardAlpha" operator="out"/>
<feColorMatrix type="matrix" values="0 0 0 0 1 0 0 0 0 1 0 0 0 0 1 0 0 0 0.35 0"/>
<feBlend mode="normal" in2="BackgroundImageFix" result="effect1_dropShadow_22_253"/>
<feBlend mode="normal" in="SourceGraphic" in2="effect1_dropShadow_22_253" result="shape"/>
</filter>
<linearGradient id="paint0_linear_22_253" x1="0.5" y1="0" x2="570.665" y2="365.979" gradientUnits="userSpaceOnUse">
<stop stop-color="#8E8E8E"/>
<stop offset="0.221154" stop-color="white"/>
<stop offset="0.394231" stop-color="#BCBCBC"/>
<stop offset="0.706735" stop-color="white"/>
<stop offset="0.961538" stop-color="#878787"/>
</linearGradient>
<linearGradient id="paint1_linear_22_253" x1="1.13245" y1="-1.02073e-06" x2="359.635" y2="414.617" gradientUnits="userSpaceOnUse">
<stop stop-color="#141414"/>
<stop offset="0.197709" stop-color="#2C2C2C"/>
<stop offset="0.586538" stop-color="#141414"/>
<stop offset="0.76544" stop-color="#2C2C2C"/>
<stop offset="0.908654" stop-color="#141414"/>
</linearGradient>
<linearGradient id="paint2_linear_22_253" x1="382.5" y1="16" x2="382.5" y2="48" gradientUnits="userSpaceOnUse">
<stop offset="0.144311"/>
<stop offset="0.703631" stop-color="#141414"/>
</linearGradient>
<linearGradient id="paint3_linear_22_253" x1="382.5" y1="16" x2="382.5" y2="48" gradientUnits="userSpaceOnUse">
<stop offset="0.144311" stop-color="white"/>
<stop offset="0.703631" stop-color="#B4B4B4"/>
</linearGradient>
<clipPath id="clip0_22_253">
<rect x="0.5" width="764" height="64" rx="12" fill="white"/>
</clipPath>
</defs>
</svg>
